M48
; DRILL file {KiCad 7.0.7} date 2023 September 21, Thursday 00:46:50
; FORMAT={-:-/ absolute / inch / decimal}
; #@! TF.CreationDate,2023-09-21T00:46:50-05:00
; #@! TF.GenerationSoftware,Kicad,Pcbnew,7.0.7
; #@! TF.FileFunction,MixedPlating,1,2
FMAT,2
INCH
; #@! TA.AperFunction,Plated,PTH,ViaDrill
T1C0.0130
; #@! TA.AperFunction,Plated,PTH,ComponentDrill
T2C0.0354
; #@! TA.AperFunction,Plated,PTH,ComponentDrill
T3C0.0394
; #@! TA.AperFunction,Plated,PTH,ComponentDrill
T4C0.0701
; #@! TA.AperFunction,NonPlated,NPTH,ComponentDrill
T5C0.0354
; #@! TA.AperFunction,NonPlated,NPTH,ComponentDrill
T6C0.0402
; #@! TA.AperFunction,NonPlated,NPTH,ComponentDrill
T7C0.0709
; #@! TA.AperFunction,NonPlated,NPTH,ComponentDrill
T8C0.1181
%
G90
G05
T1
X4.3642Y-2.8965
X4.3646Y-2.8567
X4.4724Y-4.6772
X4.4803Y-4.9213
X4.4823Y-4.5906
X4.5886Y-4.3543
X4.5886Y-4.6791
X4.6772Y-4.6457
X4.689Y-4.9713
X4.7339Y-2.815
X4.735Y-2.8591
X4.7402Y-4.6457
X4.748Y-4.9685
X4.752Y-4.3543
X4.776Y-2.3965
X4.7815Y-4.9213
X4.8169Y-3.8346
X4.8382Y-4.5327
X4.8433Y-3.0386
X4.8661Y-4.4646
X4.8661Y-4.9528
X4.8902Y-3.7094
X4.9035Y-4.6791
X4.9307Y-2.8488
X4.937Y-4.9843
X4.9472Y-3.7217
X4.9472Y-3.7685
X5.0Y-3.7752
X5.0591Y-5.0988
X5.0965Y-4.9213
X5.1063Y-5.1626
X5.1098Y-3.4492
X5.1772Y-3.6142
X5.2067Y-4.9902
X5.2116Y-4.6801
X5.2165Y-3.7677
X5.2165Y-4.2283
X5.2441Y-3.6339
X5.2598Y-2.7087
X5.4114Y-4.9232
X5.4413Y-2.724
X5.4528Y-2.6358
X5.4795Y-4.3461
X5.4886Y-2.2205
X5.5118Y-4.7047
X5.5126Y-4.1831
X5.5126Y-4.2516
X5.5276Y-5.0315
X5.539Y-2.2205
X5.5433Y-4.9291
X5.7087Y-4.3776
X5.7953Y-4.7402
X5.8465Y-4.3268
X5.8465Y-4.5079
X5.8677Y-4.272
X5.8724Y-4.8654
X5.9154Y-4.5008
T2
X4.2583Y-5.1841
X4.3583Y-5.1841
X4.4583Y-5.1841
X5.6323Y-4.9646
X5.7323Y-4.9646
T3
X5.5102Y-2.0496
X5.5102Y-2.1496
X5.6102Y-2.0496
X5.6102Y-2.1496
X5.9921Y-4.9055
X5.9921Y-5.0055
T4
X4.2913Y-2.4783
X4.2913Y-2.7783
X4.2913Y-3.8583
X4.2913Y-4.1583
X5.0Y-2.4803
X5.0Y-2.7803
X5.0Y-3.8602
X5.0Y-4.1602
X5.7087Y-2.4783
X5.7087Y-2.7783
X5.7087Y-3.8583
X5.7087Y-4.1583
T5
X4.0591Y-2.509
X4.0591Y-2.6271
T6
X4.5Y-2.5331
X4.5Y-2.6331
X4.5Y-2.7331
X4.5Y-2.8331
X4.5Y-2.9331
X4.5Y-3.0331
X4.5Y-3.1331
X4.5Y-3.2331
X4.5Y-3.3331
X4.5Y-3.4331
X4.5Y-3.5331
X4.5Y-3.6331
X4.5Y-3.7331
X4.5Y-3.8331
X4.5Y-3.9331
X4.5Y-4.0331
X4.6Y-2.5331
X4.6Y-2.6331
X4.6Y-2.7331
X4.6Y-2.8331
X4.6Y-2.9331
X4.6Y-3.0331
X4.6Y-3.1331
X4.6Y-3.2331
X4.6Y-3.3331
X4.6Y-3.4331
X4.6Y-3.5331
X4.6Y-3.6331
X4.6Y-3.7331
X4.6Y-3.8331
X4.6Y-3.9331
X4.6Y-4.0331
X5.4Y-2.9331
X5.4Y-3.0331
X5.4Y-3.1331
X5.4Y-3.2331
X5.4Y-3.3331
X5.4Y-3.4331
X5.4Y-3.5331
X5.4Y-3.6331
X5.4Y-3.7331
X5.4Y-3.8331
X5.4Y-3.9331
X5.4Y-4.0331
X5.5Y-2.9331
X5.5Y-3.0331
X5.5Y-3.1331
X5.5Y-3.2331
X5.5Y-3.3331
X5.5Y-3.4331
X5.5Y-3.5331
X5.5Y-3.6331
X5.5Y-3.7331
X5.5Y-3.8331
X5.5Y-3.9331
X5.5Y-4.0331
T7
X4.55Y-2.5831
X4.55Y-3.1831
X4.55Y-3.3831
X4.55Y-3.9831
X5.45Y-2.9831
X5.45Y-3.9831
T8
X4.0748Y-2.1063
X4.0748Y-5.2165
X5.9252Y-2.1063
X5.9252Y-5.2165
T0
M30
