G04 #@! TF.GenerationSoftware,KiCad,Pcbnew,7.0.7*
G04 #@! TF.CreationDate,2023-09-21T00:46:48-05:00*
G04 #@! TF.ProjectId,particle-bamf23-badge,70617274-6963-46c6-952d-62616d663233,v1.0*
G04 #@! TF.SameCoordinates,Original*
G04 #@! TF.FileFunction,Profile,NP*
%FSLAX46Y46*%
G04 Gerber Fmt 4.6, Leading zero omitted, Abs format (unit mm)*
G04 Created by KiCad (PCBNEW 7.0.7) date 2023-09-21 00:46:48*
%MOMM*%
%LPD*%
G01*
G04 APERTURE LIST*
G04 #@! TA.AperFunction,Profile*
%ADD10C,0.150000*%
G04 #@! TD*
G04 APERTURE END LIST*
D10*
X100000000Y-68328885D02*
X100000000Y-133000000D01*
X151500000Y-110500000D02*
X150500000Y-110500000D01*
X100089067Y-68162485D02*
G75*
G03*
X100000000Y-68328885I110933J-166415D01*
G01*
X151500000Y-118500000D02*
X144000000Y-118500000D01*
X130800000Y-52000000D02*
X123200000Y-52000000D01*
X100000000Y-53000000D02*
X100000000Y-62128885D01*
X140000000Y-135999999D02*
G75*
G03*
X140868242Y-135496139I0J999999D01*
G01*
X143500000Y-118000000D02*
X143500000Y-111000000D01*
X100110557Y-62307770D02*
X101589443Y-63400000D01*
X151500000Y-118500000D02*
G75*
G03*
X152000000Y-118000000I0J500000D01*
G01*
X154000000Y-53000000D02*
X154000000Y-133000000D01*
X151000000Y-136000000D02*
G75*
G03*
X154000000Y-133000000I0J3000000D01*
G01*
X143500000Y-111000000D02*
G75*
G03*
X142500000Y-111000000I-500000J0D01*
G01*
X144300000Y-132400001D02*
G75*
G03*
X141788063Y-133850805I0J-2899999D01*
G01*
X123200000Y-52000000D02*
G75*
G03*
X123200000Y-54400000I0J-1200000D01*
G01*
X146811938Y-133850805D02*
X147731757Y-135496139D01*
X130800000Y-54400000D02*
G75*
G03*
X130800000Y-52000000I0J1200000D01*
G01*
X151500000Y-119500000D02*
G75*
G03*
X153000000Y-118000000I0J1500000D01*
G01*
X153000000Y-111000000D02*
G75*
G03*
X151500000Y-109500000I-1500000J0D01*
G01*
X100000000Y-133000000D02*
G75*
G03*
X103000000Y-136000000I3000000J0D01*
G01*
X150500000Y-109500000D02*
G75*
G03*
X150500000Y-110500000I0J-500000D01*
G01*
X101700013Y-63578885D02*
G75*
G03*
X101589443Y-63400000I-200013J-15D01*
G01*
X123200000Y-54400000D02*
X130800000Y-54400000D01*
X152000000Y-111000000D02*
G75*
G03*
X151500000Y-110500000I-500000J0D01*
G01*
X103000000Y-50000000D02*
X151000000Y-50000000D01*
X152000000Y-111000000D02*
X152000000Y-118000000D01*
X153000000Y-118000000D02*
X153000000Y-111000000D01*
X103000000Y-50000000D02*
G75*
G03*
X100000000Y-53000000I0J-3000000D01*
G01*
X154000000Y-53000000D02*
G75*
G03*
X151000000Y-50000000I-3000000J0D01*
G01*
X150500000Y-109500000D02*
X151500000Y-109500000D01*
X101589449Y-67057782D02*
G75*
G03*
X101700000Y-66878885I-89449J178882D01*
G01*
X101700000Y-63578885D02*
X101700000Y-66878885D01*
X142500000Y-118000000D02*
G75*
G03*
X144000000Y-119500000I1500000J0D01*
G01*
X101589443Y-67057770D02*
X100089060Y-68162475D01*
X103000000Y-136000000D02*
X140000000Y-136000000D01*
X142500000Y-111000000D02*
X142500000Y-118000000D01*
X147731757Y-135496139D02*
G75*
G03*
X148600000Y-136000000I868243J496139D01*
G01*
X141788062Y-133850805D02*
X140868243Y-135496139D01*
X148600000Y-136000000D02*
X151000000Y-136000000D01*
X143500000Y-118000000D02*
G75*
G03*
X144000000Y-118500000I500000J0D01*
G01*
X144000000Y-119500000D02*
X151500000Y-119500000D01*
X146811938Y-133850805D02*
G75*
G03*
X144300000Y-132400000I-2511938J-1449195D01*
G01*
X100000014Y-62128885D02*
G75*
G03*
X100110557Y-62307770I199986J-15D01*
G01*
M02*
