G04 #@! TF.GenerationSoftware,KiCad,Pcbnew,7.0.7*
G04 #@! TF.CreationDate,2023-09-21T00:46:47-05:00*
G04 #@! TF.ProjectId,particle-bamf23-badge,70617274-6963-46c6-952d-62616d663233,v1.0*
G04 #@! TF.SameCoordinates,Original*
G04 #@! TF.FileFunction,Copper,L2,Bot*
G04 #@! TF.FilePolarity,Positive*
%FSLAX46Y46*%
G04 Gerber Fmt 4.6, Leading zero omitted, Abs format (unit mm)*
G04 Created by KiCad (PCBNEW 7.0.7) date 2023-09-21 00:46:47*
%MOMM*%
%LPD*%
G01*
G04 APERTURE LIST*
G04 Aperture macros list*
%AMRoundRect*
0 Rectangle with rounded corners*
0 $1 Rounding radius*
0 $2 $3 $4 $5 $6 $7 $8 $9 X,Y pos of 4 corners*
0 Add a 4 corners polygon primitive as box body*
4,1,4,$2,$3,$4,$5,$6,$7,$8,$9,$2,$3,0*
0 Add four circle primitives for the rounded corners*
1,1,$1+$1,$2,$3*
1,1,$1+$1,$4,$5*
1,1,$1+$1,$6,$7*
1,1,$1+$1,$8,$9*
0 Add four rect primitives between the rounded corners*
20,1,$1+$1,$2,$3,$4,$5,0*
20,1,$1+$1,$4,$5,$6,$7,0*
20,1,$1+$1,$6,$7,$8,$9,0*
20,1,$1+$1,$8,$9,$2,$3,0*%
G04 Aperture macros list end*
G04 #@! TA.AperFunction,ComponentPad*
%ADD10R,3.200000X3.200000*%
G04 #@! TD*
G04 #@! TA.AperFunction,ComponentPad*
%ADD11C,3.200000*%
G04 #@! TD*
G04 #@! TA.AperFunction,ComponentPad*
%ADD12R,1.800000X1.800000*%
G04 #@! TD*
G04 #@! TA.AperFunction,ComponentPad*
%ADD13C,1.800000*%
G04 #@! TD*
G04 #@! TA.AperFunction,ComponentPad*
%ADD14RoundRect,0.250200X-0.649800X-0.649800X0.649800X-0.649800X0.649800X0.649800X-0.649800X0.649800X0*%
G04 #@! TD*
G04 #@! TA.AperFunction,ComponentPad*
%ADD15R,1.700000X1.700000*%
G04 #@! TD*
G04 #@! TA.AperFunction,ComponentPad*
%ADD16O,1.700000X1.700000*%
G04 #@! TD*
G04 #@! TA.AperFunction,WasherPad*
%ADD17C,4.000000*%
G04 #@! TD*
G04 #@! TA.AperFunction,SMDPad,CuDef*
%ADD18R,0.600000X1.350000*%
G04 #@! TD*
G04 #@! TA.AperFunction,SMDPad,CuDef*
%ADD19R,1.200000X2.000000*%
G04 #@! TD*
G04 #@! TA.AperFunction,ViaPad*
%ADD20C,0.609600*%
G04 #@! TD*
G04 #@! TA.AperFunction,Conductor*
%ADD21C,0.254000*%
G04 #@! TD*
G04 #@! TA.AperFunction,Conductor*
%ADD22C,0.609600*%
G04 #@! TD*
G04 #@! TA.AperFunction,Conductor*
%ADD23C,0.400000*%
G04 #@! TD*
G04 APERTURE END LIST*
D10*
X145000000Y-62950000D03*
D11*
X145000000Y-70570000D03*
X145000000Y-98000000D03*
X145000000Y-105620000D03*
D10*
X127000000Y-63000000D03*
D11*
X127000000Y-70620000D03*
X127000000Y-98050000D03*
X127000000Y-105670000D03*
D10*
X109000000Y-62950000D03*
D11*
X109000000Y-70570000D03*
X109000000Y-98000000D03*
X109000000Y-105620000D03*
D12*
X145600000Y-126100000D03*
D13*
X143060000Y-126100000D03*
D14*
X108160000Y-131675000D03*
D13*
X110700000Y-131675000D03*
X113240000Y-131675000D03*
D15*
X152200000Y-124600000D03*
D16*
X152200000Y-127140000D03*
D17*
X103500000Y-53500000D03*
X150500000Y-132500000D03*
D15*
X139960000Y-52060000D03*
D16*
X139960000Y-54600000D03*
X142500000Y-52060000D03*
X142500000Y-54600000D03*
D17*
X150500000Y-53500000D03*
X103500000Y-132500000D03*
D18*
X128500000Y-131125001D03*
X127500000Y-131125001D03*
X126500000Y-131125001D03*
X125500000Y-131125001D03*
D19*
X124200000Y-134800001D03*
X129800000Y-134800001D03*
D20*
X110850000Y-73570000D03*
X110860000Y-72560000D03*
X120270000Y-72620000D03*
X120240000Y-71500000D03*
X123020000Y-77180000D03*
X149160000Y-123580000D03*
X129700000Y-131130000D03*
X128500000Y-129510000D03*
X139410000Y-56400000D03*
X140690000Y-56400000D03*
X138500000Y-66950000D03*
X127000000Y-95890000D03*
X125240000Y-72360000D03*
X150250000Y-114320000D03*
X125660000Y-94530000D03*
X125660000Y-95720000D03*
X124210000Y-94220000D03*
X147200000Y-120400000D03*
X129790000Y-87609728D03*
X139180000Y-110390000D03*
X131500000Y-91800000D03*
X116550000Y-118850000D03*
X124550000Y-118850000D03*
X132375000Y-118875000D03*
X140000000Y-119500000D03*
X116550000Y-110600000D03*
X140400000Y-127800000D03*
X123600000Y-125800000D03*
X120700000Y-110600000D03*
X132250000Y-126750000D03*
X125400000Y-126600000D03*
X138210000Y-69190000D03*
X133600000Y-68800000D03*
X122350000Y-97400000D03*
X133200000Y-92300000D03*
X132500000Y-95700000D03*
X123600000Y-113400000D03*
X113600000Y-118800000D03*
X132500000Y-107400000D03*
X148500000Y-114500000D03*
X148500000Y-109900000D03*
X119100000Y-126270000D03*
X140020000Y-106250000D03*
X118800000Y-118000000D03*
X140020000Y-107990000D03*
X120400000Y-118000000D03*
X120600000Y-126200000D03*
X113850000Y-116600000D03*
X121450000Y-125000000D03*
X122890000Y-115130000D03*
X129450000Y-125000000D03*
X137450000Y-125050000D03*
X113800000Y-125000000D03*
X140800000Y-125200000D03*
X145000000Y-111190000D03*
X149040000Y-108510000D03*
X121310000Y-60870000D03*
D21*
X118200000Y-116600000D02*
X119510000Y-115290000D01*
X119510000Y-115290000D02*
X122730000Y-115290000D01*
X122730000Y-115290000D02*
X122890000Y-115130000D01*
X113850000Y-116600000D02*
X118200000Y-116600000D01*
X112600000Y-117800000D02*
X113600000Y-118800000D01*
X112600000Y-115800000D02*
X112600000Y-117800000D01*
X115000000Y-113400000D02*
X112600000Y-115800000D01*
X123600000Y-113400000D02*
X115000000Y-113400000D01*
D22*
X145000000Y-98000000D02*
X145000000Y-95250000D01*
D21*
X145000000Y-110500000D02*
X145000000Y-111190000D01*
X149040000Y-108510000D02*
X146990000Y-108510000D01*
X146990000Y-108510000D02*
X145000000Y-110500000D01*
X136200000Y-109800000D02*
X136200000Y-112600000D01*
X140020000Y-106250000D02*
X139750000Y-106250000D01*
X139750000Y-106250000D02*
X136200000Y-109800000D01*
X136200000Y-112600000D02*
X132400000Y-116400000D01*
X132400000Y-116400000D02*
X120400000Y-116400000D01*
X120400000Y-116400000D02*
X118800000Y-118000000D01*
X139600000Y-108000000D02*
X140010000Y-108000000D01*
X140010000Y-108000000D02*
X140020000Y-107990000D01*
X131460000Y-94040000D02*
X131460000Y-107280000D01*
X131460000Y-107280000D02*
X130240000Y-108500000D01*
X123590000Y-108500000D02*
X122350000Y-107260000D01*
X130240000Y-108500000D02*
X123590000Y-108500000D01*
X133200000Y-92300000D02*
X131460000Y-94040000D01*
X122350000Y-107260000D02*
X122350000Y-97400000D01*
D23*
X139980000Y-52100000D02*
X138830000Y-52100000D01*
X138140000Y-57410000D02*
X138500000Y-57770000D01*
X138500000Y-57770000D02*
X138500000Y-66950000D01*
X138830000Y-52100000D02*
X138140000Y-52790000D01*
X138140000Y-52790000D02*
X138140000Y-57410000D01*
X121310000Y-60870000D02*
X121880000Y-60300000D01*
X121880000Y-60300000D02*
X138500000Y-60300000D01*
X138500000Y-60300000D02*
X138500000Y-66950000D01*
D21*
X138210000Y-69190000D02*
X137820000Y-68800000D01*
X137820000Y-68800000D02*
X133600000Y-68800000D01*
D22*
X127000000Y-95710000D02*
X127000000Y-97195200D01*
X127000000Y-95690000D02*
X127000000Y-82400000D01*
X127010000Y-95700000D02*
X127000000Y-95690000D01*
X127000000Y-95710000D02*
X127010000Y-95700000D01*
X125240000Y-72360000D02*
X125795200Y-71804800D01*
X125795200Y-71804800D02*
X127000000Y-71804800D01*
X125240000Y-72380000D02*
X125240000Y-72360000D01*
D21*
X129790000Y-87609728D02*
X131500000Y-89000000D01*
X131500000Y-89000000D02*
X131500000Y-91800000D01*
X142780000Y-120400000D02*
X139160000Y-116780000D01*
X139180000Y-110390000D02*
X139160000Y-110410000D01*
X139160000Y-110410000D02*
X139160000Y-116780000D01*
X147200000Y-120400000D02*
X142780000Y-120400000D01*
X132400000Y-118850000D02*
X132375000Y-118875000D01*
X116550000Y-110600000D02*
X120700000Y-110600000D01*
X140000000Y-119500000D02*
X139350000Y-118850000D01*
X125400000Y-126600000D02*
X124400000Y-126600000D01*
X139350000Y-118850000D02*
X132400000Y-118850000D01*
X124550000Y-118850000D02*
X124000000Y-119400000D01*
X124000000Y-119400000D02*
X117100000Y-119400000D01*
X140400000Y-127800000D02*
X133300000Y-127800000D01*
X132350000Y-118850000D02*
X132375000Y-118875000D01*
X124400000Y-126600000D02*
X123600000Y-125800000D01*
X124550000Y-118850000D02*
X132350000Y-118850000D01*
X133300000Y-127800000D02*
X132250000Y-126750000D01*
X117100000Y-119400000D02*
X116550000Y-118850000D01*
X132500000Y-107400000D02*
X132500000Y-95700000D01*
X119100000Y-126270000D02*
X119100000Y-126500000D01*
X148500000Y-114500000D02*
X148500000Y-109900000D01*
X124985579Y-129400000D02*
X125500000Y-129914421D01*
X125500000Y-129914421D02*
X125500000Y-131125001D01*
X119100000Y-126500000D02*
X122000000Y-129400000D01*
X122000000Y-129400000D02*
X124985579Y-129400000D01*
X132918420Y-117400000D02*
X121000000Y-117400000D01*
X137200000Y-113118420D02*
X132918420Y-117400000D01*
X122600000Y-128200000D02*
X125400000Y-128200000D01*
X120600000Y-126200000D02*
X122600000Y-128200000D01*
X126500000Y-129300000D02*
X126500000Y-131125001D01*
X121000000Y-117400000D02*
X120400000Y-118000000D01*
X137200000Y-110400000D02*
X137200000Y-113118420D01*
X125400000Y-128200000D02*
X126500000Y-129300000D01*
X139600000Y-108000000D02*
X137200000Y-110400000D01*
X137400000Y-125000000D02*
X137450000Y-125050000D01*
X121450000Y-125000000D02*
X129450000Y-125000000D01*
X113800000Y-125000000D02*
X121450000Y-125000000D01*
X129450000Y-125000000D02*
X137400000Y-125000000D01*
X148060000Y-127140000D02*
X147210000Y-127990000D01*
X143060000Y-126780000D02*
X143060000Y-126100000D01*
X147210000Y-127990000D02*
X144270000Y-127990000D01*
X144270000Y-127990000D02*
X143060000Y-126780000D01*
X152200000Y-127140000D02*
X148060000Y-127140000D01*
D22*
X119320000Y-78300000D02*
X125240000Y-72380000D01*
X112800000Y-78300000D02*
X119320000Y-78300000D01*
X109000000Y-98000000D02*
X109000000Y-82100000D01*
X109000000Y-82100000D02*
X112800000Y-78300000D01*
X127000000Y-98050000D02*
X127000000Y-95710000D01*
X138830000Y-70570000D02*
X145000000Y-70570000D01*
X127000000Y-82400000D02*
X138830000Y-70570000D01*
X127000000Y-98050000D02*
X127000000Y-105670000D01*
D21*
X141400000Y-124600000D02*
X140800000Y-125200000D01*
X139400000Y-126600000D02*
X133834934Y-126600000D01*
X127500000Y-128700000D02*
X127500000Y-131125001D01*
X133299134Y-126064200D02*
X130135800Y-126064200D01*
X138500000Y-66950000D02*
X138450000Y-67000000D01*
X133834934Y-126600000D02*
X133299134Y-126064200D01*
X140800000Y-125200000D02*
X139400000Y-126600000D01*
X130135800Y-126064200D02*
X127500000Y-128700000D01*
X152200000Y-124600000D02*
X141400000Y-124600000D01*
G04 #@! TA.AperFunction,Conductor*
G36*
X151001047Y-50075559D02*
G01*
X151325329Y-50093771D01*
X151329522Y-50094243D01*
X151648681Y-50148470D01*
X151652796Y-50149409D01*
X151963867Y-50239027D01*
X151967850Y-50240421D01*
X152266940Y-50364308D01*
X152270742Y-50366139D01*
X152554082Y-50522735D01*
X152557650Y-50524977D01*
X152672697Y-50606607D01*
X152821674Y-50712312D01*
X152824969Y-50714940D01*
X153066363Y-50930662D01*
X153069337Y-50933636D01*
X153284867Y-51174815D01*
X153285056Y-51175026D01*
X153287687Y-51178325D01*
X153475019Y-51442344D01*
X153477264Y-51445917D01*
X153633860Y-51729257D01*
X153635691Y-51733059D01*
X153759578Y-52032149D01*
X153760972Y-52036132D01*
X153850590Y-52347203D01*
X153851529Y-52351318D01*
X153905756Y-52670477D01*
X153906228Y-52674670D01*
X153924441Y-52998950D01*
X153924500Y-53001059D01*
X153924500Y-132998939D01*
X153924441Y-133001048D01*
X153906228Y-133325329D01*
X153905756Y-133329522D01*
X153851529Y-133648681D01*
X153850590Y-133652796D01*
X153760972Y-133963867D01*
X153759578Y-133967850D01*
X153635691Y-134266940D01*
X153633860Y-134270742D01*
X153477264Y-134554082D01*
X153475019Y-134557655D01*
X153287687Y-134821674D01*
X153285056Y-134824973D01*
X153069342Y-135066358D01*
X153066358Y-135069342D01*
X152824973Y-135285056D01*
X152821674Y-135287687D01*
X152557655Y-135475019D01*
X152554082Y-135477264D01*
X152270742Y-135633860D01*
X152266940Y-135635691D01*
X151967850Y-135759578D01*
X151963867Y-135760972D01*
X151652796Y-135850590D01*
X151648681Y-135851529D01*
X151329522Y-135905756D01*
X151325329Y-135906228D01*
X151001048Y-135924441D01*
X150998939Y-135924500D01*
X148601645Y-135924500D01*
X148598370Y-135924356D01*
X148504418Y-135916101D01*
X148445371Y-135910913D01*
X148432410Y-135908618D01*
X148288894Y-135869993D01*
X148276529Y-135865472D01*
X148141951Y-135802412D01*
X148130566Y-135795805D01*
X148009043Y-135710243D01*
X147998984Y-135701751D01*
X147894251Y-135596315D01*
X147885828Y-135586201D01*
X147798367Y-135460205D01*
X147796442Y-135457122D01*
X146895393Y-133845365D01*
X146894335Y-133842544D01*
X146889593Y-133834325D01*
X146889594Y-133834325D01*
X146877583Y-133813506D01*
X146871343Y-133802344D01*
X146869266Y-133798628D01*
X146867635Y-133796263D01*
X146858596Y-133780596D01*
X146799382Y-133677964D01*
X146616082Y-133425518D01*
X146616080Y-133425516D01*
X146616079Y-133425514D01*
X146407399Y-133193632D01*
X146407387Y-133193619D01*
X146175605Y-132984828D01*
X146175590Y-132984815D01*
X145923254Y-132801407D01*
X145923232Y-132801393D01*
X145653089Y-132645369D01*
X145582267Y-132613826D01*
X145368099Y-132518439D01*
X145311368Y-132500000D01*
X148240663Y-132500000D01*
X148259991Y-132794897D01*
X148259991Y-132794901D01*
X148259992Y-132794903D01*
X148317648Y-133084759D01*
X148351025Y-133183086D01*
X148412644Y-133364610D01*
X148442679Y-133425514D01*
X148543357Y-133629669D01*
X148687483Y-133845369D01*
X148707550Y-133875401D01*
X148902406Y-134097593D01*
X149099846Y-134270742D01*
X149124603Y-134292453D01*
X149370331Y-134456643D01*
X149635389Y-134587355D01*
X149915241Y-134682352D01*
X150205097Y-134740008D01*
X150450849Y-134756115D01*
X150499999Y-134759337D01*
X150499999Y-134759336D01*
X150500000Y-134759337D01*
X150794903Y-134740008D01*
X151084759Y-134682352D01*
X151364611Y-134587355D01*
X151629669Y-134456643D01*
X151875397Y-134292453D01*
X152097593Y-134097593D01*
X152292453Y-133875397D01*
X152456643Y-133629669D01*
X152587355Y-133364611D01*
X152682352Y-133084759D01*
X152740008Y-132794903D01*
X152759337Y-132500000D01*
X152740008Y-132205097D01*
X152682352Y-131915241D01*
X152587355Y-131635389D01*
X152456643Y-131370332D01*
X152292453Y-131124603D01*
X152259913Y-131087498D01*
X152097593Y-130902406D01*
X151875401Y-130707550D01*
X151861119Y-130698007D01*
X151629669Y-130543357D01*
X151583320Y-130520500D01*
X151364610Y-130412644D01*
X151150980Y-130340127D01*
X151084759Y-130317648D01*
X151084756Y-130317647D01*
X151084755Y-130317647D01*
X150827706Y-130266517D01*
X150794903Y-130259992D01*
X150794901Y-130259991D01*
X150794897Y-130259991D01*
X150500000Y-130240663D01*
X150205102Y-130259991D01*
X150205097Y-130259992D01*
X149915244Y-130317647D01*
X149635389Y-130412644D01*
X149370335Y-130543355D01*
X149124598Y-130707550D01*
X148902406Y-130902406D01*
X148707550Y-131124598D01*
X148543355Y-131370335D01*
X148412644Y-131635389D01*
X148317647Y-131915244D01*
X148259992Y-132205097D01*
X148259991Y-132205102D01*
X148240663Y-132499999D01*
X148240663Y-132500000D01*
X145311368Y-132500000D01*
X145105801Y-132433186D01*
X145071410Y-132422008D01*
X145071408Y-132422007D01*
X145036478Y-132414580D01*
X144766251Y-132357123D01*
X144766246Y-132357122D01*
X144766244Y-132357122D01*
X144455983Y-132324502D01*
X144455990Y-132324502D01*
X144324531Y-132324500D01*
X144300000Y-132324500D01*
X144275469Y-132324500D01*
X144271755Y-132324500D01*
X144271739Y-132324501D01*
X144144013Y-132324503D01*
X143833755Y-132357123D01*
X143833751Y-132357123D01*
X143833749Y-132357124D01*
X143681173Y-132389565D01*
X143528591Y-132422008D01*
X143528589Y-132422009D01*
X143231901Y-132518440D01*
X142946910Y-132645370D01*
X142676768Y-132801394D01*
X142676746Y-132801408D01*
X142424410Y-132984816D01*
X142424395Y-132984829D01*
X142192613Y-133193620D01*
X142192601Y-133193633D01*
X141983927Y-133425509D01*
X141983921Y-133425516D01*
X141800617Y-133677964D01*
X141742767Y-133778233D01*
X141740814Y-133780596D01*
X141722393Y-133813547D01*
X141705694Y-133842493D01*
X141704634Y-133845311D01*
X141680519Y-133888447D01*
X140898962Y-135286466D01*
X140803567Y-135457104D01*
X140801634Y-135460198D01*
X140714176Y-135586195D01*
X140705751Y-135596311D01*
X140601009Y-135701754D01*
X140590951Y-135710245D01*
X140469431Y-135795806D01*
X140458045Y-135802413D01*
X140323471Y-135865470D01*
X140311108Y-135869991D01*
X140167590Y-135908617D01*
X140154628Y-135910912D01*
X140094858Y-135916164D01*
X140001617Y-135924356D01*
X139998345Y-135924500D01*
X130726353Y-135924500D01*
X130678015Y-135906907D01*
X130652295Y-135862358D01*
X130652598Y-135834628D01*
X130654500Y-135825068D01*
X130654499Y-133774935D01*
X130639734Y-133700700D01*
X130583484Y-133616517D01*
X130499301Y-133560267D01*
X130499299Y-133560266D01*
X130425067Y-133545501D01*
X129174932Y-133545501D01*
X129174931Y-133545502D01*
X129100699Y-133560267D01*
X129016516Y-133616517D01*
X128960266Y-133700699D01*
X128960265Y-133700701D01*
X128945500Y-133774933D01*
X128945500Y-135825066D01*
X128946811Y-135831657D01*
X128947402Y-135834627D01*
X128947403Y-135834628D01*
X128939578Y-135885470D01*
X128900904Y-135919387D01*
X128873648Y-135924500D01*
X125126353Y-135924500D01*
X125078015Y-135906907D01*
X125052295Y-135862358D01*
X125052598Y-135834628D01*
X125054500Y-135825068D01*
X125054499Y-133774935D01*
X125039734Y-133700700D01*
X124983484Y-133616517D01*
X124899301Y-133560267D01*
X124899299Y-133560266D01*
X124825067Y-133545501D01*
X123574932Y-133545501D01*
X123574931Y-133545502D01*
X123500699Y-133560267D01*
X123416516Y-133616517D01*
X123360266Y-133700699D01*
X123360265Y-133700701D01*
X123345500Y-133774933D01*
X123345500Y-135825066D01*
X123346811Y-135831657D01*
X123347402Y-135834627D01*
X123347403Y-135834628D01*
X123339578Y-135885470D01*
X123300904Y-135919387D01*
X123273648Y-135924500D01*
X103001061Y-135924500D01*
X102998952Y-135924441D01*
X102674670Y-135906228D01*
X102670477Y-135905756D01*
X102351318Y-135851529D01*
X102347203Y-135850590D01*
X102036132Y-135760972D01*
X102032149Y-135759578D01*
X101733059Y-135635691D01*
X101729257Y-135633860D01*
X101445917Y-135477264D01*
X101442344Y-135475019D01*
X101178325Y-135287687D01*
X101175026Y-135285056D01*
X100933636Y-135069337D01*
X100930662Y-135066363D01*
X100714940Y-134824969D01*
X100712312Y-134821674D01*
X100524977Y-134557650D01*
X100522735Y-134554082D01*
X100366139Y-134270742D01*
X100364308Y-134266940D01*
X100240421Y-133967850D01*
X100239027Y-133963867D01*
X100149409Y-133652796D01*
X100148470Y-133648681D01*
X100094243Y-133329522D01*
X100093771Y-133325329D01*
X100080260Y-133084759D01*
X100075557Y-133001018D01*
X100075500Y-132998971D01*
X100075500Y-132975469D01*
X100075500Y-132500000D01*
X101240663Y-132500000D01*
X101259991Y-132794897D01*
X101259991Y-132794901D01*
X101259992Y-132794903D01*
X101317648Y-133084759D01*
X101351025Y-133183086D01*
X101412644Y-133364610D01*
X101442679Y-133425514D01*
X101543357Y-133629669D01*
X101687483Y-133845369D01*
X101707550Y-133875401D01*
X101902406Y-134097593D01*
X102099846Y-134270742D01*
X102124603Y-134292453D01*
X102370331Y-134456643D01*
X102635389Y-134587355D01*
X102915241Y-134682352D01*
X103205097Y-134740008D01*
X103450849Y-134756115D01*
X103499999Y-134759337D01*
X103499999Y-134759336D01*
X103500000Y-134759337D01*
X103794903Y-134740008D01*
X104084759Y-134682352D01*
X104364611Y-134587355D01*
X104629669Y-134456643D01*
X104875397Y-134292453D01*
X105097593Y-134097593D01*
X105292453Y-133875397D01*
X105456643Y-133629669D01*
X105587355Y-133364611D01*
X105682352Y-133084759D01*
X105740008Y-132794903D01*
X105759337Y-132500000D01*
X105751018Y-132373072D01*
X107005500Y-132373072D01*
X107010761Y-132422009D01*
X107011963Y-132433183D01*
X107011963Y-132433186D01*
X107027746Y-132475501D01*
X107062680Y-132569164D01*
X107062681Y-132569165D01*
X107062681Y-132569166D01*
X107149652Y-132685347D01*
X107212630Y-132732491D01*
X107265836Y-132772320D01*
X107401815Y-132823037D01*
X107461928Y-132829500D01*
X107461936Y-132829500D01*
X108858064Y-132829500D01*
X108858072Y-132829500D01*
X108918185Y-132823037D01*
X109054164Y-132772320D01*
X109170347Y-132685347D01*
X109257320Y-132569164D01*
X109308037Y-132433185D01*
X109314500Y-132373072D01*
X109314500Y-131675000D01*
X109642508Y-131675000D01*
X109662826Y-131881302D01*
X109723007Y-132079690D01*
X109820722Y-132262501D01*
X109820728Y-132262511D01*
X109903665Y-132363570D01*
X110272474Y-131994760D01*
X110319095Y-131973020D01*
X110368782Y-131986334D01*
X110384428Y-132001029D01*
X110385685Y-132002605D01*
X110402082Y-132051360D01*
X110383304Y-132099250D01*
X110380079Y-132102682D01*
X110011427Y-132471333D01*
X110112488Y-132554271D01*
X110112498Y-132554277D01*
X110295309Y-132651992D01*
X110493699Y-132712173D01*
X110493695Y-132712173D01*
X110700000Y-132732491D01*
X110906302Y-132712173D01*
X111104690Y-132651992D01*
X111287506Y-132554274D01*
X111287518Y-132554266D01*
X111388571Y-132471334D01*
X111388571Y-132471333D01*
X111017723Y-132100486D01*
X110995983Y-132053866D01*
X111009297Y-132004179D01*
X111019739Y-131992197D01*
X111021222Y-131990821D01*
X111068619Y-131970843D01*
X111117773Y-131986007D01*
X111125539Y-131992776D01*
X111496333Y-132363571D01*
X111496334Y-132363571D01*
X111579266Y-132262518D01*
X111579274Y-132262506D01*
X111676992Y-132079690D01*
X111737173Y-131881302D01*
X111757491Y-131675002D01*
X112080554Y-131675002D01*
X112100296Y-131888048D01*
X112100297Y-131888054D01*
X112158847Y-132093834D01*
X112158852Y-132093847D01*
X112254216Y-132285366D01*
X112383155Y-132456110D01*
X112383158Y-132456113D01*
X112541275Y-132600256D01*
X112541277Y-132600257D01*
X112541278Y-132600258D01*
X112563191Y-132613826D01*
X112723186Y-132712891D01*
X112723188Y-132712891D01*
X112723190Y-132712893D01*
X112922703Y-132790185D01*
X113133020Y-132829500D01*
X113133025Y-132829500D01*
X113346975Y-132829500D01*
X113346980Y-132829500D01*
X113557297Y-132790185D01*
X113756810Y-132712893D01*
X113938722Y-132600258D01*
X114096841Y-132456114D01*
X114225781Y-132285370D01*
X114321151Y-132093840D01*
X114379704Y-131888048D01*
X114399446Y-131675000D01*
X114395775Y-131635389D01*
X114390062Y-131573735D01*
X114379704Y-131461952D01*
X114321151Y-131256160D01*
X114305635Y-131225000D01*
X114225783Y-131064633D01*
X114096844Y-130893889D01*
X114096841Y-130893886D01*
X113938724Y-130749743D01*
X113756813Y-130637108D01*
X113557298Y-130559815D01*
X113522244Y-130553262D01*
X113346980Y-130520500D01*
X113133020Y-130520500D01*
X113010746Y-130543357D01*
X112922701Y-130559815D01*
X112723187Y-130637108D01*
X112723186Y-130637108D01*
X112541275Y-130749743D01*
X112383158Y-130893886D01*
X112383155Y-130893889D01*
X112254216Y-131064633D01*
X112158852Y-131256152D01*
X112158847Y-131256165D01*
X112100297Y-131461945D01*
X112100296Y-131461951D01*
X112080554Y-131674997D01*
X112080554Y-131675002D01*
X111757491Y-131675002D01*
X111757491Y-131674999D01*
X111737173Y-131468697D01*
X111676992Y-131270309D01*
X111579277Y-131087498D01*
X111579271Y-131087488D01*
X111496333Y-130986427D01*
X111127523Y-131355238D01*
X111080903Y-131376978D01*
X111031216Y-131363664D01*
X111015569Y-131348968D01*
X111014312Y-131347391D01*
X110997916Y-131298638D01*
X111016694Y-131250748D01*
X111019919Y-131247315D01*
X111388570Y-130878665D01*
X111287511Y-130795728D01*
X111287501Y-130795722D01*
X111104690Y-130698007D01*
X110906300Y-130637826D01*
X110906304Y-130637826D01*
X110699999Y-130617508D01*
X110493697Y-130637826D01*
X110295309Y-130698007D01*
X110112498Y-130795722D01*
X110112488Y-130795729D01*
X110011427Y-130878665D01*
X110382275Y-131249512D01*
X110404015Y-131296132D01*
X110390701Y-131345819D01*
X110380248Y-131357813D01*
X110378780Y-131359175D01*
X110331379Y-131379155D01*
X110282225Y-131363991D01*
X110274459Y-131357222D01*
X109903665Y-130986427D01*
X109820729Y-131087488D01*
X109820722Y-131087498D01*
X109723007Y-131270309D01*
X109662826Y-131468697D01*
X109642508Y-131675000D01*
X109314500Y-131675000D01*
X109314500Y-130976928D01*
X109308037Y-130916815D01*
X109257320Y-130780836D01*
X109256965Y-130780362D01*
X109170347Y-130664652D01*
X109054166Y-130577681D01*
X109054164Y-130577680D01*
X108918185Y-130526963D01*
X108918184Y-130526962D01*
X108858073Y-130520500D01*
X108858072Y-130520500D01*
X107461928Y-130520500D01*
X107461926Y-130520500D01*
X107421852Y-130524808D01*
X107401815Y-130526963D01*
X107401813Y-130526963D01*
X107313734Y-130559815D01*
X107265836Y-130577680D01*
X107265835Y-130577680D01*
X107265834Y-130577681D01*
X107265833Y-130577681D01*
X107149652Y-130664652D01*
X107062681Y-130780833D01*
X107062681Y-130780834D01*
X107011963Y-130916813D01*
X107011963Y-130916815D01*
X107005500Y-130976928D01*
X107005500Y-132373072D01*
X105751018Y-132373072D01*
X105740008Y-132205097D01*
X105682352Y-131915241D01*
X105587355Y-131635389D01*
X105456643Y-131370332D01*
X105292453Y-131124603D01*
X105259913Y-131087498D01*
X105097593Y-130902406D01*
X104875401Y-130707550D01*
X104861119Y-130698007D01*
X104629669Y-130543357D01*
X104583320Y-130520500D01*
X104364610Y-130412644D01*
X104150980Y-130340127D01*
X104084759Y-130317648D01*
X104084756Y-130317647D01*
X104084755Y-130317647D01*
X103827706Y-130266517D01*
X103794903Y-130259992D01*
X103794901Y-130259991D01*
X103794897Y-130259991D01*
X103500000Y-130240663D01*
X103205102Y-130259991D01*
X103205097Y-130259992D01*
X102915244Y-130317647D01*
X102635389Y-130412644D01*
X102370335Y-130543355D01*
X102124598Y-130707550D01*
X101902406Y-130902406D01*
X101707550Y-131124598D01*
X101543355Y-131370335D01*
X101412644Y-131635389D01*
X101317647Y-131915244D01*
X101259992Y-132205097D01*
X101259991Y-132205102D01*
X101240663Y-132499999D01*
X101240663Y-132500000D01*
X100075500Y-132500000D01*
X100075500Y-126270000D01*
X118535874Y-126270000D01*
X118555096Y-126416008D01*
X118572274Y-126457477D01*
X118611453Y-126552063D01*
X118611454Y-126552065D01*
X118611455Y-126552066D01*
X118701104Y-126668898D01*
X118748334Y-126705138D01*
X118811431Y-126753554D01*
X118814429Y-126755854D01*
X118817002Y-126758018D01*
X118833115Y-126772852D01*
X118835819Y-126775341D01*
X121696741Y-129636263D01*
X121706522Y-129648306D01*
X121715440Y-129661956D01*
X121740679Y-129681600D01*
X121745149Y-129685079D01*
X121748640Y-129688162D01*
X121752591Y-129692113D01*
X121752595Y-129692117D01*
X121768029Y-129703135D01*
X121771889Y-129705891D01*
X121815915Y-129740158D01*
X121815916Y-129740158D01*
X121821398Y-129743125D01*
X121821261Y-129743377D01*
X121824404Y-129744995D01*
X121824530Y-129744738D01*
X121830126Y-129747473D01*
X121830128Y-129747473D01*
X121830130Y-129747475D01*
X121883589Y-129763390D01*
X121936339Y-129781500D01*
X121936342Y-129781500D01*
X121942483Y-129782525D01*
X121942435Y-129782808D01*
X121945934Y-129783318D01*
X121945970Y-129783034D01*
X121952155Y-129783804D01*
X121952158Y-129783805D01*
X122005907Y-129781581D01*
X122007885Y-129781500D01*
X124796409Y-129781500D01*
X124844747Y-129799093D01*
X124849583Y-129803526D01*
X125096473Y-130050416D01*
X125118213Y-130097036D01*
X125118499Y-130103590D01*
X125118499Y-130158178D01*
X125100906Y-130206516D01*
X125085079Y-130220704D01*
X125016516Y-130266517D01*
X124960266Y-130350699D01*
X124960265Y-130350701D01*
X124945500Y-130424933D01*
X124945500Y-131825068D01*
X124945501Y-131825069D01*
X124955344Y-131874557D01*
X124960266Y-131899302D01*
X125016516Y-131983485D01*
X125100699Y-132039735D01*
X125174933Y-132054501D01*
X125825066Y-132054500D01*
X125825067Y-132054500D01*
X125825067Y-132054499D01*
X125899301Y-132039735D01*
X125958222Y-132000364D01*
X126008186Y-131988138D01*
X126041776Y-132000363D01*
X126100699Y-132039735D01*
X126174933Y-132054501D01*
X126825066Y-132054500D01*
X126825067Y-132054500D01*
X126825067Y-132054499D01*
X126899301Y-132039735D01*
X126958222Y-132000364D01*
X127008186Y-131988138D01*
X127041776Y-132000363D01*
X127100699Y-132039735D01*
X127174933Y-132054501D01*
X127825066Y-132054500D01*
X127825067Y-132054500D01*
X127825067Y-132054499D01*
X127899301Y-132039735D01*
X127983484Y-131983485D01*
X128008626Y-131945857D01*
X128050106Y-131915442D01*
X128101436Y-131918806D01*
X128112930Y-131925112D01*
X128140535Y-131943558D01*
X128140537Y-131943559D01*
X128184987Y-131952401D01*
X128815013Y-131952401D01*
X128859462Y-131943559D01*
X128859464Y-131943558D01*
X128909873Y-131909874D01*
X128943557Y-131859465D01*
X128943558Y-131859463D01*
X128952399Y-131815013D01*
X128952399Y-131685164D01*
X128952398Y-131685162D01*
X128445410Y-131178175D01*
X128423670Y-131131555D01*
X128425427Y-131124999D01*
X128607762Y-131124999D01*
X128607763Y-131125001D01*
X128952399Y-131469637D01*
X128952400Y-130780363D01*
X128952399Y-130780362D01*
X128607762Y-131124999D01*
X128425427Y-131124999D01*
X128436984Y-131081868D01*
X128445410Y-131071826D01*
X128500000Y-131017237D01*
X128952398Y-130564838D01*
X128952399Y-130564836D01*
X128952399Y-130434988D01*
X128943558Y-130390538D01*
X128943557Y-130390536D01*
X128909873Y-130340127D01*
X128859464Y-130306443D01*
X128859462Y-130306442D01*
X128815013Y-130297601D01*
X128184987Y-130297601D01*
X128140537Y-130306442D01*
X128140536Y-130306443D01*
X128112929Y-130324890D01*
X128062963Y-130337116D01*
X128016828Y-130314365D01*
X128008627Y-130304146D01*
X127983484Y-130266517D01*
X127914921Y-130220704D01*
X127914920Y-130220703D01*
X127884504Y-130179219D01*
X127881500Y-130158177D01*
X127881500Y-128889170D01*
X127899093Y-128840832D01*
X127903526Y-128835996D01*
X130271797Y-126467726D01*
X130318417Y-126445986D01*
X130324971Y-126445700D01*
X131658119Y-126445700D01*
X131706457Y-126463293D01*
X131732177Y-126507842D01*
X131727594Y-126549678D01*
X131705097Y-126603988D01*
X131686400Y-126746008D01*
X131685874Y-126750000D01*
X131689057Y-126774180D01*
X131705096Y-126896008D01*
X131711370Y-126911154D01*
X131761453Y-127032063D01*
X131761454Y-127032065D01*
X131761455Y-127032066D01*
X131851102Y-127148897D01*
X131937491Y-127215185D01*
X131967937Y-127238547D01*
X132103993Y-127294904D01*
X132250000Y-127314126D01*
X132250004Y-127314125D01*
X132253025Y-127314523D01*
X132296384Y-127335906D01*
X132996741Y-128036263D01*
X133006522Y-128048306D01*
X133015440Y-128061956D01*
X133041274Y-128082063D01*
X133045149Y-128085079D01*
X133048640Y-128088162D01*
X133052591Y-128092113D01*
X133052595Y-128092117D01*
X133071888Y-128105890D01*
X133106646Y-128132944D01*
X133115915Y-128140158D01*
X133115916Y-128140158D01*
X133121398Y-128143125D01*
X133121261Y-128143377D01*
X133124404Y-128144995D01*
X133124530Y-128144738D01*
X133130126Y-128147473D01*
X133130128Y-128147473D01*
X133130130Y-128147475D01*
X133183589Y-128163390D01*
X133236339Y-128181500D01*
X133236342Y-128181500D01*
X133242483Y-128182525D01*
X133242435Y-128182808D01*
X133245934Y-128183318D01*
X133245970Y-128183034D01*
X133252155Y-128183804D01*
X133252158Y-128183805D01*
X133305907Y-128181581D01*
X133307885Y-128181500D01*
X139952904Y-128181500D01*
X139998683Y-128197040D01*
X140001102Y-128198896D01*
X140001103Y-128198897D01*
X140117937Y-128288547D01*
X140253993Y-128344904D01*
X140400000Y-128364126D01*
X140546007Y-128344904D01*
X140682063Y-128288547D01*
X140798897Y-128198897D01*
X140888547Y-128082063D01*
X140944904Y-127946007D01*
X140964126Y-127800000D01*
X140944904Y-127653993D01*
X140888547Y-127517937D01*
X140888544Y-127517933D01*
X140798897Y-127401102D01*
X140682066Y-127311455D01*
X140682065Y-127311454D01*
X140682063Y-127311453D01*
X140587041Y-127272093D01*
X140546008Y-127255096D01*
X140400000Y-127235874D01*
X140253991Y-127255096D01*
X140157892Y-127294903D01*
X140117937Y-127311453D01*
X140117936Y-127311453D01*
X140117933Y-127311455D01*
X139998683Y-127402960D01*
X139952904Y-127418500D01*
X133489170Y-127418500D01*
X133440832Y-127400907D01*
X133435996Y-127396474D01*
X132835906Y-126796384D01*
X132814523Y-126753025D01*
X132814125Y-126750004D01*
X132814126Y-126750000D01*
X132794904Y-126603993D01*
X132775052Y-126556066D01*
X132772406Y-126549678D01*
X132770161Y-126498288D01*
X132801475Y-126457477D01*
X132841881Y-126445700D01*
X133109964Y-126445700D01*
X133158302Y-126463293D01*
X133163126Y-126467714D01*
X133531683Y-126836272D01*
X133541459Y-126848311D01*
X133550372Y-126861954D01*
X133550373Y-126861955D01*
X133550374Y-126861956D01*
X133574989Y-126881114D01*
X133580078Y-126885075D01*
X133583569Y-126888158D01*
X133587525Y-126892114D01*
X133605881Y-126905219D01*
X133606832Y-126905898D01*
X133650849Y-126940158D01*
X133656333Y-126943126D01*
X133656196Y-126943378D01*
X133659339Y-126944996D01*
X133659466Y-126944738D01*
X133665062Y-126947473D01*
X133665065Y-126947475D01*
X133718516Y-126963388D01*
X133771273Y-126981500D01*
X133771276Y-126981500D01*
X133777418Y-126982525D01*
X133777370Y-126982808D01*
X133780869Y-126983318D01*
X133780905Y-126983034D01*
X133787090Y-126983804D01*
X133787093Y-126983805D01*
X133842829Y-126981500D01*
X139352636Y-126981500D01*
X139368069Y-126983101D01*
X139384017Y-126986445D01*
X139421373Y-126981788D01*
X139426020Y-126981500D01*
X139431609Y-126981500D01*
X139431611Y-126981500D01*
X139450319Y-126978377D01*
X139455005Y-126977596D01*
X139482681Y-126974146D01*
X139510360Y-126970696D01*
X139510361Y-126970695D01*
X139516330Y-126968918D01*
X139516412Y-126969196D01*
X139519785Y-126968116D01*
X139519691Y-126967842D01*
X139525581Y-126965819D01*
X139525581Y-126965818D01*
X139525586Y-126965818D01*
X139574641Y-126939270D01*
X139624746Y-126914776D01*
X139624746Y-126914775D01*
X139629819Y-126911154D01*
X139629987Y-126911390D01*
X139632818Y-126909279D01*
X139632640Y-126909051D01*
X139637554Y-126905224D01*
X139637562Y-126905220D01*
X139675341Y-126864180D01*
X140753616Y-125785905D01*
X140796974Y-125764523D01*
X140799994Y-125764125D01*
X140800000Y-125764126D01*
X140946007Y-125744904D01*
X141082063Y-125688547D01*
X141198897Y-125598897D01*
X141288547Y-125482063D01*
X141344904Y-125346007D01*
X141364126Y-125200000D01*
X141364125Y-125199994D01*
X141364523Y-125196974D01*
X141385904Y-125153616D01*
X141535996Y-125003525D01*
X141582617Y-124981786D01*
X141589171Y-124981500D01*
X142409074Y-124981500D01*
X142457412Y-124999093D01*
X142483132Y-125043642D01*
X142474199Y-125094300D01*
X142448662Y-125120636D01*
X142361275Y-125174743D01*
X142203158Y-125318886D01*
X142203155Y-125318889D01*
X142074216Y-125489633D01*
X141978852Y-125681152D01*
X141978847Y-125681165D01*
X141920297Y-125886945D01*
X141920296Y-125886951D01*
X141900554Y-126099997D01*
X141900554Y-126100002D01*
X141920296Y-126313048D01*
X141920297Y-126313054D01*
X141978847Y-126518834D01*
X141978852Y-126518847D01*
X142074216Y-126710366D01*
X142203155Y-126881110D01*
X142203158Y-126881113D01*
X142361275Y-127025256D01*
X142361277Y-127025257D01*
X142361278Y-127025258D01*
X142372273Y-127032066D01*
X142543186Y-127137891D01*
X142543188Y-127137891D01*
X142543190Y-127137893D01*
X142742703Y-127215185D01*
X142953020Y-127254500D01*
X142963830Y-127254500D01*
X143012168Y-127272093D01*
X143017004Y-127276526D01*
X143966741Y-128226263D01*
X143976522Y-128238306D01*
X143985440Y-128251956D01*
X144015149Y-128275079D01*
X144018640Y-128278162D01*
X144022591Y-128282113D01*
X144022595Y-128282117D01*
X144038029Y-128293135D01*
X144041889Y-128295891D01*
X144085915Y-128330158D01*
X144085916Y-128330158D01*
X144091398Y-128333125D01*
X144091261Y-128333377D01*
X144094404Y-128334995D01*
X144094530Y-128334738D01*
X144100126Y-128337473D01*
X144100128Y-128337473D01*
X144100130Y-128337475D01*
X144153589Y-128353390D01*
X144206339Y-128371500D01*
X144206342Y-128371500D01*
X144212483Y-128372525D01*
X144212435Y-128372808D01*
X144215934Y-128373318D01*
X144215970Y-128373034D01*
X144222155Y-128373804D01*
X144222158Y-128373805D01*
X144275907Y-128371581D01*
X144277885Y-128371500D01*
X147162636Y-128371500D01*
X147178069Y-128373101D01*
X147194017Y-128376445D01*
X147231373Y-128371788D01*
X147236020Y-128371500D01*
X147241609Y-128371500D01*
X147241611Y-128371500D01*
X147260319Y-128368377D01*
X147265005Y-128367596D01*
X147292850Y-128364125D01*
X147320360Y-128360696D01*
X147320361Y-128360695D01*
X147326330Y-128358918D01*
X147326412Y-128359196D01*
X147329785Y-128358116D01*
X147329691Y-128357842D01*
X147335581Y-128355819D01*
X147335581Y-128355818D01*
X147335586Y-128355818D01*
X147384641Y-128329270D01*
X147434746Y-128304776D01*
X147434746Y-128304775D01*
X147439819Y-128301154D01*
X147439987Y-128301390D01*
X147442818Y-128299279D01*
X147442640Y-128299051D01*
X147447554Y-128295224D01*
X147447562Y-128295220D01*
X147485341Y-128254180D01*
X148195997Y-127543525D01*
X148242618Y-127521786D01*
X148249172Y-127521500D01*
X151109549Y-127521500D01*
X151157887Y-127539093D01*
X151176865Y-127563180D01*
X151256910Y-127723933D01*
X151380264Y-127887281D01*
X151380267Y-127887284D01*
X151531535Y-128025184D01*
X151705569Y-128132942D01*
X151705571Y-128132942D01*
X151705573Y-128132944D01*
X151896444Y-128206888D01*
X152097653Y-128244500D01*
X152097658Y-128244500D01*
X152302342Y-128244500D01*
X152302347Y-128244500D01*
X152503556Y-128206888D01*
X152694427Y-128132944D01*
X152868462Y-128025186D01*
X153019732Y-127887285D01*
X153143088Y-127723935D01*
X153234328Y-127540701D01*
X153290345Y-127343821D01*
X153309232Y-127140000D01*
X153290345Y-126936179D01*
X153290343Y-126936173D01*
X153290343Y-126936170D01*
X153244252Y-126774180D01*
X153234328Y-126739299D01*
X153219921Y-126710366D01*
X153143090Y-126556068D01*
X153019735Y-126392718D01*
X153019732Y-126392715D01*
X152868464Y-126254815D01*
X152694430Y-126147057D01*
X152503557Y-126073112D01*
X152470021Y-126066843D01*
X152302347Y-126035500D01*
X152097653Y-126035500D01*
X151963513Y-126060574D01*
X151896442Y-126073112D01*
X151705570Y-126147057D01*
X151705569Y-126147057D01*
X151531535Y-126254815D01*
X151380267Y-126392715D01*
X151380264Y-126392718D01*
X151256910Y-126556066D01*
X151176865Y-126716820D01*
X151139570Y-126752248D01*
X151109549Y-126758500D01*
X148107369Y-126758500D01*
X148091936Y-126756899D01*
X148075987Y-126753554D01*
X148075980Y-126753554D01*
X148057534Y-126755854D01*
X148038622Y-126758211D01*
X148033974Y-126758500D01*
X148028389Y-126758500D01*
X148005004Y-126762402D01*
X147949642Y-126769303D01*
X147943670Y-126771081D01*
X147943589Y-126770808D01*
X147940214Y-126771889D01*
X147940307Y-126772158D01*
X147934417Y-126774180D01*
X147932272Y-126775341D01*
X147885368Y-126800723D01*
X147865232Y-126810566D01*
X147835253Y-126825222D01*
X147830183Y-126828843D01*
X147830018Y-126828612D01*
X147827179Y-126830728D01*
X147827354Y-126830953D01*
X147822439Y-126834778D01*
X147784669Y-126875807D01*
X147074002Y-127586474D01*
X147027383Y-127608214D01*
X147020829Y-127608500D01*
X144459170Y-127608500D01*
X144410832Y-127590907D01*
X144405996Y-127586474D01*
X143859429Y-127039907D01*
X143837689Y-126993287D01*
X143851003Y-126943600D01*
X143861935Y-126931166D01*
X143916841Y-126881114D01*
X144045781Y-126710370D01*
X144141151Y-126518840D01*
X144199704Y-126313048D01*
X144219446Y-126100000D01*
X144216954Y-126073112D01*
X144213469Y-126035500D01*
X144199704Y-125886952D01*
X144141151Y-125681160D01*
X144127623Y-125653991D01*
X144045783Y-125489633D01*
X144040066Y-125482063D01*
X143982548Y-125405896D01*
X143916844Y-125318889D01*
X143916841Y-125318886D01*
X143758724Y-125174743D01*
X143671338Y-125120636D01*
X143639503Y-125080232D01*
X143641087Y-125028816D01*
X143675349Y-124990448D01*
X143710926Y-124981500D01*
X144399223Y-124981500D01*
X144447561Y-124999093D01*
X144473281Y-125043642D01*
X144464348Y-125094300D01*
X144461758Y-125098465D01*
X144460266Y-125100698D01*
X144460266Y-125100699D01*
X144460265Y-125100700D01*
X144445500Y-125174932D01*
X144445500Y-127025067D01*
X144445501Y-127025068D01*
X144446893Y-127032066D01*
X144460266Y-127099301D01*
X144516516Y-127183484D01*
X144600699Y-127239734D01*
X144674933Y-127254500D01*
X146525066Y-127254499D01*
X146525067Y-127254499D01*
X146525067Y-127254498D01*
X146599301Y-127239734D01*
X146683484Y-127183484D01*
X146739734Y-127099301D01*
X146754500Y-127025067D01*
X146754499Y-125174934D01*
X146739734Y-125100699D01*
X146738249Y-125098477D01*
X146737434Y-125095147D01*
X146736899Y-125093854D01*
X146737098Y-125093771D01*
X146726024Y-125048513D01*
X146748775Y-125002378D01*
X146795859Y-124981661D01*
X146800777Y-124981500D01*
X151020301Y-124981500D01*
X151068639Y-124999093D01*
X151094359Y-125043642D01*
X151095501Y-125056700D01*
X151095501Y-125475068D01*
X151104027Y-125517935D01*
X151110266Y-125549301D01*
X151166516Y-125633484D01*
X151250699Y-125689734D01*
X151324933Y-125704500D01*
X153075066Y-125704499D01*
X153075067Y-125704499D01*
X153075067Y-125704498D01*
X153149301Y-125689734D01*
X153233484Y-125633484D01*
X153289734Y-125549301D01*
X153304500Y-125475067D01*
X153304499Y-123724934D01*
X153289734Y-123650699D01*
X153233484Y-123566516D01*
X153149301Y-123510266D01*
X153149299Y-123510265D01*
X153075067Y-123495500D01*
X151324932Y-123495500D01*
X151324931Y-123495501D01*
X151250699Y-123510266D01*
X151166516Y-123566516D01*
X151110266Y-123650698D01*
X151110265Y-123650700D01*
X151095500Y-123724932D01*
X151095500Y-124143300D01*
X151077907Y-124191638D01*
X151033358Y-124217358D01*
X151020300Y-124218500D01*
X141447364Y-124218500D01*
X141431931Y-124216899D01*
X141415986Y-124213555D01*
X141415979Y-124213555D01*
X141398551Y-124215727D01*
X141378626Y-124218211D01*
X141373980Y-124218500D01*
X141368378Y-124218500D01*
X141344995Y-124222403D01*
X141289643Y-124229302D01*
X141283671Y-124231081D01*
X141283589Y-124230808D01*
X141280214Y-124231889D01*
X141280307Y-124232158D01*
X141274419Y-124234179D01*
X141225358Y-124260729D01*
X141175256Y-124285222D01*
X141170183Y-124288844D01*
X141170018Y-124288613D01*
X141167177Y-124290731D01*
X141167352Y-124290956D01*
X141162440Y-124294778D01*
X141162438Y-124294780D01*
X141162435Y-124294782D01*
X141162435Y-124294783D01*
X141124659Y-124335818D01*
X140846383Y-124614093D01*
X140803025Y-124635476D01*
X140800000Y-124635874D01*
X140731199Y-124644931D01*
X140653991Y-124655096D01*
X140557781Y-124694948D01*
X140517937Y-124711453D01*
X140517936Y-124711453D01*
X140517933Y-124711455D01*
X140401102Y-124801102D01*
X140311455Y-124917933D01*
X140255096Y-125053991D01*
X140249678Y-125095147D01*
X140236273Y-125196974D01*
X140235476Y-125203025D01*
X140214093Y-125246383D01*
X139264003Y-126196474D01*
X139217383Y-126218214D01*
X139210829Y-126218500D01*
X134024105Y-126218500D01*
X133975767Y-126200907D01*
X133970931Y-126196474D01*
X133602388Y-125827931D01*
X133592608Y-125815889D01*
X133583694Y-125802244D01*
X133582227Y-125801102D01*
X133553984Y-125779119D01*
X133550493Y-125776036D01*
X133546543Y-125772086D01*
X133546542Y-125772085D01*
X133546541Y-125772084D01*
X133527233Y-125758299D01*
X133483218Y-125724040D01*
X133477742Y-125721077D01*
X133477876Y-125720828D01*
X133474724Y-125719205D01*
X133474600Y-125719461D01*
X133469006Y-125716726D01*
X133469004Y-125716725D01*
X133415547Y-125700810D01*
X133402579Y-125696358D01*
X133362799Y-125682700D01*
X133356650Y-125681675D01*
X133356697Y-125681391D01*
X133353198Y-125680881D01*
X133353163Y-125681166D01*
X133346977Y-125680395D01*
X133346975Y-125680395D01*
X133316030Y-125681675D01*
X133291249Y-125682700D01*
X130183164Y-125682700D01*
X130167731Y-125681099D01*
X130151786Y-125677755D01*
X130151779Y-125677755D01*
X130134351Y-125679927D01*
X130114426Y-125682411D01*
X130109780Y-125682700D01*
X130104178Y-125682700D01*
X130080795Y-125686603D01*
X130025443Y-125693502D01*
X130019471Y-125695281D01*
X130019389Y-125695008D01*
X130016014Y-125696089D01*
X130016107Y-125696358D01*
X130010219Y-125698379D01*
X129961158Y-125724929D01*
X129911056Y-125749422D01*
X129905983Y-125753044D01*
X129905818Y-125752813D01*
X129902977Y-125754931D01*
X129903152Y-125755156D01*
X129898240Y-125758978D01*
X129898238Y-125758980D01*
X129898235Y-125758982D01*
X129898235Y-125758983D01*
X129860458Y-125800019D01*
X127263731Y-128396744D01*
X127251691Y-128406523D01*
X127238044Y-128415439D01*
X127214927Y-128445140D01*
X127211843Y-128448633D01*
X127207889Y-128452586D01*
X127207882Y-128452595D01*
X127201199Y-128461956D01*
X127194099Y-128471900D01*
X127183845Y-128485075D01*
X127159840Y-128515916D01*
X127156878Y-128521390D01*
X127156629Y-128521255D01*
X127155007Y-128524408D01*
X127155261Y-128524532D01*
X127152527Y-128530125D01*
X127152525Y-128530128D01*
X127152525Y-128530130D01*
X127136690Y-128583318D01*
X127136610Y-128583587D01*
X127118500Y-128636334D01*
X127117475Y-128642484D01*
X127117192Y-128642436D01*
X127116682Y-128645939D01*
X127116966Y-128645975D01*
X127116195Y-128652158D01*
X127118499Y-128707884D01*
X127118499Y-130158177D01*
X127100906Y-130206515D01*
X127085079Y-130220703D01*
X127041779Y-130249636D01*
X126991813Y-130261863D01*
X126958221Y-130249636D01*
X126914918Y-130220702D01*
X126884503Y-130179219D01*
X126881500Y-130158184D01*
X126881500Y-129347363D01*
X126883101Y-129331929D01*
X126886445Y-129315983D01*
X126883830Y-129295011D01*
X126881789Y-129278625D01*
X126881500Y-129273971D01*
X126881500Y-129268392D01*
X126881499Y-129268385D01*
X126877596Y-129244994D01*
X126876450Y-129235802D01*
X126870696Y-129189640D01*
X126870695Y-129189637D01*
X126868919Y-129183671D01*
X126869194Y-129183589D01*
X126868113Y-129180215D01*
X126867842Y-129180309D01*
X126865818Y-129174414D01*
X126839270Y-129125358D01*
X126814775Y-129075252D01*
X126811153Y-129070179D01*
X126811385Y-129070012D01*
X126809273Y-129067180D01*
X126809048Y-129067356D01*
X126805220Y-129062438D01*
X126764180Y-129024658D01*
X125703254Y-127963731D01*
X125693474Y-127951689D01*
X125684560Y-127938044D01*
X125684559Y-127938043D01*
X125654850Y-127914919D01*
X125651359Y-127911836D01*
X125647409Y-127907886D01*
X125647408Y-127907885D01*
X125647407Y-127907884D01*
X125628099Y-127894099D01*
X125584084Y-127859840D01*
X125578608Y-127856877D01*
X125578742Y-127856628D01*
X125575590Y-127855005D01*
X125575466Y-127855261D01*
X125569872Y-127852526D01*
X125569870Y-127852525D01*
X125516413Y-127836610D01*
X125505862Y-127832988D01*
X125463665Y-127818500D01*
X125457516Y-127817475D01*
X125457563Y-127817191D01*
X125454064Y-127816681D01*
X125454029Y-127816966D01*
X125447843Y-127816195D01*
X125447841Y-127816195D01*
X125416896Y-127817475D01*
X125392115Y-127818500D01*
X122789170Y-127818500D01*
X122740832Y-127800907D01*
X122735996Y-127796474D01*
X121185906Y-126246383D01*
X121164523Y-126203024D01*
X121164125Y-126200004D01*
X121164126Y-126200000D01*
X121144904Y-126053993D01*
X121088547Y-125917937D01*
X121088544Y-125917933D01*
X120998897Y-125801102D01*
X120882066Y-125711455D01*
X120882065Y-125711454D01*
X120882063Y-125711453D01*
X120794112Y-125675022D01*
X120746008Y-125655096D01*
X120600000Y-125635874D01*
X120453991Y-125655096D01*
X120361274Y-125693502D01*
X120317937Y-125711453D01*
X120317936Y-125711453D01*
X120317933Y-125711455D01*
X120201102Y-125801102D01*
X120111455Y-125917933D01*
X120111453Y-125917936D01*
X120111453Y-125917937D01*
X120094948Y-125957781D01*
X120055096Y-126053991D01*
X120035874Y-126200000D01*
X120055096Y-126346008D01*
X120071623Y-126385906D01*
X120111453Y-126482063D01*
X120111454Y-126482065D01*
X120111455Y-126482066D01*
X120201102Y-126598897D01*
X120292330Y-126668898D01*
X120317937Y-126688547D01*
X120453993Y-126744904D01*
X120600000Y-126764126D01*
X120600004Y-126764125D01*
X120603025Y-126764523D01*
X120646383Y-126785905D01*
X121514468Y-127653991D01*
X122296744Y-128436267D01*
X122306525Y-128448311D01*
X122315438Y-128461954D01*
X122315439Y-128461955D01*
X122315440Y-128461956D01*
X122328218Y-128471901D01*
X122345144Y-128485075D01*
X122348635Y-128488158D01*
X122352591Y-128492114D01*
X122352594Y-128492116D01*
X122352595Y-128492117D01*
X122371900Y-128505901D01*
X122400176Y-128527908D01*
X122415915Y-128540158D01*
X122415916Y-128540158D01*
X122415917Y-128540159D01*
X122421393Y-128543123D01*
X122421256Y-128543374D01*
X122424404Y-128544995D01*
X122424530Y-128544738D01*
X122430126Y-128547473D01*
X122430128Y-128547473D01*
X122430130Y-128547475D01*
X122483589Y-128563390D01*
X122536339Y-128581500D01*
X122536342Y-128581500D01*
X122542483Y-128582525D01*
X122542435Y-128582808D01*
X122545934Y-128583318D01*
X122545970Y-128583034D01*
X122552155Y-128583804D01*
X122552158Y-128583805D01*
X122605907Y-128581581D01*
X122607885Y-128581500D01*
X125210830Y-128581500D01*
X125259168Y-128599093D01*
X125264004Y-128603526D01*
X126096474Y-129435996D01*
X126118214Y-129482616D01*
X126118500Y-129489170D01*
X126118500Y-130158177D01*
X126100907Y-130206515D01*
X126085080Y-130220703D01*
X126041780Y-130249636D01*
X125991814Y-130261863D01*
X125958221Y-130249636D01*
X125914920Y-130220703D01*
X125884503Y-130179220D01*
X125881500Y-130158184D01*
X125881499Y-129961784D01*
X125883101Y-129946350D01*
X125886445Y-129930404D01*
X125883830Y-129909432D01*
X125881789Y-129893046D01*
X125881500Y-129888392D01*
X125881500Y-129882813D01*
X125881499Y-129882806D01*
X125877596Y-129859415D01*
X125876450Y-129850223D01*
X125870696Y-129804061D01*
X125870695Y-129804058D01*
X125868919Y-129798092D01*
X125869194Y-129798010D01*
X125868113Y-129794636D01*
X125867842Y-129794730D01*
X125865818Y-129788835D01*
X125839270Y-129739779D01*
X125814777Y-129689677D01*
X125811156Y-129684605D01*
X125811389Y-129684438D01*
X125809273Y-129681600D01*
X125809048Y-129681776D01*
X125805222Y-129676861D01*
X125764181Y-129639080D01*
X125288833Y-129163731D01*
X125279053Y-129151689D01*
X125270139Y-129138044D01*
X125270138Y-129138043D01*
X125240429Y-129114919D01*
X125236938Y-129111836D01*
X125232988Y-129107886D01*
X125232987Y-129107885D01*
X125232986Y-129107884D01*
X125213678Y-129094099D01*
X125169663Y-129059840D01*
X125164187Y-129056877D01*
X125164321Y-129056628D01*
X125161169Y-129055005D01*
X125161045Y-129055261D01*
X125155451Y-129052526D01*
X125155449Y-129052525D01*
X125101992Y-129036610D01*
X125091441Y-129032987D01*
X125049244Y-129018500D01*
X125043095Y-129017475D01*
X125043142Y-129017191D01*
X125039643Y-129016681D01*
X125039608Y-129016966D01*
X125033422Y-129016195D01*
X125033420Y-129016195D01*
X125002475Y-129017475D01*
X124977694Y-129018500D01*
X122189170Y-129018500D01*
X122140832Y-129000907D01*
X122135996Y-128996474D01*
X119654257Y-126514734D01*
X119632517Y-126468114D01*
X119637956Y-126432780D01*
X119644903Y-126416009D01*
X119644902Y-126416009D01*
X119644904Y-126416007D01*
X119664126Y-126270000D01*
X119644904Y-126123993D01*
X119588547Y-125987937D01*
X119556373Y-125946007D01*
X119498897Y-125871102D01*
X119382066Y-125781455D01*
X119382065Y-125781454D01*
X119382063Y-125781453D01*
X119293825Y-125744903D01*
X119246008Y-125725096D01*
X119142377Y-125711453D01*
X119100000Y-125705874D01*
X119099999Y-125705874D01*
X118953991Y-125725096D01*
X118858809Y-125764523D01*
X118817937Y-125781453D01*
X118817936Y-125781453D01*
X118817933Y-125781455D01*
X118701102Y-125871102D01*
X118611455Y-125987933D01*
X118555096Y-126123991D01*
X118535874Y-126270000D01*
X100075500Y-126270000D01*
X100075500Y-125000000D01*
X113235874Y-125000000D01*
X113255096Y-125146008D01*
X113266999Y-125174743D01*
X113311453Y-125282063D01*
X113311454Y-125282065D01*
X113311455Y-125282066D01*
X113401102Y-125398897D01*
X113500371Y-125475068D01*
X113517937Y-125488547D01*
X113653993Y-125544904D01*
X113800000Y-125564126D01*
X113946007Y-125544904D01*
X114082063Y-125488547D01*
X114198897Y-125398897D01*
X114198897Y-125398896D01*
X114201317Y-125397040D01*
X114247096Y-125381500D01*
X121002904Y-125381500D01*
X121048683Y-125397040D01*
X121051102Y-125398896D01*
X121051103Y-125398897D01*
X121053978Y-125401103D01*
X121150369Y-125475067D01*
X121167937Y-125488547D01*
X121303993Y-125544904D01*
X121450000Y-125564126D01*
X121596007Y-125544904D01*
X121732063Y-125488547D01*
X121848897Y-125398897D01*
X121848897Y-125398896D01*
X121851317Y-125397040D01*
X121897096Y-125381500D01*
X123063654Y-125381500D01*
X123111992Y-125399093D01*
X123137712Y-125443642D01*
X123128779Y-125494300D01*
X123123314Y-125502480D01*
X123111454Y-125517935D01*
X123055096Y-125653991D01*
X123035874Y-125800000D01*
X123055096Y-125946008D01*
X123072464Y-125987937D01*
X123111453Y-126082063D01*
X123111454Y-126082065D01*
X123111455Y-126082066D01*
X123201102Y-126198897D01*
X123293766Y-126270000D01*
X123317937Y-126288547D01*
X123453993Y-126344904D01*
X123600000Y-126364126D01*
X123600004Y-126364125D01*
X123603025Y-126364523D01*
X123646383Y-126385905D01*
X123929374Y-126668897D01*
X124096744Y-126836267D01*
X124106525Y-126848311D01*
X124115438Y-126861954D01*
X124115439Y-126861955D01*
X124115440Y-126861956D01*
X124140055Y-126881114D01*
X124145144Y-126885075D01*
X124148635Y-126888158D01*
X124152591Y-126892114D01*
X124152594Y-126892116D01*
X124152595Y-126892117D01*
X124171900Y-126905901D01*
X124200176Y-126927908D01*
X124215915Y-126940158D01*
X124215916Y-126940158D01*
X124215917Y-126940159D01*
X124221393Y-126943123D01*
X124221256Y-126943374D01*
X124224404Y-126944995D01*
X124224530Y-126944738D01*
X124230126Y-126947473D01*
X124230128Y-126947473D01*
X124230130Y-126947475D01*
X124283586Y-126963389D01*
X124336339Y-126981500D01*
X124336342Y-126981500D01*
X124342483Y-126982525D01*
X124342435Y-126982808D01*
X124345935Y-126983318D01*
X124345971Y-126983034D01*
X124352156Y-126983804D01*
X124352159Y-126983805D01*
X124405907Y-126981581D01*
X124407885Y-126981500D01*
X124952904Y-126981500D01*
X124998683Y-126997040D01*
X125001102Y-126998896D01*
X125001103Y-126998897D01*
X125117937Y-127088547D01*
X125253993Y-127144904D01*
X125400000Y-127164126D01*
X125546007Y-127144904D01*
X125682063Y-127088547D01*
X125798897Y-126998897D01*
X125888547Y-126882063D01*
X125944904Y-126746007D01*
X125964126Y-126600000D01*
X125944904Y-126453993D01*
X125888547Y-126317937D01*
X125833642Y-126246383D01*
X125798897Y-126201102D01*
X125682066Y-126111455D01*
X125682065Y-126111454D01*
X125682063Y-126111453D01*
X125589501Y-126073112D01*
X125546008Y-126055096D01*
X125400000Y-126035874D01*
X125253991Y-126055096D01*
X125157781Y-126094948D01*
X125117937Y-126111453D01*
X125117936Y-126111453D01*
X125117933Y-126111455D01*
X124998683Y-126202960D01*
X124952904Y-126218500D01*
X124589170Y-126218500D01*
X124540832Y-126200907D01*
X124535996Y-126196474D01*
X124185906Y-125846384D01*
X124164523Y-125803025D01*
X124164125Y-125800004D01*
X124164126Y-125800000D01*
X124144904Y-125653993D01*
X124088547Y-125517937D01*
X124076685Y-125502479D01*
X124061218Y-125453421D01*
X124080902Y-125405896D01*
X124126529Y-125382143D01*
X124136346Y-125381500D01*
X129002904Y-125381500D01*
X129048683Y-125397040D01*
X129051102Y-125398896D01*
X129051103Y-125398897D01*
X129053978Y-125401103D01*
X129150369Y-125475067D01*
X129167937Y-125488547D01*
X129303993Y-125544904D01*
X129450000Y-125564126D01*
X129596007Y-125544904D01*
X129732063Y-125488547D01*
X129848897Y-125398897D01*
X129848897Y-125398896D01*
X129851317Y-125397040D01*
X129897096Y-125381500D01*
X136962303Y-125381500D01*
X137010641Y-125399093D01*
X137021963Y-125410921D01*
X137051102Y-125448897D01*
X137167933Y-125538544D01*
X137167937Y-125538547D01*
X137303993Y-125594904D01*
X137450000Y-125614126D01*
X137596007Y-125594904D01*
X137732063Y-125538547D01*
X137848897Y-125448897D01*
X137938547Y-125332063D01*
X137994904Y-125196007D01*
X138014126Y-125050000D01*
X137994904Y-124903993D01*
X137938547Y-124767937D01*
X137895207Y-124711455D01*
X137848897Y-124651102D01*
X137732066Y-124561455D01*
X137732065Y-124561454D01*
X137732063Y-124561453D01*
X137611359Y-124511455D01*
X137596008Y-124505096D01*
X137523003Y-124495485D01*
X137450000Y-124485874D01*
X137449999Y-124485874D01*
X137303991Y-124505096D01*
X137207781Y-124544948D01*
X137167937Y-124561453D01*
X137167936Y-124561453D01*
X137167933Y-124561455D01*
X137113844Y-124602960D01*
X137068065Y-124618500D01*
X129897096Y-124618500D01*
X129851317Y-124602960D01*
X129732066Y-124511455D01*
X129732065Y-124511454D01*
X129732063Y-124511453D01*
X129644112Y-124475022D01*
X129596008Y-124455096D01*
X129450000Y-124435874D01*
X129303991Y-124455096D01*
X129229689Y-124485874D01*
X129167937Y-124511453D01*
X129167936Y-124511453D01*
X129167933Y-124511455D01*
X129048683Y-124602960D01*
X129002904Y-124618500D01*
X121897096Y-124618500D01*
X121851317Y-124602960D01*
X121732066Y-124511455D01*
X121732065Y-124511454D01*
X121732063Y-124511453D01*
X121644112Y-124475022D01*
X121596008Y-124455096D01*
X121450000Y-124435874D01*
X121303991Y-124455096D01*
X121229689Y-124485874D01*
X121167937Y-124511453D01*
X121167936Y-124511453D01*
X121167933Y-124511455D01*
X121048683Y-124602960D01*
X121002904Y-124618500D01*
X114247096Y-124618500D01*
X114201317Y-124602960D01*
X114082066Y-124511455D01*
X114082065Y-124511454D01*
X114082063Y-124511453D01*
X113994112Y-124475022D01*
X113946008Y-124455096D01*
X113800000Y-124435874D01*
X113653991Y-124455096D01*
X113579689Y-124485874D01*
X113517937Y-124511453D01*
X113517936Y-124511453D01*
X113517933Y-124511455D01*
X113401102Y-124601102D01*
X113311455Y-124717933D01*
X113255096Y-124853991D01*
X113235874Y-125000000D01*
X100075500Y-125000000D01*
X100075500Y-117784021D01*
X112213555Y-117784021D01*
X112215727Y-117801448D01*
X112218211Y-117821373D01*
X112218500Y-117826020D01*
X112218500Y-117831609D01*
X112222403Y-117855005D01*
X112229302Y-117910355D01*
X112231081Y-117916328D01*
X112230807Y-117916409D01*
X112231890Y-117919787D01*
X112232160Y-117919695D01*
X112234183Y-117925589D01*
X112260729Y-117974641D01*
X112285225Y-118024748D01*
X112288845Y-118029818D01*
X112288612Y-118029984D01*
X112290726Y-118032820D01*
X112290952Y-118032645D01*
X112294777Y-118037559D01*
X112335819Y-118075341D01*
X113014092Y-118753614D01*
X113035475Y-118796972D01*
X113055096Y-118946008D01*
X113058861Y-118955096D01*
X113111453Y-119082063D01*
X113111454Y-119082065D01*
X113111455Y-119082066D01*
X113201102Y-119198897D01*
X113281934Y-119260921D01*
X113317937Y-119288547D01*
X113453993Y-119344904D01*
X113600000Y-119364126D01*
X113746007Y-119344904D01*
X113882063Y-119288547D01*
X113998897Y-119198897D01*
X114088547Y-119082063D01*
X114144904Y-118946007D01*
X114157543Y-118850000D01*
X115985874Y-118850000D01*
X116005096Y-118996008D01*
X116014413Y-119018500D01*
X116061453Y-119132063D01*
X116061454Y-119132065D01*
X116061455Y-119132066D01*
X116151102Y-119248897D01*
X116267933Y-119338544D01*
X116267937Y-119338547D01*
X116403993Y-119394904D01*
X116550000Y-119414126D01*
X116550004Y-119414125D01*
X116553025Y-119414523D01*
X116596384Y-119435906D01*
X116796741Y-119636263D01*
X116806522Y-119648306D01*
X116815440Y-119661956D01*
X116845149Y-119685079D01*
X116848640Y-119688162D01*
X116852591Y-119692113D01*
X116852595Y-119692117D01*
X116868029Y-119703135D01*
X116871889Y-119705891D01*
X116915915Y-119740158D01*
X116915916Y-119740158D01*
X116921398Y-119743125D01*
X116921261Y-119743377D01*
X116924404Y-119744995D01*
X116924530Y-119744738D01*
X116930126Y-119747473D01*
X116930128Y-119747473D01*
X116930130Y-119747475D01*
X116983589Y-119763390D01*
X117036339Y-119781500D01*
X117036342Y-119781500D01*
X117042483Y-119782525D01*
X117042435Y-119782808D01*
X117045934Y-119783318D01*
X117045970Y-119783034D01*
X117052155Y-119783804D01*
X117052158Y-119783805D01*
X117105907Y-119781581D01*
X117107885Y-119781500D01*
X123952636Y-119781500D01*
X123968069Y-119783101D01*
X123984017Y-119786445D01*
X124021373Y-119781788D01*
X124026020Y-119781500D01*
X124031609Y-119781500D01*
X124031611Y-119781500D01*
X124050319Y-119778377D01*
X124055005Y-119777596D01*
X124082681Y-119774146D01*
X124110360Y-119770696D01*
X124110361Y-119770695D01*
X124116330Y-119768918D01*
X124116412Y-119769196D01*
X124119785Y-119768116D01*
X124119691Y-119767842D01*
X124125581Y-119765819D01*
X124125581Y-119765818D01*
X124125586Y-119765818D01*
X124174641Y-119739270D01*
X124224746Y-119714776D01*
X124224746Y-119714775D01*
X124229819Y-119711154D01*
X124229987Y-119711390D01*
X124232818Y-119709279D01*
X124232640Y-119709051D01*
X124237554Y-119705224D01*
X124237562Y-119705220D01*
X124275341Y-119664180D01*
X124503615Y-119435905D01*
X124546972Y-119414524D01*
X124549997Y-119414125D01*
X124550000Y-119414126D01*
X124696007Y-119394904D01*
X124832063Y-119338547D01*
X124948897Y-119248897D01*
X124948897Y-119248896D01*
X124951317Y-119247040D01*
X124997096Y-119231500D01*
X131906486Y-119231500D01*
X131954824Y-119249093D01*
X131966146Y-119260921D01*
X131976102Y-119273897D01*
X132092933Y-119363544D01*
X132092937Y-119363547D01*
X132228993Y-119419904D01*
X132375000Y-119439126D01*
X132521007Y-119419904D01*
X132657063Y-119363547D01*
X132773897Y-119273897D01*
X132777471Y-119269239D01*
X132783854Y-119260921D01*
X132827238Y-119233283D01*
X132843514Y-119231500D01*
X139160830Y-119231500D01*
X139209168Y-119249093D01*
X139214004Y-119253526D01*
X139414092Y-119453614D01*
X139435475Y-119496972D01*
X139455096Y-119646008D01*
X139471280Y-119685079D01*
X139511453Y-119782063D01*
X139511454Y-119782065D01*
X139511455Y-119782066D01*
X139601102Y-119898897D01*
X139717933Y-119988544D01*
X139717937Y-119988547D01*
X139853993Y-120044904D01*
X140000000Y-120064126D01*
X140146007Y-120044904D01*
X140282063Y-119988547D01*
X140398897Y-119898897D01*
X140488547Y-119782063D01*
X140544904Y-119646007D01*
X140564126Y-119500000D01*
X140544904Y-119353993D01*
X140488547Y-119217937D01*
X140473937Y-119198897D01*
X140398897Y-119101102D01*
X140282066Y-119011455D01*
X140282065Y-119011454D01*
X140282063Y-119011453D01*
X140194112Y-118975022D01*
X140146008Y-118955096D01*
X140107403Y-118950013D01*
X140000000Y-118935874D01*
X139999998Y-118935874D01*
X139996974Y-118935476D01*
X139953615Y-118914093D01*
X139653251Y-118613728D01*
X139643470Y-118601682D01*
X139634561Y-118588045D01*
X139634559Y-118588043D01*
X139604850Y-118564919D01*
X139601359Y-118561836D01*
X139597409Y-118557886D01*
X139597408Y-118557885D01*
X139597407Y-118557884D01*
X139578099Y-118544099D01*
X139534084Y-118509840D01*
X139528608Y-118506877D01*
X139528742Y-118506628D01*
X139525590Y-118505005D01*
X139525466Y-118505261D01*
X139519872Y-118502526D01*
X139519870Y-118502525D01*
X139466413Y-118486610D01*
X139455862Y-118482988D01*
X139413665Y-118468500D01*
X139407516Y-118467475D01*
X139407563Y-118467191D01*
X139404064Y-118466681D01*
X139404029Y-118466966D01*
X139397843Y-118466195D01*
X139397841Y-118466195D01*
X139366896Y-118467475D01*
X139342115Y-118468500D01*
X132789516Y-118468500D01*
X132743737Y-118452960D01*
X132657066Y-118386455D01*
X132657065Y-118386454D01*
X132657063Y-118386453D01*
X132569112Y-118350022D01*
X132521008Y-118330096D01*
X132375000Y-118310874D01*
X132228991Y-118330096D01*
X132138384Y-118367628D01*
X132092937Y-118386453D01*
X132092936Y-118386453D01*
X132092933Y-118386455D01*
X132006263Y-118452960D01*
X131960484Y-118468500D01*
X124997096Y-118468500D01*
X124951317Y-118452960D01*
X124832066Y-118361455D01*
X124832065Y-118361454D01*
X124832063Y-118361453D01*
X124711359Y-118311455D01*
X124696008Y-118305096D01*
X124550000Y-118285874D01*
X124403991Y-118305096D01*
X124329969Y-118335758D01*
X124267937Y-118361453D01*
X124267936Y-118361453D01*
X124267933Y-118361455D01*
X124151102Y-118451102D01*
X124061455Y-118567933D01*
X124061453Y-118567936D01*
X124061453Y-118567937D01*
X124053125Y-118588043D01*
X124005096Y-118703991D01*
X123985476Y-118853025D01*
X123964093Y-118896383D01*
X123864002Y-118996474D01*
X123817383Y-119018214D01*
X123810829Y-119018500D01*
X117289170Y-119018500D01*
X117240832Y-119000907D01*
X117235996Y-118996474D01*
X117135906Y-118896384D01*
X117114523Y-118853025D01*
X117114125Y-118850004D01*
X117114126Y-118850000D01*
X117094904Y-118703993D01*
X117038547Y-118567937D01*
X117035622Y-118564125D01*
X116948897Y-118451102D01*
X116832066Y-118361455D01*
X116832065Y-118361454D01*
X116832063Y-118361453D01*
X116711359Y-118311455D01*
X116696008Y-118305096D01*
X116550000Y-118285874D01*
X116403991Y-118305096D01*
X116329969Y-118335758D01*
X116267937Y-118361453D01*
X116267936Y-118361453D01*
X116267933Y-118361455D01*
X116151102Y-118451102D01*
X116061455Y-118567933D01*
X116061453Y-118567936D01*
X116061453Y-118567937D01*
X116053125Y-118588043D01*
X116005096Y-118703991D01*
X115985874Y-118850000D01*
X114157543Y-118850000D01*
X114164126Y-118800000D01*
X114144904Y-118653993D01*
X114088547Y-118517937D01*
X114088544Y-118517933D01*
X113998897Y-118401102D01*
X113882066Y-118311455D01*
X113882065Y-118311454D01*
X113882063Y-118311453D01*
X113794112Y-118275022D01*
X113746008Y-118255096D01*
X113707403Y-118250013D01*
X113600000Y-118235874D01*
X113599998Y-118235874D01*
X113596974Y-118235476D01*
X113553616Y-118214093D01*
X113339523Y-118000000D01*
X118235874Y-118000000D01*
X118255096Y-118146007D01*
X118311453Y-118282063D01*
X118311454Y-118282065D01*
X118311455Y-118282066D01*
X118401102Y-118398897D01*
X118489812Y-118466966D01*
X118517937Y-118488547D01*
X118653993Y-118544904D01*
X118800000Y-118564126D01*
X118946007Y-118544904D01*
X119082063Y-118488547D01*
X119198897Y-118398897D01*
X119288547Y-118282063D01*
X119344904Y-118146007D01*
X119364126Y-118000000D01*
X119364125Y-117999997D01*
X119364524Y-117996972D01*
X119385907Y-117953614D01*
X120535996Y-116803526D01*
X120582617Y-116781786D01*
X120589171Y-116781500D01*
X132352636Y-116781500D01*
X132368069Y-116783101D01*
X132384017Y-116786445D01*
X132421373Y-116781788D01*
X132426020Y-116781500D01*
X132431609Y-116781500D01*
X132431611Y-116781500D01*
X132450319Y-116778377D01*
X132455005Y-116777596D01*
X132482681Y-116774146D01*
X132510360Y-116770696D01*
X132510361Y-116770695D01*
X132516330Y-116768918D01*
X132516412Y-116769196D01*
X132519785Y-116768116D01*
X132519691Y-116767842D01*
X132525581Y-116765819D01*
X132525581Y-116765818D01*
X132525586Y-116765818D01*
X132574641Y-116739270D01*
X132624746Y-116714776D01*
X132624746Y-116714775D01*
X132629819Y-116711154D01*
X132629987Y-116711390D01*
X132632818Y-116709279D01*
X132632640Y-116709051D01*
X132637554Y-116705224D01*
X132637562Y-116705220D01*
X132675341Y-116664180D01*
X136436272Y-112903249D01*
X136448304Y-112893478D01*
X136461956Y-112884560D01*
X136485082Y-112854845D01*
X136488145Y-112851376D01*
X136492114Y-112847409D01*
X136505898Y-112828101D01*
X136540158Y-112784085D01*
X136540159Y-112784079D01*
X136543123Y-112778604D01*
X136543377Y-112778741D01*
X136544995Y-112775597D01*
X136544736Y-112775471D01*
X136547474Y-112769870D01*
X136547473Y-112769870D01*
X136547475Y-112769869D01*
X136563388Y-112716417D01*
X136581500Y-112663661D01*
X136581500Y-112663657D01*
X136582525Y-112657517D01*
X136582808Y-112657564D01*
X136583318Y-112654064D01*
X136583034Y-112654029D01*
X136583804Y-112647843D01*
X136583805Y-112647841D01*
X136581500Y-112592105D01*
X136581500Y-109989169D01*
X136599093Y-109940831D01*
X136603515Y-109936006D01*
X139746981Y-106792539D01*
X139793600Y-106770800D01*
X139828932Y-106776238D01*
X139873993Y-106794904D01*
X139934616Y-106802884D01*
X139980243Y-106826636D01*
X139999928Y-106874160D01*
X140000000Y-106877441D01*
X140000000Y-107362558D01*
X139982407Y-107410896D01*
X139937858Y-107436616D01*
X139934620Y-107437114D01*
X139917473Y-107439371D01*
X139873991Y-107445096D01*
X139777781Y-107484948D01*
X139737937Y-107501453D01*
X139737936Y-107501453D01*
X139737933Y-107501455D01*
X139621099Y-107591105D01*
X139617618Y-107594587D01*
X139616281Y-107593250D01*
X139579093Y-107616925D01*
X139569059Y-107618444D01*
X139568393Y-107618499D01*
X139544993Y-107622404D01*
X139489639Y-107629304D01*
X139483672Y-107631081D01*
X139483590Y-107630808D01*
X139480214Y-107631889D01*
X139480307Y-107632158D01*
X139474417Y-107634180D01*
X139460999Y-107641441D01*
X139425368Y-107660723D01*
X139405232Y-107670566D01*
X139375253Y-107685222D01*
X139370183Y-107688843D01*
X139370018Y-107688612D01*
X139367179Y-107690728D01*
X139367354Y-107690953D01*
X139362439Y-107694778D01*
X139324669Y-107735807D01*
X136963731Y-110096744D01*
X136951691Y-110106523D01*
X136938044Y-110115439D01*
X136914927Y-110145140D01*
X136911843Y-110148633D01*
X136907889Y-110152586D01*
X136907882Y-110152595D01*
X136900668Y-110162700D01*
X136894099Y-110171900D01*
X136886189Y-110182063D01*
X136859840Y-110215916D01*
X136856878Y-110221390D01*
X136856629Y-110221255D01*
X136855007Y-110224408D01*
X136855261Y-110224532D01*
X136852527Y-110230125D01*
X136852525Y-110230128D01*
X136852525Y-110230130D01*
X136840089Y-110271901D01*
X136836610Y-110283587D01*
X136818500Y-110336334D01*
X136817475Y-110342484D01*
X136817192Y-110342436D01*
X136816682Y-110345938D01*
X136816966Y-110345974D01*
X136816195Y-110352157D01*
X136818500Y-110407885D01*
X136818500Y-112929249D01*
X136800907Y-112977587D01*
X136796474Y-112982423D01*
X132782423Y-116996474D01*
X132735803Y-117018214D01*
X132729249Y-117018500D01*
X121047364Y-117018500D01*
X121031931Y-117016899D01*
X121015986Y-117013555D01*
X121015979Y-117013555D01*
X120998551Y-117015727D01*
X120978626Y-117018211D01*
X120973980Y-117018500D01*
X120968378Y-117018500D01*
X120944995Y-117022403D01*
X120889643Y-117029302D01*
X120883671Y-117031081D01*
X120883589Y-117030808D01*
X120880214Y-117031889D01*
X120880307Y-117032158D01*
X120874419Y-117034179D01*
X120825358Y-117060729D01*
X120775256Y-117085222D01*
X120770183Y-117088844D01*
X120770018Y-117088613D01*
X120767177Y-117090731D01*
X120767352Y-117090956D01*
X120762440Y-117094778D01*
X120762438Y-117094780D01*
X120762435Y-117094782D01*
X120762435Y-117094783D01*
X120724659Y-117135818D01*
X120446383Y-117414093D01*
X120403025Y-117435476D01*
X120400000Y-117435874D01*
X120331199Y-117444931D01*
X120253991Y-117455096D01*
X120157781Y-117494948D01*
X120117937Y-117511453D01*
X120117936Y-117511453D01*
X120117933Y-117511455D01*
X120001102Y-117601102D01*
X119911455Y-117717933D01*
X119911453Y-117717936D01*
X119911453Y-117717937D01*
X119897082Y-117752632D01*
X119855096Y-117853991D01*
X119838736Y-117978258D01*
X119835874Y-118000000D01*
X119855096Y-118146007D01*
X119911453Y-118282063D01*
X119911454Y-118282065D01*
X119911455Y-118282066D01*
X120001102Y-118398897D01*
X120089812Y-118466966D01*
X120117937Y-118488547D01*
X120253993Y-118544904D01*
X120400000Y-118564126D01*
X120546007Y-118544904D01*
X120682063Y-118488547D01*
X120798897Y-118398897D01*
X120888547Y-118282063D01*
X120944904Y-118146007D01*
X120964126Y-118000000D01*
X120964125Y-117999994D01*
X120964523Y-117996974D01*
X120985904Y-117953616D01*
X121135996Y-117803525D01*
X121182617Y-117781786D01*
X121189171Y-117781500D01*
X132871056Y-117781500D01*
X132886489Y-117783101D01*
X132902437Y-117786445D01*
X132939793Y-117781788D01*
X132944440Y-117781500D01*
X132950029Y-117781500D01*
X132950031Y-117781500D01*
X132968739Y-117778377D01*
X132973425Y-117777596D01*
X133001102Y-117774146D01*
X133028780Y-117770696D01*
X133028781Y-117770695D01*
X133034750Y-117768918D01*
X133034832Y-117769196D01*
X133038205Y-117768116D01*
X133038111Y-117767842D01*
X133044001Y-117765819D01*
X133044001Y-117765818D01*
X133044006Y-117765818D01*
X133093061Y-117739270D01*
X133143166Y-117714776D01*
X133143166Y-117714775D01*
X133148239Y-117711154D01*
X133148407Y-117711390D01*
X133151238Y-117709279D01*
X133151060Y-117709051D01*
X133155974Y-117705224D01*
X133155982Y-117705220D01*
X133193761Y-117664180D01*
X137436272Y-113421669D01*
X137448304Y-113411898D01*
X137461956Y-113402980D01*
X137485082Y-113373265D01*
X137488145Y-113369796D01*
X137492114Y-113365829D01*
X137505898Y-113346521D01*
X137540158Y-113302505D01*
X137540159Y-113302499D01*
X137543123Y-113297024D01*
X137543377Y-113297161D01*
X137544995Y-113294017D01*
X137544736Y-113293891D01*
X137547474Y-113288290D01*
X137547473Y-113288290D01*
X137547475Y-113288289D01*
X137563388Y-113234837D01*
X137581500Y-113182081D01*
X137581500Y-113182077D01*
X137582525Y-113175937D01*
X137582808Y-113175984D01*
X137583318Y-113172484D01*
X137583034Y-113172449D01*
X137583804Y-113166263D01*
X137583805Y-113166261D01*
X137581500Y-113110525D01*
X137581500Y-110589168D01*
X137599093Y-110540831D01*
X137603514Y-110536007D01*
X137749521Y-110390000D01*
X138615874Y-110390000D01*
X138624299Y-110453993D01*
X138635096Y-110536008D01*
X138647547Y-110566067D01*
X138691453Y-110672063D01*
X138691454Y-110672065D01*
X138691455Y-110672066D01*
X138762960Y-110765252D01*
X138778500Y-110811031D01*
X138778500Y-116732632D01*
X138776900Y-116748062D01*
X138773555Y-116764014D01*
X138773555Y-116764021D01*
X138775248Y-116777596D01*
X138778211Y-116801373D01*
X138778500Y-116806020D01*
X138778500Y-116811609D01*
X138782403Y-116835005D01*
X138789302Y-116890355D01*
X138791081Y-116896328D01*
X138790807Y-116896409D01*
X138791890Y-116899787D01*
X138792160Y-116899695D01*
X138794183Y-116905589D01*
X138820729Y-116954641D01*
X138845225Y-117004748D01*
X138848845Y-117009818D01*
X138848612Y-117009984D01*
X138850726Y-117012820D01*
X138850952Y-117012645D01*
X138854777Y-117017559D01*
X138854779Y-117017561D01*
X138854780Y-117017562D01*
X138872831Y-117034179D01*
X138895819Y-117055341D01*
X142476744Y-120636267D01*
X142486525Y-120648311D01*
X142495438Y-120661954D01*
X142495439Y-120661955D01*
X142495440Y-120661956D01*
X142521274Y-120682063D01*
X142525144Y-120685075D01*
X142528635Y-120688158D01*
X142532591Y-120692114D01*
X142532594Y-120692116D01*
X142532595Y-120692117D01*
X142551900Y-120705901D01*
X142580176Y-120727908D01*
X142595915Y-120740158D01*
X142595916Y-120740158D01*
X142595917Y-120740159D01*
X142601393Y-120743123D01*
X142601256Y-120743374D01*
X142604404Y-120744995D01*
X142604530Y-120744738D01*
X142610126Y-120747473D01*
X142610128Y-120747473D01*
X142610130Y-120747475D01*
X142663586Y-120763389D01*
X142716339Y-120781500D01*
X142716342Y-120781500D01*
X142722483Y-120782525D01*
X142722435Y-120782808D01*
X142725935Y-120783318D01*
X142725971Y-120783034D01*
X142732156Y-120783804D01*
X142732159Y-120783805D01*
X142785907Y-120781581D01*
X142787885Y-120781500D01*
X146752904Y-120781500D01*
X146798683Y-120797040D01*
X146801102Y-120798896D01*
X146801103Y-120798897D01*
X146917937Y-120888547D01*
X147053993Y-120944904D01*
X147200000Y-120964126D01*
X147346007Y-120944904D01*
X147482063Y-120888547D01*
X147598897Y-120798897D01*
X147688547Y-120682063D01*
X147744904Y-120546007D01*
X147764126Y-120400000D01*
X147744904Y-120253993D01*
X147688547Y-120117937D01*
X147688544Y-120117933D01*
X147598897Y-120001102D01*
X147482066Y-119911455D01*
X147482065Y-119911454D01*
X147482063Y-119911453D01*
X147394112Y-119875022D01*
X147346008Y-119855096D01*
X147200000Y-119835874D01*
X147053991Y-119855096D01*
X146957781Y-119894948D01*
X146917937Y-119911453D01*
X146917936Y-119911453D01*
X146917933Y-119911455D01*
X146798683Y-120002960D01*
X146752904Y-120018500D01*
X142969170Y-120018500D01*
X142920832Y-120000907D01*
X142915996Y-119996474D01*
X141032206Y-118112683D01*
X142424500Y-118112683D01*
X142456574Y-118335758D01*
X142520064Y-118551983D01*
X142520069Y-118551997D01*
X142613681Y-118756977D01*
X142613685Y-118756985D01*
X142714652Y-118914093D01*
X142735526Y-118946573D01*
X142735527Y-118946576D01*
X142883106Y-119116891D01*
X142883108Y-119116893D01*
X143053423Y-119264472D01*
X143053425Y-119264472D01*
X143053427Y-119264474D01*
X143243015Y-119386315D01*
X143448013Y-119479935D01*
X143664248Y-119543427D01*
X143887318Y-119575500D01*
X143887322Y-119575500D01*
X151612678Y-119575500D01*
X151612682Y-119575500D01*
X151835752Y-119543427D01*
X152051987Y-119479935D01*
X152256985Y-119386315D01*
X152446573Y-119264474D01*
X152446574Y-119264472D01*
X152446576Y-119264472D01*
X152616891Y-119116893D01*
X152616893Y-119116891D01*
X152764472Y-118946576D01*
X152764472Y-118946574D01*
X152764474Y-118946573D01*
X152886315Y-118756985D01*
X152979935Y-118551987D01*
X153043427Y-118335752D01*
X153075500Y-118112682D01*
X153075500Y-118000000D01*
X153075500Y-117975469D01*
X153075500Y-110986688D01*
X153075500Y-110887318D01*
X153043427Y-110664248D01*
X152979935Y-110448013D01*
X152886315Y-110243015D01*
X152764474Y-110053427D01*
X152764472Y-110053425D01*
X152764472Y-110053423D01*
X152616893Y-109883108D01*
X152616891Y-109883106D01*
X152446576Y-109735527D01*
X152446573Y-109735526D01*
X152306054Y-109645220D01*
X152256985Y-109613685D01*
X152256980Y-109613682D01*
X152256977Y-109613681D01*
X152051997Y-109520069D01*
X152051991Y-109520066D01*
X152051987Y-109520065D01*
X151972563Y-109496744D01*
X151835758Y-109456574D01*
X151835752Y-109456573D01*
X151726783Y-109440905D01*
X151612683Y-109424500D01*
X151612682Y-109424500D01*
X151527480Y-109424500D01*
X150524531Y-109424500D01*
X150500000Y-109424500D01*
X150430122Y-109424500D01*
X150294425Y-109457945D01*
X150294426Y-109457946D01*
X150294423Y-109457947D01*
X150170680Y-109522892D01*
X150170674Y-109522896D01*
X150066076Y-109615561D01*
X150066067Y-109615571D01*
X149986677Y-109730586D01*
X149986675Y-109730589D01*
X149937120Y-109861258D01*
X149937119Y-109861260D01*
X149937119Y-109861262D01*
X149920273Y-110000000D01*
X149937119Y-110138738D01*
X149937119Y-110138740D01*
X149937120Y-110138741D01*
X149986675Y-110269410D01*
X149986677Y-110269413D01*
X150066068Y-110384430D01*
X150066071Y-110384433D01*
X150066076Y-110384438D01*
X150170674Y-110477103D01*
X150170676Y-110477104D01*
X150170678Y-110477106D01*
X150294426Y-110542054D01*
X150430122Y-110575500D01*
X150472520Y-110575500D01*
X151475469Y-110575500D01*
X151497531Y-110575500D01*
X151502443Y-110575822D01*
X151532822Y-110579821D01*
X151600056Y-110588672D01*
X151619012Y-110593751D01*
X151703107Y-110628585D01*
X151720103Y-110638397D01*
X151745678Y-110658022D01*
X151792312Y-110693806D01*
X151806193Y-110707687D01*
X151861600Y-110779894D01*
X151871416Y-110796895D01*
X151906247Y-110880984D01*
X151911328Y-110899947D01*
X151924178Y-110997555D01*
X151924500Y-111002468D01*
X151924500Y-117997531D01*
X151924178Y-118002444D01*
X151911328Y-118100052D01*
X151906247Y-118119015D01*
X151871416Y-118203104D01*
X151861600Y-118220105D01*
X151806193Y-118292312D01*
X151792312Y-118306193D01*
X151720105Y-118361600D01*
X151703104Y-118371416D01*
X151619015Y-118406247D01*
X151600052Y-118411328D01*
X151502444Y-118424178D01*
X151497531Y-118424500D01*
X144002469Y-118424500D01*
X143997556Y-118424178D01*
X143899947Y-118411328D01*
X143880984Y-118406247D01*
X143796895Y-118371416D01*
X143779894Y-118361600D01*
X143779702Y-118361453D01*
X143746216Y-118335758D01*
X143707687Y-118306193D01*
X143693806Y-118292312D01*
X143650194Y-118235476D01*
X143638397Y-118220103D01*
X143628585Y-118203107D01*
X143593751Y-118119012D01*
X143588672Y-118100056D01*
X143579798Y-118032645D01*
X143575822Y-118002443D01*
X143575500Y-117997531D01*
X143575500Y-114500000D01*
X147935874Y-114500000D01*
X147955096Y-114646007D01*
X148011453Y-114782063D01*
X148011454Y-114782065D01*
X148011455Y-114782066D01*
X148101102Y-114898897D01*
X148212002Y-114983993D01*
X148217937Y-114988547D01*
X148353993Y-115044904D01*
X148500000Y-115064126D01*
X148646007Y-115044904D01*
X148782063Y-114988547D01*
X148898897Y-114898897D01*
X148988547Y-114782063D01*
X149044904Y-114646007D01*
X149064126Y-114500000D01*
X149044904Y-114353993D01*
X148988547Y-114217937D01*
X148988544Y-114217933D01*
X148897040Y-114098682D01*
X148881500Y-114052903D01*
X148881500Y-110347096D01*
X148897040Y-110301317D01*
X148910645Y-110283587D01*
X148988547Y-110182063D01*
X149044904Y-110046007D01*
X149064126Y-109900000D01*
X149044904Y-109753993D01*
X148988547Y-109617937D01*
X148986996Y-109615916D01*
X148898897Y-109501102D01*
X148782066Y-109411455D01*
X148782065Y-109411454D01*
X148782063Y-109411453D01*
X148694112Y-109375022D01*
X148646008Y-109355096D01*
X148500000Y-109335874D01*
X148353991Y-109355096D01*
X148257781Y-109394948D01*
X148217937Y-109411453D01*
X148217936Y-109411453D01*
X148217933Y-109411455D01*
X148101102Y-109501102D01*
X148011455Y-109617933D01*
X148011453Y-109617936D01*
X148011453Y-109617937D01*
X148001118Y-109642888D01*
X147955096Y-109753991D01*
X147935874Y-109900000D01*
X147955096Y-110046008D01*
X147958861Y-110055096D01*
X148011453Y-110182063D01*
X148011454Y-110182065D01*
X148011455Y-110182066D01*
X148102960Y-110301317D01*
X148118500Y-110347096D01*
X148118500Y-114052903D01*
X148102960Y-114098682D01*
X148011455Y-114217933D01*
X147955096Y-114353991D01*
X147955095Y-114353993D01*
X147955096Y-114353993D01*
X147935874Y-114500000D01*
X143575500Y-114500000D01*
X143575500Y-110930123D01*
X143570031Y-110907933D01*
X143542054Y-110794426D01*
X143477106Y-110670678D01*
X143477104Y-110670676D01*
X143477103Y-110670674D01*
X143384438Y-110566076D01*
X143384433Y-110566071D01*
X143384430Y-110566068D01*
X143269413Y-110486677D01*
X143269410Y-110486675D01*
X143138741Y-110437120D01*
X143138740Y-110437119D01*
X143138738Y-110437119D01*
X143000000Y-110420273D01*
X142861262Y-110437119D01*
X142861260Y-110437119D01*
X142861258Y-110437120D01*
X142730589Y-110486675D01*
X142730586Y-110486677D01*
X142615571Y-110566067D01*
X142615561Y-110566076D01*
X142522896Y-110670674D01*
X142522892Y-110670680D01*
X142457947Y-110794423D01*
X142457946Y-110794426D01*
X142429970Y-110907932D01*
X142424500Y-110930123D01*
X142424500Y-118112683D01*
X141032206Y-118112683D01*
X139563526Y-116644003D01*
X139541786Y-116597383D01*
X139541500Y-116590829D01*
X139541500Y-110854677D01*
X139559093Y-110806339D01*
X139570923Y-110795016D01*
X139578896Y-110788898D01*
X139579777Y-110787750D01*
X139668547Y-110672063D01*
X139724904Y-110536007D01*
X139744126Y-110390000D01*
X139724904Y-110243993D01*
X139668547Y-110107937D01*
X139626720Y-110053427D01*
X139578897Y-109991102D01*
X139462066Y-109901455D01*
X139462065Y-109901454D01*
X139462063Y-109901453D01*
X139365025Y-109861258D01*
X139326008Y-109845096D01*
X139180000Y-109825874D01*
X139033991Y-109845096D01*
X138942230Y-109883106D01*
X138897937Y-109901453D01*
X138897936Y-109901453D01*
X138897933Y-109901455D01*
X138781102Y-109991102D01*
X138691455Y-110107933D01*
X138635096Y-110243991D01*
X138616607Y-110384430D01*
X138615874Y-110390000D01*
X137749521Y-110390000D01*
X139648343Y-108491178D01*
X139694962Y-108469439D01*
X139732891Y-108477845D01*
X139733383Y-108476660D01*
X139737935Y-108478545D01*
X139737937Y-108478547D01*
X139873993Y-108534904D01*
X140020000Y-108554126D01*
X140166007Y-108534904D01*
X140302063Y-108478547D01*
X140304522Y-108476660D01*
X140319013Y-108465541D01*
X140364793Y-108450000D01*
X146328930Y-108450000D01*
X146377268Y-108467593D01*
X146402988Y-108512142D01*
X146394055Y-108562800D01*
X146382104Y-108578374D01*
X144763731Y-110196744D01*
X144751691Y-110206523D01*
X144738044Y-110215439D01*
X144714927Y-110245140D01*
X144711843Y-110248633D01*
X144707889Y-110252586D01*
X144707882Y-110252595D01*
X144699395Y-110264481D01*
X144694099Y-110271900D01*
X144689361Y-110277988D01*
X144659840Y-110315916D01*
X144656878Y-110321390D01*
X144656629Y-110321255D01*
X144655007Y-110324408D01*
X144655261Y-110324532D01*
X144652527Y-110330125D01*
X144652525Y-110330128D01*
X144652525Y-110330130D01*
X144636610Y-110383586D01*
X144634408Y-110390000D01*
X144618500Y-110436334D01*
X144617475Y-110442484D01*
X144617192Y-110442436D01*
X144616682Y-110445939D01*
X144616966Y-110445975D01*
X144616195Y-110452158D01*
X144616195Y-110452159D01*
X144617622Y-110486675D01*
X144618499Y-110507884D01*
X144618499Y-110742903D01*
X144602959Y-110788682D01*
X144511455Y-110907932D01*
X144455096Y-111043991D01*
X144455095Y-111043993D01*
X144455096Y-111043993D01*
X144435874Y-111190000D01*
X144455096Y-111336007D01*
X144511453Y-111472063D01*
X144511454Y-111472065D01*
X144511455Y-111472066D01*
X144601102Y-111588897D01*
X144717933Y-111678544D01*
X144717937Y-111678547D01*
X144853993Y-111734904D01*
X145000000Y-111754126D01*
X145146007Y-111734904D01*
X145282063Y-111678547D01*
X145398897Y-111588897D01*
X145488547Y-111472063D01*
X145544904Y-111336007D01*
X145564126Y-111190000D01*
X145544904Y-111043993D01*
X145488547Y-110907937D01*
X145472728Y-110887321D01*
X145397040Y-110788682D01*
X145381500Y-110742903D01*
X145381500Y-110689170D01*
X145399093Y-110640832D01*
X145403526Y-110635996D01*
X147125997Y-108913526D01*
X147172617Y-108891786D01*
X147179171Y-108891500D01*
X148592904Y-108891500D01*
X148638683Y-108907040D01*
X148641102Y-108908896D01*
X148641103Y-108908897D01*
X148757937Y-108998547D01*
X148893993Y-109054904D01*
X149040000Y-109074126D01*
X149186007Y-109054904D01*
X149322063Y-108998547D01*
X149438897Y-108908897D01*
X149528547Y-108792063D01*
X149584904Y-108656007D01*
X149603417Y-108515383D01*
X149627170Y-108469757D01*
X149674694Y-108450072D01*
X149677974Y-108450000D01*
X150000000Y-108450000D01*
X150000000Y-96950000D01*
X146440271Y-96950000D01*
X146391933Y-96932407D01*
X146381477Y-96921686D01*
X146294784Y-96812977D01*
X146179789Y-96927974D01*
X146133168Y-96949714D01*
X146126614Y-96950000D01*
X146123786Y-96950000D01*
X146075448Y-96932407D01*
X146049728Y-96887858D01*
X146058661Y-96837200D01*
X146070611Y-96821626D01*
X146184103Y-96708133D01*
X146184102Y-96708132D01*
X146095669Y-96626079D01*
X146095661Y-96626073D01*
X145878657Y-96478121D01*
X145642017Y-96364162D01*
X145391042Y-96286747D01*
X145391029Y-96286744D01*
X145131322Y-96247600D01*
X144868678Y-96247600D01*
X144608970Y-96286744D01*
X144608957Y-96286747D01*
X144357982Y-96364162D01*
X144121342Y-96478121D01*
X143904334Y-96626075D01*
X143815896Y-96708133D01*
X143929389Y-96821625D01*
X143951129Y-96868246D01*
X143937815Y-96917933D01*
X143895678Y-96947438D01*
X143876215Y-96950000D01*
X143873385Y-96950000D01*
X143825047Y-96932407D01*
X143820210Y-96927974D01*
X143705213Y-96812977D01*
X143618522Y-96921686D01*
X143574629Y-96948509D01*
X143559728Y-96950000D01*
X140380642Y-96950000D01*
X140332304Y-96932407D01*
X140320323Y-96919707D01*
X140256934Y-96834562D01*
X140256932Y-96834560D01*
X140120749Y-96720288D01*
X140120748Y-96720287D01*
X139961877Y-96640499D01*
X139788894Y-96599500D01*
X139788890Y-96599500D01*
X139655708Y-96599500D01*
X139655698Y-96599500D01*
X139523426Y-96614960D01*
X139523424Y-96614961D01*
X139356363Y-96675766D01*
X139207831Y-96773457D01*
X139085831Y-96902770D01*
X138996942Y-97056731D01*
X138945955Y-97227041D01*
X138935618Y-97404520D01*
X138966489Y-97579600D01*
X139036904Y-97742838D01*
X139143067Y-97885439D01*
X139279250Y-97999711D01*
X139279251Y-97999712D01*
X139279252Y-97999712D01*
X139279254Y-97999714D01*
X139438123Y-98079501D01*
X139577342Y-98112496D01*
X139611105Y-98120499D01*
X139611106Y-98120499D01*
X139611110Y-98120500D01*
X139611114Y-98120500D01*
X139744299Y-98120500D01*
X139744301Y-98120499D01*
X139876573Y-98105039D01*
X139876575Y-98105038D01*
X139876577Y-98105038D01*
X139889937Y-98100174D01*
X139899079Y-98096848D01*
X139950519Y-98096847D01*
X139989925Y-98129911D01*
X140000000Y-98167512D01*
X140000000Y-99094428D01*
X139982407Y-99142766D01*
X139937858Y-99168486D01*
X139907458Y-99167601D01*
X139788894Y-99139500D01*
X139788890Y-99139500D01*
X139655708Y-99139500D01*
X139655698Y-99139500D01*
X139523426Y-99154960D01*
X139523424Y-99154961D01*
X139356363Y-99215766D01*
X139207831Y-99313457D01*
X139085831Y-99442770D01*
X138996942Y-99596731D01*
X138945955Y-99767041D01*
X138935618Y-99944520D01*
X138946947Y-100008769D01*
X138938014Y-100059427D01*
X138898609Y-100092492D01*
X138851033Y-100092492D01*
X138850733Y-100093546D01*
X138642313Y-100034244D01*
X138642314Y-100034244D01*
X138483200Y-100019500D01*
X138483194Y-100019500D01*
X138376806Y-100019500D01*
X138376800Y-100019500D01*
X138217685Y-100034244D01*
X138010659Y-100093149D01*
X137959351Y-100089456D01*
X137922422Y-100053647D01*
X137915006Y-100016449D01*
X137924382Y-99855480D01*
X137893511Y-99680401D01*
X137823096Y-99517162D01*
X137716933Y-99374561D01*
X137716932Y-99374560D01*
X137580749Y-99260288D01*
X137580748Y-99260287D01*
X137421877Y-99180499D01*
X137248894Y-99139500D01*
X137248890Y-99139500D01*
X137115708Y-99139500D01*
X137115698Y-99139500D01*
X136983426Y-99154960D01*
X136983424Y-99154961D01*
X136816363Y-99215766D01*
X136667831Y-99313457D01*
X136545831Y-99442770D01*
X136456942Y-99596731D01*
X136405955Y-99767041D01*
X136395618Y-99944520D01*
X136426489Y-100119600D01*
X136496904Y-100282838D01*
X136603067Y-100425439D01*
X136739250Y-100539711D01*
X136739251Y-100539712D01*
X136739252Y-100539712D01*
X136739254Y-100539714D01*
X136898123Y-100619501D01*
X137034457Y-100651813D01*
X137071105Y-100660499D01*
X137071106Y-100660499D01*
X137071110Y-100660500D01*
X137071114Y-100660500D01*
X137204299Y-100660500D01*
X137204299Y-100660499D01*
X137232243Y-100657233D01*
X137278617Y-100651813D01*
X137328671Y-100663675D01*
X137359389Y-100704936D01*
X137357470Y-100753669D01*
X137318679Y-100853800D01*
X137318679Y-100853802D01*
X137279500Y-101063390D01*
X137279500Y-101276610D01*
X137310843Y-101444280D01*
X137318679Y-101486199D01*
X137356547Y-101583947D01*
X137357603Y-101635376D01*
X137325354Y-101675451D01*
X137274890Y-101685422D01*
X137269085Y-101684286D01*
X137261217Y-101682421D01*
X137248890Y-101679500D01*
X137115708Y-101679500D01*
X137115698Y-101679500D01*
X136983426Y-101694960D01*
X136983424Y-101694961D01*
X136816363Y-101755766D01*
X136667831Y-101853457D01*
X136545831Y-101982770D01*
X136456942Y-102136731D01*
X136405955Y-102307041D01*
X136395618Y-102484520D01*
X136426489Y-102659600D01*
X136496904Y-102822838D01*
X136603067Y-102965439D01*
X136739250Y-103079711D01*
X136739251Y-103079712D01*
X136739252Y-103079712D01*
X136739254Y-103079714D01*
X136898123Y-103159501D01*
X137037342Y-103192496D01*
X137071105Y-103200499D01*
X137071106Y-103200499D01*
X137071110Y-103200500D01*
X137071114Y-103200500D01*
X137204299Y-103200500D01*
X137204301Y-103200499D01*
X137336573Y-103185039D01*
X137336574Y-103185038D01*
X137336577Y-103185038D01*
X137503635Y-103124234D01*
X137652168Y-103026543D01*
X137774167Y-102897231D01*
X137863057Y-102743269D01*
X137914045Y-102572958D01*
X137924382Y-102395480D01*
X137913053Y-102331230D01*
X137921985Y-102280572D01*
X137961390Y-102247507D01*
X138008967Y-102247507D01*
X138009267Y-102246454D01*
X138217686Y-102305755D01*
X138217687Y-102305755D01*
X138217690Y-102305756D01*
X138295838Y-102312997D01*
X138376800Y-102320500D01*
X138376806Y-102320500D01*
X138483200Y-102320500D01*
X138557831Y-102313583D01*
X138642310Y-102305756D01*
X138730822Y-102280572D01*
X138849340Y-102246850D01*
X138900647Y-102250543D01*
X138937577Y-102286352D01*
X138944993Y-102323551D01*
X138935618Y-102484520D01*
X138966489Y-102659600D01*
X139036904Y-102822838D01*
X139143067Y-102965439D01*
X139279250Y-103079711D01*
X139279251Y-103079712D01*
X139279252Y-103079712D01*
X139279254Y-103079714D01*
X139438123Y-103159501D01*
X139577342Y-103192496D01*
X139611105Y-103200499D01*
X139611106Y-103200499D01*
X139611110Y-103200500D01*
X139611114Y-103200500D01*
X139744299Y-103200500D01*
X139744301Y-103200499D01*
X139876573Y-103185039D01*
X139876575Y-103185038D01*
X139876577Y-103185038D01*
X139889937Y-103180174D01*
X139899079Y-103176848D01*
X139950519Y-103176847D01*
X139989925Y-103209911D01*
X140000000Y-103247512D01*
X140000000Y-105622558D01*
X139982407Y-105670896D01*
X139937858Y-105696616D01*
X139934620Y-105697114D01*
X139917473Y-105699371D01*
X139873991Y-105705096D01*
X139777781Y-105744948D01*
X139737937Y-105761453D01*
X139737936Y-105761453D01*
X139737933Y-105761455D01*
X139621102Y-105851103D01*
X139586100Y-105896717D01*
X139559471Y-105918495D01*
X139525255Y-105935223D01*
X139520183Y-105938845D01*
X139520017Y-105938613D01*
X139517177Y-105940731D01*
X139517352Y-105940956D01*
X139512440Y-105944778D01*
X139512438Y-105944780D01*
X139512435Y-105944782D01*
X139512435Y-105944783D01*
X139474658Y-105985819D01*
X135963731Y-109496744D01*
X135951691Y-109506523D01*
X135938044Y-109515439D01*
X135914927Y-109545140D01*
X135911843Y-109548633D01*
X135907889Y-109552586D01*
X135907882Y-109552595D01*
X135899395Y-109564481D01*
X135894099Y-109571900D01*
X135880767Y-109589029D01*
X135859840Y-109615916D01*
X135856878Y-109621390D01*
X135856629Y-109621255D01*
X135855007Y-109624408D01*
X135855261Y-109624532D01*
X135852527Y-109630125D01*
X135852525Y-109630128D01*
X135852525Y-109630130D01*
X135836610Y-109683586D01*
X135836610Y-109683587D01*
X135818500Y-109736334D01*
X135817475Y-109742484D01*
X135817192Y-109742436D01*
X135816682Y-109745938D01*
X135816966Y-109745974D01*
X135816195Y-109752157D01*
X135818500Y-109807885D01*
X135818500Y-112410828D01*
X135800907Y-112459166D01*
X135796474Y-112464002D01*
X132264003Y-115996474D01*
X132217383Y-116018214D01*
X132210829Y-116018500D01*
X120447365Y-116018500D01*
X120431932Y-116016899D01*
X120415985Y-116013555D01*
X120415984Y-116013555D01*
X120407659Y-116014592D01*
X120378628Y-116018211D01*
X120373973Y-116018500D01*
X120368383Y-116018500D01*
X120344993Y-116022404D01*
X120289639Y-116029304D01*
X120283672Y-116031081D01*
X120283590Y-116030808D01*
X120280214Y-116031889D01*
X120280307Y-116032158D01*
X120274417Y-116034180D01*
X120271287Y-116035874D01*
X120225368Y-116060723D01*
X120205232Y-116070566D01*
X120175253Y-116085222D01*
X120170183Y-116088843D01*
X120170018Y-116088612D01*
X120167179Y-116090728D01*
X120167354Y-116090953D01*
X120162439Y-116094778D01*
X120124669Y-116135807D01*
X118846382Y-117414093D01*
X118803024Y-117435476D01*
X118800000Y-117435874D01*
X118778261Y-117438736D01*
X118653991Y-117455096D01*
X118557781Y-117494948D01*
X118517937Y-117511453D01*
X118517936Y-117511453D01*
X118517933Y-117511455D01*
X118401102Y-117601102D01*
X118311455Y-117717933D01*
X118311453Y-117717936D01*
X118311453Y-117717937D01*
X118297082Y-117752632D01*
X118255096Y-117853991D01*
X118238736Y-117978258D01*
X118235874Y-118000000D01*
X113339523Y-118000000D01*
X113293136Y-117953613D01*
X113003524Y-117664001D01*
X112981785Y-117617383D01*
X112981500Y-117610851D01*
X112981500Y-116600000D01*
X113285874Y-116600000D01*
X113305096Y-116746008D01*
X113320461Y-116783101D01*
X113361453Y-116882063D01*
X113361454Y-116882065D01*
X113361455Y-116882066D01*
X113451102Y-116998897D01*
X113497083Y-117034179D01*
X113567937Y-117088547D01*
X113703993Y-117144904D01*
X113850000Y-117164126D01*
X113996007Y-117144904D01*
X114132063Y-117088547D01*
X114248897Y-116998897D01*
X114248897Y-116998896D01*
X114251317Y-116997040D01*
X114297096Y-116981500D01*
X118152636Y-116981500D01*
X118168069Y-116983101D01*
X118184017Y-116986445D01*
X118221373Y-116981788D01*
X118226020Y-116981500D01*
X118231609Y-116981500D01*
X118231611Y-116981500D01*
X118250319Y-116978377D01*
X118255005Y-116977596D01*
X118282681Y-116974146D01*
X118310360Y-116970696D01*
X118310361Y-116970695D01*
X118316330Y-116968918D01*
X118316412Y-116969196D01*
X118319785Y-116968116D01*
X118319691Y-116967842D01*
X118325581Y-116965819D01*
X118325581Y-116965818D01*
X118325586Y-116965818D01*
X118374641Y-116939270D01*
X118424746Y-116914776D01*
X118424746Y-116914775D01*
X118429819Y-116911154D01*
X118429987Y-116911390D01*
X118432818Y-116909279D01*
X118432640Y-116909051D01*
X118437554Y-116905224D01*
X118437562Y-116905220D01*
X118475341Y-116864180D01*
X119645996Y-115693526D01*
X119692617Y-115671786D01*
X119699171Y-115671500D01*
X122682636Y-115671500D01*
X122698069Y-115673101D01*
X122714017Y-115676445D01*
X122725864Y-115674968D01*
X122744972Y-115675032D01*
X122890000Y-115694126D01*
X123036007Y-115674904D01*
X123172063Y-115618547D01*
X123288897Y-115528897D01*
X123378547Y-115412063D01*
X123434904Y-115276007D01*
X123454126Y-115130000D01*
X123434904Y-114983993D01*
X123378547Y-114847937D01*
X123378544Y-114847933D01*
X123288897Y-114731102D01*
X123172066Y-114641455D01*
X123172065Y-114641454D01*
X123172063Y-114641453D01*
X123084112Y-114605022D01*
X123036008Y-114585096D01*
X122963003Y-114575484D01*
X122890000Y-114565874D01*
X122889999Y-114565874D01*
X122743991Y-114585096D01*
X122647781Y-114624948D01*
X122607937Y-114641453D01*
X122607936Y-114641453D01*
X122607933Y-114641455D01*
X122491102Y-114731102D01*
X122401453Y-114847935D01*
X122395596Y-114862077D01*
X122360844Y-114900003D01*
X122326120Y-114908500D01*
X119557365Y-114908500D01*
X119541932Y-114906899D01*
X119525985Y-114903555D01*
X119525984Y-114903555D01*
X119517659Y-114904592D01*
X119488628Y-114908211D01*
X119483973Y-114908500D01*
X119478383Y-114908500D01*
X119454993Y-114912404D01*
X119399639Y-114919304D01*
X119393672Y-114921081D01*
X119393590Y-114920808D01*
X119390214Y-114921889D01*
X119390307Y-114922158D01*
X119384417Y-114924180D01*
X119370999Y-114931441D01*
X119335368Y-114950723D01*
X119315232Y-114960566D01*
X119285253Y-114975222D01*
X119280183Y-114978843D01*
X119280018Y-114978612D01*
X119277179Y-114980728D01*
X119277354Y-114980953D01*
X119272439Y-114984778D01*
X119234669Y-115025806D01*
X119234669Y-115025807D01*
X118639087Y-115621390D01*
X118064003Y-116196474D01*
X118017383Y-116218214D01*
X118010829Y-116218500D01*
X114297096Y-116218500D01*
X114251317Y-116202960D01*
X114132066Y-116111455D01*
X114132065Y-116111454D01*
X114132063Y-116111453D01*
X114044112Y-116075022D01*
X113996008Y-116055096D01*
X113850000Y-116035874D01*
X113703991Y-116055096D01*
X113617971Y-116090728D01*
X113567937Y-116111453D01*
X113567936Y-116111453D01*
X113567933Y-116111455D01*
X113451102Y-116201102D01*
X113361455Y-116317933D01*
X113305096Y-116453991D01*
X113285874Y-116600000D01*
X112981500Y-116600000D01*
X112981500Y-115989169D01*
X112999093Y-115940832D01*
X113003526Y-115935996D01*
X115135997Y-113803526D01*
X115182617Y-113781786D01*
X115189171Y-113781500D01*
X123152904Y-113781500D01*
X123198683Y-113797040D01*
X123201102Y-113798896D01*
X123201103Y-113798897D01*
X123317937Y-113888547D01*
X123453993Y-113944904D01*
X123600000Y-113964126D01*
X123746007Y-113944904D01*
X123882063Y-113888547D01*
X123998897Y-113798897D01*
X124088547Y-113682063D01*
X124144904Y-113546007D01*
X124164126Y-113400000D01*
X124144904Y-113253993D01*
X124088547Y-113117937D01*
X124070778Y-113094780D01*
X123998897Y-113001102D01*
X123882066Y-112911455D01*
X123882065Y-112911454D01*
X123882063Y-112911453D01*
X123794112Y-112875022D01*
X123746008Y-112855096D01*
X123600000Y-112835874D01*
X123453991Y-112855096D01*
X123361354Y-112893469D01*
X123317937Y-112911453D01*
X123317936Y-112911453D01*
X123317933Y-112911455D01*
X123198683Y-113002960D01*
X123152904Y-113018500D01*
X115047365Y-113018500D01*
X115031932Y-113016899D01*
X115015985Y-113013555D01*
X115015984Y-113013555D01*
X115007659Y-113014592D01*
X114978628Y-113018211D01*
X114973973Y-113018500D01*
X114968383Y-113018500D01*
X114944993Y-113022404D01*
X114889639Y-113029304D01*
X114883672Y-113031081D01*
X114883590Y-113030808D01*
X114880214Y-113031889D01*
X114880307Y-113032158D01*
X114874417Y-113034180D01*
X114860999Y-113041441D01*
X114825368Y-113060723D01*
X114805232Y-113070566D01*
X114775253Y-113085222D01*
X114770183Y-113088843D01*
X114770018Y-113088612D01*
X114767179Y-113090728D01*
X114767354Y-113090953D01*
X114762439Y-113094778D01*
X114724669Y-113135807D01*
X112363731Y-115496744D01*
X112351691Y-115506523D01*
X112338044Y-115515439D01*
X112314927Y-115545140D01*
X112311843Y-115548633D01*
X112307889Y-115552586D01*
X112307882Y-115552595D01*
X112299395Y-115564481D01*
X112294099Y-115571900D01*
X112280767Y-115589029D01*
X112259840Y-115615916D01*
X112256878Y-115621390D01*
X112256629Y-115621255D01*
X112255007Y-115624408D01*
X112255261Y-115624532D01*
X112252527Y-115630125D01*
X112252525Y-115630128D01*
X112252525Y-115630130D01*
X112238736Y-115676445D01*
X112236610Y-115683587D01*
X112218500Y-115736334D01*
X112217475Y-115742484D01*
X112217192Y-115742436D01*
X112216682Y-115745938D01*
X112216966Y-115745974D01*
X112216195Y-115752157D01*
X112218500Y-115807885D01*
X112218500Y-117752632D01*
X112216900Y-117768062D01*
X112213555Y-117784014D01*
X112213555Y-117784021D01*
X100075500Y-117784021D01*
X100075500Y-110600000D01*
X115985874Y-110600000D01*
X116005096Y-110746008D01*
X116018000Y-110777159D01*
X116061453Y-110882063D01*
X116061454Y-110882065D01*
X116061455Y-110882066D01*
X116151102Y-110998897D01*
X116209873Y-111043993D01*
X116267937Y-111088547D01*
X116403993Y-111144904D01*
X116550000Y-111164126D01*
X116696007Y-111144904D01*
X116832063Y-111088547D01*
X116948897Y-110998897D01*
X116948897Y-110998896D01*
X116951317Y-110997040D01*
X116997096Y-110981500D01*
X120252904Y-110981500D01*
X120298683Y-110997040D01*
X120301102Y-110998896D01*
X120301103Y-110998897D01*
X120417937Y-111088547D01*
X120553993Y-111144904D01*
X120700000Y-111164126D01*
X120846007Y-111144904D01*
X120982063Y-111088547D01*
X121098897Y-110998897D01*
X121188547Y-110882063D01*
X121244904Y-110746007D01*
X121264126Y-110600000D01*
X121244904Y-110453993D01*
X121188547Y-110317937D01*
X121186996Y-110315916D01*
X121098897Y-110201102D01*
X120982066Y-110111455D01*
X120982065Y-110111454D01*
X120982063Y-110111453D01*
X120894112Y-110075022D01*
X120846008Y-110055096D01*
X120700000Y-110035874D01*
X120553991Y-110055096D01*
X120457781Y-110094948D01*
X120417937Y-110111453D01*
X120417936Y-110111453D01*
X120417933Y-110111455D01*
X120298683Y-110202960D01*
X120252904Y-110218500D01*
X116997096Y-110218500D01*
X116951317Y-110202960D01*
X116832066Y-110111455D01*
X116832065Y-110111454D01*
X116832063Y-110111453D01*
X116744112Y-110075022D01*
X116696008Y-110055096D01*
X116623003Y-110045485D01*
X116550000Y-110035874D01*
X116549999Y-110035874D01*
X116403991Y-110055096D01*
X116307781Y-110094948D01*
X116267937Y-110111453D01*
X116267936Y-110111453D01*
X116267933Y-110111455D01*
X116151102Y-110201102D01*
X116061455Y-110317933D01*
X116061453Y-110317936D01*
X116061453Y-110317937D01*
X116049840Y-110345974D01*
X116005096Y-110453991D01*
X115985874Y-110600000D01*
X100075500Y-110600000D01*
X100075500Y-108450000D01*
X104000000Y-108450000D01*
X114000000Y-108450000D01*
X114000000Y-103245571D01*
X114017593Y-103197233D01*
X114062142Y-103171513D01*
X114092538Y-103172397D01*
X114211110Y-103200500D01*
X114211114Y-103200500D01*
X114344299Y-103200500D01*
X114344301Y-103200499D01*
X114476573Y-103185039D01*
X114476574Y-103185038D01*
X114476577Y-103185038D01*
X114643635Y-103124234D01*
X114792168Y-103026543D01*
X114914167Y-102897231D01*
X115003057Y-102743269D01*
X115054045Y-102572958D01*
X115064382Y-102395480D01*
X115053053Y-102331230D01*
X115061985Y-102280572D01*
X115101390Y-102247507D01*
X115148967Y-102247507D01*
X115149267Y-102246454D01*
X115357686Y-102305755D01*
X115357687Y-102305755D01*
X115357690Y-102305756D01*
X115435838Y-102312997D01*
X115516800Y-102320500D01*
X115516806Y-102320500D01*
X115623200Y-102320500D01*
X115697831Y-102313583D01*
X115782310Y-102305756D01*
X115870822Y-102280572D01*
X115989340Y-102246850D01*
X116040647Y-102250543D01*
X116077577Y-102286352D01*
X116084993Y-102323551D01*
X116075618Y-102484520D01*
X116106489Y-102659600D01*
X116176904Y-102822838D01*
X116283067Y-102965439D01*
X116419250Y-103079711D01*
X116419251Y-103079712D01*
X116419252Y-103079712D01*
X116419254Y-103079714D01*
X116578123Y-103159501D01*
X116717342Y-103192496D01*
X116751105Y-103200499D01*
X116751106Y-103200499D01*
X116751110Y-103200500D01*
X116751114Y-103200500D01*
X116884299Y-103200500D01*
X116884301Y-103200499D01*
X117016573Y-103185039D01*
X117016574Y-103185038D01*
X117016577Y-103185038D01*
X117183635Y-103124234D01*
X117332168Y-103026543D01*
X117454167Y-102897231D01*
X117543057Y-102743269D01*
X117594045Y-102572958D01*
X117604382Y-102395480D01*
X117573511Y-102220401D01*
X117503096Y-102057162D01*
X117396933Y-101914561D01*
X117396932Y-101914560D01*
X117260749Y-101800288D01*
X117260748Y-101800287D01*
X117101877Y-101720499D01*
X116928894Y-101679500D01*
X116928890Y-101679500D01*
X116795708Y-101679500D01*
X116721381Y-101688187D01*
X116671327Y-101676323D01*
X116640610Y-101635062D01*
X116642528Y-101586332D01*
X116681321Y-101486198D01*
X116720500Y-101276610D01*
X116720500Y-101063390D01*
X116681321Y-100853802D01*
X116643451Y-100756049D01*
X116642396Y-100704624D01*
X116674645Y-100664548D01*
X116725109Y-100654577D01*
X116730916Y-100655714D01*
X116751105Y-100660499D01*
X116751106Y-100660499D01*
X116751110Y-100660500D01*
X116751114Y-100660500D01*
X116884299Y-100660500D01*
X116884301Y-100660499D01*
X117016573Y-100645039D01*
X117016574Y-100645038D01*
X117016577Y-100645038D01*
X117183635Y-100584234D01*
X117332168Y-100486543D01*
X117454167Y-100357231D01*
X117543057Y-100203269D01*
X117594045Y-100032958D01*
X117604382Y-99855480D01*
X117573511Y-99680401D01*
X117503096Y-99517162D01*
X117396933Y-99374561D01*
X117396932Y-99374560D01*
X117260749Y-99260288D01*
X117260748Y-99260287D01*
X117101877Y-99180499D01*
X116928894Y-99139500D01*
X116928890Y-99139500D01*
X116795708Y-99139500D01*
X116795698Y-99139500D01*
X116663426Y-99154960D01*
X116663424Y-99154961D01*
X116496363Y-99215766D01*
X116347831Y-99313457D01*
X116225831Y-99442770D01*
X116136942Y-99596731D01*
X116085955Y-99767041D01*
X116075618Y-99944520D01*
X116086947Y-100008769D01*
X116078014Y-100059427D01*
X116038609Y-100092492D01*
X115991033Y-100092492D01*
X115990733Y-100093546D01*
X115782313Y-100034244D01*
X115782314Y-100034244D01*
X115623200Y-100019500D01*
X115623194Y-100019500D01*
X115516806Y-100019500D01*
X115516800Y-100019500D01*
X115357685Y-100034244D01*
X115150659Y-100093149D01*
X115099351Y-100089456D01*
X115062422Y-100053647D01*
X115055006Y-100016449D01*
X115064382Y-99855480D01*
X115033511Y-99680401D01*
X114963096Y-99517162D01*
X114856933Y-99374561D01*
X114856932Y-99374560D01*
X114720749Y-99260288D01*
X114720748Y-99260287D01*
X114561877Y-99180499D01*
X114388894Y-99139500D01*
X114388890Y-99139500D01*
X114255708Y-99139500D01*
X114255700Y-99139500D01*
X114123423Y-99154961D01*
X114100919Y-99163152D01*
X114049479Y-99163151D01*
X114010074Y-99130086D01*
X114000000Y-99092487D01*
X114000000Y-98165571D01*
X114017593Y-98117233D01*
X114062142Y-98091513D01*
X114092538Y-98092397D01*
X114211110Y-98120500D01*
X114211114Y-98120500D01*
X114344299Y-98120500D01*
X114344301Y-98120499D01*
X114476573Y-98105039D01*
X114476574Y-98105038D01*
X114476577Y-98105038D01*
X114643635Y-98044234D01*
X114792168Y-97946543D01*
X114914167Y-97817231D01*
X115003057Y-97663269D01*
X115054045Y-97492958D01*
X115059196Y-97404520D01*
X116075618Y-97404520D01*
X116106489Y-97579600D01*
X116176904Y-97742838D01*
X116283067Y-97885439D01*
X116419250Y-97999711D01*
X116419251Y-97999712D01*
X116419252Y-97999712D01*
X116419254Y-97999714D01*
X116578123Y-98079501D01*
X116717342Y-98112496D01*
X116751105Y-98120499D01*
X116751106Y-98120499D01*
X116751110Y-98120500D01*
X116751114Y-98120500D01*
X116884299Y-98120500D01*
X116884301Y-98120499D01*
X117016573Y-98105039D01*
X117016574Y-98105038D01*
X117016577Y-98105038D01*
X117183635Y-98044234D01*
X117332168Y-97946543D01*
X117454167Y-97817231D01*
X117543057Y-97663269D01*
X117594045Y-97492958D01*
X117599459Y-97400000D01*
X121785874Y-97400000D01*
X121805096Y-97546008D01*
X121819010Y-97579599D01*
X121861453Y-97682063D01*
X121861454Y-97682065D01*
X121861455Y-97682066D01*
X121952960Y-97801317D01*
X121968500Y-97847096D01*
X121968500Y-107212632D01*
X121966900Y-107228062D01*
X121963555Y-107244014D01*
X121963555Y-107244021D01*
X121965727Y-107261448D01*
X121968211Y-107281373D01*
X121968500Y-107286020D01*
X121968500Y-107291609D01*
X121972403Y-107315005D01*
X121979302Y-107370355D01*
X121981081Y-107376328D01*
X121980807Y-107376409D01*
X121981889Y-107379784D01*
X121982158Y-107379692D01*
X121984180Y-107385581D01*
X121984181Y-107385584D01*
X121984182Y-107385586D01*
X121990936Y-107398067D01*
X121999999Y-107433856D01*
X122000000Y-108445132D01*
X122000000Y-108500000D01*
X123019329Y-108500000D01*
X123067667Y-108517593D01*
X123072503Y-108522026D01*
X123286744Y-108736267D01*
X123296525Y-108748311D01*
X123305438Y-108761954D01*
X123305439Y-108761955D01*
X123305440Y-108761956D01*
X123335144Y-108785075D01*
X123338635Y-108788158D01*
X123342591Y-108792114D01*
X123342594Y-108792116D01*
X123342595Y-108792117D01*
X123361900Y-108805901D01*
X123390176Y-108827908D01*
X123405915Y-108840158D01*
X123405916Y-108840158D01*
X123405917Y-108840159D01*
X123411393Y-108843123D01*
X123411256Y-108843374D01*
X123414404Y-108844995D01*
X123414530Y-108844738D01*
X123420126Y-108847473D01*
X123420128Y-108847473D01*
X123420130Y-108847475D01*
X123473586Y-108863389D01*
X123526339Y-108881500D01*
X123526342Y-108881500D01*
X123532483Y-108882525D01*
X123532435Y-108882808D01*
X123535935Y-108883318D01*
X123535971Y-108883034D01*
X123542156Y-108883804D01*
X123542159Y-108883805D01*
X123595907Y-108881581D01*
X123597885Y-108881500D01*
X130192636Y-108881500D01*
X130208069Y-108883101D01*
X130224017Y-108886445D01*
X130261373Y-108881788D01*
X130266020Y-108881500D01*
X130271609Y-108881500D01*
X130271611Y-108881500D01*
X130290319Y-108878377D01*
X130295005Y-108877596D01*
X130322681Y-108874146D01*
X130350360Y-108870696D01*
X130350361Y-108870695D01*
X130356330Y-108868918D01*
X130356412Y-108869196D01*
X130359785Y-108868116D01*
X130359691Y-108867842D01*
X130365581Y-108865819D01*
X130365581Y-108865818D01*
X130365586Y-108865818D01*
X130414641Y-108839270D01*
X130464746Y-108814776D01*
X130464746Y-108814775D01*
X130469819Y-108811154D01*
X130469987Y-108811390D01*
X130472818Y-108809279D01*
X130472640Y-108809051D01*
X130477554Y-108805224D01*
X130477562Y-108805220D01*
X130515341Y-108764180D01*
X130757496Y-108522025D01*
X130804117Y-108500286D01*
X130810671Y-108500000D01*
X132000000Y-108500000D01*
X132000000Y-107873808D01*
X132017593Y-107825470D01*
X132062142Y-107799750D01*
X132112800Y-107808683D01*
X132120974Y-107814145D01*
X132217937Y-107888547D01*
X132353993Y-107944904D01*
X132500000Y-107964126D01*
X132646007Y-107944904D01*
X132782063Y-107888547D01*
X132898897Y-107798897D01*
X132988547Y-107682063D01*
X133044904Y-107546007D01*
X133064126Y-107400000D01*
X133044904Y-107253993D01*
X132988547Y-107117937D01*
X132988544Y-107117933D01*
X132897040Y-106998682D01*
X132881500Y-106952903D01*
X132881500Y-97404520D01*
X136395618Y-97404520D01*
X136426489Y-97579600D01*
X136496904Y-97742838D01*
X136603067Y-97885439D01*
X136739250Y-97999711D01*
X136739251Y-97999712D01*
X136739252Y-97999712D01*
X136739254Y-97999714D01*
X136898123Y-98079501D01*
X137037342Y-98112496D01*
X137071105Y-98120499D01*
X137071106Y-98120499D01*
X137071110Y-98120500D01*
X137071114Y-98120500D01*
X137204299Y-98120500D01*
X137204301Y-98120499D01*
X137336573Y-98105039D01*
X137336574Y-98105038D01*
X137336577Y-98105038D01*
X137503635Y-98044234D01*
X137652168Y-97946543D01*
X137774167Y-97817231D01*
X137863057Y-97663269D01*
X137914045Y-97492958D01*
X137924382Y-97315480D01*
X137893511Y-97140401D01*
X137823096Y-96977162D01*
X137716933Y-96834561D01*
X137701517Y-96821625D01*
X137580749Y-96720288D01*
X137580748Y-96720287D01*
X137421877Y-96640499D01*
X137248894Y-96599500D01*
X137248890Y-96599500D01*
X137115708Y-96599500D01*
X137115698Y-96599500D01*
X136983426Y-96614960D01*
X136983424Y-96614961D01*
X136816363Y-96675766D01*
X136667831Y-96773457D01*
X136545831Y-96902770D01*
X136456942Y-97056731D01*
X136405955Y-97227041D01*
X136395618Y-97404520D01*
X132881500Y-97404520D01*
X132881500Y-96147096D01*
X132897040Y-96101317D01*
X132898897Y-96098897D01*
X132988547Y-95982063D01*
X133044904Y-95846007D01*
X133064126Y-95700000D01*
X133044904Y-95553993D01*
X132988547Y-95417937D01*
X132979803Y-95406542D01*
X132898897Y-95301102D01*
X132782066Y-95211455D01*
X132782065Y-95211454D01*
X132782063Y-95211453D01*
X132694112Y-95175022D01*
X132646008Y-95155096D01*
X132500000Y-95135874D01*
X132353991Y-95155096D01*
X132257781Y-95194948D01*
X132217937Y-95211453D01*
X132217936Y-95211453D01*
X132217933Y-95211455D01*
X132101102Y-95301102D01*
X132011454Y-95417934D01*
X132011453Y-95417936D01*
X131986174Y-95478962D01*
X131951421Y-95516887D01*
X131900421Y-95523600D01*
X131857038Y-95495961D01*
X131841500Y-95450185D01*
X131841500Y-94864520D01*
X136395618Y-94864520D01*
X136426489Y-95039600D01*
X136496904Y-95202838D01*
X136603067Y-95345439D01*
X136739250Y-95459711D01*
X136739251Y-95459712D01*
X136739252Y-95459712D01*
X136739254Y-95459714D01*
X136898123Y-95539501D01*
X137037342Y-95572496D01*
X137071105Y-95580499D01*
X137071106Y-95580499D01*
X137071110Y-95580500D01*
X137071114Y-95580500D01*
X137204299Y-95580500D01*
X137204301Y-95580499D01*
X137336573Y-95565039D01*
X137336574Y-95565038D01*
X137336577Y-95565038D01*
X137503635Y-95504234D01*
X137652168Y-95406543D01*
X137774167Y-95277231D01*
X137863057Y-95123269D01*
X137914045Y-94952958D01*
X137919196Y-94864520D01*
X138935618Y-94864520D01*
X138966489Y-95039600D01*
X139036904Y-95202838D01*
X139143067Y-95345439D01*
X139279250Y-95459711D01*
X139279251Y-95459712D01*
X139279252Y-95459712D01*
X139279254Y-95459714D01*
X139438123Y-95539501D01*
X139577342Y-95572496D01*
X139611105Y-95580499D01*
X139611106Y-95580499D01*
X139611110Y-95580500D01*
X139611114Y-95580500D01*
X139744299Y-95580500D01*
X139744301Y-95580499D01*
X139876573Y-95565039D01*
X139876574Y-95565038D01*
X139876577Y-95565038D01*
X140043635Y-95504234D01*
X140192168Y-95406543D01*
X140314167Y-95277231D01*
X140403057Y-95123269D01*
X140454045Y-94952958D01*
X140464382Y-94775480D01*
X140433511Y-94600401D01*
X140363096Y-94437162D01*
X140256933Y-94294561D01*
X140256932Y-94294560D01*
X140120749Y-94180288D01*
X140120748Y-94180287D01*
X139961877Y-94100499D01*
X139788894Y-94059500D01*
X139788890Y-94059500D01*
X139655708Y-94059500D01*
X139655698Y-94059500D01*
X139523426Y-94074960D01*
X139523424Y-94074961D01*
X139356363Y-94135766D01*
X139207831Y-94233457D01*
X139085831Y-94362770D01*
X138996942Y-94516731D01*
X138945955Y-94687041D01*
X138935618Y-94864520D01*
X137919196Y-94864520D01*
X137924382Y-94775480D01*
X137893511Y-94600401D01*
X137823096Y-94437162D01*
X137716933Y-94294561D01*
X137716932Y-94294560D01*
X137580749Y-94180288D01*
X137580748Y-94180287D01*
X137421877Y-94100499D01*
X137248894Y-94059500D01*
X137248890Y-94059500D01*
X137115708Y-94059500D01*
X137115698Y-94059500D01*
X136983426Y-94074960D01*
X136983424Y-94074961D01*
X136816363Y-94135766D01*
X136667831Y-94233457D01*
X136545831Y-94362770D01*
X136456942Y-94516731D01*
X136405955Y-94687041D01*
X136395618Y-94864520D01*
X131841500Y-94864520D01*
X131841500Y-94229169D01*
X131859093Y-94180831D01*
X131863515Y-94176006D01*
X133153616Y-92885905D01*
X133196974Y-92864523D01*
X133199994Y-92864125D01*
X133200000Y-92864126D01*
X133346007Y-92844904D01*
X133482063Y-92788547D01*
X133598897Y-92698897D01*
X133688547Y-92582063D01*
X133744904Y-92446007D01*
X133760898Y-92324520D01*
X136395618Y-92324520D01*
X136426489Y-92499600D01*
X136496904Y-92662838D01*
X136603067Y-92805439D01*
X136739250Y-92919711D01*
X136739251Y-92919712D01*
X136739252Y-92919712D01*
X136739254Y-92919714D01*
X136898123Y-92999501D01*
X137037342Y-93032496D01*
X137071105Y-93040499D01*
X137071106Y-93040499D01*
X137071110Y-93040500D01*
X137071114Y-93040500D01*
X137204299Y-93040500D01*
X137204301Y-93040499D01*
X137336573Y-93025039D01*
X137336574Y-93025038D01*
X137336577Y-93025038D01*
X137503635Y-92964234D01*
X137652168Y-92866543D01*
X137774167Y-92737231D01*
X137863057Y-92583269D01*
X137914045Y-92412958D01*
X137919196Y-92324520D01*
X138935618Y-92324520D01*
X138966489Y-92499600D01*
X139036904Y-92662838D01*
X139143067Y-92805439D01*
X139279250Y-92919711D01*
X139279251Y-92919712D01*
X139279252Y-92919712D01*
X139279254Y-92919714D01*
X139438123Y-92999501D01*
X139577342Y-93032496D01*
X139611105Y-93040499D01*
X139611106Y-93040499D01*
X139611110Y-93040500D01*
X139611114Y-93040500D01*
X139744299Y-93040500D01*
X139744301Y-93040499D01*
X139876573Y-93025039D01*
X139876574Y-93025038D01*
X139876577Y-93025038D01*
X140043635Y-92964234D01*
X140192168Y-92866543D01*
X140314167Y-92737231D01*
X140403057Y-92583269D01*
X140454045Y-92412958D01*
X140464382Y-92235480D01*
X140433511Y-92060401D01*
X140363096Y-91897162D01*
X140256933Y-91754561D01*
X140234663Y-91735874D01*
X140120749Y-91640288D01*
X140120748Y-91640287D01*
X139961877Y-91560499D01*
X139788894Y-91519500D01*
X139788890Y-91519500D01*
X139655708Y-91519500D01*
X139655698Y-91519500D01*
X139523426Y-91534960D01*
X139523424Y-91534961D01*
X139356363Y-91595766D01*
X139207831Y-91693457D01*
X139085831Y-91822770D01*
X138996942Y-91976731D01*
X138945955Y-92147041D01*
X138935618Y-92324520D01*
X137919196Y-92324520D01*
X137924382Y-92235480D01*
X137893511Y-92060401D01*
X137823096Y-91897162D01*
X137716933Y-91754561D01*
X137694663Y-91735874D01*
X137580749Y-91640288D01*
X137580748Y-91640287D01*
X137421877Y-91560499D01*
X137248894Y-91519500D01*
X137248890Y-91519500D01*
X137115708Y-91519500D01*
X137115698Y-91519500D01*
X136983426Y-91534960D01*
X136983424Y-91534961D01*
X136816363Y-91595766D01*
X136667831Y-91693457D01*
X136545831Y-91822770D01*
X136456942Y-91976731D01*
X136405955Y-92147041D01*
X136395618Y-92324520D01*
X133760898Y-92324520D01*
X133764126Y-92300000D01*
X133744904Y-92153993D01*
X133688547Y-92017937D01*
X133688544Y-92017933D01*
X133598897Y-91901102D01*
X133482066Y-91811455D01*
X133482065Y-91811454D01*
X133482063Y-91811453D01*
X133394112Y-91775022D01*
X133346008Y-91755096D01*
X133200000Y-91735874D01*
X133053991Y-91755096D01*
X132957781Y-91794948D01*
X132917937Y-91811453D01*
X132917936Y-91811453D01*
X132917933Y-91811455D01*
X132801102Y-91901102D01*
X132711455Y-92017933D01*
X132655096Y-92153991D01*
X132635476Y-92303024D01*
X132614093Y-92346382D01*
X131223731Y-93736744D01*
X131211691Y-93746523D01*
X131198044Y-93755439D01*
X131174927Y-93785140D01*
X131171843Y-93788633D01*
X131167889Y-93792586D01*
X131167882Y-93792595D01*
X131159395Y-93804481D01*
X131154099Y-93811900D01*
X131140767Y-93829029D01*
X131119840Y-93855916D01*
X131116878Y-93861390D01*
X131116629Y-93861255D01*
X131115007Y-93864408D01*
X131115261Y-93864532D01*
X131112527Y-93870125D01*
X131112525Y-93870128D01*
X131112525Y-93870130D01*
X131096610Y-93923586D01*
X131096610Y-93923587D01*
X131078500Y-93976334D01*
X131077475Y-93982484D01*
X131077192Y-93982436D01*
X131076682Y-93985938D01*
X131076966Y-93985974D01*
X131076195Y-93992157D01*
X131078500Y-94047885D01*
X131078500Y-96924800D01*
X131060907Y-96973138D01*
X131016358Y-96998858D01*
X131003300Y-97000000D01*
X128568180Y-97000000D01*
X128519842Y-96982407D01*
X128507979Y-96969866D01*
X128405118Y-96832459D01*
X128405114Y-96832455D01*
X128405112Y-96832452D01*
X128217547Y-96644887D01*
X128217543Y-96644884D01*
X128217541Y-96644882D01*
X128005179Y-96485910D01*
X128005177Y-96485909D01*
X128005176Y-96485908D01*
X127772356Y-96358779D01*
X127772353Y-96358778D01*
X127608219Y-96297558D01*
X127569077Y-96264182D01*
X127559299Y-96227103D01*
X127559299Y-95929120D01*
X127559620Y-95924216D01*
X127564126Y-95890000D01*
X127559620Y-95855781D01*
X127559299Y-95850879D01*
X127559299Y-95846007D01*
X127559299Y-95827573D01*
X127559524Y-95823754D01*
X127559754Y-95821509D01*
X127559816Y-95820989D01*
X127562824Y-95807030D01*
X127566349Y-95795925D01*
X127568168Y-95742656D01*
X127568277Y-95739479D01*
X127568452Y-95736916D01*
X127572247Y-95699999D01*
X127574229Y-95680726D01*
X127572249Y-95669249D01*
X127571200Y-95653901D01*
X127571598Y-95642267D01*
X127571598Y-95642266D01*
X127561435Y-95600565D01*
X127559299Y-95582777D01*
X127559299Y-87609728D01*
X129225874Y-87609728D01*
X129245096Y-87755735D01*
X129301453Y-87891791D01*
X129301454Y-87891793D01*
X129301455Y-87891794D01*
X129391102Y-88008625D01*
X129507933Y-88098272D01*
X129507937Y-88098275D01*
X129643993Y-88154632D01*
X129790000Y-88173854D01*
X129834574Y-88167985D01*
X129884792Y-88179118D01*
X129891827Y-88184193D01*
X131090738Y-89158937D01*
X131117145Y-89203081D01*
X131118499Y-89217286D01*
X131118499Y-91352905D01*
X131102959Y-91398684D01*
X131011455Y-91517933D01*
X131011453Y-91517936D01*
X131011453Y-91517937D01*
X131004401Y-91534962D01*
X130955096Y-91653991D01*
X130944316Y-91735874D01*
X130935874Y-91800000D01*
X130955096Y-91946007D01*
X131011453Y-92082063D01*
X131011454Y-92082065D01*
X131011455Y-92082066D01*
X131101102Y-92198897D01*
X131217933Y-92288544D01*
X131217937Y-92288547D01*
X131353993Y-92344904D01*
X131500000Y-92364126D01*
X131646007Y-92344904D01*
X131782063Y-92288547D01*
X131898897Y-92198897D01*
X131988547Y-92082063D01*
X132044904Y-91946007D01*
X132064126Y-91800000D01*
X132044904Y-91653993D01*
X131988547Y-91517937D01*
X131988544Y-91517933D01*
X131897040Y-91398682D01*
X131881500Y-91352903D01*
X131881500Y-89784520D01*
X136395618Y-89784520D01*
X136426489Y-89959600D01*
X136496904Y-90122838D01*
X136603067Y-90265439D01*
X136739250Y-90379711D01*
X136739251Y-90379712D01*
X136739252Y-90379712D01*
X136739254Y-90379714D01*
X136898123Y-90459501D01*
X137037342Y-90492496D01*
X137071105Y-90500499D01*
X137071106Y-90500499D01*
X137071110Y-90500500D01*
X137071114Y-90500500D01*
X137204299Y-90500500D01*
X137204301Y-90500499D01*
X137336573Y-90485039D01*
X137336574Y-90485038D01*
X137336577Y-90485038D01*
X137503635Y-90424234D01*
X137652168Y-90326543D01*
X137774167Y-90197231D01*
X137863057Y-90043269D01*
X137914045Y-89872958D01*
X137919196Y-89784520D01*
X138935618Y-89784520D01*
X138966489Y-89959600D01*
X139036904Y-90122838D01*
X139143067Y-90265439D01*
X139279250Y-90379711D01*
X139279251Y-90379712D01*
X139279252Y-90379712D01*
X139279254Y-90379714D01*
X139438123Y-90459501D01*
X139577342Y-90492496D01*
X139611105Y-90500499D01*
X139611106Y-90500499D01*
X139611110Y-90500500D01*
X139611114Y-90500500D01*
X139744299Y-90500500D01*
X139744301Y-90500499D01*
X139876573Y-90485039D01*
X139876574Y-90485038D01*
X139876577Y-90485038D01*
X140043635Y-90424234D01*
X140192168Y-90326543D01*
X140314167Y-90197231D01*
X140403057Y-90043269D01*
X140454045Y-89872958D01*
X140464382Y-89695480D01*
X140433511Y-89520401D01*
X140363096Y-89357162D01*
X140256933Y-89214561D01*
X140217542Y-89181508D01*
X140120749Y-89100288D01*
X140120748Y-89100287D01*
X139961877Y-89020499D01*
X139788894Y-88979500D01*
X139788890Y-88979500D01*
X139655708Y-88979500D01*
X139655698Y-88979500D01*
X139523426Y-88994960D01*
X139523424Y-88994961D01*
X139356363Y-89055766D01*
X139207831Y-89153457D01*
X139085831Y-89282770D01*
X138996942Y-89436731D01*
X138945955Y-89607041D01*
X138935618Y-89784520D01*
X137919196Y-89784520D01*
X137924382Y-89695480D01*
X137893511Y-89520401D01*
X137823096Y-89357162D01*
X137716933Y-89214561D01*
X137677542Y-89181508D01*
X137580749Y-89100288D01*
X137580748Y-89100287D01*
X137421877Y-89020499D01*
X137248894Y-88979500D01*
X137248890Y-88979500D01*
X137115708Y-88979500D01*
X137115698Y-88979500D01*
X136983426Y-88994960D01*
X136983424Y-88994961D01*
X136816363Y-89055766D01*
X136667831Y-89153457D01*
X136545831Y-89282770D01*
X136456942Y-89436731D01*
X136405955Y-89607041D01*
X136395618Y-89784520D01*
X131881500Y-89784520D01*
X131881500Y-89021794D01*
X131881703Y-89017890D01*
X131886046Y-88976255D01*
X131874616Y-88926722D01*
X131874178Y-88924518D01*
X131865818Y-88874414D01*
X131864962Y-88872833D01*
X131857824Y-88853948D01*
X131857419Y-88852196D01*
X131857419Y-88852195D01*
X131857419Y-88852194D01*
X131830545Y-88809088D01*
X131829390Y-88807102D01*
X131805219Y-88762437D01*
X131803898Y-88761221D01*
X131791011Y-88745674D01*
X131790060Y-88744148D01*
X131776538Y-88733154D01*
X131750650Y-88712106D01*
X131748903Y-88710595D01*
X131711546Y-88676205D01*
X131711542Y-88676202D01*
X131709893Y-88675479D01*
X131692668Y-88664965D01*
X130453177Y-87657229D01*
X130372467Y-87591610D01*
X130346061Y-87547467D01*
X130345355Y-87543111D01*
X130334904Y-87463721D01*
X130278547Y-87327665D01*
X130214748Y-87244520D01*
X136395618Y-87244520D01*
X136426489Y-87419600D01*
X136496904Y-87582838D01*
X136603067Y-87725439D01*
X136739250Y-87839711D01*
X136739251Y-87839712D01*
X136739252Y-87839712D01*
X136739254Y-87839714D01*
X136898123Y-87919501D01*
X137037342Y-87952496D01*
X137071105Y-87960499D01*
X137071106Y-87960499D01*
X137071110Y-87960500D01*
X137071114Y-87960500D01*
X137204299Y-87960500D01*
X137204301Y-87960499D01*
X137336573Y-87945039D01*
X137336574Y-87945038D01*
X137336577Y-87945038D01*
X137503635Y-87884234D01*
X137652168Y-87786543D01*
X137774167Y-87657231D01*
X137863057Y-87503269D01*
X137914045Y-87332958D01*
X137919196Y-87244520D01*
X138935618Y-87244520D01*
X138966489Y-87419600D01*
X139036904Y-87582838D01*
X139143067Y-87725439D01*
X139279250Y-87839711D01*
X139279251Y-87839712D01*
X139279252Y-87839712D01*
X139279254Y-87839714D01*
X139438123Y-87919501D01*
X139577342Y-87952496D01*
X139611105Y-87960499D01*
X139611106Y-87960499D01*
X139611110Y-87960500D01*
X139611114Y-87960500D01*
X139744299Y-87960500D01*
X139744301Y-87960499D01*
X139876573Y-87945039D01*
X139876574Y-87945038D01*
X139876577Y-87945038D01*
X140043635Y-87884234D01*
X140192168Y-87786543D01*
X140314167Y-87657231D01*
X140403057Y-87503269D01*
X140454045Y-87332958D01*
X140464382Y-87155480D01*
X140433511Y-86980401D01*
X140363096Y-86817162D01*
X140256933Y-86674561D01*
X140256932Y-86674560D01*
X140120749Y-86560288D01*
X140120748Y-86560287D01*
X139961877Y-86480499D01*
X139788894Y-86439500D01*
X139788890Y-86439500D01*
X139655708Y-86439500D01*
X139655698Y-86439500D01*
X139523426Y-86454960D01*
X139523424Y-86454961D01*
X139356363Y-86515766D01*
X139207831Y-86613457D01*
X139085831Y-86742770D01*
X138996942Y-86896731D01*
X138945955Y-87067041D01*
X138935618Y-87244520D01*
X137919196Y-87244520D01*
X137924382Y-87155480D01*
X137893511Y-86980401D01*
X137823096Y-86817162D01*
X137716933Y-86674561D01*
X137716932Y-86674560D01*
X137580749Y-86560288D01*
X137580748Y-86560287D01*
X137421877Y-86480499D01*
X137248894Y-86439500D01*
X137248890Y-86439500D01*
X137115708Y-86439500D01*
X137115698Y-86439500D01*
X136983426Y-86454960D01*
X136983424Y-86454961D01*
X136816363Y-86515766D01*
X136667831Y-86613457D01*
X136545831Y-86742770D01*
X136456942Y-86896731D01*
X136405955Y-87067041D01*
X136395618Y-87244520D01*
X130214748Y-87244520D01*
X130188897Y-87210830D01*
X130072066Y-87121183D01*
X130072065Y-87121182D01*
X130072063Y-87121181D01*
X129973852Y-87080500D01*
X129936008Y-87064824D01*
X129790000Y-87045602D01*
X129643991Y-87064824D01*
X129547781Y-87104676D01*
X129507937Y-87121181D01*
X129507936Y-87121181D01*
X129507933Y-87121183D01*
X129391102Y-87210830D01*
X129301455Y-87327661D01*
X129245096Y-87463719D01*
X129239889Y-87503269D01*
X129225874Y-87609728D01*
X127559299Y-87609728D01*
X127559299Y-84704520D01*
X136395618Y-84704520D01*
X136426489Y-84879600D01*
X136496904Y-85042838D01*
X136603067Y-85185439D01*
X136739250Y-85299711D01*
X136739251Y-85299712D01*
X136739252Y-85299712D01*
X136739254Y-85299714D01*
X136898123Y-85379501D01*
X137034457Y-85411813D01*
X137071105Y-85420499D01*
X137071106Y-85420499D01*
X137071110Y-85420500D01*
X137071114Y-85420500D01*
X137204299Y-85420500D01*
X137204301Y-85420499D01*
X137336573Y-85405039D01*
X137336574Y-85405038D01*
X137336577Y-85405038D01*
X137503635Y-85344234D01*
X137652168Y-85246543D01*
X137774167Y-85117231D01*
X137863057Y-84963269D01*
X137914045Y-84792958D01*
X137919196Y-84704520D01*
X138935618Y-84704520D01*
X138966489Y-84879600D01*
X139036904Y-85042838D01*
X139143067Y-85185439D01*
X139279250Y-85299711D01*
X139279251Y-85299712D01*
X139279252Y-85299712D01*
X139279254Y-85299714D01*
X139438123Y-85379501D01*
X139574457Y-85411813D01*
X139611105Y-85420499D01*
X139611106Y-85420499D01*
X139611110Y-85420500D01*
X139611114Y-85420500D01*
X139744299Y-85420500D01*
X139744301Y-85420499D01*
X139876573Y-85405039D01*
X139876574Y-85405038D01*
X139876577Y-85405038D01*
X140043635Y-85344234D01*
X140192168Y-85246543D01*
X140314167Y-85117231D01*
X140403057Y-84963269D01*
X140454045Y-84792958D01*
X140464382Y-84615480D01*
X140433511Y-84440401D01*
X140363096Y-84277162D01*
X140256933Y-84134561D01*
X140256932Y-84134560D01*
X140120749Y-84020288D01*
X140120748Y-84020287D01*
X139961877Y-83940499D01*
X139788894Y-83899500D01*
X139788890Y-83899500D01*
X139655708Y-83899500D01*
X139655698Y-83899500D01*
X139523426Y-83914960D01*
X139523424Y-83914961D01*
X139356363Y-83975766D01*
X139207831Y-84073457D01*
X139085831Y-84202770D01*
X138996942Y-84356731D01*
X138945955Y-84527041D01*
X138935618Y-84704520D01*
X137919196Y-84704520D01*
X137924382Y-84615480D01*
X137893511Y-84440401D01*
X137823096Y-84277162D01*
X137716933Y-84134561D01*
X137716932Y-84134560D01*
X137580749Y-84020288D01*
X137580748Y-84020287D01*
X137421877Y-83940499D01*
X137248894Y-83899500D01*
X137248890Y-83899500D01*
X137115708Y-83899500D01*
X137115698Y-83899500D01*
X136983426Y-83914960D01*
X136983424Y-83914961D01*
X136816363Y-83975766D01*
X136667831Y-84073457D01*
X136545831Y-84202770D01*
X136456942Y-84356731D01*
X136405955Y-84527041D01*
X136395618Y-84704520D01*
X127559299Y-84704520D01*
X127559299Y-82662816D01*
X127576892Y-82614479D01*
X127581313Y-82609655D01*
X128026448Y-82164520D01*
X136395618Y-82164520D01*
X136426489Y-82339600D01*
X136496904Y-82502838D01*
X136603067Y-82645439D01*
X136739250Y-82759711D01*
X136739251Y-82759712D01*
X136739252Y-82759712D01*
X136739254Y-82759714D01*
X136898123Y-82839501D01*
X137037342Y-82872496D01*
X137071105Y-82880499D01*
X137071106Y-82880499D01*
X137071110Y-82880500D01*
X137071114Y-82880500D01*
X137204299Y-82880500D01*
X137204301Y-82880499D01*
X137336573Y-82865039D01*
X137336574Y-82865038D01*
X137336577Y-82865038D01*
X137503635Y-82804234D01*
X137652168Y-82706543D01*
X137774167Y-82577231D01*
X137863057Y-82423269D01*
X137914045Y-82252958D01*
X137919196Y-82164520D01*
X138935618Y-82164520D01*
X138966489Y-82339600D01*
X139036904Y-82502838D01*
X139143067Y-82645439D01*
X139279250Y-82759711D01*
X139279251Y-82759712D01*
X139279252Y-82759712D01*
X139279254Y-82759714D01*
X139438123Y-82839501D01*
X139577342Y-82872496D01*
X139611105Y-82880499D01*
X139611106Y-82880499D01*
X139611110Y-82880500D01*
X139611114Y-82880500D01*
X139744299Y-82880500D01*
X139744301Y-82880499D01*
X139876573Y-82865039D01*
X139876574Y-82865038D01*
X139876577Y-82865038D01*
X140043635Y-82804234D01*
X140192168Y-82706543D01*
X140314167Y-82577231D01*
X140403057Y-82423269D01*
X140454045Y-82252958D01*
X140464382Y-82075480D01*
X140433511Y-81900401D01*
X140363096Y-81737162D01*
X140256933Y-81594561D01*
X140256932Y-81594560D01*
X140120749Y-81480288D01*
X140120748Y-81480287D01*
X139961877Y-81400499D01*
X139788894Y-81359500D01*
X139788890Y-81359500D01*
X139655708Y-81359500D01*
X139655698Y-81359500D01*
X139523426Y-81374960D01*
X139523424Y-81374961D01*
X139356363Y-81435766D01*
X139207831Y-81533457D01*
X139085831Y-81662770D01*
X138996942Y-81816731D01*
X138945955Y-81987041D01*
X138935618Y-82164520D01*
X137919196Y-82164520D01*
X137924382Y-82075480D01*
X137893511Y-81900401D01*
X137823096Y-81737162D01*
X137716933Y-81594561D01*
X137716932Y-81594560D01*
X137580749Y-81480288D01*
X137580748Y-81480287D01*
X137421877Y-81400499D01*
X137248894Y-81359500D01*
X137248890Y-81359500D01*
X137115708Y-81359500D01*
X137115698Y-81359500D01*
X136983426Y-81374960D01*
X136983424Y-81374961D01*
X136816363Y-81435766D01*
X136667831Y-81533457D01*
X136545831Y-81662770D01*
X136456942Y-81816731D01*
X136405955Y-81987041D01*
X136395618Y-82164520D01*
X128026448Y-82164520D01*
X130566448Y-79624520D01*
X136395618Y-79624520D01*
X136426489Y-79799600D01*
X136496904Y-79962838D01*
X136603067Y-80105439D01*
X136739250Y-80219711D01*
X136739251Y-80219712D01*
X136739252Y-80219712D01*
X136739254Y-80219714D01*
X136898123Y-80299501D01*
X137034457Y-80331813D01*
X137071105Y-80340499D01*
X137071106Y-80340499D01*
X137071110Y-80340500D01*
X137071114Y-80340500D01*
X137204299Y-80340500D01*
X137204301Y-80340499D01*
X137336573Y-80325039D01*
X137336574Y-80325038D01*
X137336577Y-80325038D01*
X137503635Y-80264234D01*
X137652168Y-80166543D01*
X137774167Y-80037231D01*
X137863057Y-79883269D01*
X137914045Y-79712958D01*
X137919196Y-79624520D01*
X138935618Y-79624520D01*
X138966489Y-79799600D01*
X139036904Y-79962838D01*
X139143067Y-80105439D01*
X139279250Y-80219711D01*
X139279251Y-80219712D01*
X139279252Y-80219712D01*
X139279254Y-80219714D01*
X139438123Y-80299501D01*
X139574457Y-80331813D01*
X139611105Y-80340499D01*
X139611106Y-80340499D01*
X139611110Y-80340500D01*
X139611114Y-80340500D01*
X139744299Y-80340500D01*
X139744301Y-80340499D01*
X139876573Y-80325039D01*
X139876574Y-80325038D01*
X139876577Y-80325038D01*
X140043635Y-80264234D01*
X140192168Y-80166543D01*
X140314167Y-80037231D01*
X140403057Y-79883269D01*
X140454045Y-79712958D01*
X140464382Y-79535480D01*
X140433511Y-79360401D01*
X140363096Y-79197162D01*
X140256933Y-79054561D01*
X140256932Y-79054560D01*
X140120749Y-78940288D01*
X140120748Y-78940287D01*
X139961877Y-78860499D01*
X139788894Y-78819500D01*
X139788890Y-78819500D01*
X139655708Y-78819500D01*
X139655698Y-78819500D01*
X139523426Y-78834960D01*
X139523424Y-78834961D01*
X139356363Y-78895766D01*
X139207831Y-78993457D01*
X139085831Y-79122770D01*
X138996942Y-79276731D01*
X138945955Y-79447041D01*
X138935618Y-79624520D01*
X137919196Y-79624520D01*
X137924382Y-79535480D01*
X137893511Y-79360401D01*
X137823096Y-79197162D01*
X137716933Y-79054561D01*
X137716932Y-79054560D01*
X137580749Y-78940288D01*
X137580748Y-78940287D01*
X137421877Y-78860499D01*
X137248894Y-78819500D01*
X137248890Y-78819500D01*
X137115708Y-78819500D01*
X137115698Y-78819500D01*
X136983426Y-78834960D01*
X136983424Y-78834961D01*
X136816363Y-78895766D01*
X136667831Y-78993457D01*
X136545831Y-79122770D01*
X136456942Y-79276731D01*
X136405955Y-79447041D01*
X136395618Y-79624520D01*
X130566448Y-79624520D01*
X133106448Y-77084520D01*
X136395618Y-77084520D01*
X136426489Y-77259600D01*
X136496904Y-77422838D01*
X136603067Y-77565439D01*
X136739250Y-77679711D01*
X136739251Y-77679712D01*
X136739252Y-77679712D01*
X136739254Y-77679714D01*
X136898123Y-77759501D01*
X137037342Y-77792496D01*
X137071105Y-77800499D01*
X137071106Y-77800499D01*
X137071110Y-77800500D01*
X137071114Y-77800500D01*
X137204299Y-77800500D01*
X137204301Y-77800499D01*
X137336573Y-77785039D01*
X137336574Y-77785038D01*
X137336577Y-77785038D01*
X137503635Y-77724234D01*
X137652168Y-77626543D01*
X137774167Y-77497231D01*
X137863057Y-77343269D01*
X137914045Y-77172958D01*
X137924382Y-76995480D01*
X137913053Y-76931230D01*
X137921985Y-76880572D01*
X137961390Y-76847507D01*
X138008967Y-76847507D01*
X138009267Y-76846454D01*
X138217686Y-76905755D01*
X138217687Y-76905755D01*
X138217690Y-76905756D01*
X138295838Y-76912997D01*
X138376800Y-76920500D01*
X138376806Y-76920500D01*
X138483200Y-76920500D01*
X138557831Y-76913583D01*
X138642310Y-76905756D01*
X138730822Y-76880572D01*
X138849340Y-76846850D01*
X138900647Y-76850543D01*
X138937577Y-76886352D01*
X138944993Y-76923551D01*
X138935618Y-77084520D01*
X138966489Y-77259600D01*
X139036904Y-77422838D01*
X139143067Y-77565439D01*
X139279250Y-77679711D01*
X139279251Y-77679712D01*
X139279252Y-77679712D01*
X139279254Y-77679714D01*
X139438123Y-77759501D01*
X139577342Y-77792496D01*
X139611105Y-77800499D01*
X139611106Y-77800499D01*
X139611110Y-77800500D01*
X139611114Y-77800500D01*
X139744299Y-77800500D01*
X139744301Y-77800499D01*
X139876573Y-77785039D01*
X139876574Y-77785038D01*
X139876577Y-77785038D01*
X140043635Y-77724234D01*
X140192168Y-77626543D01*
X140314167Y-77497231D01*
X140403057Y-77343269D01*
X140454045Y-77172958D01*
X140464382Y-76995480D01*
X140433511Y-76820401D01*
X140363096Y-76657162D01*
X140256933Y-76514561D01*
X140256932Y-76514560D01*
X140120749Y-76400288D01*
X140120748Y-76400287D01*
X139961877Y-76320499D01*
X139788894Y-76279500D01*
X139788890Y-76279500D01*
X139655708Y-76279500D01*
X139581381Y-76288187D01*
X139531327Y-76276323D01*
X139500610Y-76235062D01*
X139502528Y-76186332D01*
X139541321Y-76086198D01*
X139580500Y-75876610D01*
X139580500Y-75663390D01*
X139541321Y-75453802D01*
X139503451Y-75356049D01*
X139502396Y-75304624D01*
X139534645Y-75264548D01*
X139585109Y-75254577D01*
X139590916Y-75255714D01*
X139611105Y-75260499D01*
X139611106Y-75260499D01*
X139611110Y-75260500D01*
X139611114Y-75260500D01*
X139744299Y-75260500D01*
X139744301Y-75260499D01*
X139876573Y-75245039D01*
X139876574Y-75245038D01*
X139876577Y-75245038D01*
X140043635Y-75184234D01*
X140192168Y-75086543D01*
X140314167Y-74957231D01*
X140403057Y-74803269D01*
X140454045Y-74632958D01*
X140464382Y-74455480D01*
X140433511Y-74280401D01*
X140363096Y-74117162D01*
X140256933Y-73974561D01*
X140256932Y-73974560D01*
X140120749Y-73860288D01*
X140120748Y-73860287D01*
X139961877Y-73780499D01*
X139788894Y-73739500D01*
X139788890Y-73739500D01*
X139655708Y-73739500D01*
X139655698Y-73739500D01*
X139523426Y-73754960D01*
X139523424Y-73754961D01*
X139356363Y-73815766D01*
X139207831Y-73913457D01*
X139085831Y-74042770D01*
X138996942Y-74196731D01*
X138945955Y-74367041D01*
X138935618Y-74544520D01*
X138946947Y-74608769D01*
X138938014Y-74659427D01*
X138898609Y-74692492D01*
X138851033Y-74692492D01*
X138850733Y-74693546D01*
X138642313Y-74634244D01*
X138642314Y-74634244D01*
X138483200Y-74619500D01*
X138483194Y-74619500D01*
X138376806Y-74619500D01*
X138376800Y-74619500D01*
X138217685Y-74634244D01*
X138010659Y-74693149D01*
X137959351Y-74689456D01*
X137922422Y-74653647D01*
X137915006Y-74616449D01*
X137924382Y-74455480D01*
X137893511Y-74280401D01*
X137823096Y-74117162D01*
X137716933Y-73974561D01*
X137716932Y-73974560D01*
X137580749Y-73860288D01*
X137580748Y-73860287D01*
X137421877Y-73780499D01*
X137248894Y-73739500D01*
X137248890Y-73739500D01*
X137115708Y-73739500D01*
X137115698Y-73739500D01*
X136983426Y-73754960D01*
X136983424Y-73754961D01*
X136816363Y-73815766D01*
X136667831Y-73913457D01*
X136545831Y-74042770D01*
X136456942Y-74196731D01*
X136405955Y-74367041D01*
X136395618Y-74544520D01*
X136426489Y-74719600D01*
X136496904Y-74882838D01*
X136603067Y-75025439D01*
X136739250Y-75139711D01*
X136739251Y-75139712D01*
X136739252Y-75139712D01*
X136739254Y-75139714D01*
X136898123Y-75219501D01*
X137034457Y-75251813D01*
X137071105Y-75260499D01*
X137071106Y-75260499D01*
X137071110Y-75260500D01*
X137071114Y-75260500D01*
X137204299Y-75260500D01*
X137204299Y-75260499D01*
X137227390Y-75257800D01*
X137278617Y-75251813D01*
X137328671Y-75263675D01*
X137359389Y-75304936D01*
X137357470Y-75353669D01*
X137318679Y-75453800D01*
X137318679Y-75453802D01*
X137279500Y-75663390D01*
X137279500Y-75876610D01*
X137310843Y-76044280D01*
X137318679Y-76086199D01*
X137356547Y-76183947D01*
X137357603Y-76235376D01*
X137325354Y-76275451D01*
X137274890Y-76285422D01*
X137269085Y-76284286D01*
X137261217Y-76282421D01*
X137248890Y-76279500D01*
X137115708Y-76279500D01*
X137115698Y-76279500D01*
X136983426Y-76294960D01*
X136983424Y-76294961D01*
X136816363Y-76355766D01*
X136667831Y-76453457D01*
X136545831Y-76582770D01*
X136456942Y-76736731D01*
X136405955Y-76907041D01*
X136395618Y-77084520D01*
X133106448Y-77084520D01*
X139039643Y-71151326D01*
X139086264Y-71129586D01*
X139092818Y-71129300D01*
X139924800Y-71129300D01*
X139973138Y-71146893D01*
X139998858Y-71191442D01*
X140000000Y-71204499D01*
X140000000Y-71950000D01*
X143726192Y-71950000D01*
X143774530Y-71967593D01*
X143779366Y-71972026D01*
X143782452Y-71975112D01*
X143782455Y-71975114D01*
X143782459Y-71975118D01*
X143994821Y-72134090D01*
X143994823Y-72134091D01*
X144227639Y-72261218D01*
X144227640Y-72261218D01*
X144227645Y-72261221D01*
X144476192Y-72353925D01*
X144476196Y-72353926D01*
X144476202Y-72353928D01*
X144722785Y-72407568D01*
X144735403Y-72410313D01*
X144735417Y-72410314D01*
X144999994Y-72429237D01*
X145000000Y-72429237D01*
X145000006Y-72429237D01*
X145226206Y-72413058D01*
X145264597Y-72410313D01*
X145342262Y-72393417D01*
X145523797Y-72353928D01*
X145523800Y-72353926D01*
X145523808Y-72353925D01*
X145772355Y-72261221D01*
X146005179Y-72134090D01*
X146217541Y-71975118D01*
X146217547Y-71975112D01*
X146220634Y-71972026D01*
X146267254Y-71950286D01*
X146273808Y-71950000D01*
X150000000Y-71950000D01*
X150000000Y-60450000D01*
X140000000Y-60450000D01*
X140000000Y-69935500D01*
X139982407Y-69983838D01*
X139937858Y-70009558D01*
X139924800Y-70010700D01*
X138839524Y-70010700D01*
X138772268Y-70008401D01*
X138772263Y-70008402D01*
X138727316Y-70019355D01*
X138723532Y-70020074D01*
X138677686Y-70026376D01*
X138677684Y-70026376D01*
X138656971Y-70035373D01*
X138644822Y-70039458D01*
X138622894Y-70044802D01*
X138622888Y-70044804D01*
X138582552Y-70067482D01*
X138579105Y-70069194D01*
X138536665Y-70087630D01*
X138536659Y-70087634D01*
X138519150Y-70101878D01*
X138508555Y-70109089D01*
X138488878Y-70120153D01*
X138488868Y-70120161D01*
X138456144Y-70152883D01*
X138453286Y-70155463D01*
X138417402Y-70184657D01*
X138417398Y-70184661D01*
X138404380Y-70203103D01*
X138396120Y-70212908D01*
X126611271Y-81997759D01*
X126562066Y-82043713D01*
X126538018Y-82083255D01*
X126535852Y-82086439D01*
X126507897Y-82123302D01*
X126499614Y-82144307D01*
X126493912Y-82155787D01*
X126482183Y-82175075D01*
X126482181Y-82175080D01*
X126469696Y-82219633D01*
X126468469Y-82223282D01*
X126451494Y-82266330D01*
X126451492Y-82266342D01*
X126449183Y-82288793D01*
X126446791Y-82301383D01*
X126440699Y-82323127D01*
X126440699Y-82369398D01*
X126440502Y-82373244D01*
X126435770Y-82419273D01*
X126439606Y-82441519D01*
X126440699Y-82454295D01*
X126440700Y-95633126D01*
X126440700Y-95679391D01*
X126440503Y-95683238D01*
X126435770Y-95729277D01*
X126437180Y-95737455D01*
X126437562Y-95742656D01*
X126437877Y-95742624D01*
X126438402Y-95747739D01*
X126438565Y-95748406D01*
X126440699Y-95766193D01*
X126440700Y-95850872D01*
X126440378Y-95855785D01*
X126435874Y-95890001D01*
X126440377Y-95924215D01*
X126440699Y-95929127D01*
X126440699Y-96227100D01*
X126423106Y-96275438D01*
X126391779Y-96297558D01*
X126227651Y-96358775D01*
X126227643Y-96358779D01*
X125994823Y-96485908D01*
X125782452Y-96644887D01*
X125594887Y-96832452D01*
X125591333Y-96837200D01*
X125508009Y-96948509D01*
X125492021Y-96969866D01*
X125448969Y-96998019D01*
X125431820Y-97000000D01*
X122772987Y-97000000D01*
X122727208Y-96984460D01*
X122632066Y-96911455D01*
X122632065Y-96911454D01*
X122632063Y-96911453D01*
X122544112Y-96875022D01*
X122496008Y-96855096D01*
X122350000Y-96835874D01*
X122203991Y-96855096D01*
X122107781Y-96894948D01*
X122067937Y-96911453D01*
X122067936Y-96911453D01*
X122067933Y-96911455D01*
X121951102Y-97001102D01*
X121861455Y-97117933D01*
X121805096Y-97253991D01*
X121785874Y-97400000D01*
X117599459Y-97400000D01*
X117604382Y-97315480D01*
X117573511Y-97140401D01*
X117503096Y-96977162D01*
X117396933Y-96834561D01*
X117381517Y-96821625D01*
X117260749Y-96720288D01*
X117260748Y-96720287D01*
X117101877Y-96640499D01*
X116928894Y-96599500D01*
X116928890Y-96599500D01*
X116795708Y-96599500D01*
X116795698Y-96599500D01*
X116663426Y-96614960D01*
X116663424Y-96614961D01*
X116496363Y-96675766D01*
X116347831Y-96773457D01*
X116225831Y-96902770D01*
X116136942Y-97056731D01*
X116085955Y-97227041D01*
X116075618Y-97404520D01*
X115059196Y-97404520D01*
X115064382Y-97315480D01*
X115033511Y-97140401D01*
X114963096Y-96977162D01*
X114856933Y-96834561D01*
X114841517Y-96821625D01*
X114720749Y-96720288D01*
X114720748Y-96720287D01*
X114561877Y-96640499D01*
X114388894Y-96599500D01*
X114388890Y-96599500D01*
X114255708Y-96599500D01*
X114255698Y-96599500D01*
X114123426Y-96614960D01*
X114123424Y-96614961D01*
X113956363Y-96675766D01*
X113807831Y-96773457D01*
X113699901Y-96887858D01*
X113685833Y-96902769D01*
X113680272Y-96912400D01*
X113640869Y-96945464D01*
X113615148Y-96950000D01*
X110568180Y-96950000D01*
X110519842Y-96932407D01*
X110507979Y-96919866D01*
X110446096Y-96837200D01*
X110405118Y-96782459D01*
X110405114Y-96782455D01*
X110405112Y-96782452D01*
X110217547Y-96594887D01*
X110217543Y-96594884D01*
X110217541Y-96594882D01*
X110005179Y-96435910D01*
X110005177Y-96435909D01*
X110005176Y-96435908D01*
X109772356Y-96308779D01*
X109772353Y-96308778D01*
X109608220Y-96247558D01*
X109569078Y-96214182D01*
X109559300Y-96177100D01*
X109559300Y-94864520D01*
X113535618Y-94864520D01*
X113566489Y-95039600D01*
X113636904Y-95202838D01*
X113743067Y-95345439D01*
X113879250Y-95459711D01*
X113879251Y-95459712D01*
X113879252Y-95459712D01*
X113879254Y-95459714D01*
X114038123Y-95539501D01*
X114177342Y-95572496D01*
X114211105Y-95580499D01*
X114211106Y-95580499D01*
X114211110Y-95580500D01*
X114211114Y-95580500D01*
X114344299Y-95580500D01*
X114344301Y-95580499D01*
X114476573Y-95565039D01*
X114476574Y-95565038D01*
X114476577Y-95565038D01*
X114643635Y-95504234D01*
X114792168Y-95406543D01*
X114914167Y-95277231D01*
X115003057Y-95123269D01*
X115054045Y-94952958D01*
X115059196Y-94864520D01*
X116075618Y-94864520D01*
X116106489Y-95039600D01*
X116176904Y-95202838D01*
X116283067Y-95345439D01*
X116419250Y-95459711D01*
X116419251Y-95459712D01*
X116419252Y-95459712D01*
X116419254Y-95459714D01*
X116578123Y-95539501D01*
X116717342Y-95572496D01*
X116751105Y-95580499D01*
X116751106Y-95580499D01*
X116751110Y-95580500D01*
X116751114Y-95580500D01*
X116884299Y-95580500D01*
X116884301Y-95580499D01*
X117016573Y-95565039D01*
X117016574Y-95565038D01*
X117016577Y-95565038D01*
X117183635Y-95504234D01*
X117332168Y-95406543D01*
X117454167Y-95277231D01*
X117543057Y-95123269D01*
X117594045Y-94952958D01*
X117604382Y-94775480D01*
X117573511Y-94600401D01*
X117503096Y-94437162D01*
X117396933Y-94294561D01*
X117396932Y-94294560D01*
X117260749Y-94180288D01*
X117260748Y-94180287D01*
X117101877Y-94100499D01*
X116928894Y-94059500D01*
X116928890Y-94059500D01*
X116795708Y-94059500D01*
X116795698Y-94059500D01*
X116663426Y-94074960D01*
X116663424Y-94074961D01*
X116496363Y-94135766D01*
X116347831Y-94233457D01*
X116225831Y-94362770D01*
X116136942Y-94516731D01*
X116085955Y-94687041D01*
X116075618Y-94864520D01*
X115059196Y-94864520D01*
X115064382Y-94775480D01*
X115033511Y-94600401D01*
X114963096Y-94437162D01*
X114856933Y-94294561D01*
X114856932Y-94294560D01*
X114720749Y-94180288D01*
X114720748Y-94180287D01*
X114561877Y-94100499D01*
X114388894Y-94059500D01*
X114388890Y-94059500D01*
X114255708Y-94059500D01*
X114255698Y-94059500D01*
X114123426Y-94074960D01*
X114123424Y-94074961D01*
X113956363Y-94135766D01*
X113807831Y-94233457D01*
X113685831Y-94362770D01*
X113596942Y-94516731D01*
X113545955Y-94687041D01*
X113535618Y-94864520D01*
X109559300Y-94864520D01*
X109559300Y-92324520D01*
X113535618Y-92324520D01*
X113566489Y-92499600D01*
X113636904Y-92662838D01*
X113743067Y-92805439D01*
X113879250Y-92919711D01*
X113879251Y-92919712D01*
X113879252Y-92919712D01*
X113879254Y-92919714D01*
X114038123Y-92999501D01*
X114177342Y-93032496D01*
X114211105Y-93040499D01*
X114211106Y-93040499D01*
X114211110Y-93040500D01*
X114211114Y-93040500D01*
X114344299Y-93040500D01*
X114344301Y-93040499D01*
X114476573Y-93025039D01*
X114476574Y-93025038D01*
X114476577Y-93025038D01*
X114643635Y-92964234D01*
X114792168Y-92866543D01*
X114914167Y-92737231D01*
X115003057Y-92583269D01*
X115054045Y-92412958D01*
X115059196Y-92324520D01*
X116075618Y-92324520D01*
X116106489Y-92499600D01*
X116176904Y-92662838D01*
X116283067Y-92805439D01*
X116419250Y-92919711D01*
X116419251Y-92919712D01*
X116419252Y-92919712D01*
X116419254Y-92919714D01*
X116578123Y-92999501D01*
X116717342Y-93032496D01*
X116751105Y-93040499D01*
X116751106Y-93040499D01*
X116751110Y-93040500D01*
X116751114Y-93040500D01*
X116884299Y-93040500D01*
X116884301Y-93040499D01*
X117016573Y-93025039D01*
X117016574Y-93025038D01*
X117016577Y-93025038D01*
X117183635Y-92964234D01*
X117332168Y-92866543D01*
X117454167Y-92737231D01*
X117543057Y-92583269D01*
X117594045Y-92412958D01*
X117604382Y-92235480D01*
X117573511Y-92060401D01*
X117503096Y-91897162D01*
X117396933Y-91754561D01*
X117374663Y-91735874D01*
X117260749Y-91640288D01*
X117260748Y-91640287D01*
X117101877Y-91560499D01*
X116928894Y-91519500D01*
X116928890Y-91519500D01*
X116795708Y-91519500D01*
X116795698Y-91519500D01*
X116663426Y-91534960D01*
X116663424Y-91534961D01*
X116496363Y-91595766D01*
X116347831Y-91693457D01*
X116225831Y-91822770D01*
X116136942Y-91976731D01*
X116085955Y-92147041D01*
X116075618Y-92324520D01*
X115059196Y-92324520D01*
X115064382Y-92235480D01*
X115033511Y-92060401D01*
X114963096Y-91897162D01*
X114856933Y-91754561D01*
X114834663Y-91735874D01*
X114720749Y-91640288D01*
X114720748Y-91640287D01*
X114561877Y-91560499D01*
X114388894Y-91519500D01*
X114388890Y-91519500D01*
X114255708Y-91519500D01*
X114255698Y-91519500D01*
X114123426Y-91534960D01*
X114123424Y-91534961D01*
X113956363Y-91595766D01*
X113807831Y-91693457D01*
X113685831Y-91822770D01*
X113596942Y-91976731D01*
X113545955Y-92147041D01*
X113535618Y-92324520D01*
X109559300Y-92324520D01*
X109559300Y-89784520D01*
X113535618Y-89784520D01*
X113566489Y-89959600D01*
X113636904Y-90122838D01*
X113743067Y-90265439D01*
X113879250Y-90379711D01*
X113879251Y-90379712D01*
X113879252Y-90379712D01*
X113879254Y-90379714D01*
X114038123Y-90459501D01*
X114177342Y-90492496D01*
X114211105Y-90500499D01*
X114211106Y-90500499D01*
X114211110Y-90500500D01*
X114211114Y-90500500D01*
X114344299Y-90500500D01*
X114344301Y-90500499D01*
X114476573Y-90485039D01*
X114476574Y-90485038D01*
X114476577Y-90485038D01*
X114643635Y-90424234D01*
X114792168Y-90326543D01*
X114914167Y-90197231D01*
X115003057Y-90043269D01*
X115054045Y-89872958D01*
X115059196Y-89784520D01*
X116075618Y-89784520D01*
X116106489Y-89959600D01*
X116176904Y-90122838D01*
X116283067Y-90265439D01*
X116419250Y-90379711D01*
X116419251Y-90379712D01*
X116419252Y-90379712D01*
X116419254Y-90379714D01*
X116578123Y-90459501D01*
X116717342Y-90492496D01*
X116751105Y-90500499D01*
X116751106Y-90500499D01*
X116751110Y-90500500D01*
X116751114Y-90500500D01*
X116884299Y-90500500D01*
X116884301Y-90500499D01*
X117016573Y-90485039D01*
X117016574Y-90485038D01*
X117016577Y-90485038D01*
X117183635Y-90424234D01*
X117332168Y-90326543D01*
X117454167Y-90197231D01*
X117543057Y-90043269D01*
X117594045Y-89872958D01*
X117604382Y-89695480D01*
X117573511Y-89520401D01*
X117503096Y-89357162D01*
X117396933Y-89214561D01*
X117357542Y-89181508D01*
X117260749Y-89100288D01*
X117260748Y-89100287D01*
X117101877Y-89020499D01*
X116928894Y-88979500D01*
X116928890Y-88979500D01*
X116795708Y-88979500D01*
X116795698Y-88979500D01*
X116663426Y-88994960D01*
X116663424Y-88994961D01*
X116496363Y-89055766D01*
X116347831Y-89153457D01*
X116225831Y-89282770D01*
X116136942Y-89436731D01*
X116085955Y-89607041D01*
X116075618Y-89784520D01*
X115059196Y-89784520D01*
X115064382Y-89695480D01*
X115033511Y-89520401D01*
X114963096Y-89357162D01*
X114856933Y-89214561D01*
X114817542Y-89181508D01*
X114720749Y-89100288D01*
X114720748Y-89100287D01*
X114561877Y-89020499D01*
X114388894Y-88979500D01*
X114388890Y-88979500D01*
X114255708Y-88979500D01*
X114255698Y-88979500D01*
X114123426Y-88994960D01*
X114123424Y-88994961D01*
X113956363Y-89055766D01*
X113807831Y-89153457D01*
X113685831Y-89282770D01*
X113596942Y-89436731D01*
X113545955Y-89607041D01*
X113535618Y-89784520D01*
X109559300Y-89784520D01*
X109559300Y-87244520D01*
X113535618Y-87244520D01*
X113566489Y-87419600D01*
X113636904Y-87582838D01*
X113743067Y-87725439D01*
X113879250Y-87839711D01*
X113879251Y-87839712D01*
X113879252Y-87839712D01*
X113879254Y-87839714D01*
X114038123Y-87919501D01*
X114177342Y-87952496D01*
X114211105Y-87960499D01*
X114211106Y-87960499D01*
X114211110Y-87960500D01*
X114211114Y-87960500D01*
X114344299Y-87960500D01*
X114344301Y-87960499D01*
X114476573Y-87945039D01*
X114476574Y-87945038D01*
X114476577Y-87945038D01*
X114643635Y-87884234D01*
X114792168Y-87786543D01*
X114914167Y-87657231D01*
X115003057Y-87503269D01*
X115054045Y-87332958D01*
X115064382Y-87155480D01*
X115053053Y-87091230D01*
X115061985Y-87040572D01*
X115101390Y-87007507D01*
X115148967Y-87007507D01*
X115149267Y-87006454D01*
X115357686Y-87065755D01*
X115357687Y-87065755D01*
X115357690Y-87065756D01*
X115435838Y-87072997D01*
X115516800Y-87080500D01*
X115516806Y-87080500D01*
X115623200Y-87080500D01*
X115697831Y-87073583D01*
X115782310Y-87065756D01*
X115870822Y-87040572D01*
X115989340Y-87006850D01*
X116040647Y-87010543D01*
X116077577Y-87046352D01*
X116084993Y-87083551D01*
X116075618Y-87244520D01*
X116106489Y-87419600D01*
X116176904Y-87582838D01*
X116283067Y-87725439D01*
X116419250Y-87839711D01*
X116419251Y-87839712D01*
X116419252Y-87839712D01*
X116419254Y-87839714D01*
X116578123Y-87919501D01*
X116717342Y-87952496D01*
X116751105Y-87960499D01*
X116751106Y-87960499D01*
X116751110Y-87960500D01*
X116751114Y-87960500D01*
X116884299Y-87960500D01*
X116884301Y-87960499D01*
X117016573Y-87945039D01*
X117016574Y-87945038D01*
X117016577Y-87945038D01*
X117183635Y-87884234D01*
X117332168Y-87786543D01*
X117454167Y-87657231D01*
X117543057Y-87503269D01*
X117594045Y-87332958D01*
X117604382Y-87155480D01*
X117573511Y-86980401D01*
X117503096Y-86817162D01*
X117396933Y-86674561D01*
X117396932Y-86674560D01*
X117260749Y-86560288D01*
X117260748Y-86560287D01*
X117101877Y-86480499D01*
X116928894Y-86439500D01*
X116928890Y-86439500D01*
X116795708Y-86439500D01*
X116721381Y-86448187D01*
X116671327Y-86436323D01*
X116640610Y-86395062D01*
X116642528Y-86346332D01*
X116681321Y-86246198D01*
X116720500Y-86036610D01*
X116720500Y-85823390D01*
X116681321Y-85613802D01*
X116643451Y-85516049D01*
X116642396Y-85464624D01*
X116674645Y-85424548D01*
X116725109Y-85414577D01*
X116730916Y-85415714D01*
X116751105Y-85420499D01*
X116751106Y-85420499D01*
X116751110Y-85420500D01*
X116751114Y-85420500D01*
X116884299Y-85420500D01*
X116884301Y-85420499D01*
X117016573Y-85405039D01*
X117016574Y-85405038D01*
X117016577Y-85405038D01*
X117183635Y-85344234D01*
X117332168Y-85246543D01*
X117454167Y-85117231D01*
X117543057Y-84963269D01*
X117594045Y-84792958D01*
X117604382Y-84615480D01*
X117573511Y-84440401D01*
X117503096Y-84277162D01*
X117396933Y-84134561D01*
X117396932Y-84134560D01*
X117260749Y-84020288D01*
X117260748Y-84020287D01*
X117101877Y-83940499D01*
X116928894Y-83899500D01*
X116928890Y-83899500D01*
X116795708Y-83899500D01*
X116795698Y-83899500D01*
X116663426Y-83914960D01*
X116663424Y-83914961D01*
X116496363Y-83975766D01*
X116347831Y-84073457D01*
X116225831Y-84202770D01*
X116136942Y-84356731D01*
X116085955Y-84527041D01*
X116075618Y-84704520D01*
X116086947Y-84768769D01*
X116078014Y-84819427D01*
X116038609Y-84852492D01*
X115991033Y-84852492D01*
X115990733Y-84853546D01*
X115782313Y-84794244D01*
X115782314Y-84794244D01*
X115623200Y-84779500D01*
X115623194Y-84779500D01*
X115516806Y-84779500D01*
X115516800Y-84779500D01*
X115357685Y-84794244D01*
X115150659Y-84853149D01*
X115099351Y-84849456D01*
X115062422Y-84813647D01*
X115055006Y-84776449D01*
X115064382Y-84615480D01*
X115033511Y-84440401D01*
X114963096Y-84277162D01*
X114856933Y-84134561D01*
X114856932Y-84134560D01*
X114720749Y-84020288D01*
X114720748Y-84020287D01*
X114561877Y-83940499D01*
X114388894Y-83899500D01*
X114388890Y-83899500D01*
X114255708Y-83899500D01*
X114255698Y-83899500D01*
X114123426Y-83914960D01*
X114123424Y-83914961D01*
X113956363Y-83975766D01*
X113807831Y-84073457D01*
X113685831Y-84202770D01*
X113596942Y-84356731D01*
X113545955Y-84527041D01*
X113535618Y-84704520D01*
X113566489Y-84879600D01*
X113636904Y-85042838D01*
X113743067Y-85185439D01*
X113879250Y-85299711D01*
X113879251Y-85299712D01*
X113879252Y-85299712D01*
X113879254Y-85299714D01*
X114038123Y-85379501D01*
X114174457Y-85411813D01*
X114211105Y-85420499D01*
X114211106Y-85420499D01*
X114211110Y-85420500D01*
X114211114Y-85420500D01*
X114344299Y-85420500D01*
X114344299Y-85420499D01*
X114367390Y-85417800D01*
X114418617Y-85411813D01*
X114468671Y-85423675D01*
X114499389Y-85464936D01*
X114497470Y-85513669D01*
X114458679Y-85613800D01*
X114458679Y-85613802D01*
X114419500Y-85823390D01*
X114419500Y-86036610D01*
X114450843Y-86204280D01*
X114458679Y-86246199D01*
X114496547Y-86343947D01*
X114497603Y-86395376D01*
X114465354Y-86435451D01*
X114414890Y-86445422D01*
X114409085Y-86444286D01*
X114401217Y-86442421D01*
X114388890Y-86439500D01*
X114255708Y-86439500D01*
X114255698Y-86439500D01*
X114123426Y-86454960D01*
X114123424Y-86454961D01*
X113956363Y-86515766D01*
X113807831Y-86613457D01*
X113685831Y-86742770D01*
X113596942Y-86896731D01*
X113545955Y-87067041D01*
X113535618Y-87244520D01*
X109559300Y-87244520D01*
X109559300Y-82362817D01*
X109576893Y-82314479D01*
X109581326Y-82309643D01*
X113009644Y-78881326D01*
X113056264Y-78859586D01*
X113062818Y-78859300D01*
X113761104Y-78859300D01*
X113809442Y-78876893D01*
X113835162Y-78921442D01*
X113826229Y-78972100D01*
X113809441Y-78992107D01*
X113807832Y-78993456D01*
X113685831Y-79122770D01*
X113596942Y-79276731D01*
X113545955Y-79447041D01*
X113535618Y-79624520D01*
X113566489Y-79799600D01*
X113636904Y-79962838D01*
X113743067Y-80105439D01*
X113879250Y-80219711D01*
X113879251Y-80219712D01*
X113879252Y-80219712D01*
X113879254Y-80219714D01*
X114038123Y-80299501D01*
X114174457Y-80331813D01*
X114211105Y-80340499D01*
X114211106Y-80340499D01*
X114211110Y-80340500D01*
X114211114Y-80340500D01*
X114344299Y-80340500D01*
X114344299Y-80340499D01*
X114367390Y-80337800D01*
X114418617Y-80331813D01*
X114468671Y-80343675D01*
X114499389Y-80384936D01*
X114497470Y-80433669D01*
X114458679Y-80533800D01*
X114458679Y-80533802D01*
X114419500Y-80743390D01*
X114419500Y-80956610D01*
X114450843Y-81124280D01*
X114458679Y-81166199D01*
X114496547Y-81263947D01*
X114497603Y-81315376D01*
X114465354Y-81355451D01*
X114414890Y-81365422D01*
X114409085Y-81364286D01*
X114401217Y-81362421D01*
X114388890Y-81359500D01*
X114255708Y-81359500D01*
X114255698Y-81359500D01*
X114123426Y-81374960D01*
X114123424Y-81374961D01*
X113956363Y-81435766D01*
X113807831Y-81533457D01*
X113685831Y-81662770D01*
X113596942Y-81816731D01*
X113545955Y-81987041D01*
X113535618Y-82164520D01*
X113566489Y-82339600D01*
X113636904Y-82502838D01*
X113743067Y-82645439D01*
X113879250Y-82759711D01*
X113879251Y-82759712D01*
X113879252Y-82759712D01*
X113879254Y-82759714D01*
X114038123Y-82839501D01*
X114177342Y-82872496D01*
X114211105Y-82880499D01*
X114211106Y-82880499D01*
X114211110Y-82880500D01*
X114211114Y-82880500D01*
X114344299Y-82880500D01*
X114344301Y-82880499D01*
X114476573Y-82865039D01*
X114476574Y-82865038D01*
X114476577Y-82865038D01*
X114643635Y-82804234D01*
X114792168Y-82706543D01*
X114914167Y-82577231D01*
X115003057Y-82423269D01*
X115054045Y-82252958D01*
X115064382Y-82075480D01*
X115053053Y-82011230D01*
X115061985Y-81960572D01*
X115101390Y-81927507D01*
X115148967Y-81927507D01*
X115149267Y-81926454D01*
X115357686Y-81985755D01*
X115357687Y-81985755D01*
X115357690Y-81985756D01*
X115435838Y-81992997D01*
X115516800Y-82000500D01*
X115516806Y-82000500D01*
X115623200Y-82000500D01*
X115697831Y-81993583D01*
X115782310Y-81985756D01*
X115850585Y-81966330D01*
X115989340Y-81926850D01*
X116040647Y-81930543D01*
X116077577Y-81966352D01*
X116084993Y-82003551D01*
X116075618Y-82164520D01*
X116106489Y-82339600D01*
X116176904Y-82502838D01*
X116283067Y-82645439D01*
X116419250Y-82759711D01*
X116419251Y-82759712D01*
X116419252Y-82759712D01*
X116419254Y-82759714D01*
X116578123Y-82839501D01*
X116717342Y-82872496D01*
X116751105Y-82880499D01*
X116751106Y-82880499D01*
X116751110Y-82880500D01*
X116751114Y-82880500D01*
X116884299Y-82880500D01*
X116884301Y-82880499D01*
X117016573Y-82865039D01*
X117016574Y-82865038D01*
X117016577Y-82865038D01*
X117183635Y-82804234D01*
X117332168Y-82706543D01*
X117454167Y-82577231D01*
X117543057Y-82423269D01*
X117594045Y-82252958D01*
X117604382Y-82075480D01*
X117573511Y-81900401D01*
X117503096Y-81737162D01*
X117396933Y-81594561D01*
X117396932Y-81594560D01*
X117260749Y-81480288D01*
X117260748Y-81480287D01*
X117101877Y-81400499D01*
X116928894Y-81359500D01*
X116928890Y-81359500D01*
X116795708Y-81359500D01*
X116721381Y-81368187D01*
X116671327Y-81356323D01*
X116640610Y-81315062D01*
X116642528Y-81266332D01*
X116681321Y-81166198D01*
X116720500Y-80956610D01*
X116720500Y-80743390D01*
X116681321Y-80533802D01*
X116643451Y-80436049D01*
X116642396Y-80384624D01*
X116674645Y-80344548D01*
X116725109Y-80334577D01*
X116730916Y-80335714D01*
X116751105Y-80340499D01*
X116751106Y-80340499D01*
X116751110Y-80340500D01*
X116751114Y-80340500D01*
X116884299Y-80340500D01*
X116884301Y-80340499D01*
X117016573Y-80325039D01*
X117016574Y-80325038D01*
X117016577Y-80325038D01*
X117183635Y-80264234D01*
X117332168Y-80166543D01*
X117454167Y-80037231D01*
X117543057Y-79883269D01*
X117594045Y-79712958D01*
X117604382Y-79535480D01*
X117573511Y-79360401D01*
X117503096Y-79197162D01*
X117396933Y-79054561D01*
X117396932Y-79054560D01*
X117322503Y-78992106D01*
X117296783Y-78947558D01*
X117305716Y-78896900D01*
X117345121Y-78863835D01*
X117370841Y-78859300D01*
X119310462Y-78859300D01*
X119377732Y-78861598D01*
X119377732Y-78861597D01*
X119377734Y-78861598D01*
X119377736Y-78861597D01*
X119377739Y-78861597D01*
X119399810Y-78856217D01*
X119422692Y-78850641D01*
X119426474Y-78849923D01*
X119427907Y-78849725D01*
X119472316Y-78843623D01*
X119493037Y-78834621D01*
X119505164Y-78830543D01*
X119527110Y-78825196D01*
X119567469Y-78802502D01*
X119570875Y-78800811D01*
X119613335Y-78782369D01*
X119630847Y-78768120D01*
X119641437Y-78760912D01*
X119661127Y-78749843D01*
X119693861Y-78717107D01*
X119696698Y-78714547D01*
X119732599Y-78685341D01*
X119745621Y-78666890D01*
X119753873Y-78657095D01*
X125628744Y-72782225D01*
X125677934Y-72736286D01*
X125701979Y-72696744D01*
X125704141Y-72693568D01*
X125723736Y-72667728D01*
X125727105Y-72663863D01*
X126004844Y-72386125D01*
X126051465Y-72364386D01*
X126058019Y-72364100D01*
X126355849Y-72364100D01*
X126382128Y-72368841D01*
X126417767Y-72382133D01*
X126476192Y-72403925D01*
X126476195Y-72403925D01*
X126476199Y-72403927D01*
X126714352Y-72455733D01*
X126735403Y-72460313D01*
X126735417Y-72460314D01*
X126999994Y-72479237D01*
X127000000Y-72479237D01*
X127000006Y-72479237D01*
X127226206Y-72463058D01*
X127264597Y-72460313D01*
X127342262Y-72443417D01*
X127523797Y-72403928D01*
X127523800Y-72403926D01*
X127523808Y-72403925D01*
X127772355Y-72311221D01*
X128005179Y-72184090D01*
X128217541Y-72025118D01*
X128217547Y-72025112D01*
X128220634Y-72022026D01*
X128267254Y-72000286D01*
X128273808Y-72000000D01*
X132000000Y-72000000D01*
X132000000Y-68800000D01*
X133035874Y-68800000D01*
X133055096Y-68946008D01*
X133075022Y-68994112D01*
X133111453Y-69082063D01*
X133111454Y-69082065D01*
X133111455Y-69082066D01*
X133201102Y-69198897D01*
X133315974Y-69287041D01*
X133317937Y-69288547D01*
X133453993Y-69344904D01*
X133600000Y-69364126D01*
X133746007Y-69344904D01*
X133882063Y-69288547D01*
X133998897Y-69198897D01*
X133998897Y-69198896D01*
X134001317Y-69197040D01*
X134047096Y-69181500D01*
X137578806Y-69181500D01*
X137627144Y-69199093D01*
X137652864Y-69243642D01*
X137653361Y-69246877D01*
X137665096Y-69336007D01*
X137721453Y-69472063D01*
X137721454Y-69472065D01*
X137721455Y-69472066D01*
X137811102Y-69588897D01*
X137877179Y-69639599D01*
X137927937Y-69678547D01*
X138063993Y-69734904D01*
X138210000Y-69754126D01*
X138356007Y-69734904D01*
X138492063Y-69678547D01*
X138608897Y-69588897D01*
X138698547Y-69472063D01*
X138754904Y-69336007D01*
X138774126Y-69190000D01*
X138754904Y-69043993D01*
X138698547Y-68907937D01*
X138688283Y-68894561D01*
X138608897Y-68791102D01*
X138492066Y-68701455D01*
X138492065Y-68701454D01*
X138492063Y-68701453D01*
X138390781Y-68659500D01*
X138356008Y-68645096D01*
X138317403Y-68640013D01*
X138210000Y-68625874D01*
X138209998Y-68625874D01*
X138206974Y-68625476D01*
X138163616Y-68604093D01*
X138123252Y-68563729D01*
X138113473Y-68551687D01*
X138104560Y-68538044D01*
X138104559Y-68538043D01*
X138074850Y-68514919D01*
X138071359Y-68511836D01*
X138067409Y-68507886D01*
X138067408Y-68507885D01*
X138067407Y-68507884D01*
X138048099Y-68494099D01*
X138004084Y-68459840D01*
X137998608Y-68456877D01*
X137998742Y-68456628D01*
X137995590Y-68455005D01*
X137995466Y-68455261D01*
X137989872Y-68452526D01*
X137989870Y-68452525D01*
X137936413Y-68436610D01*
X137925862Y-68432988D01*
X137883665Y-68418500D01*
X137877516Y-68417475D01*
X137877563Y-68417191D01*
X137874064Y-68416681D01*
X137874029Y-68416966D01*
X137867843Y-68416195D01*
X137867841Y-68416195D01*
X137836896Y-68417475D01*
X137812115Y-68418500D01*
X134047096Y-68418500D01*
X134001317Y-68402960D01*
X133882066Y-68311455D01*
X133882065Y-68311454D01*
X133882063Y-68311453D01*
X133767484Y-68263992D01*
X133746008Y-68255096D01*
X133600000Y-68235874D01*
X133453991Y-68255096D01*
X133372548Y-68288832D01*
X133317937Y-68311453D01*
X133317936Y-68311453D01*
X133317933Y-68311455D01*
X133201102Y-68401102D01*
X133111455Y-68517933D01*
X133055096Y-68653991D01*
X133035874Y-68800000D01*
X132000000Y-68800000D01*
X132000000Y-60829700D01*
X132017593Y-60781362D01*
X132062142Y-60755642D01*
X132075200Y-60754500D01*
X137970300Y-60754500D01*
X138018638Y-60772093D01*
X138044358Y-60816642D01*
X138045500Y-60829700D01*
X138045500Y-66598038D01*
X138029960Y-66643817D01*
X138011455Y-66667932D01*
X137955096Y-66803991D01*
X137941611Y-66906421D01*
X137935874Y-66950000D01*
X137945485Y-67023003D01*
X137955096Y-67096008D01*
X137969069Y-67129740D01*
X138011453Y-67232063D01*
X138011454Y-67232065D01*
X138011455Y-67232066D01*
X138101102Y-67348897D01*
X138185979Y-67414025D01*
X138217937Y-67438547D01*
X138353993Y-67494904D01*
X138500000Y-67514126D01*
X138646007Y-67494904D01*
X138782063Y-67438547D01*
X138898897Y-67348897D01*
X138988547Y-67232063D01*
X139044904Y-67096007D01*
X139064126Y-66950000D01*
X139044904Y-66803993D01*
X138988547Y-66667937D01*
X138988544Y-66667934D01*
X138988544Y-66667932D01*
X138970040Y-66643817D01*
X138954500Y-66598038D01*
X138954500Y-60359683D01*
X138956385Y-60342951D01*
X138958349Y-60334348D01*
X138954605Y-60284387D01*
X138954500Y-60281576D01*
X138954500Y-57797642D01*
X138954737Y-57793429D01*
X138957449Y-57769354D01*
X138959313Y-57752814D01*
X138948156Y-57693851D01*
X138939214Y-57634521D01*
X138939211Y-57634515D01*
X138937552Y-57629135D01*
X138937606Y-57629118D01*
X138935755Y-57623495D01*
X138935703Y-57623514D01*
X138933842Y-57618196D01*
X138933841Y-57618194D01*
X138933841Y-57618193D01*
X138905802Y-57565141D01*
X138879767Y-57511079D01*
X138879763Y-57511074D01*
X138876590Y-57506420D01*
X138876636Y-57506388D01*
X138873211Y-57501560D01*
X138873166Y-57501594D01*
X138869817Y-57497056D01*
X138827388Y-57454628D01*
X138786575Y-57410641D01*
X138782174Y-57407132D01*
X138782207Y-57407089D01*
X138772069Y-57399308D01*
X138616526Y-57243765D01*
X138594786Y-57197145D01*
X138594500Y-57190591D01*
X138594500Y-54676200D01*
X138960255Y-54676200D01*
X138972103Y-54796503D01*
X139029419Y-54985451D01*
X139029424Y-54985463D01*
X139122499Y-55159593D01*
X139122503Y-55159599D01*
X139247766Y-55312233D01*
X139400400Y-55437496D01*
X139400406Y-55437500D01*
X139574536Y-55530575D01*
X139574548Y-55530580D01*
X139763497Y-55587896D01*
X139883800Y-55599744D01*
X139883800Y-55175200D01*
X139901393Y-55126862D01*
X139945942Y-55101142D01*
X139959000Y-55100000D01*
X139961000Y-55100000D01*
X140009338Y-55117593D01*
X140035058Y-55162142D01*
X140036200Y-55175200D01*
X140036200Y-55599743D01*
X140156502Y-55587896D01*
X140345451Y-55530580D01*
X140345463Y-55530575D01*
X140519593Y-55437500D01*
X140519599Y-55437496D01*
X140672233Y-55312233D01*
X140797496Y-55159599D01*
X140797500Y-55159593D01*
X140890575Y-54985463D01*
X140890580Y-54985451D01*
X140947896Y-54796503D01*
X140959744Y-54676200D01*
X140535200Y-54676200D01*
X140486862Y-54658607D01*
X140461142Y-54614058D01*
X140460000Y-54601000D01*
X140460000Y-54600002D01*
X141390768Y-54600002D01*
X141409655Y-54803820D01*
X141409656Y-54803829D01*
X141465669Y-55000692D01*
X141465675Y-55000708D01*
X141556909Y-55183931D01*
X141680264Y-55347281D01*
X141680267Y-55347284D01*
X141831535Y-55485184D01*
X142005569Y-55592942D01*
X142005571Y-55592942D01*
X142005573Y-55592944D01*
X142196444Y-55666888D01*
X142397653Y-55704500D01*
X142397658Y-55704500D01*
X142602342Y-55704500D01*
X142602347Y-55704500D01*
X142803556Y-55666888D01*
X142994427Y-55592944D01*
X143168462Y-55485186D01*
X143319732Y-55347285D01*
X143443088Y-55183935D01*
X143534328Y-55000701D01*
X143571857Y-54868796D01*
X143590343Y-54803829D01*
X143590343Y-54803827D01*
X143590345Y-54803821D01*
X143607929Y-54614058D01*
X143609232Y-54600002D01*
X143609232Y-54599997D01*
X143597695Y-54475499D01*
X143590345Y-54396179D01*
X143590343Y-54396173D01*
X143590343Y-54396170D01*
X143550655Y-54256684D01*
X143534328Y-54199299D01*
X143505612Y-54141629D01*
X143443090Y-54016068D01*
X143319735Y-53852718D01*
X143319732Y-53852715D01*
X143168464Y-53714815D01*
X142994430Y-53607057D01*
X142803557Y-53533112D01*
X142770021Y-53526843D01*
X142626420Y-53500000D01*
X148240663Y-53500000D01*
X148259991Y-53794897D01*
X148259992Y-53794902D01*
X148317647Y-54084755D01*
X148412644Y-54364610D01*
X148543355Y-54629665D01*
X148543357Y-54629669D01*
X148654832Y-54796503D01*
X148707550Y-54875401D01*
X148902406Y-55097593D01*
X149124598Y-55292449D01*
X149124603Y-55292453D01*
X149370331Y-55456643D01*
X149635389Y-55587355D01*
X149915241Y-55682352D01*
X150205097Y-55740008D01*
X150500000Y-55759337D01*
X150794903Y-55740008D01*
X151084759Y-55682352D01*
X151364611Y-55587355D01*
X151629669Y-55456643D01*
X151875397Y-55292453D01*
X152097593Y-55097593D01*
X152292453Y-54875397D01*
X152456643Y-54629669D01*
X152587355Y-54364611D01*
X152682352Y-54084759D01*
X152740008Y-53794903D01*
X152759337Y-53500000D01*
X152740008Y-53205097D01*
X152682352Y-52915241D01*
X152587355Y-52635389D01*
X152456643Y-52370332D01*
X152292453Y-52124603D01*
X152292449Y-52124598D01*
X152097593Y-51902406D01*
X151875401Y-51707550D01*
X151875397Y-51707547D01*
X151629669Y-51543357D01*
X151629665Y-51543355D01*
X151364610Y-51412644D01*
X151183086Y-51351025D01*
X151084759Y-51317648D01*
X151084756Y-51317647D01*
X151084755Y-51317647D01*
X150937874Y-51288430D01*
X150794903Y-51259992D01*
X150794901Y-51259991D01*
X150794897Y-51259991D01*
X150500000Y-51240663D01*
X150205102Y-51259991D01*
X150205097Y-51259992D01*
X149915244Y-51317647D01*
X149635389Y-51412644D01*
X149370335Y-51543355D01*
X149124598Y-51707550D01*
X148902406Y-51902406D01*
X148707550Y-52124598D01*
X148543355Y-52370335D01*
X148412644Y-52635389D01*
X148317647Y-52915244D01*
X148259992Y-53205097D01*
X148259991Y-53205102D01*
X148240663Y-53499999D01*
X148240663Y-53500000D01*
X142626420Y-53500000D01*
X142602347Y-53495500D01*
X142397653Y-53495500D01*
X142263513Y-53520574D01*
X142196442Y-53533112D01*
X142005570Y-53607057D01*
X142005569Y-53607057D01*
X141831535Y-53714815D01*
X141680267Y-53852715D01*
X141680264Y-53852718D01*
X141556909Y-54016068D01*
X141465675Y-54199291D01*
X141465669Y-54199307D01*
X141409656Y-54396170D01*
X141409655Y-54396179D01*
X141390768Y-54599997D01*
X141390768Y-54600002D01*
X140460000Y-54600002D01*
X140460000Y-54599000D01*
X140477593Y-54550662D01*
X140522142Y-54524942D01*
X140535200Y-54523800D01*
X140959745Y-54523800D01*
X140959744Y-54523799D01*
X140947896Y-54403496D01*
X140890580Y-54214548D01*
X140890575Y-54214536D01*
X140797500Y-54040406D01*
X140797496Y-54040400D01*
X140672233Y-53887766D01*
X140519599Y-53762503D01*
X140519593Y-53762499D01*
X140345463Y-53669424D01*
X140345451Y-53669419D01*
X140156502Y-53612103D01*
X140156503Y-53612103D01*
X140036200Y-53600255D01*
X140036200Y-54024800D01*
X140018607Y-54073138D01*
X139974058Y-54098858D01*
X139961000Y-54100000D01*
X139959000Y-54100000D01*
X139910662Y-54082407D01*
X139884942Y-54037858D01*
X139883800Y-54024800D01*
X139883800Y-53600255D01*
X139883799Y-53600255D01*
X139763496Y-53612103D01*
X139574548Y-53669419D01*
X139574536Y-53669424D01*
X139400406Y-53762499D01*
X139400400Y-53762503D01*
X139247766Y-53887766D01*
X139122503Y-54040400D01*
X139122499Y-54040406D01*
X139029424Y-54214536D01*
X139029419Y-54214548D01*
X138972103Y-54403496D01*
X138960255Y-54523799D01*
X138960255Y-54523800D01*
X139384800Y-54523800D01*
X139433138Y-54541393D01*
X139458858Y-54585942D01*
X139460000Y-54599000D01*
X139460000Y-54601000D01*
X139442407Y-54649338D01*
X139397858Y-54675058D01*
X139384800Y-54676200D01*
X138960255Y-54676200D01*
X138594500Y-54676200D01*
X138594500Y-53009407D01*
X138612093Y-52961069D01*
X138616514Y-52956244D01*
X138727128Y-52845630D01*
X138773746Y-52823892D01*
X138823433Y-52837206D01*
X138852938Y-52879342D01*
X138855500Y-52898804D01*
X138855500Y-52935066D01*
X138855501Y-52935067D01*
X138870266Y-53009301D01*
X138926516Y-53093484D01*
X139010699Y-53149734D01*
X139084933Y-53164500D01*
X140835066Y-53164499D01*
X140835067Y-53164499D01*
X140835067Y-53164498D01*
X140909301Y-53149734D01*
X140993484Y-53093484D01*
X141049734Y-53009301D01*
X141064500Y-52935067D01*
X141064500Y-52060002D01*
X141390768Y-52060002D01*
X141409655Y-52263820D01*
X141409656Y-52263829D01*
X141465669Y-52460692D01*
X141465675Y-52460708D01*
X141556909Y-52643931D01*
X141680264Y-52807281D01*
X141680267Y-52807284D01*
X141831535Y-52945184D01*
X142005569Y-53052942D01*
X142005571Y-53052942D01*
X142005573Y-53052944D01*
X142196444Y-53126888D01*
X142397653Y-53164500D01*
X142397658Y-53164500D01*
X142602342Y-53164500D01*
X142602347Y-53164500D01*
X142803556Y-53126888D01*
X142994427Y-53052944D01*
X143168462Y-52945186D01*
X143319732Y-52807285D01*
X143443088Y-52643935D01*
X143534328Y-52460701D01*
X143590345Y-52263821D01*
X143609232Y-52060000D01*
X143590345Y-51856179D01*
X143590343Y-51856173D01*
X143590343Y-51856170D01*
X143551665Y-51720232D01*
X143534328Y-51659299D01*
X143476595Y-51543355D01*
X143443090Y-51476068D01*
X143319735Y-51312718D01*
X143319732Y-51312715D01*
X143168464Y-51174815D01*
X142994430Y-51067057D01*
X142803557Y-50993112D01*
X142770021Y-50986843D01*
X142602347Y-50955500D01*
X142397653Y-50955500D01*
X142263513Y-50980574D01*
X142196442Y-50993112D01*
X142005570Y-51067057D01*
X142005569Y-51067057D01*
X141831535Y-51174815D01*
X141680267Y-51312715D01*
X141680264Y-51312718D01*
X141556909Y-51476068D01*
X141465675Y-51659291D01*
X141465669Y-51659307D01*
X141409656Y-51856170D01*
X141409655Y-51856179D01*
X141390768Y-52059997D01*
X141390768Y-52060002D01*
X141064500Y-52060002D01*
X141064499Y-51184934D01*
X141049734Y-51110699D01*
X140993484Y-51026516D01*
X140909301Y-50970266D01*
X140909299Y-50970265D01*
X140835067Y-50955500D01*
X139084932Y-50955500D01*
X139084931Y-50955501D01*
X139010699Y-50970266D01*
X138926516Y-51026516D01*
X138870266Y-51110698D01*
X138870265Y-51110700D01*
X138855500Y-51184932D01*
X138855500Y-51570304D01*
X138837907Y-51618642D01*
X138794281Y-51644193D01*
X138753849Y-51651843D01*
X138694524Y-51660785D01*
X138689138Y-51662447D01*
X138689121Y-51662394D01*
X138683491Y-51664247D01*
X138683509Y-51664299D01*
X138678188Y-51666160D01*
X138625135Y-51694200D01*
X138571080Y-51720232D01*
X138566424Y-51723407D01*
X138566393Y-51723362D01*
X138561561Y-51726790D01*
X138561593Y-51726834D01*
X138557061Y-51730178D01*
X138514629Y-51772610D01*
X138470641Y-51813425D01*
X138467129Y-51817830D01*
X138467086Y-51817796D01*
X138459308Y-51827930D01*
X137838165Y-52449073D01*
X137835019Y-52451885D01*
X137803067Y-52477365D01*
X137769260Y-52526949D01*
X137733629Y-52575229D01*
X137730998Y-52580208D01*
X137730950Y-52580182D01*
X137728278Y-52585475D01*
X137728327Y-52585499D01*
X137725882Y-52590575D01*
X137708196Y-52647915D01*
X137688377Y-52704552D01*
X137687331Y-52710083D01*
X137687279Y-52710073D01*
X137686286Y-52715917D01*
X137686339Y-52715925D01*
X137685500Y-52721492D01*
X137685500Y-52781491D01*
X137683255Y-52841462D01*
X137683887Y-52847065D01*
X137683832Y-52847071D01*
X137685500Y-52859737D01*
X137685500Y-57382357D01*
X137685263Y-57386570D01*
X137680687Y-57427182D01*
X137680687Y-57427189D01*
X137691843Y-57486148D01*
X137700785Y-57545475D01*
X137702447Y-57550862D01*
X137702393Y-57550878D01*
X137704246Y-57556508D01*
X137704298Y-57556490D01*
X137706159Y-57561809D01*
X137734196Y-57614857D01*
X137743666Y-57634521D01*
X137760233Y-57668921D01*
X137760237Y-57668925D01*
X137763408Y-57673576D01*
X137763361Y-57673607D01*
X137766787Y-57678436D01*
X137766832Y-57678404D01*
X137770177Y-57682936D01*
X137770178Y-57682937D01*
X137770180Y-57682940D01*
X137812609Y-57725369D01*
X137838070Y-57752810D01*
X137853423Y-57769356D01*
X137853424Y-57769357D01*
X137857832Y-57772872D01*
X137857796Y-57772915D01*
X137867930Y-57780690D01*
X138023474Y-57936233D01*
X138045214Y-57982854D01*
X138045500Y-57989408D01*
X138045500Y-59770300D01*
X138027907Y-59818638D01*
X137983358Y-59844358D01*
X137970300Y-59845500D01*
X121907643Y-59845500D01*
X121903430Y-59845263D01*
X121862817Y-59840687D01*
X121862810Y-59840687D01*
X121803851Y-59851843D01*
X121744521Y-59860786D01*
X121739136Y-59862447D01*
X121739120Y-59862395D01*
X121733489Y-59864249D01*
X121733507Y-59864300D01*
X121728191Y-59866159D01*
X121675137Y-59894199D01*
X121621083Y-59920230D01*
X121616424Y-59923407D01*
X121616393Y-59923361D01*
X121611562Y-59926789D01*
X121611594Y-59926833D01*
X121607062Y-59930177D01*
X121564629Y-59972610D01*
X121520641Y-60013425D01*
X121517129Y-60017830D01*
X121517086Y-60017796D01*
X121509310Y-60027928D01*
X121237492Y-60299745D01*
X121194137Y-60321126D01*
X121163990Y-60325096D01*
X121163989Y-60325096D01*
X121027938Y-60381452D01*
X121027934Y-60381454D01*
X120911102Y-60471102D01*
X120821455Y-60587933D01*
X120765096Y-60723991D01*
X120745874Y-60870000D01*
X120759969Y-60977067D01*
X120765096Y-61016007D01*
X120821453Y-61152063D01*
X120821454Y-61152065D01*
X120821455Y-61152066D01*
X120911102Y-61268897D01*
X121027933Y-61358544D01*
X121027937Y-61358547D01*
X121163993Y-61414904D01*
X121310000Y-61434126D01*
X121456007Y-61414904D01*
X121592063Y-61358547D01*
X121708897Y-61268897D01*
X121798547Y-61152063D01*
X121854904Y-61016007D01*
X121854904Y-61016005D01*
X121855324Y-61014992D01*
X121890077Y-60977067D01*
X121941077Y-60970353D01*
X121984460Y-60997992D01*
X122000000Y-61043770D01*
X122000000Y-72000000D01*
X124647481Y-72000000D01*
X124695819Y-72017593D01*
X124721539Y-72062142D01*
X124712606Y-72112800D01*
X124700655Y-72128374D01*
X119110357Y-77718674D01*
X119063737Y-77740414D01*
X119057183Y-77740700D01*
X117398799Y-77740700D01*
X117350461Y-77723107D01*
X117324741Y-77678558D01*
X117333674Y-77627900D01*
X117344097Y-77613898D01*
X117454167Y-77497231D01*
X117543057Y-77343269D01*
X117594045Y-77172958D01*
X117604382Y-76995480D01*
X117573511Y-76820401D01*
X117503096Y-76657162D01*
X117396933Y-76514561D01*
X117396932Y-76514560D01*
X117260749Y-76400288D01*
X117260748Y-76400287D01*
X117101877Y-76320499D01*
X116928894Y-76279500D01*
X116928890Y-76279500D01*
X116795708Y-76279500D01*
X116795698Y-76279500D01*
X116663426Y-76294960D01*
X116663424Y-76294961D01*
X116496363Y-76355766D01*
X116347831Y-76453457D01*
X116225831Y-76582770D01*
X116136942Y-76736731D01*
X116085955Y-76907041D01*
X116075618Y-77084520D01*
X116106489Y-77259600D01*
X116176904Y-77422838D01*
X116283067Y-77565439D01*
X116333662Y-77607894D01*
X116359382Y-77652442D01*
X116350449Y-77703100D01*
X116311043Y-77736165D01*
X116285324Y-77740700D01*
X114858799Y-77740700D01*
X114810461Y-77723107D01*
X114784741Y-77678558D01*
X114793674Y-77627900D01*
X114804097Y-77613898D01*
X114914167Y-77497231D01*
X115003057Y-77343269D01*
X115054045Y-77172958D01*
X115064382Y-76995480D01*
X115033511Y-76820401D01*
X114963096Y-76657162D01*
X114856933Y-76514561D01*
X114856932Y-76514560D01*
X114720749Y-76400288D01*
X114720748Y-76400287D01*
X114561877Y-76320499D01*
X114388894Y-76279500D01*
X114388890Y-76279500D01*
X114255708Y-76279500D01*
X114255698Y-76279500D01*
X114123426Y-76294960D01*
X114123424Y-76294961D01*
X113956363Y-76355766D01*
X113807831Y-76453457D01*
X113685831Y-76582770D01*
X113596942Y-76736731D01*
X113545955Y-76907041D01*
X113535618Y-77084520D01*
X113566489Y-77259600D01*
X113636904Y-77422838D01*
X113743067Y-77565439D01*
X113793662Y-77607894D01*
X113819382Y-77652442D01*
X113810449Y-77703100D01*
X113771043Y-77736165D01*
X113745324Y-77740700D01*
X112809554Y-77740700D01*
X112742268Y-77738400D01*
X112742262Y-77738401D01*
X112697298Y-77749358D01*
X112693514Y-77750077D01*
X112647686Y-77756376D01*
X112647678Y-77756378D01*
X112626976Y-77765370D01*
X112614826Y-77769456D01*
X112592894Y-77774801D01*
X112592892Y-77774801D01*
X112552557Y-77797480D01*
X112549108Y-77799193D01*
X112506667Y-77817629D01*
X112489153Y-77831877D01*
X112478558Y-77839088D01*
X112458877Y-77850155D01*
X112458870Y-77850160D01*
X112426155Y-77882874D01*
X112423296Y-77885454D01*
X112387399Y-77914660D01*
X112387398Y-77914661D01*
X112374377Y-77933107D01*
X112366117Y-77942912D01*
X108611271Y-81697759D01*
X108562066Y-81743713D01*
X108538018Y-81783255D01*
X108535852Y-81786439D01*
X108507897Y-81823302D01*
X108499614Y-81844307D01*
X108493912Y-81855787D01*
X108482183Y-81875075D01*
X108482181Y-81875080D01*
X108469696Y-81919633D01*
X108468469Y-81923282D01*
X108451494Y-81966330D01*
X108451492Y-81966342D01*
X108449183Y-81988793D01*
X108446791Y-82001383D01*
X108440700Y-82023127D01*
X108440700Y-82069396D01*
X108440503Y-82073244D01*
X108435771Y-82119274D01*
X108439607Y-82141522D01*
X108440700Y-82154299D01*
X108440699Y-96177100D01*
X108423106Y-96225438D01*
X108391779Y-96247558D01*
X108227646Y-96308778D01*
X108227643Y-96308779D01*
X107994823Y-96435908D01*
X107782452Y-96594887D01*
X107594887Y-96782452D01*
X107492021Y-96919866D01*
X107448969Y-96948019D01*
X107431820Y-96950000D01*
X104000000Y-96950000D01*
X104000000Y-108450000D01*
X100075500Y-108450000D01*
X100075500Y-74544520D01*
X113535618Y-74544520D01*
X113566489Y-74719600D01*
X113636904Y-74882838D01*
X113743067Y-75025439D01*
X113879250Y-75139711D01*
X113879251Y-75139712D01*
X113879252Y-75139712D01*
X113879254Y-75139714D01*
X114038123Y-75219501D01*
X114174457Y-75251813D01*
X114211105Y-75260499D01*
X114211106Y-75260499D01*
X114211110Y-75260500D01*
X114211114Y-75260500D01*
X114344299Y-75260500D01*
X114344301Y-75260499D01*
X114476573Y-75245039D01*
X114476574Y-75245038D01*
X114476577Y-75245038D01*
X114643635Y-75184234D01*
X114792168Y-75086543D01*
X114914167Y-74957231D01*
X115003057Y-74803269D01*
X115054045Y-74632958D01*
X115059196Y-74544520D01*
X116075618Y-74544520D01*
X116106489Y-74719600D01*
X116176904Y-74882838D01*
X116283067Y-75025439D01*
X116419250Y-75139711D01*
X116419251Y-75139712D01*
X116419252Y-75139712D01*
X116419254Y-75139714D01*
X116578123Y-75219501D01*
X116714457Y-75251813D01*
X116751105Y-75260499D01*
X116751106Y-75260499D01*
X116751110Y-75260500D01*
X116751114Y-75260500D01*
X116884299Y-75260500D01*
X116884301Y-75260499D01*
X117016573Y-75245039D01*
X117016574Y-75245038D01*
X117016577Y-75245038D01*
X117183635Y-75184234D01*
X117332168Y-75086543D01*
X117454167Y-74957231D01*
X117543057Y-74803269D01*
X117594045Y-74632958D01*
X117604382Y-74455480D01*
X117573511Y-74280401D01*
X117503096Y-74117162D01*
X117396933Y-73974561D01*
X117396932Y-73974560D01*
X117260749Y-73860288D01*
X117260748Y-73860287D01*
X117101877Y-73780499D01*
X116928894Y-73739500D01*
X116928890Y-73739500D01*
X116795708Y-73739500D01*
X116795698Y-73739500D01*
X116663426Y-73754960D01*
X116663424Y-73754961D01*
X116496363Y-73815766D01*
X116347831Y-73913457D01*
X116225831Y-74042770D01*
X116136942Y-74196731D01*
X116085955Y-74367041D01*
X116075618Y-74544520D01*
X115059196Y-74544520D01*
X115064382Y-74455480D01*
X115033511Y-74280401D01*
X114963096Y-74117162D01*
X114856933Y-73974561D01*
X114856932Y-73974560D01*
X114720749Y-73860288D01*
X114720748Y-73860287D01*
X114561877Y-73780499D01*
X114388894Y-73739500D01*
X114388890Y-73739500D01*
X114255708Y-73739500D01*
X114255698Y-73739500D01*
X114123426Y-73754960D01*
X114123424Y-73754961D01*
X113956363Y-73815766D01*
X113807831Y-73913457D01*
X113685831Y-74042770D01*
X113596942Y-74196731D01*
X113545955Y-74367041D01*
X113535618Y-74544520D01*
X100075500Y-74544520D01*
X100075500Y-68335068D01*
X100076507Y-68322804D01*
X100080096Y-68301094D01*
X100087985Y-68277880D01*
X100095422Y-68263986D01*
X100110359Y-68244550D01*
X100126488Y-68229470D01*
X100136132Y-68221834D01*
X100145675Y-68215472D01*
X100151349Y-68211690D01*
X100151349Y-68211689D01*
X100155118Y-68209177D01*
X100161988Y-68202535D01*
X101623857Y-67126187D01*
X101634673Y-67119554D01*
X101657499Y-67108090D01*
X101714136Y-67056326D01*
X101754471Y-66991054D01*
X101775434Y-66917244D01*
X101775434Y-66917238D01*
X101775500Y-66916770D01*
X101775500Y-66813941D01*
X102399500Y-66813941D01*
X102426755Y-66924520D01*
X102440210Y-66979110D01*
X102519266Y-67129737D01*
X102519268Y-67129740D01*
X102632062Y-67257059D01*
X102632067Y-67257063D01*
X102632071Y-67257068D01*
X102772070Y-67353703D01*
X102931128Y-67414025D01*
X103057628Y-67429385D01*
X103142372Y-67429385D01*
X103268872Y-67414025D01*
X103427930Y-67353703D01*
X103567929Y-67257068D01*
X103680734Y-67129737D01*
X103759790Y-66979110D01*
X103800500Y-66813941D01*
X103800500Y-66643829D01*
X103759790Y-66478660D01*
X103680734Y-66328033D01*
X103680732Y-66328031D01*
X103680731Y-66328029D01*
X103567937Y-66200710D01*
X103567932Y-66200705D01*
X103567929Y-66200702D01*
X103427930Y-66104067D01*
X103268872Y-66043745D01*
X103142372Y-66028385D01*
X103057628Y-66028385D01*
X102931128Y-66043745D01*
X102931126Y-66043745D01*
X102931124Y-66043746D01*
X102772072Y-66104066D01*
X102772069Y-66104067D01*
X102632072Y-66200701D01*
X102632062Y-66200710D01*
X102519268Y-66328029D01*
X102519266Y-66328032D01*
X102440210Y-66478659D01*
X102440209Y-66478660D01*
X102440210Y-66478660D01*
X102399500Y-66643829D01*
X102399500Y-66813941D01*
X101775500Y-66813941D01*
X101775500Y-63813941D01*
X102399500Y-63813941D01*
X102416465Y-63882770D01*
X102440210Y-63979110D01*
X102519266Y-64129737D01*
X102519268Y-64129740D01*
X102632062Y-64257059D01*
X102632067Y-64257063D01*
X102632071Y-64257068D01*
X102772070Y-64353703D01*
X102931128Y-64414025D01*
X103057628Y-64429385D01*
X103142372Y-64429385D01*
X103268872Y-64414025D01*
X103427930Y-64353703D01*
X103567929Y-64257068D01*
X103680734Y-64129737D01*
X103759790Y-63979110D01*
X103800500Y-63813941D01*
X103800500Y-63643829D01*
X103759790Y-63478660D01*
X103680734Y-63328033D01*
X103680732Y-63328031D01*
X103680731Y-63328029D01*
X103567937Y-63200710D01*
X103567932Y-63200705D01*
X103567929Y-63200702D01*
X103427930Y-63104067D01*
X103268872Y-63043745D01*
X103142372Y-63028385D01*
X103057628Y-63028385D01*
X102931128Y-63043745D01*
X102931126Y-63043745D01*
X102931124Y-63043746D01*
X102772072Y-63104066D01*
X102772069Y-63104067D01*
X102632072Y-63200701D01*
X102632062Y-63200710D01*
X102519268Y-63328029D01*
X102519266Y-63328032D01*
X102440210Y-63478659D01*
X102424964Y-63540516D01*
X102399500Y-63643829D01*
X102399500Y-63813941D01*
X101775500Y-63813941D01*
X101775500Y-63618371D01*
X101775501Y-63618362D01*
X101775501Y-63610006D01*
X101775570Y-63609814D01*
X101775500Y-63571951D01*
X101775500Y-63558965D01*
X101775474Y-63558686D01*
X101775441Y-63540516D01*
X101754470Y-63466711D01*
X101714129Y-63401445D01*
X101714128Y-63401444D01*
X101657491Y-63349688D01*
X101634849Y-63338317D01*
X101623925Y-63331607D01*
X101055801Y-62912019D01*
X100183527Y-62267801D01*
X100175687Y-62258617D01*
X100174749Y-62259571D01*
X100166264Y-62251213D01*
X100155979Y-62246070D01*
X100144939Y-62239303D01*
X100143765Y-62238436D01*
X100133709Y-62232201D01*
X100119098Y-62221135D01*
X100100530Y-62200721D01*
X100091269Y-62185735D01*
X100081318Y-62159998D01*
X100076776Y-62135653D01*
X100075500Y-62121858D01*
X100075501Y-62104359D01*
X100075500Y-62104357D01*
X100075500Y-60450000D01*
X104000000Y-60450000D01*
X104000000Y-71950000D01*
X107726192Y-71950000D01*
X107774530Y-71967593D01*
X107779366Y-71972026D01*
X107782452Y-71975112D01*
X107782455Y-71975114D01*
X107782459Y-71975118D01*
X107994821Y-72134090D01*
X107994823Y-72134091D01*
X108227639Y-72261218D01*
X108227640Y-72261218D01*
X108227645Y-72261221D01*
X108476192Y-72353925D01*
X108476196Y-72353926D01*
X108476202Y-72353928D01*
X108722785Y-72407568D01*
X108735403Y-72410313D01*
X108735417Y-72410314D01*
X108999994Y-72429237D01*
X109000000Y-72429237D01*
X109000006Y-72429237D01*
X109226206Y-72413058D01*
X109264597Y-72410313D01*
X109342262Y-72393417D01*
X109523797Y-72353928D01*
X109523800Y-72353926D01*
X109523808Y-72353925D01*
X109772355Y-72261221D01*
X110005179Y-72134090D01*
X110217541Y-71975118D01*
X110217547Y-71975112D01*
X110220634Y-71972026D01*
X110267254Y-71950286D01*
X110273808Y-71950000D01*
X113462904Y-71950000D01*
X113511242Y-71967593D01*
X113536962Y-72012142D01*
X113566489Y-72179600D01*
X113636904Y-72342838D01*
X113743067Y-72485439D01*
X113879250Y-72599711D01*
X113879251Y-72599712D01*
X113879252Y-72599712D01*
X113879254Y-72599714D01*
X114038123Y-72679501D01*
X114177342Y-72712496D01*
X114211105Y-72720499D01*
X114211106Y-72720499D01*
X114211110Y-72720500D01*
X114211114Y-72720500D01*
X114344299Y-72720500D01*
X114344301Y-72720499D01*
X114476573Y-72705039D01*
X114476574Y-72705038D01*
X114476577Y-72705038D01*
X114643635Y-72644234D01*
X114792168Y-72546543D01*
X114914167Y-72417231D01*
X115003057Y-72263269D01*
X115054045Y-72092958D01*
X115059196Y-72004520D01*
X116075618Y-72004520D01*
X116106489Y-72179600D01*
X116176904Y-72342838D01*
X116283067Y-72485439D01*
X116419250Y-72599711D01*
X116419251Y-72599712D01*
X116419252Y-72599712D01*
X116419254Y-72599714D01*
X116578123Y-72679501D01*
X116717342Y-72712496D01*
X116751105Y-72720499D01*
X116751106Y-72720499D01*
X116751110Y-72720500D01*
X116751114Y-72720500D01*
X116884299Y-72720500D01*
X116884301Y-72720499D01*
X117016573Y-72705039D01*
X117016574Y-72705038D01*
X117016577Y-72705038D01*
X117183635Y-72644234D01*
X117332168Y-72546543D01*
X117454167Y-72417231D01*
X117543057Y-72263269D01*
X117594045Y-72092958D01*
X117604382Y-71915480D01*
X117573511Y-71740401D01*
X117503096Y-71577162D01*
X117396933Y-71434561D01*
X117396932Y-71434560D01*
X117260749Y-71320288D01*
X117260748Y-71320287D01*
X117101877Y-71240499D01*
X116928894Y-71199500D01*
X116928890Y-71199500D01*
X116795708Y-71199500D01*
X116795698Y-71199500D01*
X116663426Y-71214960D01*
X116663424Y-71214961D01*
X116496363Y-71275766D01*
X116347831Y-71373457D01*
X116225831Y-71502770D01*
X116136942Y-71656731D01*
X116085955Y-71827041D01*
X116075618Y-72004520D01*
X115059196Y-72004520D01*
X115064382Y-71915480D01*
X115033511Y-71740401D01*
X114963096Y-71577162D01*
X114856933Y-71434561D01*
X114856932Y-71434560D01*
X114720749Y-71320288D01*
X114720748Y-71320287D01*
X114561877Y-71240499D01*
X114388894Y-71199500D01*
X114388890Y-71199500D01*
X114255708Y-71199500D01*
X114255700Y-71199500D01*
X114123423Y-71214961D01*
X114100919Y-71223152D01*
X114049479Y-71223151D01*
X114010074Y-71190086D01*
X114000000Y-71152487D01*
X114000000Y-70225571D01*
X114017593Y-70177233D01*
X114062142Y-70151513D01*
X114092538Y-70152397D01*
X114211110Y-70180500D01*
X114211114Y-70180500D01*
X114344299Y-70180500D01*
X114344301Y-70180499D01*
X114476573Y-70165039D01*
X114476574Y-70165038D01*
X114476577Y-70165038D01*
X114643635Y-70104234D01*
X114792168Y-70006543D01*
X114914167Y-69877231D01*
X115003057Y-69723269D01*
X115054045Y-69552958D01*
X115059196Y-69464520D01*
X116075618Y-69464520D01*
X116106489Y-69639600D01*
X116176904Y-69802838D01*
X116283067Y-69945439D01*
X116419250Y-70059711D01*
X116419251Y-70059712D01*
X116419252Y-70059712D01*
X116419254Y-70059714D01*
X116578123Y-70139501D01*
X116717342Y-70172496D01*
X116751105Y-70180499D01*
X116751106Y-70180499D01*
X116751110Y-70180500D01*
X116751114Y-70180500D01*
X116884299Y-70180500D01*
X116884301Y-70180499D01*
X117016573Y-70165039D01*
X117016574Y-70165038D01*
X117016577Y-70165038D01*
X117183635Y-70104234D01*
X117332168Y-70006543D01*
X117454167Y-69877231D01*
X117543057Y-69723269D01*
X117594045Y-69552958D01*
X117604382Y-69375480D01*
X117573511Y-69200401D01*
X117503096Y-69037162D01*
X117396933Y-68894561D01*
X117396932Y-68894560D01*
X117260749Y-68780288D01*
X117260748Y-68780287D01*
X117101877Y-68700499D01*
X116928894Y-68659500D01*
X116928890Y-68659500D01*
X116795708Y-68659500D01*
X116795698Y-68659500D01*
X116663426Y-68674960D01*
X116663424Y-68674961D01*
X116496363Y-68735766D01*
X116347831Y-68833457D01*
X116225831Y-68962770D01*
X116136942Y-69116731D01*
X116085955Y-69287041D01*
X116075618Y-69464520D01*
X115059196Y-69464520D01*
X115064382Y-69375480D01*
X115033511Y-69200401D01*
X114963096Y-69037162D01*
X114856933Y-68894561D01*
X114856932Y-68894560D01*
X114720749Y-68780288D01*
X114720748Y-68780287D01*
X114561877Y-68700499D01*
X114388894Y-68659500D01*
X114388890Y-68659500D01*
X114255708Y-68659500D01*
X114255700Y-68659500D01*
X114123423Y-68674961D01*
X114100919Y-68683152D01*
X114049479Y-68683151D01*
X114010074Y-68650086D01*
X114000000Y-68612487D01*
X114000000Y-67685571D01*
X114017593Y-67637233D01*
X114062142Y-67611513D01*
X114092538Y-67612397D01*
X114211110Y-67640500D01*
X114211114Y-67640500D01*
X114344299Y-67640500D01*
X114344301Y-67640499D01*
X114476573Y-67625039D01*
X114476574Y-67625038D01*
X114476577Y-67625038D01*
X114643635Y-67564234D01*
X114792168Y-67466543D01*
X114914167Y-67337231D01*
X115003057Y-67183269D01*
X115054045Y-67012958D01*
X115064382Y-66835480D01*
X115053053Y-66771230D01*
X115061985Y-66720572D01*
X115101390Y-66687507D01*
X115148967Y-66687507D01*
X115149267Y-66686454D01*
X115357686Y-66745755D01*
X115357687Y-66745755D01*
X115357690Y-66745756D01*
X115435838Y-66752997D01*
X115516800Y-66760500D01*
X115516806Y-66760500D01*
X115623200Y-66760500D01*
X115697831Y-66753583D01*
X115782310Y-66745756D01*
X115870822Y-66720572D01*
X115989340Y-66686850D01*
X116040647Y-66690543D01*
X116077577Y-66726352D01*
X116084993Y-66763551D01*
X116075618Y-66924520D01*
X116106489Y-67099600D01*
X116176904Y-67262838D01*
X116283067Y-67405439D01*
X116419250Y-67519711D01*
X116419251Y-67519712D01*
X116419252Y-67519712D01*
X116419254Y-67519714D01*
X116578123Y-67599501D01*
X116717342Y-67632497D01*
X116751105Y-67640499D01*
X116751106Y-67640499D01*
X116751110Y-67640500D01*
X116751114Y-67640500D01*
X116884299Y-67640500D01*
X116884301Y-67640499D01*
X117016573Y-67625039D01*
X117016574Y-67625038D01*
X117016577Y-67625038D01*
X117183635Y-67564234D01*
X117332168Y-67466543D01*
X117454167Y-67337231D01*
X117543057Y-67183269D01*
X117594045Y-67012958D01*
X117604382Y-66835480D01*
X117573511Y-66660401D01*
X117503096Y-66497162D01*
X117396933Y-66354561D01*
X117396932Y-66354560D01*
X117260749Y-66240288D01*
X117260748Y-66240287D01*
X117101877Y-66160499D01*
X116928894Y-66119500D01*
X116928890Y-66119500D01*
X116795708Y-66119500D01*
X116721381Y-66128187D01*
X116671327Y-66116323D01*
X116640610Y-66075062D01*
X116642528Y-66026332D01*
X116681321Y-65926198D01*
X116720500Y-65716610D01*
X116720500Y-65503390D01*
X116681321Y-65293802D01*
X116643451Y-65196049D01*
X116642396Y-65144624D01*
X116674645Y-65104548D01*
X116725109Y-65094577D01*
X116730916Y-65095714D01*
X116751105Y-65100499D01*
X116751106Y-65100499D01*
X116751110Y-65100500D01*
X116751114Y-65100500D01*
X116884299Y-65100500D01*
X116884301Y-65100499D01*
X117016573Y-65085039D01*
X117016574Y-65085038D01*
X117016577Y-65085038D01*
X117183635Y-65024234D01*
X117332168Y-64926543D01*
X117454167Y-64797231D01*
X117543057Y-64643269D01*
X117594045Y-64472958D01*
X117604382Y-64295480D01*
X117573511Y-64120401D01*
X117503096Y-63957162D01*
X117396933Y-63814561D01*
X117396192Y-63813939D01*
X117260749Y-63700288D01*
X117260748Y-63700287D01*
X117101877Y-63620499D01*
X116928894Y-63579500D01*
X116928890Y-63579500D01*
X116795708Y-63579500D01*
X116795698Y-63579500D01*
X116663426Y-63594960D01*
X116663424Y-63594961D01*
X116496363Y-63655766D01*
X116347831Y-63753457D01*
X116225831Y-63882770D01*
X116136942Y-64036731D01*
X116085955Y-64207041D01*
X116075618Y-64384520D01*
X116086947Y-64448769D01*
X116078014Y-64499427D01*
X116038609Y-64532492D01*
X115991033Y-64532492D01*
X115990733Y-64533546D01*
X115782313Y-64474244D01*
X115782314Y-64474244D01*
X115623200Y-64459500D01*
X115623194Y-64459500D01*
X115516806Y-64459500D01*
X115516800Y-64459500D01*
X115357685Y-64474244D01*
X115150659Y-64533149D01*
X115099351Y-64529456D01*
X115062422Y-64493647D01*
X115055006Y-64456449D01*
X115064382Y-64295480D01*
X115033511Y-64120401D01*
X114963096Y-63957162D01*
X114856933Y-63814561D01*
X114856192Y-63813939D01*
X114720749Y-63700288D01*
X114720748Y-63700287D01*
X114561877Y-63620499D01*
X114388894Y-63579500D01*
X114388890Y-63579500D01*
X114255708Y-63579500D01*
X114255700Y-63579500D01*
X114123425Y-63594961D01*
X114100917Y-63603153D01*
X114049477Y-63603151D01*
X114010073Y-63570085D01*
X114000000Y-63532490D01*
X114000000Y-60450000D01*
X104000000Y-60450000D01*
X100075500Y-60450000D01*
X100075500Y-53500000D01*
X101240663Y-53500000D01*
X101259991Y-53794897D01*
X101259992Y-53794902D01*
X101317647Y-54084755D01*
X101412644Y-54364610D01*
X101543355Y-54629665D01*
X101543357Y-54629669D01*
X101654832Y-54796503D01*
X101707550Y-54875401D01*
X101902406Y-55097593D01*
X102124598Y-55292449D01*
X102124603Y-55292453D01*
X102370331Y-55456643D01*
X102635389Y-55587355D01*
X102915241Y-55682352D01*
X103205097Y-55740008D01*
X103500000Y-55759337D01*
X103794903Y-55740008D01*
X104084759Y-55682352D01*
X104364611Y-55587355D01*
X104629669Y-55456643D01*
X104875397Y-55292453D01*
X105097593Y-55097593D01*
X105292453Y-54875397D01*
X105456643Y-54629669D01*
X105587355Y-54364611D01*
X105682352Y-54084759D01*
X105740008Y-53794903D01*
X105759337Y-53500000D01*
X105740008Y-53205097D01*
X105738994Y-53200001D01*
X121920129Y-53200001D01*
X121937584Y-53410656D01*
X121937584Y-53410658D01*
X121937585Y-53410660D01*
X121988598Y-53612103D01*
X121989476Y-53615572D01*
X121989479Y-53615583D01*
X122074384Y-53809145D01*
X122074384Y-53809147D01*
X122190002Y-53986113D01*
X122333164Y-54141629D01*
X122333168Y-54141633D01*
X122499978Y-54271466D01*
X122672093Y-54364610D01*
X122685882Y-54372072D01*
X122885810Y-54440707D01*
X123094309Y-54475500D01*
X123094312Y-54475500D01*
X130905688Y-54475500D01*
X130905691Y-54475500D01*
X131114190Y-54440707D01*
X131314118Y-54372072D01*
X131500023Y-54271465D01*
X131666833Y-54141632D01*
X131809998Y-53986113D01*
X131925613Y-53809151D01*
X132010524Y-53615573D01*
X132062415Y-53410660D01*
X132079871Y-53200000D01*
X132062415Y-52989340D01*
X132010524Y-52784427D01*
X132010521Y-52784420D01*
X132010520Y-52784416D01*
X131925615Y-52590854D01*
X131925615Y-52590852D01*
X131851470Y-52477365D01*
X131809998Y-52413887D01*
X131666833Y-52258368D01*
X131666831Y-52258366D01*
X131500021Y-52128533D01*
X131314123Y-52027930D01*
X131314121Y-52027929D01*
X131306112Y-52025179D01*
X131114190Y-51959293D01*
X131114185Y-51959292D01*
X131114187Y-51959292D01*
X130905694Y-51924500D01*
X130905691Y-51924500D01*
X130827480Y-51924500D01*
X123224531Y-51924500D01*
X123200000Y-51924500D01*
X123094309Y-51924500D01*
X123094305Y-51924500D01*
X122885813Y-51959292D01*
X122685878Y-52027929D01*
X122685876Y-52027930D01*
X122499978Y-52128533D01*
X122333168Y-52258366D01*
X122333164Y-52258370D01*
X122190002Y-52413886D01*
X122074384Y-52590852D01*
X122074384Y-52590854D01*
X121989479Y-52784416D01*
X121989476Y-52784427D01*
X121937585Y-52989340D01*
X121937584Y-52989343D01*
X121920129Y-53199998D01*
X121920129Y-53200001D01*
X105738994Y-53200001D01*
X105682352Y-52915241D01*
X105587355Y-52635389D01*
X105456643Y-52370332D01*
X105292453Y-52124603D01*
X105292449Y-52124598D01*
X105097593Y-51902406D01*
X104875401Y-51707550D01*
X104875397Y-51707547D01*
X104629669Y-51543357D01*
X104629665Y-51543355D01*
X104364610Y-51412644D01*
X104183086Y-51351025D01*
X104084759Y-51317648D01*
X104084756Y-51317647D01*
X104084755Y-51317647D01*
X103937874Y-51288430D01*
X103794903Y-51259992D01*
X103794901Y-51259991D01*
X103794897Y-51259991D01*
X103500000Y-51240663D01*
X103205102Y-51259991D01*
X103205097Y-51259992D01*
X102915244Y-51317647D01*
X102635389Y-51412644D01*
X102370335Y-51543355D01*
X102124598Y-51707550D01*
X101902406Y-51902406D01*
X101707550Y-52124598D01*
X101543355Y-52370335D01*
X101412644Y-52635389D01*
X101317647Y-52915244D01*
X101259992Y-53205097D01*
X101259991Y-53205102D01*
X101240663Y-53499999D01*
X101240663Y-53500000D01*
X100075500Y-53500000D01*
X100075500Y-53001059D01*
X100075559Y-52998951D01*
X100093771Y-52674670D01*
X100094243Y-52670477D01*
X100148470Y-52351318D01*
X100149409Y-52347203D01*
X100239028Y-52036127D01*
X100240421Y-52032149D01*
X100329209Y-51817796D01*
X100364311Y-51733052D01*
X100366139Y-51729257D01*
X100367479Y-51726834D01*
X100522737Y-51445912D01*
X100524971Y-51442357D01*
X100712320Y-51178314D01*
X100714933Y-51175038D01*
X100930671Y-50933626D01*
X100933626Y-50930671D01*
X101175038Y-50714933D01*
X101178314Y-50712320D01*
X101442357Y-50524971D01*
X101445912Y-50522737D01*
X101729263Y-50366135D01*
X101733052Y-50364311D01*
X101994663Y-50255948D01*
X102032149Y-50240421D01*
X102036127Y-50239028D01*
X102347207Y-50149407D01*
X102351318Y-50148470D01*
X102670477Y-50094243D01*
X102674670Y-50093771D01*
X102998953Y-50075559D01*
X103001061Y-50075500D01*
X103024531Y-50075500D01*
X150975469Y-50075500D01*
X150998939Y-50075500D01*
X151001047Y-50075559D01*
G37*
G04 #@! TD.AperFunction*
M02*
