G04 #@! TF.GenerationSoftware,KiCad,Pcbnew,7.0.7*
G04 #@! TF.CreationDate,2023-09-21T00:46:47-05:00*
G04 #@! TF.ProjectId,particle-bamf23-badge,70617274-6963-46c6-952d-62616d663233,v1.0*
G04 #@! TF.SameCoordinates,Original*
G04 #@! TF.FileFunction,Paste,Top*
G04 #@! TF.FilePolarity,Positive*
%FSLAX46Y46*%
G04 Gerber Fmt 4.6, Leading zero omitted, Abs format (unit mm)*
G04 Created by KiCad (PCBNEW 7.0.7) date 2023-09-21 00:46:47*
%MOMM*%
%LPD*%
G01*
G04 APERTURE LIST*
G04 Aperture macros list*
%AMRoundRect*
0 Rectangle with rounded corners*
0 $1 Rounding radius*
0 $2 $3 $4 $5 $6 $7 $8 $9 X,Y pos of 4 corners*
0 Add a 4 corners polygon primitive as box body*
4,1,4,$2,$3,$4,$5,$6,$7,$8,$9,$2,$3,0*
0 Add four circle primitives for the rounded corners*
1,1,$1+$1,$2,$3*
1,1,$1+$1,$4,$5*
1,1,$1+$1,$6,$7*
1,1,$1+$1,$8,$9*
0 Add four rect primitives between the rounded corners*
20,1,$1+$1,$2,$3,$4,$5,0*
20,1,$1+$1,$4,$5,$6,$7,0*
20,1,$1+$1,$6,$7,$8,$9,0*
20,1,$1+$1,$8,$9,$2,$3,0*%
%AMFreePoly0*
4,1,6,0.450000,-0.800000,-0.450000,-0.800000,-0.450000,0.530000,-0.180000,0.800000,0.450000,0.800000,0.450000,-0.800000,0.450000,-0.800000,$1*%
G04 Aperture macros list end*
%ADD10R,1.560000X0.650000*%
%ADD11RoundRect,0.250000X-0.450000X0.350000X-0.450000X-0.350000X0.450000X-0.350000X0.450000X0.350000X0*%
%ADD12R,1.300000X1.550000*%
%ADD13R,1.500000X0.900000*%
%ADD14RoundRect,0.250000X0.350000X0.450000X-0.350000X0.450000X-0.350000X-0.450000X0.350000X-0.450000X0*%
%ADD15FreePoly0,270.000000*%
%ADD16R,0.250000X0.550000*%
%ADD17R,0.800000X1.000000*%
%ADD18R,1.500000X0.700000*%
%ADD19R,1.780000X1.020000*%
%ADD20R,3.000000X2.600000*%
%ADD21RoundRect,0.250000X-0.350000X-0.450000X0.350000X-0.450000X0.350000X0.450000X-0.350000X0.450000X0*%
%ADD22RoundRect,0.250000X0.450000X-0.350000X0.450000X0.350000X-0.450000X0.350000X-0.450000X-0.350000X0*%
%ADD23RoundRect,0.250000X-1.050000X-0.500000X1.050000X-0.500000X1.050000X0.500000X-1.050000X0.500000X0*%
%ADD24RoundRect,0.309524X-0.340476X-0.440476X0.340476X-0.440476X0.340476X0.440476X-0.340476X0.440476X0*%
%ADD25RoundRect,0.225000X0.225000X0.375000X-0.225000X0.375000X-0.225000X-0.375000X0.225000X-0.375000X0*%
G04 APERTURE END LIST*
D10*
X134650000Y-66850000D03*
X134650000Y-64950000D03*
X131950000Y-65900000D03*
D11*
X140500000Y-113100000D03*
X140500000Y-115100000D03*
X113500000Y-121000000D03*
X113500000Y-123000000D03*
D12*
X106250000Y-86025000D03*
X106250000Y-93975000D03*
X101750000Y-86025000D03*
X101750000Y-93975000D03*
D13*
X132550000Y-112350000D03*
X132550000Y-115650000D03*
X137450000Y-115650000D03*
X137450000Y-112350000D03*
D14*
X147000000Y-116500000D03*
X145000000Y-116500000D03*
X123700000Y-71000000D03*
X121700000Y-71000000D03*
D15*
X149750000Y-116450000D03*
D16*
X150500000Y-115275000D03*
X150000000Y-115275000D03*
X149500000Y-115275000D03*
X149000000Y-115275000D03*
X149000000Y-117625000D03*
X149500000Y-117625000D03*
X150000000Y-117625000D03*
X150500000Y-117625000D03*
D10*
X123100000Y-74050000D03*
X123100000Y-75950000D03*
X125800000Y-75000000D03*
X145500000Y-121050000D03*
X145500000Y-122950000D03*
X148200000Y-122000000D03*
D17*
X104210000Y-61578885D03*
X102000000Y-61578885D03*
X104210000Y-68878885D03*
X102000000Y-68878885D03*
D18*
X104860000Y-62978885D03*
X104860000Y-65978885D03*
X104860000Y-67478885D03*
D19*
X112660000Y-64340000D03*
X118480000Y-64340000D03*
X112660000Y-66880000D03*
X118480000Y-66880000D03*
X112660000Y-69420000D03*
X118480000Y-69420000D03*
X112660000Y-71960000D03*
X118480000Y-71960000D03*
X112660000Y-74500000D03*
X118480000Y-74500000D03*
X112660000Y-77040000D03*
X118480000Y-77040000D03*
X112660000Y-79580000D03*
X118480000Y-79580000D03*
X112660000Y-82120000D03*
X118480000Y-82120000D03*
D20*
X131150000Y-82000000D03*
X122800000Y-82000000D03*
D21*
X150600000Y-121000000D03*
X152600000Y-121000000D03*
X130200000Y-71000000D03*
X132200000Y-71000000D03*
D11*
X140400000Y-129200000D03*
X140400000Y-131200000D03*
D21*
X126600000Y-126200000D03*
X128600000Y-126200000D03*
D14*
X147000000Y-112500000D03*
X145000000Y-112500000D03*
X123400000Y-89400000D03*
X121400000Y-89400000D03*
D11*
X113500000Y-113000000D03*
X113500000Y-115000000D03*
D19*
X112660000Y-84660000D03*
X118480000Y-84660000D03*
X112660000Y-87200000D03*
X118480000Y-87200000D03*
X112660000Y-89740000D03*
X118480000Y-89740000D03*
X112660000Y-92280000D03*
X118480000Y-92280000D03*
X112660000Y-94820000D03*
X118480000Y-94820000D03*
X112660000Y-97360000D03*
X118480000Y-97360000D03*
X112660000Y-99900000D03*
X118480000Y-99900000D03*
X112660000Y-102440000D03*
X118480000Y-102440000D03*
X135520000Y-74500000D03*
X141340000Y-74500000D03*
X135520000Y-77040000D03*
X141340000Y-77040000D03*
X135520000Y-79580000D03*
X141340000Y-79580000D03*
X135520000Y-82120000D03*
X141340000Y-82120000D03*
X135520000Y-84660000D03*
X141340000Y-84660000D03*
X135520000Y-87200000D03*
X141340000Y-87200000D03*
X135520000Y-89740000D03*
X141340000Y-89740000D03*
X135520000Y-92280000D03*
X141340000Y-92280000D03*
X135520000Y-94820000D03*
X141340000Y-94820000D03*
X135520000Y-97360000D03*
X141340000Y-97360000D03*
X135520000Y-99900000D03*
X141340000Y-99900000D03*
X135520000Y-102440000D03*
X141340000Y-102440000D03*
D12*
X106250000Y-75025000D03*
X106250000Y-82975000D03*
X101750000Y-75025000D03*
X101750000Y-82975000D03*
D22*
X143000000Y-123000000D03*
X143000000Y-121000000D03*
D13*
X116550000Y-128350000D03*
X116550000Y-131650000D03*
X121450000Y-131650000D03*
X121450000Y-128350000D03*
D12*
X147750000Y-82975000D03*
X147750000Y-75025000D03*
X152250000Y-82975000D03*
X152250000Y-75025000D03*
D10*
X124050000Y-101575000D03*
X124050000Y-99675000D03*
X121350000Y-100625000D03*
X124200000Y-91250000D03*
X124200000Y-92200000D03*
X124200000Y-93150000D03*
X126900000Y-93150000D03*
X126900000Y-91250000D03*
D22*
X113500000Y-128800000D03*
X113500000Y-126800000D03*
D21*
X122300000Y-95700000D03*
X124300000Y-95700000D03*
D13*
X132550000Y-128350000D03*
X132550000Y-131650000D03*
X137450000Y-131650000D03*
X137450000Y-128350000D03*
X124550000Y-120350000D03*
X124550000Y-123650000D03*
X129450000Y-123650000D03*
X129450000Y-120350000D03*
D23*
X135050000Y-62400000D03*
D24*
X132675000Y-62400000D03*
D13*
X116550000Y-112350000D03*
X116550000Y-115650000D03*
X121450000Y-115650000D03*
X121450000Y-112350000D03*
D11*
X140500000Y-121000000D03*
X140500000Y-123000000D03*
D12*
X147750000Y-93975000D03*
X147750000Y-86025000D03*
X152250000Y-93975000D03*
X152250000Y-86025000D03*
D14*
X132200000Y-68800000D03*
X130200000Y-68800000D03*
X147000000Y-114500000D03*
X145000000Y-114500000D03*
D25*
X131650000Y-75000000D03*
X128350000Y-75000000D03*
D13*
X116550000Y-120350000D03*
X116550000Y-123650000D03*
X121450000Y-123650000D03*
X121450000Y-120350000D03*
X132550000Y-120350000D03*
X132550000Y-123650000D03*
X137450000Y-123650000D03*
X137450000Y-120350000D03*
M02*
