G04 #@! TF.GenerationSoftware,KiCad,Pcbnew,7.0.7*
G04 #@! TF.CreationDate,2023-08-28T20:08:12-05:00*
G04 #@! TF.ProjectId,particle-bamf23-badge,70617274-6963-46c6-952d-62616d663233,v0.1*
G04 #@! TF.SameCoordinates,Original*
G04 #@! TF.FileFunction,Soldermask,Top*
G04 #@! TF.FilePolarity,Negative*
%FSLAX46Y46*%
G04 Gerber Fmt 4.6, Leading zero omitted, Abs format (unit mm)*
G04 Created by KiCad (PCBNEW 7.0.7) date 2023-08-28 20:08:12*
%MOMM*%
%LPD*%
G01*
G04 APERTURE LIST*
G04 Aperture macros list*
%AMRoundRect*
0 Rectangle with rounded corners*
0 $1 Rounding radius*
0 $2 $3 $4 $5 $6 $7 $8 $9 X,Y pos of 4 corners*
0 Add a 4 corners polygon primitive as box body*
4,1,4,$2,$3,$4,$5,$6,$7,$8,$9,$2,$3,0*
0 Add four circle primitives for the rounded corners*
1,1,$1+$1,$2,$3*
1,1,$1+$1,$4,$5*
1,1,$1+$1,$6,$7*
1,1,$1+$1,$8,$9*
0 Add four rect primitives between the rounded corners*
20,1,$1+$1,$2,$3,$4,$5,0*
20,1,$1+$1,$4,$5,$6,$7,0*
20,1,$1+$1,$6,$7,$8,$9,0*
20,1,$1+$1,$8,$9,$2,$3,0*%
%AMFreePoly0*
4,1,19,0.558779,0.930902,0.595106,0.880902,0.600000,0.850000,0.600000,-0.850000,0.580902,-0.908779,0.530902,-0.945106,0.500000,-0.950000,-0.500000,-0.950000,-0.558779,-0.930902,-0.595106,-0.880902,-0.600000,-0.850000,-0.600000,0.550000,-0.580902,0.608779,-0.570711,0.620711,-0.270711,0.920711,-0.215643,0.948769,-0.200000,0.950000,0.500000,0.950000,0.558779,0.930902,0.558779,0.930902,
$1*%
G04 Aperture macros list end*
%ADD10C,0.300000*%
%ADD11RoundRect,0.100000X0.780000X0.325000X-0.780000X0.325000X-0.780000X-0.325000X0.780000X-0.325000X0*%
%ADD12RoundRect,0.350000X-0.450000X0.350000X-0.450000X-0.350000X0.450000X-0.350000X0.450000X0.350000X0*%
%ADD13RoundRect,0.175000X0.275000X0.075000X-0.275000X0.075000X-0.275000X-0.075000X0.275000X-0.075000X0*%
%ADD14RoundRect,0.257500X0.157500X0.532500X-0.157500X0.532500X-0.157500X-0.532500X0.157500X-0.532500X0*%
%ADD15RoundRect,0.100000X-0.650000X0.775000X-0.650000X-0.775000X0.650000X-0.775000X0.650000X0.775000X0*%
%ADD16RoundRect,0.100000X-0.750000X-0.450000X0.750000X-0.450000X0.750000X0.450000X-0.750000X0.450000X0*%
%ADD17RoundRect,0.350000X0.350000X0.450000X-0.350000X0.450000X-0.350000X-0.450000X0.350000X-0.450000X0*%
%ADD18RoundRect,0.100000X-0.125000X0.275000X-0.125000X-0.275000X0.125000X-0.275000X0.125000X0.275000X0*%
%ADD19RoundRect,0.100000X0.125000X-0.275000X0.125000X0.275000X-0.125000X0.275000X-0.125000X-0.275000X0*%
%ADD20FreePoly0,270.000000*%
%ADD21RoundRect,0.100000X-0.780000X-0.325000X0.780000X-0.325000X0.780000X0.325000X-0.780000X0.325000X0*%
%ADD22RoundRect,0.100000X-0.400000X0.500000X-0.400000X-0.500000X0.400000X-0.500000X0.400000X0.500000X0*%
%ADD23C,1.100000*%
%ADD24RoundRect,0.100000X-0.750000X0.350000X-0.750000X-0.350000X0.750000X-0.350000X0.750000X0.350000X0*%
%ADD25C,1.220000*%
%ADD26C,2.000000*%
%ADD27RoundRect,0.100000X-0.890000X-0.510000X0.890000X-0.510000X0.890000X0.510000X-0.890000X0.510000X0*%
%ADD28RoundRect,0.100000X1.500000X1.300000X-1.500000X1.300000X-1.500000X-1.300000X1.500000X-1.300000X0*%
%ADD29RoundRect,0.350000X-0.350000X-0.450000X0.350000X-0.450000X0.350000X0.450000X-0.350000X0.450000X0*%
%ADD30RoundRect,0.350200X-0.649800X-0.649800X0.649800X-0.649800X0.649800X0.649800X-0.649800X0.649800X0*%
%ADD31RoundRect,0.100000X-0.850000X-0.850000X0.850000X-0.850000X0.850000X0.850000X-0.850000X0.850000X0*%
%ADD32O,1.900000X1.900000*%
%ADD33C,4.200000*%
%ADD34RoundRect,0.350000X0.450000X-0.350000X0.450000X0.350000X-0.450000X0.350000X-0.450000X-0.350000X0*%
%ADD35RoundRect,0.100000X0.650000X-0.775000X0.650000X0.775000X-0.650000X0.775000X-0.650000X-0.775000X0*%
%ADD36RoundRect,0.350000X-1.050000X-0.500000X1.050000X-0.500000X1.050000X0.500000X-1.050000X0.500000X0*%
%ADD37RoundRect,0.409524X-0.340476X-0.440476X0.340476X-0.440476X0.340476X0.440476X-0.340476X0.440476X0*%
%ADD38RoundRect,0.100000X-0.900000X-0.900000X0.900000X-0.900000X0.900000X0.900000X-0.900000X0.900000X0*%
%ADD39RoundRect,0.325000X0.225000X0.375000X-0.225000X0.375000X-0.225000X-0.375000X0.225000X-0.375000X0*%
%ADD40RoundRect,0.100000X-1.600000X1.600000X-1.600000X-1.600000X1.600000X-1.600000X1.600000X1.600000X0*%
%ADD41C,3.400000*%
G04 APERTURE END LIST*
D10*
G36*
X102455480Y-59021319D02*
G01*
X102476542Y-59022504D01*
X102496960Y-59024479D01*
X102516733Y-59027244D01*
X102535863Y-59030799D01*
X102554349Y-59035144D01*
X102572190Y-59040278D01*
X102589388Y-59046203D01*
X102605942Y-59052918D01*
X102621851Y-59060423D01*
X102637117Y-59068717D01*
X102651739Y-59077802D01*
X102665716Y-59087677D01*
X102679050Y-59098341D01*
X102691740Y-59109796D01*
X102703785Y-59122041D01*
X102715187Y-59134954D01*
X102725853Y-59148505D01*
X102735783Y-59162694D01*
X102744978Y-59177522D01*
X102753438Y-59192988D01*
X102761161Y-59209092D01*
X102768149Y-59225835D01*
X102774402Y-59243216D01*
X102779919Y-59261235D01*
X102784700Y-59279892D01*
X102788746Y-59299188D01*
X102792056Y-59319122D01*
X102794631Y-59339694D01*
X102796470Y-59360904D01*
X102797573Y-59382753D01*
X102797941Y-59405240D01*
X102797941Y-60184131D01*
X102797573Y-60206619D01*
X102796470Y-60228472D01*
X102794631Y-60249690D01*
X102792056Y-60270272D01*
X102788746Y-60290219D01*
X102784700Y-60309530D01*
X102779919Y-60328206D01*
X102774402Y-60346247D01*
X102768149Y-60363652D01*
X102761161Y-60380422D01*
X102753438Y-60396556D01*
X102744978Y-60412055D01*
X102735783Y-60426919D01*
X102725853Y-60441147D01*
X102715187Y-60454739D01*
X102703785Y-60467697D01*
X102691740Y-60479897D01*
X102679050Y-60491310D01*
X102665716Y-60501936D01*
X102651739Y-60511775D01*
X102637117Y-60520827D01*
X102621851Y-60529091D01*
X102605942Y-60536569D01*
X102589388Y-60543259D01*
X102572190Y-60549163D01*
X102554349Y-60554279D01*
X102535863Y-60558608D01*
X102516733Y-60562150D01*
X102496960Y-60564905D01*
X102476542Y-60566873D01*
X102455480Y-60568053D01*
X102433775Y-60568447D01*
X102412068Y-60568053D01*
X102391002Y-60566873D01*
X102370577Y-60564905D01*
X102350793Y-60562150D01*
X102331651Y-60558608D01*
X102313149Y-60554279D01*
X102295289Y-60549163D01*
X102278070Y-60543259D01*
X102261492Y-60536569D01*
X102245555Y-60529091D01*
X102230259Y-60520827D01*
X102215605Y-60511775D01*
X102201591Y-60501936D01*
X102188219Y-60491310D01*
X102175488Y-60479897D01*
X102163398Y-60467697D01*
X102152041Y-60454739D01*
X102141416Y-60441147D01*
X102131524Y-60426919D01*
X102122365Y-60412055D01*
X102113939Y-60396556D01*
X102106245Y-60380422D01*
X102099284Y-60363652D01*
X102093056Y-60346247D01*
X102087561Y-60328206D01*
X102082798Y-60309530D01*
X102078768Y-60290219D01*
X102075471Y-60270272D01*
X102072906Y-60249690D01*
X102071074Y-60228472D01*
X102069975Y-60206619D01*
X102069859Y-60199518D01*
X102325331Y-60199518D01*
X102325755Y-60215800D01*
X102327025Y-60231031D01*
X102330520Y-60251908D01*
X102335921Y-60270422D01*
X102343228Y-60286573D01*
X102352442Y-60300360D01*
X102363562Y-60311783D01*
X102376588Y-60320843D01*
X102391520Y-60327540D01*
X102408358Y-60331873D01*
X102427103Y-60333842D01*
X102433775Y-60333974D01*
X102453155Y-60332792D01*
X102470629Y-60329247D01*
X102486196Y-60323338D01*
X102499858Y-60315066D01*
X102511613Y-60304430D01*
X102521462Y-60291431D01*
X102529404Y-60276068D01*
X102535441Y-60258342D01*
X102539571Y-60238253D01*
X102541266Y-60223547D01*
X102542113Y-60207790D01*
X102542219Y-60199518D01*
X102542219Y-59389853D01*
X102541795Y-59373571D01*
X102540524Y-59358340D01*
X102537029Y-59337463D01*
X102531628Y-59318949D01*
X102524321Y-59302798D01*
X102515108Y-59289011D01*
X102503988Y-59277588D01*
X102490962Y-59268528D01*
X102476030Y-59261831D01*
X102459191Y-59257498D01*
X102440447Y-59255529D01*
X102433775Y-59255397D01*
X102414395Y-59256579D01*
X102396921Y-59260124D01*
X102381353Y-59266033D01*
X102367692Y-59274305D01*
X102355937Y-59284941D01*
X102346088Y-59297940D01*
X102338145Y-59313302D01*
X102332109Y-59331029D01*
X102327979Y-59351118D01*
X102326284Y-59365824D01*
X102325437Y-59381581D01*
X102325331Y-59389853D01*
X102325331Y-60199518D01*
X102069859Y-60199518D01*
X102069609Y-60184131D01*
X102069609Y-59405240D01*
X102069975Y-59382753D01*
X102071074Y-59360904D01*
X102072906Y-59339694D01*
X102075471Y-59319122D01*
X102078768Y-59299188D01*
X102082798Y-59279892D01*
X102087561Y-59261235D01*
X102093056Y-59243216D01*
X102099284Y-59225835D01*
X102106245Y-59209092D01*
X102113939Y-59192988D01*
X102122365Y-59177522D01*
X102131524Y-59162694D01*
X102141416Y-59148505D01*
X102152041Y-59134954D01*
X102163398Y-59122041D01*
X102175488Y-59109796D01*
X102188219Y-59098341D01*
X102201591Y-59087677D01*
X102215605Y-59077802D01*
X102230259Y-59068717D01*
X102245555Y-59060423D01*
X102261492Y-59052918D01*
X102278070Y-59046203D01*
X102295289Y-59040278D01*
X102313149Y-59035144D01*
X102331651Y-59030799D01*
X102350793Y-59027244D01*
X102370577Y-59024479D01*
X102391002Y-59022504D01*
X102412068Y-59021319D01*
X102433775Y-59020924D01*
X102455480Y-59021319D01*
G37*
G36*
X102926168Y-59044371D02*
G01*
X103238311Y-59044371D01*
X103459228Y-59943063D01*
X103454832Y-59944162D01*
X103447505Y-59044371D01*
X103677581Y-59044371D01*
X103677581Y-60545000D01*
X103418196Y-60545000D01*
X103144888Y-59475216D01*
X103148918Y-59474117D01*
X103156612Y-60545000D01*
X102926168Y-60545000D01*
X102926168Y-59044371D01*
G37*
G36*
X102355480Y-69821319D02*
G01*
X102376542Y-69822504D01*
X102396960Y-69824479D01*
X102416733Y-69827244D01*
X102435863Y-69830799D01*
X102454349Y-69835144D01*
X102472190Y-69840278D01*
X102489388Y-69846203D01*
X102505942Y-69852918D01*
X102521851Y-69860423D01*
X102537117Y-69868717D01*
X102551739Y-69877802D01*
X102565716Y-69887677D01*
X102579050Y-69898341D01*
X102591740Y-69909796D01*
X102603785Y-69922041D01*
X102615187Y-69934954D01*
X102625853Y-69948505D01*
X102635783Y-69962694D01*
X102644978Y-69977522D01*
X102653438Y-69992988D01*
X102661161Y-70009092D01*
X102668149Y-70025835D01*
X102674402Y-70043216D01*
X102679919Y-70061235D01*
X102684700Y-70079892D01*
X102688746Y-70099188D01*
X102692056Y-70119122D01*
X102694631Y-70139694D01*
X102696470Y-70160904D01*
X102697573Y-70182753D01*
X102697941Y-70205240D01*
X102697941Y-70984131D01*
X102697573Y-71006619D01*
X102696470Y-71028472D01*
X102694631Y-71049690D01*
X102692056Y-71070272D01*
X102688746Y-71090219D01*
X102684700Y-71109530D01*
X102679919Y-71128206D01*
X102674402Y-71146247D01*
X102668149Y-71163652D01*
X102661161Y-71180422D01*
X102653438Y-71196556D01*
X102644978Y-71212055D01*
X102635783Y-71226919D01*
X102625853Y-71241147D01*
X102615187Y-71254739D01*
X102603785Y-71267697D01*
X102591740Y-71279897D01*
X102579050Y-71291310D01*
X102565716Y-71301936D01*
X102551739Y-71311775D01*
X102537117Y-71320827D01*
X102521851Y-71329091D01*
X102505942Y-71336569D01*
X102489388Y-71343259D01*
X102472190Y-71349163D01*
X102454349Y-71354279D01*
X102435863Y-71358608D01*
X102416733Y-71362150D01*
X102396960Y-71364905D01*
X102376542Y-71366873D01*
X102355480Y-71368053D01*
X102333775Y-71368447D01*
X102312068Y-71368053D01*
X102291002Y-71366873D01*
X102270577Y-71364905D01*
X102250793Y-71362150D01*
X102231651Y-71358608D01*
X102213149Y-71354279D01*
X102195289Y-71349163D01*
X102178070Y-71343259D01*
X102161492Y-71336569D01*
X102145555Y-71329091D01*
X102130259Y-71320827D01*
X102115605Y-71311775D01*
X102101591Y-71301936D01*
X102088219Y-71291310D01*
X102075488Y-71279897D01*
X102063398Y-71267697D01*
X102052041Y-71254739D01*
X102041416Y-71241147D01*
X102031524Y-71226919D01*
X102022365Y-71212055D01*
X102013939Y-71196556D01*
X102006245Y-71180422D01*
X101999284Y-71163652D01*
X101993056Y-71146247D01*
X101987561Y-71128206D01*
X101982798Y-71109530D01*
X101978768Y-71090219D01*
X101975471Y-71070272D01*
X101972906Y-71049690D01*
X101971074Y-71028472D01*
X101969975Y-71006619D01*
X101969859Y-70999518D01*
X102225331Y-70999518D01*
X102225755Y-71015800D01*
X102227025Y-71031031D01*
X102230520Y-71051908D01*
X102235921Y-71070422D01*
X102243228Y-71086573D01*
X102252442Y-71100360D01*
X102263562Y-71111783D01*
X102276588Y-71120843D01*
X102291520Y-71127540D01*
X102308358Y-71131873D01*
X102327103Y-71133842D01*
X102333775Y-71133974D01*
X102353155Y-71132792D01*
X102370629Y-71129247D01*
X102386196Y-71123338D01*
X102399858Y-71115066D01*
X102411613Y-71104430D01*
X102421462Y-71091431D01*
X102429404Y-71076068D01*
X102435441Y-71058342D01*
X102439571Y-71038253D01*
X102441266Y-71023547D01*
X102442113Y-71007790D01*
X102442219Y-70999518D01*
X102442219Y-70189853D01*
X102441795Y-70173571D01*
X102440524Y-70158340D01*
X102437029Y-70137463D01*
X102431628Y-70118949D01*
X102424321Y-70102798D01*
X102415108Y-70089011D01*
X102403988Y-70077588D01*
X102390962Y-70068528D01*
X102376030Y-70061831D01*
X102359191Y-70057498D01*
X102340447Y-70055529D01*
X102333775Y-70055397D01*
X102314395Y-70056579D01*
X102296921Y-70060124D01*
X102281353Y-70066033D01*
X102267692Y-70074305D01*
X102255937Y-70084941D01*
X102246088Y-70097940D01*
X102238145Y-70113302D01*
X102232109Y-70131029D01*
X102227979Y-70151118D01*
X102226284Y-70165824D01*
X102225437Y-70181581D01*
X102225331Y-70189853D01*
X102225331Y-70999518D01*
X101969859Y-70999518D01*
X101969609Y-70984131D01*
X101969609Y-70205240D01*
X101969975Y-70182753D01*
X101971074Y-70160904D01*
X101972906Y-70139694D01*
X101975471Y-70119122D01*
X101978768Y-70099188D01*
X101982798Y-70079892D01*
X101987561Y-70061235D01*
X101993056Y-70043216D01*
X101999284Y-70025835D01*
X102006245Y-70009092D01*
X102013939Y-69992988D01*
X102022365Y-69977522D01*
X102031524Y-69962694D01*
X102041416Y-69948505D01*
X102052041Y-69934954D01*
X102063398Y-69922041D01*
X102075488Y-69909796D01*
X102088219Y-69898341D01*
X102101591Y-69887677D01*
X102115605Y-69877802D01*
X102130259Y-69868717D01*
X102145555Y-69860423D01*
X102161492Y-69852918D01*
X102178070Y-69846203D01*
X102195289Y-69840278D01*
X102213149Y-69835144D01*
X102231651Y-69830799D01*
X102250793Y-69827244D01*
X102270577Y-69824479D01*
X102291002Y-69822504D01*
X102312068Y-69821319D01*
X102333775Y-69820924D01*
X102355480Y-69821319D01*
G37*
G36*
X102826168Y-69844371D02*
G01*
X103463642Y-69844371D01*
X103463642Y-70078845D01*
X103081891Y-70078845D01*
X103081891Y-70454002D01*
X103381577Y-70454002D01*
X103381577Y-70688475D01*
X103081891Y-70688475D01*
X103081891Y-71345000D01*
X102826168Y-71345000D01*
X102826168Y-69844371D01*
G37*
G36*
X103548639Y-69844371D02*
G01*
X104186113Y-69844371D01*
X104186113Y-70078845D01*
X103804361Y-70078845D01*
X103804361Y-70454002D01*
X104104047Y-70454002D01*
X104104047Y-70688475D01*
X103804361Y-70688475D01*
X103804361Y-71345000D01*
X103548639Y-71345000D01*
X103548639Y-69844371D01*
G37*
G36*
X109879115Y-77025337D02*
G01*
X109904261Y-77052745D01*
X109907191Y-77058482D01*
X109915079Y-77094634D01*
X109906877Y-77127322D01*
X109886034Y-77152787D01*
X109855995Y-77167270D01*
X109820207Y-77167014D01*
X109810357Y-77164060D01*
X109777336Y-77143712D01*
X109759011Y-77115164D01*
X109755476Y-77083105D01*
X109766823Y-77052225D01*
X109793147Y-77027218D01*
X109807492Y-77020069D01*
X109845405Y-77013885D01*
X109879115Y-77025337D01*
G37*
G36*
X109445931Y-77927319D02*
G01*
X109472387Y-77946012D01*
X109484732Y-77966166D01*
X109491756Y-77994804D01*
X109492134Y-77999800D01*
X109491221Y-78027991D01*
X109482985Y-78046822D01*
X109473207Y-78057674D01*
X109439816Y-78078731D01*
X109404310Y-78082419D01*
X109371358Y-78069693D01*
X109345625Y-78041509D01*
X109340120Y-78030441D01*
X109334344Y-77995118D01*
X109346760Y-77963349D01*
X109376030Y-77938039D01*
X109384680Y-77933587D01*
X109418280Y-77922754D01*
X109445931Y-77927319D01*
G37*
G36*
X109451474Y-77398806D02*
G01*
X109463610Y-77401721D01*
X109480877Y-77414540D01*
X109497667Y-77436483D01*
X109498407Y-77437778D01*
X109507730Y-77471558D01*
X109501598Y-77505261D01*
X109483077Y-77534042D01*
X109455228Y-77553059D01*
X109422550Y-77557636D01*
X109387745Y-77545621D01*
X109363425Y-77520931D01*
X109351274Y-77488335D01*
X109352975Y-77452602D01*
X109370212Y-77418499D01*
X109372474Y-77415798D01*
X109391971Y-77404658D01*
X109421398Y-77398516D01*
X109451474Y-77398806D01*
G37*
G36*
X109782435Y-79825835D02*
G01*
X109808350Y-79845260D01*
X109825226Y-79872899D01*
X109835553Y-79900559D01*
X109834833Y-79921025D01*
X109827068Y-79937118D01*
X109807927Y-79959022D01*
X109777407Y-79984496D01*
X109741906Y-80009003D01*
X109707826Y-80028011D01*
X109687937Y-80035699D01*
X109650655Y-80036520D01*
X109618192Y-80020308D01*
X109597205Y-79992688D01*
X109588808Y-79962484D01*
X109594492Y-79934299D01*
X109615638Y-79905423D01*
X109653624Y-79873143D01*
X109660665Y-79867981D01*
X109709830Y-79837233D01*
X109750007Y-79823172D01*
X109782435Y-79825835D01*
G37*
G36*
X108154087Y-77457293D02*
G01*
X108175933Y-77473142D01*
X108192507Y-77491963D01*
X108200248Y-77512787D01*
X108198596Y-77538484D01*
X108186986Y-77571927D01*
X108164860Y-77615986D01*
X108139284Y-77660681D01*
X108114500Y-77701221D01*
X108095666Y-77727775D01*
X108079882Y-77743771D01*
X108064243Y-77752642D01*
X108060253Y-77754070D01*
X108021433Y-77757987D01*
X107987868Y-77744586D01*
X107963768Y-77715618D01*
X107962813Y-77713635D01*
X107956024Y-77694886D01*
X107954882Y-77675907D01*
X107960494Y-77653131D01*
X107973969Y-77622994D01*
X107996416Y-77581928D01*
X108012218Y-77554704D01*
X108036914Y-77514644D01*
X108056732Y-77488208D01*
X108075142Y-77471354D01*
X108092101Y-77461624D01*
X108125841Y-77451360D01*
X108154087Y-77457293D01*
G37*
G36*
X106889767Y-77045808D02*
G01*
X106916125Y-77067356D01*
X106927077Y-77088078D01*
X106931813Y-77103825D01*
X106933377Y-77117533D01*
X106930508Y-77132770D01*
X106921941Y-77153104D01*
X106906411Y-77182102D01*
X106882656Y-77223334D01*
X106873795Y-77238522D01*
X106843999Y-77286665D01*
X106819146Y-77318762D01*
X106796553Y-77336750D01*
X106773539Y-77342573D01*
X106747417Y-77338171D01*
X106739658Y-77335545D01*
X106711539Y-77315715D01*
X106693225Y-77283440D01*
X106688170Y-77251669D01*
X106693155Y-77234702D01*
X106706172Y-77206122D01*
X106724583Y-77170688D01*
X106745755Y-77133159D01*
X106767051Y-77098293D01*
X106785836Y-77070847D01*
X106793703Y-77061125D01*
X106822728Y-77041516D01*
X106856691Y-77036802D01*
X106889767Y-77045808D01*
G37*
G36*
X109410008Y-80043490D02*
G01*
X109431285Y-80055131D01*
X109447384Y-80077433D01*
X109450584Y-80083924D01*
X109458601Y-80119357D01*
X109452548Y-80148638D01*
X109443287Y-80168074D01*
X109429048Y-80182869D01*
X109404979Y-80196895D01*
X109375609Y-80210071D01*
X109234148Y-80262090D01*
X109094101Y-80297612D01*
X108957232Y-80316415D01*
X108825303Y-80318279D01*
X108700081Y-80302983D01*
X108675026Y-80297621D01*
X108618451Y-80282490D01*
X108578917Y-80266440D01*
X108553942Y-80247858D01*
X108541041Y-80225128D01*
X108538037Y-80208497D01*
X108540776Y-80171202D01*
X108557760Y-80144997D01*
X108584025Y-80128601D01*
X108604270Y-80120991D01*
X108624808Y-80118921D01*
X108651553Y-80122647D01*
X108690418Y-80132429D01*
X108694027Y-80133426D01*
X108794387Y-80153007D01*
X108900379Y-80157338D01*
X109013398Y-80146271D01*
X109134833Y-80119656D01*
X109266079Y-80077343D01*
X109285609Y-80070047D01*
X109340121Y-80051196D01*
X109380604Y-80042261D01*
X109410008Y-80043490D01*
G37*
G36*
X107948666Y-76409780D02*
G01*
X107965443Y-76416275D01*
X107980373Y-76427666D01*
X107984091Y-76431114D01*
X108003803Y-76457220D01*
X108007218Y-76486189D01*
X108000386Y-76512016D01*
X107987484Y-76536353D01*
X107967131Y-76553062D01*
X107935351Y-76564243D01*
X107888168Y-76571996D01*
X107886477Y-76572198D01*
X107746919Y-76596991D01*
X107606919Y-76637645D01*
X107470521Y-76692412D01*
X107341767Y-76759552D01*
X107224700Y-76837317D01*
X107169635Y-76881504D01*
X107125710Y-76913102D01*
X107088033Y-76926573D01*
X107055718Y-76921974D01*
X107027877Y-76899364D01*
X107021863Y-76891409D01*
X107008235Y-76864930D01*
X107006286Y-76838751D01*
X107017145Y-76810950D01*
X107041943Y-76779605D01*
X107081812Y-76742791D01*
X107133251Y-76702081D01*
X107254497Y-76620652D01*
X107387578Y-76549757D01*
X107528006Y-76491213D01*
X107671296Y-76446834D01*
X107812957Y-76418440D01*
X107843546Y-76414509D01*
X107892089Y-76409413D01*
X107925672Y-76407665D01*
X107948666Y-76409780D01*
G37*
G36*
X109222965Y-76826084D02*
G01*
X109227376Y-76827117D01*
X109243642Y-76840088D01*
X109260085Y-76863586D01*
X109263714Y-76870732D01*
X109275113Y-76905117D01*
X109272931Y-76932739D01*
X109255933Y-76954675D01*
X109222882Y-76972003D01*
X109172542Y-76985797D01*
X109121538Y-76994644D01*
X108960290Y-77027499D01*
X108808093Y-77077610D01*
X108664472Y-77145180D01*
X108528957Y-77230406D01*
X108488961Y-77260099D01*
X108443801Y-77294430D01*
X108410592Y-77318123D01*
X108386125Y-77332867D01*
X108367197Y-77340357D01*
X108350598Y-77342281D01*
X108335916Y-77340804D01*
X108313569Y-77334174D01*
X108298341Y-77319429D01*
X108286649Y-77297641D01*
X108277233Y-77268804D01*
X108275485Y-77243500D01*
X108276755Y-77237991D01*
X108287575Y-77222017D01*
X108309605Y-77198147D01*
X108338782Y-77170656D01*
X108350261Y-77160687D01*
X108461556Y-77077215D01*
X108586971Y-77002584D01*
X108722425Y-76938541D01*
X108863833Y-76886831D01*
X109007113Y-76849201D01*
X109123603Y-76830020D01*
X109164359Y-76826269D01*
X109199418Y-76824902D01*
X109222965Y-76826084D01*
G37*
G36*
X110152983Y-77486857D02*
G01*
X110200203Y-77497265D01*
X110246831Y-77514401D01*
X110284765Y-77535751D01*
X110291224Y-77540838D01*
X110335932Y-77590764D01*
X110364876Y-77648695D01*
X110377985Y-77711169D01*
X110375188Y-77774720D01*
X110365225Y-77807178D01*
X110356414Y-77835888D01*
X110321592Y-77891206D01*
X110298909Y-77914891D01*
X110242424Y-77954215D01*
X110180117Y-77976004D01*
X110115106Y-77979982D01*
X110050506Y-77965871D01*
X110001024Y-77941253D01*
X109950024Y-77898582D01*
X109914742Y-77847998D01*
X109894507Y-77792221D01*
X109888650Y-77733976D01*
X109890983Y-77716742D01*
X110052907Y-77716742D01*
X110054019Y-77753108D01*
X110061567Y-77771451D01*
X110086391Y-77800364D01*
X110116591Y-77813970D01*
X110148359Y-77814127D01*
X110177890Y-77802695D01*
X110201377Y-77781534D01*
X110215013Y-77752505D01*
X110214992Y-77717468D01*
X110209135Y-77699344D01*
X110189347Y-77671027D01*
X110162263Y-77656010D01*
X110127154Y-77650331D01*
X110098503Y-77659077D01*
X110068295Y-77683699D01*
X110052907Y-77716742D01*
X109890983Y-77716742D01*
X109896499Y-77675986D01*
X109917383Y-77620971D01*
X109950632Y-77571656D01*
X109995573Y-77530764D01*
X110051538Y-77501016D01*
X110113272Y-77485688D01*
X110152983Y-77486857D01*
G37*
G36*
X110303083Y-78253406D02*
G01*
X110348487Y-78259340D01*
X110383793Y-78268750D01*
X110418441Y-78284746D01*
X110445271Y-78300264D01*
X110503927Y-78346389D01*
X110548718Y-78403603D01*
X110579278Y-78468873D01*
X110595240Y-78539161D01*
X110596240Y-78611433D01*
X110581910Y-78682657D01*
X110581553Y-78683455D01*
X110551886Y-78749794D01*
X110506577Y-78809015D01*
X110451705Y-78853404D01*
X110385877Y-78887570D01*
X110316363Y-78908072D01*
X110289699Y-78911633D01*
X110240876Y-78909109D01*
X110184440Y-78896107D01*
X110127269Y-78875125D01*
X110076237Y-78848666D01*
X110039797Y-78820818D01*
X109996418Y-78766519D01*
X109962961Y-78702254D01*
X109943063Y-78635472D01*
X109940391Y-78617104D01*
X109937944Y-78584862D01*
X109939264Y-78557413D01*
X110104012Y-78557413D01*
X110106488Y-78611204D01*
X110113680Y-78636263D01*
X110139141Y-78684130D01*
X110176632Y-78717725D01*
X110212058Y-78734546D01*
X110268323Y-78746247D01*
X110320808Y-78739753D01*
X110363877Y-78717835D01*
X110406187Y-78676341D01*
X110430784Y-78628579D01*
X110437052Y-78576483D01*
X110425403Y-78524566D01*
X110396656Y-78473850D01*
X110356879Y-78437762D01*
X110308524Y-78417767D01*
X110254044Y-78415334D01*
X110245059Y-78416649D01*
X110190777Y-78434627D01*
X110147967Y-78466098D01*
X110118442Y-78508036D01*
X110104012Y-78557413D01*
X109939264Y-78557413D01*
X109939270Y-78557292D01*
X109945473Y-78527831D01*
X109957659Y-78489918D01*
X109965491Y-78468068D01*
X109987492Y-78414117D01*
X110010971Y-78373490D01*
X110040556Y-78340228D01*
X110080872Y-78308370D01*
X110099135Y-78295945D01*
X110141118Y-78275781D01*
X110194640Y-78260955D01*
X110252072Y-78253058D01*
X110303083Y-78253406D01*
G37*
G36*
X108141370Y-76031764D02*
G01*
X108293553Y-76046298D01*
X108449971Y-76075134D01*
X108541634Y-76097740D01*
X108683176Y-76143410D01*
X108826944Y-76204661D01*
X108967914Y-76278934D01*
X109101063Y-76363666D01*
X109183255Y-76424900D01*
X109257434Y-76483953D01*
X109363095Y-76487401D01*
X109534751Y-76501427D01*
X109706207Y-76531691D01*
X109873154Y-76577145D01*
X110031278Y-76636739D01*
X110091670Y-76664584D01*
X110257238Y-76755855D01*
X110411181Y-76862019D01*
X110552640Y-76981972D01*
X110680756Y-77114606D01*
X110794670Y-77258818D01*
X110893520Y-77413501D01*
X110976448Y-77577550D01*
X111042595Y-77749859D01*
X111091100Y-77929323D01*
X111096907Y-77957322D01*
X111123327Y-78137037D01*
X111131825Y-78318453D01*
X111122655Y-78499271D01*
X111096075Y-78677193D01*
X111052340Y-78849920D01*
X111020971Y-78935400D01*
X110991704Y-79015157D01*
X110974982Y-79052754D01*
X110877800Y-79246264D01*
X110769757Y-79427224D01*
X110648930Y-79598245D01*
X110513400Y-79761937D01*
X110429830Y-79849250D01*
X110361242Y-79920911D01*
X110277104Y-80000567D01*
X110118278Y-80137404D01*
X109956559Y-80259309D01*
X109793025Y-80365779D01*
X109628748Y-80456309D01*
X109464805Y-80530397D01*
X109302270Y-80587537D01*
X109142219Y-80627227D01*
X108985725Y-80648963D01*
X108884232Y-80653231D01*
X108806221Y-80653342D01*
X108786881Y-80695317D01*
X108775571Y-80719865D01*
X108742320Y-80776753D01*
X108699382Y-80827543D01*
X108651210Y-80867724D01*
X108606202Y-80891407D01*
X108569370Y-80904870D01*
X108587007Y-80927484D01*
X108611657Y-80966788D01*
X108635322Y-81017600D01*
X108654900Y-81071998D01*
X108667291Y-81122068D01*
X108669435Y-81137928D01*
X108670299Y-81188055D01*
X108665215Y-81243402D01*
X108663049Y-81255186D01*
X108655318Y-81297224D01*
X108641737Y-81342773D01*
X108631351Y-81364952D01*
X108607832Y-81391229D01*
X108582667Y-81405452D01*
X108573970Y-81407864D01*
X108564353Y-81408870D01*
X108551880Y-81407879D01*
X108534614Y-81404298D01*
X108510616Y-81397539D01*
X108477950Y-81387010D01*
X108434679Y-81372119D01*
X108378864Y-81352276D01*
X108308571Y-81326891D01*
X108222293Y-81295528D01*
X108127096Y-81260892D01*
X108048748Y-81232058D01*
X107985805Y-81207958D01*
X107936824Y-81187528D01*
X107900362Y-81169703D01*
X107874974Y-81153418D01*
X107859216Y-81137609D01*
X107851646Y-81121210D01*
X107850819Y-81103157D01*
X107855293Y-81082384D01*
X107863622Y-81057827D01*
X107865482Y-81052761D01*
X108040869Y-81052761D01*
X108270989Y-81136518D01*
X108343615Y-81162946D01*
X108399904Y-81183090D01*
X108441926Y-81197224D01*
X108471750Y-81205615D01*
X108491449Y-81208532D01*
X108503091Y-81206246D01*
X108508745Y-81199024D01*
X108510485Y-81187138D01*
X108510377Y-81170856D01*
X108510325Y-81167669D01*
X108502766Y-81126906D01*
X108482559Y-81077888D01*
X108451907Y-81025064D01*
X108415161Y-80975459D01*
X108361427Y-80910635D01*
X108305913Y-80917148D01*
X108262548Y-80924063D01*
X108215495Y-80934219D01*
X108195068Y-80939618D01*
X108140672Y-80962629D01*
X108090415Y-80997043D01*
X108054548Y-81034348D01*
X108040869Y-81052761D01*
X107865482Y-81052761D01*
X107871387Y-81036679D01*
X107902967Y-80971917D01*
X107947775Y-80909622D01*
X108000200Y-80857430D01*
X108007244Y-80851813D01*
X108038013Y-80831292D01*
X108075874Y-80810662D01*
X108115129Y-80792526D01*
X108150084Y-80779489D01*
X108175040Y-80774153D01*
X108177142Y-80774156D01*
X108186686Y-80772587D01*
X108188919Y-80764296D01*
X108183467Y-80745547D01*
X108171306Y-80715763D01*
X108153407Y-80665874D01*
X108145043Y-80618832D01*
X108145639Y-80576722D01*
X108306569Y-80576722D01*
X108310571Y-80618119D01*
X108321755Y-80658105D01*
X108333583Y-80681158D01*
X108361145Y-80709105D01*
X108400025Y-80734113D01*
X108442076Y-80751540D01*
X108465829Y-80756471D01*
X108510305Y-80752118D01*
X108555546Y-80732411D01*
X108596059Y-80700503D01*
X108622383Y-80666633D01*
X108637619Y-80640990D01*
X108477657Y-80582769D01*
X108419961Y-80561873D01*
X108377956Y-80547115D01*
X108349009Y-80537865D01*
X108330483Y-80533496D01*
X108319744Y-80533373D01*
X108314156Y-80536870D01*
X108311214Y-80542981D01*
X108306569Y-80576722D01*
X108145639Y-80576722D01*
X108145763Y-80567998D01*
X108155114Y-80506736D01*
X108156582Y-80499410D01*
X108171925Y-80424140D01*
X108089985Y-80349876D01*
X108050859Y-80313114D01*
X108011815Y-80274228D01*
X107978455Y-80238896D01*
X107962989Y-80221152D01*
X107917934Y-80166694D01*
X107848827Y-80179853D01*
X107809015Y-80185779D01*
X107757531Y-80191124D01*
X107702242Y-80195151D01*
X107668666Y-80196692D01*
X107557611Y-80200370D01*
X107526986Y-80257545D01*
X107521328Y-80268107D01*
X107474997Y-80338779D01*
X107420785Y-80393257D01*
X107361006Y-80429781D01*
X107317413Y-80449034D01*
X107349356Y-80498314D01*
X107390528Y-80578604D01*
X107413393Y-80662975D01*
X107417676Y-80749164D01*
X107405384Y-80821464D01*
X107403098Y-80834908D01*
X107394023Y-80862933D01*
X107383858Y-80890991D01*
X107374489Y-80913755D01*
X107364130Y-80931110D01*
X107350987Y-80942947D01*
X107333272Y-80949152D01*
X107309193Y-80949614D01*
X107276960Y-80944219D01*
X107234784Y-80932857D01*
X107180872Y-80915414D01*
X107113435Y-80891779D01*
X107030684Y-80861838D01*
X106958830Y-80835666D01*
X106872224Y-80804103D01*
X106802128Y-80778389D01*
X106746680Y-80757734D01*
X106704015Y-80741344D01*
X106672268Y-80728427D01*
X106649577Y-80718190D01*
X106634077Y-80709840D01*
X106623905Y-80702586D01*
X106617197Y-80695634D01*
X106612110Y-80688228D01*
X106600853Y-80656465D01*
X106603421Y-80617898D01*
X106613532Y-80589270D01*
X106798942Y-80589270D01*
X106803959Y-80595076D01*
X106816020Y-80602416D01*
X106837135Y-80612172D01*
X106869317Y-80625224D01*
X106914576Y-80642454D01*
X106974922Y-80664740D01*
X107023736Y-80682555D01*
X107253857Y-80766312D01*
X107255213Y-80743414D01*
X107253238Y-80691748D01*
X107239907Y-80642005D01*
X107213664Y-80590700D01*
X107172954Y-80534348D01*
X107149426Y-80506328D01*
X107102458Y-80452304D01*
X107037478Y-80461939D01*
X106991727Y-80471154D01*
X106943049Y-80484625D01*
X106914711Y-80494550D01*
X106868358Y-80517316D01*
X106830323Y-80544347D01*
X106805012Y-80572233D01*
X106798958Y-80584120D01*
X106798942Y-80589270D01*
X106613532Y-80589270D01*
X106620209Y-80570363D01*
X106640734Y-80530409D01*
X106687295Y-80463023D01*
X106744260Y-80405429D01*
X106808013Y-80360509D01*
X106874931Y-80331141D01*
X106898866Y-80324979D01*
X106937995Y-80316863D01*
X106916919Y-80262963D01*
X106895633Y-80188489D01*
X106893533Y-80147918D01*
X107055815Y-80147918D01*
X107068336Y-80197787D01*
X107091970Y-80240391D01*
X107118770Y-80266181D01*
X107156157Y-80283823D01*
X107201620Y-80294648D01*
X107245935Y-80296974D01*
X107268487Y-80293495D01*
X107301729Y-80277978D01*
X107335437Y-80252395D01*
X107362666Y-80222746D01*
X107374441Y-80202024D01*
X107376125Y-80195140D01*
X107373842Y-80188872D01*
X107365171Y-80182005D01*
X107347685Y-80173329D01*
X107318963Y-80161632D01*
X107276579Y-80145703D01*
X107221363Y-80125515D01*
X107061401Y-80067293D01*
X107056589Y-80096731D01*
X107055815Y-80147918D01*
X106893533Y-80147918D01*
X106891855Y-80115483D01*
X106905297Y-80038350D01*
X106905396Y-80037986D01*
X106924305Y-79968381D01*
X106864613Y-79918159D01*
X106755309Y-79814295D01*
X106653586Y-79693481D01*
X106560193Y-79557076D01*
X106475881Y-79406436D01*
X106401403Y-79242919D01*
X106337507Y-79067882D01*
X106284946Y-78882684D01*
X106279658Y-78860776D01*
X106230585Y-78617515D01*
X106200524Y-78382754D01*
X106362595Y-78382754D01*
X106362892Y-78408962D01*
X106366362Y-78448029D01*
X106373070Y-78502846D01*
X106374923Y-78516831D01*
X106408892Y-78721331D01*
X106454310Y-78913893D01*
X106510821Y-79093812D01*
X106578068Y-79260378D01*
X106655697Y-79412887D01*
X106743350Y-79550630D01*
X106840672Y-79672901D01*
X106947306Y-79778993D01*
X107051868Y-79860694D01*
X107117313Y-79900348D01*
X107195111Y-79938847D01*
X107278162Y-79973177D01*
X107359368Y-80000332D01*
X107413098Y-80013831D01*
X107526008Y-80030139D01*
X107644453Y-80034619D01*
X107736313Y-80029343D01*
X107814694Y-80021097D01*
X107775711Y-79949805D01*
X107679857Y-79754441D01*
X107599898Y-79548364D01*
X107536119Y-79332604D01*
X107488797Y-79108193D01*
X107458217Y-78876159D01*
X107455914Y-78845263D01*
X107617400Y-78845263D01*
X107617466Y-78880896D01*
X107622362Y-78930634D01*
X107627386Y-78969833D01*
X107663155Y-79183259D01*
X107711968Y-79384685D01*
X107773552Y-79573362D01*
X107847631Y-79748538D01*
X107933931Y-79909461D01*
X108015934Y-80033438D01*
X108087666Y-80120451D01*
X108111118Y-80148898D01*
X108216820Y-80248658D01*
X108331935Y-80332176D01*
X108455356Y-80398916D01*
X108585975Y-80448338D01*
X108722685Y-80479901D01*
X108864381Y-80493067D01*
X108956336Y-80491637D01*
X109100876Y-80474375D01*
X109250041Y-80439230D01*
X109402432Y-80386909D01*
X109556653Y-80318117D01*
X109711303Y-80233560D01*
X109864986Y-80133942D01*
X110016305Y-80019970D01*
X110163859Y-79892348D01*
X110187125Y-79870615D01*
X110225030Y-79833746D01*
X110249535Y-79807031D01*
X110262408Y-79788314D01*
X110265416Y-79775435D01*
X110265372Y-79775116D01*
X110252698Y-79736711D01*
X110227497Y-79694279D01*
X110193702Y-79654322D01*
X110190408Y-79651102D01*
X110128437Y-79602487D01*
X110057053Y-79567545D01*
X109974059Y-79545463D01*
X109878447Y-79535473D01*
X109809246Y-79528484D01*
X109736431Y-79512404D01*
X109698575Y-79501249D01*
X109653486Y-79486338D01*
X109615872Y-79471546D01*
X109581045Y-79454334D01*
X109544322Y-79432160D01*
X109501017Y-79402483D01*
X109455466Y-79369412D01*
X109388435Y-79329525D01*
X109309988Y-79300742D01*
X109217894Y-79282367D01*
X109156793Y-79276164D01*
X109105412Y-79272042D01*
X109066692Y-79267207D01*
X109033781Y-79260053D01*
X108999823Y-79248971D01*
X108957963Y-79232355D01*
X108942508Y-79225911D01*
X108881086Y-79198231D01*
X108831692Y-79171028D01*
X108787327Y-79140347D01*
X108777591Y-79132774D01*
X108716190Y-79090110D01*
X108652251Y-79058710D01*
X108581166Y-79036971D01*
X108498327Y-79023288D01*
X108450192Y-79018905D01*
X108398765Y-79014783D01*
X108360025Y-79009960D01*
X108327134Y-79002834D01*
X108293261Y-78991807D01*
X108251571Y-78975274D01*
X108235642Y-78968633D01*
X108176475Y-78942103D01*
X108129283Y-78916420D01*
X108087101Y-78887629D01*
X108070809Y-78874947D01*
X107999932Y-78827333D01*
X107923933Y-78792648D01*
X107846403Y-78771774D01*
X107770936Y-78765595D01*
X107701123Y-78774994D01*
X107684673Y-78779984D01*
X107655800Y-78791092D01*
X107635604Y-78803548D01*
X107623124Y-78820543D01*
X107617400Y-78845263D01*
X107455914Y-78845263D01*
X107449030Y-78752911D01*
X107441974Y-78625589D01*
X107376578Y-78598713D01*
X107334720Y-78583648D01*
X107293091Y-78574086D01*
X107243584Y-78568392D01*
X107217813Y-78566723D01*
X107173398Y-78563478D01*
X107135771Y-78558244D01*
X107125958Y-78555963D01*
X107602064Y-78555963D01*
X107602645Y-78593415D01*
X107604722Y-78616397D01*
X107605916Y-78620553D01*
X107618803Y-78626119D01*
X107645892Y-78621693D01*
X107651203Y-78620113D01*
X107704757Y-78608710D01*
X107768636Y-78603294D01*
X107834414Y-78604380D01*
X107863079Y-78607215D01*
X107924840Y-78620906D01*
X107994317Y-78645617D01*
X108065376Y-78678587D01*
X108131883Y-78717057D01*
X108174434Y-78747339D01*
X108248266Y-78797603D01*
X108323844Y-78831694D01*
X108406286Y-78851458D01*
X108482336Y-78858255D01*
X108526348Y-78860642D01*
X108562939Y-78865091D01*
X108598733Y-78873016D01*
X108640354Y-78885832D01*
X108684916Y-78901502D01*
X108736264Y-78920727D01*
X108775124Y-78937417D01*
X108807668Y-78954824D01*
X108840070Y-78976195D01*
X108872509Y-79000203D01*
X108948085Y-79051126D01*
X109021426Y-79085866D01*
X109097706Y-79106320D01*
X109182102Y-79114383D01*
X109184400Y-79114444D01*
X109225125Y-79116194D01*
X109259531Y-79120042D01*
X109293690Y-79127282D01*
X109333676Y-79139208D01*
X109385564Y-79157116D01*
X109387002Y-79157628D01*
X109438431Y-79176495D01*
X109476973Y-79192441D01*
X109508365Y-79208452D01*
X109538345Y-79227511D01*
X109572650Y-79252604D01*
X109579306Y-79257671D01*
X109648978Y-79305493D01*
X109715674Y-79338552D01*
X109785851Y-79359197D01*
X109865963Y-79369778D01*
X109891429Y-79371274D01*
X109934758Y-79373854D01*
X109970205Y-79377960D01*
X110003791Y-79384937D01*
X110041537Y-79396129D01*
X110089463Y-79412880D01*
X110107764Y-79419571D01*
X110170659Y-79444100D01*
X110219625Y-79467416D01*
X110259694Y-79493030D01*
X110295895Y-79524452D01*
X110333258Y-79565197D01*
X110356313Y-79593083D01*
X110380668Y-79621456D01*
X110396952Y-79635554D01*
X110407779Y-79637461D01*
X110410207Y-79636081D01*
X110424236Y-79621927D01*
X110447080Y-79594930D01*
X110476343Y-79558247D01*
X110509630Y-79515040D01*
X110544545Y-79468466D01*
X110578691Y-79421685D01*
X110609676Y-79377855D01*
X110635102Y-79340135D01*
X110637767Y-79336012D01*
X110691996Y-79249314D01*
X110736820Y-79171765D01*
X110775212Y-79097394D01*
X110810143Y-79020229D01*
X110844581Y-78934299D01*
X110865268Y-78878728D01*
X110899879Y-78778666D01*
X110926020Y-78689838D01*
X110944857Y-78606481D01*
X110957551Y-78522829D01*
X110965264Y-78433118D01*
X110968167Y-78368582D01*
X110964314Y-78193087D01*
X110941819Y-78020170D01*
X110901476Y-77851279D01*
X110844078Y-77687864D01*
X110770418Y-77531373D01*
X110681292Y-77383257D01*
X110577493Y-77244961D01*
X110459814Y-77117937D01*
X110329049Y-77003634D01*
X110185993Y-76903499D01*
X110155300Y-76884900D01*
X110113358Y-76860526D01*
X110073792Y-76838232D01*
X110041924Y-76820981D01*
X110027072Y-76813504D01*
X109978374Y-76792366D01*
X109918608Y-76768935D01*
X109853676Y-76745294D01*
X109789478Y-76723526D01*
X109731915Y-76705713D01*
X109690556Y-76694761D01*
X109511957Y-76663394D01*
X109438617Y-76658233D01*
X109334211Y-76650886D01*
X109158550Y-76656729D01*
X108986202Y-76680417D01*
X108818399Y-76721443D01*
X108656369Y-76779297D01*
X108501342Y-76853474D01*
X108354548Y-76943467D01*
X108217217Y-77048767D01*
X108090577Y-77168868D01*
X107975860Y-77303262D01*
X107880385Y-77441543D01*
X107807955Y-77574076D01*
X107745241Y-77721514D01*
X107693017Y-77881389D01*
X107652060Y-78051231D01*
X107623144Y-78228574D01*
X107617359Y-78278773D01*
X107612279Y-78334096D01*
X107608088Y-78393108D01*
X107604907Y-78452177D01*
X107602859Y-78507672D01*
X107602064Y-78555963D01*
X107125958Y-78555963D01*
X107098451Y-78549569D01*
X107054958Y-78536000D01*
X107009629Y-78520015D01*
X106956435Y-78500075D01*
X106916609Y-78483130D01*
X106884828Y-78466484D01*
X106855768Y-78447444D01*
X106834053Y-78431139D01*
X106756653Y-78377220D01*
X106683396Y-78340009D01*
X106610904Y-78318180D01*
X106535801Y-78310410D01*
X106526289Y-78310359D01*
X106476980Y-78315120D01*
X106428542Y-78327510D01*
X106388169Y-78345351D01*
X106371253Y-78357361D01*
X106365405Y-78366517D01*
X106362595Y-78382754D01*
X106200524Y-78382754D01*
X106200087Y-78379342D01*
X106188175Y-78145262D01*
X106189465Y-78100674D01*
X106347957Y-78100674D01*
X106348116Y-78137115D01*
X106349772Y-78158155D01*
X106349783Y-78158208D01*
X106356481Y-78165293D01*
X106374552Y-78166499D01*
X106407238Y-78161903D01*
X106418386Y-78159795D01*
X106479645Y-78149290D01*
X106530634Y-78144878D01*
X106577466Y-78147100D01*
X106626249Y-78156502D01*
X106683095Y-78173625D01*
X106720317Y-78186641D01*
X106772480Y-78205904D01*
X106811525Y-78221968D01*
X106842916Y-78237671D01*
X106872118Y-78255849D01*
X106904594Y-78279343D01*
X106917045Y-78288809D01*
X106993959Y-78340334D01*
X107070468Y-78375352D01*
X107152209Y-78395943D01*
X107228449Y-78403580D01*
X107278116Y-78407602D01*
X107329969Y-78414565D01*
X107373950Y-78423079D01*
X107379599Y-78424496D01*
X107413753Y-78432899D01*
X107433286Y-78435523D01*
X107442302Y-78432169D01*
X107444903Y-78422644D01*
X107444967Y-78421381D01*
X107455573Y-78261958D01*
X107474239Y-78114509D01*
X107502222Y-77972692D01*
X107540779Y-77830165D01*
X107591165Y-77680585D01*
X107592434Y-77677118D01*
X107617666Y-77608896D01*
X107638233Y-77555257D01*
X107655903Y-77512338D01*
X107672446Y-77476274D01*
X107689631Y-77443200D01*
X107709230Y-77409252D01*
X107732201Y-77371858D01*
X107843267Y-77211313D01*
X107966546Y-77065449D01*
X108101370Y-76934750D01*
X108247073Y-76819699D01*
X108402985Y-76720777D01*
X108568439Y-76638466D01*
X108742767Y-76573250D01*
X108895007Y-76532157D01*
X108949649Y-76518888D01*
X108985140Y-76507936D01*
X109001721Y-76499215D01*
X109002342Y-76494545D01*
X108990290Y-76485272D01*
X108965202Y-76468801D01*
X108931063Y-76447526D01*
X108891858Y-76423843D01*
X108851573Y-76400144D01*
X108814194Y-76378826D01*
X108783706Y-76362282D01*
X108774007Y-76357378D01*
X108723657Y-76335135D01*
X108660284Y-76310600D01*
X108589913Y-76285828D01*
X108518571Y-76262870D01*
X108452283Y-76243780D01*
X108410168Y-76233384D01*
X108232403Y-76203674D01*
X108054634Y-76193281D01*
X107877954Y-76202012D01*
X107703456Y-76229677D01*
X107532235Y-76276083D01*
X107365381Y-76341040D01*
X107203991Y-76424355D01*
X107156918Y-76452829D01*
X107010222Y-76555256D01*
X106878491Y-76669560D01*
X106761577Y-76795990D01*
X106659332Y-76934792D01*
X106571612Y-77086217D01*
X106498267Y-77250510D01*
X106439153Y-77427919D01*
X106394120Y-77618695D01*
X106367610Y-77785178D01*
X106362848Y-77829060D01*
X106358423Y-77881817D01*
X106354527Y-77939404D01*
X106351356Y-77997772D01*
X106349101Y-78052878D01*
X106347957Y-78100674D01*
X106189465Y-78100674D01*
X106194856Y-77914285D01*
X106220137Y-77685417D01*
X106264027Y-77457669D01*
X106291775Y-77348206D01*
X106348633Y-77176904D01*
X106423606Y-77012479D01*
X106516280Y-76855605D01*
X106626243Y-76706955D01*
X106753080Y-76567203D01*
X106796452Y-76525143D01*
X106877611Y-76451935D01*
X106954974Y-76389539D01*
X107033541Y-76334606D01*
X107118314Y-76283789D01*
X107214293Y-76233737D01*
X107275102Y-76204655D01*
X107381401Y-76157457D01*
X107477832Y-76120282D01*
X107570174Y-76091449D01*
X107664207Y-76069282D01*
X107765712Y-76052100D01*
X107828280Y-76043994D01*
X107988064Y-76031131D01*
X108141370Y-76031764D01*
G37*
G36*
X151646011Y-99266734D02*
G01*
X151669202Y-99290067D01*
X151680742Y-99324494D01*
X151681158Y-99340517D01*
X151670740Y-99377490D01*
X151646115Y-99403202D01*
X151610647Y-99414409D01*
X151604209Y-99414640D01*
X151568111Y-99406510D01*
X151541952Y-99385263D01*
X151527682Y-99355610D01*
X151527251Y-99322265D01*
X151542607Y-99289938D01*
X151549448Y-99282260D01*
X151581844Y-99260932D01*
X151615462Y-99256389D01*
X151646011Y-99266734D01*
G37*
G36*
X150997424Y-98499625D02*
G01*
X151020970Y-98524304D01*
X151031539Y-98561527D01*
X151031918Y-98571249D01*
X151027536Y-98606280D01*
X151011713Y-98629410D01*
X150983590Y-98645487D01*
X150960107Y-98648159D01*
X150931184Y-98642421D01*
X150926496Y-98640653D01*
X150901333Y-98627911D01*
X150887747Y-98612489D01*
X150882044Y-98599040D01*
X150877071Y-98559878D01*
X150888734Y-98526141D01*
X150914194Y-98501654D01*
X150950612Y-98490243D01*
X150962970Y-98489931D01*
X150997424Y-98499625D01*
G37*
G36*
X151449572Y-98729144D02*
G01*
X151481238Y-98745787D01*
X151504860Y-98775822D01*
X151506352Y-98779014D01*
X151508209Y-98801392D01*
X151501340Y-98830657D01*
X151488366Y-98857793D01*
X151480595Y-98867560D01*
X151461679Y-98877792D01*
X151434696Y-98883735D01*
X151433211Y-98883859D01*
X151398655Y-98878032D01*
X151370702Y-98858232D01*
X151352445Y-98829282D01*
X151346979Y-98796005D01*
X151356641Y-98764454D01*
X151382239Y-98737989D01*
X151414894Y-98726382D01*
X151449572Y-98729144D01*
G37*
G36*
X149106845Y-97898803D02*
G01*
X149129986Y-97915866D01*
X149147221Y-97947234D01*
X149160422Y-97995303D01*
X149162125Y-98003866D01*
X149169214Y-98061419D01*
X149164978Y-98103774D01*
X149148860Y-98132039D01*
X149120303Y-98147316D01*
X149088121Y-98150931D01*
X149058689Y-98148600D01*
X149040445Y-98139298D01*
X149029141Y-98125460D01*
X149017378Y-98098855D01*
X149007189Y-98060429D01*
X148999982Y-98017897D01*
X148997158Y-97978977D01*
X148998595Y-97957702D01*
X149013608Y-97923567D01*
X149042020Y-97900996D01*
X149075922Y-97893648D01*
X149106845Y-97898803D01*
G37*
G36*
X151852031Y-97377327D02*
G01*
X151869715Y-97384312D01*
X151887984Y-97399023D01*
X151909603Y-97423973D01*
X151937335Y-97461672D01*
X151955330Y-97487499D01*
X151981200Y-97526811D01*
X151996784Y-97555945D01*
X152004278Y-97579753D01*
X152005930Y-97599235D01*
X152000972Y-97634151D01*
X151983658Y-97657244D01*
X151960061Y-97670345D01*
X151935999Y-97677412D01*
X151913855Y-97675627D01*
X151891264Y-97663269D01*
X151865860Y-97638614D01*
X151835281Y-97599941D01*
X151805582Y-97557872D01*
X151779315Y-97518277D01*
X151763208Y-97489986D01*
X151755381Y-97468920D01*
X151753951Y-97450997D01*
X151754342Y-97446777D01*
X151767199Y-97409940D01*
X151793529Y-97385182D01*
X151829968Y-97375584D01*
X151832169Y-97375556D01*
X151852031Y-97377327D01*
G37*
G36*
X152789540Y-96415572D02*
G01*
X152802811Y-96427261D01*
X152823211Y-96451136D01*
X152847544Y-96482798D01*
X152872610Y-96517846D01*
X152895209Y-96551882D01*
X152912145Y-96580506D01*
X152917631Y-96591745D01*
X152923137Y-96626337D01*
X152913056Y-96659111D01*
X152890915Y-96685281D01*
X152860247Y-96700063D01*
X152836837Y-96701232D01*
X152820565Y-96698869D01*
X152807479Y-96694493D01*
X152794883Y-96685454D01*
X152780074Y-96669095D01*
X152760356Y-96642766D01*
X152733026Y-96603811D01*
X152723007Y-96589362D01*
X152691967Y-96542011D01*
X152673380Y-96505922D01*
X152666625Y-96477844D01*
X152671074Y-96454525D01*
X152686103Y-96432710D01*
X152691762Y-96426788D01*
X152721618Y-96409684D01*
X152758609Y-96406726D01*
X152789540Y-96415572D01*
G37*
G36*
X149327956Y-96842511D02*
G01*
X149360599Y-96860755D01*
X149377171Y-96887222D01*
X149380931Y-96917956D01*
X149379272Y-96939521D01*
X149372469Y-96959009D01*
X149357789Y-96981673D01*
X149332498Y-97012763D01*
X149330069Y-97015613D01*
X149269909Y-97098294D01*
X149221189Y-97192526D01*
X149183456Y-97299632D01*
X149156257Y-97420938D01*
X149139138Y-97557770D01*
X149137496Y-97578553D01*
X149131544Y-97635925D01*
X149122533Y-97676391D01*
X149108992Y-97702521D01*
X149089450Y-97716884D01*
X149062434Y-97722050D01*
X149055198Y-97722207D01*
X149019697Y-97714498D01*
X148995718Y-97696638D01*
X148982016Y-97680030D01*
X148974625Y-97660872D01*
X148972085Y-97633131D01*
X148972557Y-97600944D01*
X148985195Y-97450752D01*
X149012188Y-97308815D01*
X149052990Y-97176823D01*
X149107056Y-97056467D01*
X149173840Y-96949441D01*
X149189288Y-96929000D01*
X149226912Y-96884120D01*
X149258165Y-96855073D01*
X149285561Y-96840292D01*
X149311614Y-96838206D01*
X149327956Y-96842511D01*
G37*
G36*
X153029329Y-96878390D02*
G01*
X153049936Y-96899980D01*
X153067865Y-96935702D01*
X153084379Y-96987394D01*
X153099537Y-97051219D01*
X153122095Y-97195518D01*
X153130106Y-97346091D01*
X153123817Y-97498105D01*
X153103481Y-97646724D01*
X153069346Y-97787113D01*
X153059982Y-97816497D01*
X153044085Y-97862646D01*
X153031476Y-97893821D01*
X153019841Y-97913767D01*
X153006865Y-97926227D01*
X152990231Y-97934945D01*
X152985535Y-97936857D01*
X152953545Y-97943689D01*
X152925846Y-97934542D01*
X152905327Y-97917434D01*
X152888723Y-97895456D01*
X152882181Y-97869948D01*
X152885478Y-97836421D01*
X152898392Y-97790382D01*
X152898923Y-97788764D01*
X152935433Y-97651803D01*
X152957755Y-97507740D01*
X152965763Y-97360975D01*
X152959327Y-97215910D01*
X152938323Y-97076945D01*
X152921547Y-97008366D01*
X152911473Y-96955202D01*
X152915188Y-96915363D01*
X152933013Y-96888019D01*
X152965271Y-96872341D01*
X152975022Y-96870252D01*
X153004779Y-96869092D01*
X153029329Y-96878390D01*
G37*
G36*
X152102443Y-97848511D02*
G01*
X152126115Y-97857620D01*
X152130571Y-97861099D01*
X152140476Y-97877656D01*
X152152799Y-97907711D01*
X152165384Y-97945772D01*
X152169567Y-97960389D01*
X152198183Y-98096533D01*
X152212820Y-98241738D01*
X152213617Y-98391567D01*
X152200720Y-98541579D01*
X152174272Y-98687338D01*
X152142425Y-98801021D01*
X152128601Y-98839543D01*
X152115023Y-98871895D01*
X152104000Y-98892736D01*
X152101199Y-98896298D01*
X152082570Y-98905558D01*
X152054324Y-98910529D01*
X152046315Y-98910799D01*
X152010333Y-98906598D01*
X151986222Y-98892947D01*
X151973524Y-98868271D01*
X151971788Y-98830993D01*
X151980561Y-98779540D01*
X151994098Y-98729576D01*
X152032468Y-98569550D01*
X152051372Y-98410435D01*
X152050830Y-98251714D01*
X152030861Y-98092878D01*
X152020852Y-98044080D01*
X152008824Y-97988642D01*
X152001386Y-97948532D01*
X151998363Y-97920126D01*
X151999574Y-97899806D01*
X152004845Y-97883949D01*
X152012389Y-97871267D01*
X152027842Y-97853815D01*
X152047640Y-97846246D01*
X152072329Y-97844858D01*
X152102443Y-97848511D01*
G37*
G36*
X150944576Y-99093053D02*
G01*
X150999840Y-99112360D01*
X151049080Y-99143982D01*
X151090114Y-99186159D01*
X151120757Y-99237134D01*
X151138825Y-99295146D01*
X151142134Y-99358440D01*
X151129936Y-99420868D01*
X151112094Y-99456364D01*
X151082705Y-99494761D01*
X151047469Y-99529779D01*
X151012087Y-99555136D01*
X151004747Y-99558840D01*
X150940605Y-99578259D01*
X150875869Y-99580009D01*
X150813708Y-99565487D01*
X150757294Y-99536094D01*
X150732087Y-99513348D01*
X150709791Y-99493228D01*
X150674372Y-99438290D01*
X150662492Y-99407724D01*
X150651687Y-99345459D01*
X150815322Y-99345459D01*
X150824573Y-99375688D01*
X150845120Y-99400314D01*
X150876883Y-99415103D01*
X150895785Y-99417454D01*
X150929811Y-99411488D01*
X150954868Y-99393288D01*
X150974852Y-99363868D01*
X150979034Y-99334205D01*
X150969485Y-99296421D01*
X150946041Y-99268511D01*
X150912613Y-99254150D01*
X150892798Y-99253238D01*
X150856102Y-99263518D01*
X150831009Y-99285138D01*
X150817441Y-99313864D01*
X150815322Y-99345459D01*
X150651687Y-99345459D01*
X150650724Y-99339911D01*
X150657309Y-99274234D01*
X150681178Y-99213633D01*
X150721268Y-99161049D01*
X150764492Y-99126607D01*
X150824718Y-99098418D01*
X150885474Y-99087820D01*
X150944576Y-99093053D01*
G37*
G36*
X150159811Y-98780686D02*
G01*
X150177588Y-98786027D01*
X150207843Y-98797436D01*
X150232270Y-98810290D01*
X150256349Y-98828361D01*
X150285560Y-98855429D01*
X150302053Y-98871761D01*
X150341650Y-98914502D01*
X150368548Y-98952951D01*
X150386191Y-98993821D01*
X150398025Y-99043823D01*
X150401568Y-99065626D01*
X150402100Y-99112197D01*
X150392918Y-99166971D01*
X150375803Y-99222358D01*
X150353929Y-99268443D01*
X150329363Y-99307085D01*
X150305913Y-99335107D01*
X150276773Y-99359748D01*
X150251371Y-99377506D01*
X150184778Y-99411174D01*
X150113995Y-99427588D01*
X150041926Y-99427701D01*
X149971477Y-99412463D01*
X149905553Y-99382825D01*
X149847059Y-99339737D01*
X149846486Y-99339077D01*
X149798901Y-99284153D01*
X149764376Y-99218061D01*
X149747336Y-99149570D01*
X149744339Y-99078969D01*
X149905658Y-99078969D01*
X149907321Y-99127266D01*
X149927047Y-99183147D01*
X149959939Y-99225624D01*
X150004504Y-99253323D01*
X150056481Y-99264706D01*
X150114594Y-99260085D01*
X150164112Y-99239287D01*
X150202668Y-99203913D01*
X150227898Y-99155565D01*
X150230503Y-99146867D01*
X150237150Y-99090072D01*
X150226719Y-99037973D01*
X150201189Y-98993490D01*
X150162537Y-98959545D01*
X150112740Y-98939056D01*
X150086989Y-98934984D01*
X150032846Y-98937829D01*
X149986553Y-98957610D01*
X149956337Y-98982608D01*
X149921954Y-99028657D01*
X149905658Y-99078969D01*
X149744339Y-99078969D01*
X149744191Y-99075471D01*
X149754988Y-99003805D01*
X149763029Y-98978134D01*
X149785951Y-98934953D01*
X149821585Y-98889300D01*
X149864763Y-98846351D01*
X149910310Y-98811283D01*
X149950949Y-98790027D01*
X150018494Y-98773659D01*
X150090877Y-98770497D01*
X150159811Y-98780686D01*
G37*
G36*
X149740649Y-94897507D02*
G01*
X149774517Y-94916134D01*
X149810504Y-94951438D01*
X149838039Y-94986925D01*
X149879435Y-95057602D01*
X149907558Y-95133571D01*
X149921326Y-95210334D01*
X149919662Y-95283394D01*
X149915131Y-95307691D01*
X149905950Y-95346583D01*
X149963707Y-95350261D01*
X150040200Y-95362444D01*
X150107962Y-95389873D01*
X150172187Y-95434654D01*
X150172475Y-95434897D01*
X150227568Y-95481451D01*
X150298311Y-95448576D01*
X150438638Y-95393408D01*
X150591123Y-95352274D01*
X150754217Y-95325278D01*
X150926375Y-95312529D01*
X151106048Y-95314134D01*
X151291688Y-95330199D01*
X151481748Y-95360831D01*
X151503838Y-95365297D01*
X151745047Y-95423627D01*
X151973794Y-95496643D01*
X152190977Y-95584774D01*
X152397489Y-95688444D01*
X152594230Y-95808080D01*
X152782091Y-95944109D01*
X152869571Y-96015518D01*
X153000795Y-96139444D01*
X153118129Y-96276882D01*
X153221140Y-96427171D01*
X153309390Y-96589653D01*
X153382444Y-96763668D01*
X153402234Y-96820752D01*
X153434284Y-96925246D01*
X153458139Y-97021731D01*
X153474721Y-97116152D01*
X153484951Y-97214459D01*
X153489751Y-97322598D01*
X153490409Y-97390000D01*
X153488261Y-97506287D01*
X153481199Y-97609393D01*
X153468305Y-97705269D01*
X153448656Y-97799860D01*
X153421330Y-97899116D01*
X153402234Y-97959248D01*
X153346364Y-98109498D01*
X153281000Y-98248172D01*
X153203513Y-98379955D01*
X153111274Y-98509531D01*
X153052047Y-98583052D01*
X152950838Y-98692032D01*
X152834566Y-98796444D01*
X152707676Y-98892817D01*
X152574612Y-98977682D01*
X152484378Y-99026295D01*
X152399509Y-99068567D01*
X152351730Y-99162871D01*
X152266473Y-99312517D01*
X152166583Y-99455118D01*
X152054834Y-99587214D01*
X151933997Y-99705337D01*
X151883238Y-99748304D01*
X151730547Y-99859786D01*
X151569271Y-99954439D01*
X151400773Y-100031950D01*
X151226421Y-100092009D01*
X151047579Y-100134303D01*
X150865612Y-100158520D01*
X150681887Y-100164349D01*
X150497767Y-100151478D01*
X150314618Y-100119593D01*
X150286788Y-100113023D01*
X150112745Y-100061017D01*
X149944735Y-99992048D01*
X149784734Y-99907321D01*
X149634716Y-99808038D01*
X149496654Y-99695403D01*
X149432441Y-99630848D01*
X149372525Y-99570616D01*
X149345517Y-99539572D01*
X149211209Y-99369714D01*
X149092865Y-99195316D01*
X148988930Y-99013534D01*
X148897852Y-98821522D01*
X148881080Y-98778403D01*
X149055303Y-98778403D01*
X149055528Y-98781187D01*
X149062427Y-98799883D01*
X149077240Y-98831996D01*
X149098119Y-98874021D01*
X149123210Y-98922449D01*
X149150665Y-98973776D01*
X149178632Y-99024494D01*
X149205261Y-99071098D01*
X149228701Y-99110083D01*
X149231312Y-99114241D01*
X149286969Y-99200029D01*
X149338308Y-99273428D01*
X149389487Y-99339653D01*
X149444659Y-99403922D01*
X149507984Y-99471449D01*
X149549605Y-99513683D01*
X149625665Y-99587339D01*
X149695123Y-99648572D01*
X149762710Y-99700872D01*
X149833159Y-99747730D01*
X149911206Y-99792634D01*
X149968468Y-99822539D01*
X150129149Y-99893215D01*
X150295372Y-99945905D01*
X150465488Y-99980718D01*
X150637850Y-99997760D01*
X150810809Y-99997137D01*
X150982714Y-99978958D01*
X151151920Y-99943331D01*
X151316776Y-99890360D01*
X151475634Y-99820153D01*
X151626845Y-99732819D01*
X151656673Y-99712863D01*
X151696489Y-99685151D01*
X151733416Y-99658714D01*
X151762518Y-99637122D01*
X151775571Y-99626821D01*
X151815310Y-99591619D01*
X151861804Y-99547356D01*
X151910671Y-99498498D01*
X151957531Y-99449514D01*
X151998002Y-99404872D01*
X152025407Y-99372017D01*
X152129315Y-99223408D01*
X152164987Y-99159120D01*
X152215769Y-99067602D01*
X152284711Y-98905929D01*
X152336080Y-98739718D01*
X152369814Y-98570298D01*
X152385857Y-98398999D01*
X152384148Y-98227148D01*
X152364624Y-98056075D01*
X152327228Y-97887109D01*
X152271900Y-97721578D01*
X152198579Y-97560811D01*
X152113604Y-97415841D01*
X152024098Y-97294186D01*
X151916978Y-97175039D01*
X151794153Y-97060142D01*
X151657533Y-96951243D01*
X151509026Y-96850088D01*
X151465975Y-96823630D01*
X151417982Y-96795646D01*
X151366271Y-96766908D01*
X151314080Y-96739062D01*
X151264650Y-96713752D01*
X151221220Y-96692623D01*
X151187031Y-96677321D01*
X151165325Y-96669491D01*
X151161053Y-96668817D01*
X151150563Y-96678144D01*
X151143126Y-96704566D01*
X151142313Y-96710047D01*
X151130015Y-96763402D01*
X151107927Y-96823586D01*
X151079144Y-96882741D01*
X151064460Y-96907523D01*
X151025950Y-96957711D01*
X150974192Y-97010236D01*
X150914280Y-97060703D01*
X150851308Y-97104721D01*
X150805880Y-97130487D01*
X150729123Y-97176160D01*
X150666285Y-97230249D01*
X150613532Y-97296615D01*
X150575231Y-97362666D01*
X150554468Y-97401546D01*
X150534971Y-97432828D01*
X150512661Y-97461919D01*
X150483457Y-97494224D01*
X150450422Y-97527988D01*
X150411298Y-97566401D01*
X150379748Y-97594567D01*
X150350219Y-97616706D01*
X150317156Y-97637040D01*
X150281688Y-97656293D01*
X150203596Y-97703267D01*
X150141116Y-97755055D01*
X150090341Y-97815544D01*
X150047366Y-97888625D01*
X150046340Y-97890682D01*
X150027542Y-97926852D01*
X150009515Y-97956408D01*
X149988517Y-97984307D01*
X149960809Y-98015507D01*
X149922651Y-98054965D01*
X149921578Y-98056051D01*
X149882745Y-98094688D01*
X149852005Y-98122880D01*
X149824227Y-98144564D01*
X149794283Y-98163681D01*
X149757043Y-98184166D01*
X149749638Y-98188058D01*
X149676852Y-98230992D01*
X149618703Y-98277468D01*
X149570334Y-98332345D01*
X149526888Y-98400479D01*
X149514770Y-98422927D01*
X149494120Y-98461106D01*
X149475418Y-98491496D01*
X149454900Y-98518987D01*
X149428805Y-98548466D01*
X149393369Y-98584823D01*
X149379571Y-98598582D01*
X149330759Y-98645218D01*
X149288934Y-98679742D01*
X149248786Y-98705232D01*
X149205008Y-98724762D01*
X149152291Y-98741404D01*
X149117274Y-98750514D01*
X149081266Y-98760596D01*
X149061607Y-98769397D01*
X149055303Y-98778403D01*
X148881080Y-98778403D01*
X148854038Y-98708882D01*
X148818078Y-98616436D01*
X148781443Y-98506517D01*
X148724550Y-98304741D01*
X148682412Y-98106655D01*
X148655030Y-97913446D01*
X148642407Y-97726301D01*
X148642490Y-97719363D01*
X148798121Y-97719363D01*
X148809397Y-97895259D01*
X148834732Y-98076644D01*
X148874077Y-98261952D01*
X148927382Y-98449616D01*
X148937247Y-98479888D01*
X148954642Y-98529823D01*
X148968498Y-98563322D01*
X148980021Y-98582899D01*
X148990422Y-98591068D01*
X148990729Y-98591164D01*
X149030892Y-98595908D01*
X149079999Y-98591000D01*
X149130495Y-98577258D01*
X149134805Y-98575633D01*
X149205056Y-98540014D01*
X149266891Y-98490086D01*
X149321980Y-98424200D01*
X149371441Y-98341768D01*
X149407022Y-98282004D01*
X149452368Y-98222807D01*
X149478476Y-98193212D01*
X149511045Y-98158649D01*
X149540348Y-98130810D01*
X149570666Y-98106521D01*
X149606281Y-98082610D01*
X149651480Y-98055904D01*
X149700703Y-98028597D01*
X149765182Y-97984703D01*
X149824421Y-97925771D01*
X149879995Y-97850071D01*
X149911439Y-97797316D01*
X149936890Y-97752491D01*
X149957635Y-97719442D01*
X149978028Y-97692638D01*
X150002422Y-97666545D01*
X150035173Y-97635629D01*
X150047544Y-97624345D01*
X150098589Y-97580376D01*
X150144118Y-97547106D01*
X150190674Y-97519864D01*
X150201653Y-97514241D01*
X150266268Y-97476623D01*
X150321748Y-97431946D01*
X150371493Y-97376708D01*
X150418903Y-97307413D01*
X150443217Y-97265640D01*
X150468687Y-97220774D01*
X150489431Y-97187701D01*
X150509789Y-97160904D01*
X150534099Y-97134865D01*
X150566701Y-97104068D01*
X150579452Y-97092437D01*
X150628502Y-97050026D01*
X150671722Y-97018109D01*
X150715643Y-96992047D01*
X150734022Y-96982641D01*
X150807128Y-96938528D01*
X150870682Y-96884308D01*
X150922367Y-96822864D01*
X150959861Y-96757079D01*
X150980846Y-96689834D01*
X150983276Y-96672817D01*
X150985411Y-96641955D01*
X150982657Y-96618386D01*
X150972667Y-96600147D01*
X151400933Y-96600147D01*
X151408467Y-96606529D01*
X151409585Y-96607121D01*
X151549588Y-96684109D01*
X151675334Y-96763341D01*
X151792038Y-96848636D01*
X151904917Y-96943815D01*
X152019188Y-97052695D01*
X152021793Y-97055311D01*
X152072960Y-97107011D01*
X152112882Y-97148319D01*
X152144312Y-97182472D01*
X152170006Y-97212707D01*
X152192718Y-97242260D01*
X152215203Y-97274370D01*
X152239385Y-97310991D01*
X152337950Y-97479501D01*
X152418048Y-97652874D01*
X152479521Y-97830302D01*
X152522216Y-98010976D01*
X152545980Y-98194087D01*
X152550654Y-98378825D01*
X152536086Y-98564381D01*
X152508989Y-98719725D01*
X152497922Y-98774854D01*
X152492850Y-98811649D01*
X152493746Y-98830362D01*
X152497715Y-98832899D01*
X152511213Y-98825895D01*
X152536744Y-98810118D01*
X152570453Y-98788169D01*
X152608486Y-98762646D01*
X152646990Y-98736151D01*
X152682107Y-98711283D01*
X152709987Y-98690644D01*
X152718530Y-98683926D01*
X152759968Y-98647694D01*
X152808986Y-98600627D01*
X152861177Y-98547319D01*
X152912135Y-98492363D01*
X152957451Y-98440353D01*
X152984672Y-98406578D01*
X153086725Y-98258024D01*
X153171273Y-98101303D01*
X153238028Y-97937487D01*
X153286701Y-97767647D01*
X153317004Y-97592855D01*
X153328648Y-97414182D01*
X153321345Y-97232703D01*
X153315433Y-97178006D01*
X153284599Y-97001767D01*
X153236676Y-96834071D01*
X153171502Y-96674679D01*
X153088915Y-96523354D01*
X152988750Y-96379858D01*
X152870847Y-96243952D01*
X152735042Y-96115399D01*
X152581172Y-95993960D01*
X152441491Y-95899576D01*
X152403732Y-95876714D01*
X152357789Y-95850407D01*
X152307244Y-95822539D01*
X152255685Y-95794998D01*
X152206695Y-95769666D01*
X152163860Y-95748430D01*
X152130766Y-95733173D01*
X152110998Y-95725782D01*
X152110945Y-95725770D01*
X152101693Y-95728846D01*
X152092962Y-95744714D01*
X152083315Y-95776279D01*
X152080514Y-95787274D01*
X152064145Y-95847233D01*
X152046595Y-95895310D01*
X152024789Y-95936814D01*
X151995652Y-95977054D01*
X151956109Y-96021337D01*
X151928582Y-96049571D01*
X151889078Y-96088706D01*
X151858018Y-96117303D01*
X151830520Y-96139117D01*
X151801704Y-96157900D01*
X151766686Y-96177405D01*
X151752845Y-96184689D01*
X151673642Y-96232622D01*
X151609571Y-96287163D01*
X151556364Y-96352543D01*
X151517222Y-96418413D01*
X151492587Y-96461726D01*
X151464362Y-96505778D01*
X151438058Y-96542040D01*
X151434387Y-96546562D01*
X151412337Y-96573964D01*
X151401704Y-96590559D01*
X151400933Y-96600147D01*
X150972667Y-96600147D01*
X150972528Y-96599894D01*
X150952544Y-96584258D01*
X150920221Y-96569259D01*
X150873074Y-96552677D01*
X150835425Y-96540664D01*
X150626878Y-96482884D01*
X150423695Y-96441997D01*
X150226669Y-96418073D01*
X150036599Y-96411178D01*
X149854281Y-96421384D01*
X149707263Y-96443308D01*
X149598088Y-96471547D01*
X149562395Y-96480779D01*
X149427311Y-96534417D01*
X149302967Y-96603450D01*
X149190320Y-96687102D01*
X149090327Y-96784596D01*
X149003944Y-96895159D01*
X148932129Y-97018015D01*
X148894563Y-97101959D01*
X148849123Y-97240252D01*
X148817935Y-97390294D01*
X148800950Y-97550519D01*
X148798121Y-97719363D01*
X148642490Y-97719363D01*
X148644547Y-97546408D01*
X148661450Y-97374952D01*
X148693119Y-97213123D01*
X148739557Y-97062105D01*
X148778582Y-96968318D01*
X148811450Y-96897569D01*
X148781581Y-96862302D01*
X148764113Y-96841677D01*
X148726607Y-96787499D01*
X148698723Y-96727120D01*
X148682664Y-96666480D01*
X148681245Y-96636965D01*
X148845729Y-96636965D01*
X148857526Y-96687167D01*
X148877097Y-96725338D01*
X148893899Y-96749984D01*
X149014268Y-96629615D01*
X149057590Y-96586155D01*
X149088717Y-96554323D01*
X149109334Y-96531997D01*
X149121123Y-96517053D01*
X149125773Y-96507372D01*
X149124965Y-96500830D01*
X149120670Y-96495581D01*
X149092053Y-96477112D01*
X149052844Y-96463244D01*
X149011878Y-96456480D01*
X148985986Y-96457458D01*
X148949009Y-96470627D01*
X148909913Y-96495295D01*
X148876346Y-96526041D01*
X148861839Y-96545485D01*
X148846989Y-96587633D01*
X148845729Y-96636965D01*
X148681245Y-96636965D01*
X148680222Y-96615680D01*
X148683586Y-96576609D01*
X148655636Y-96583036D01*
X148609597Y-96588766D01*
X148553546Y-96588740D01*
X148495970Y-96583494D01*
X148445354Y-96573564D01*
X148430074Y-96568804D01*
X148384279Y-96548402D01*
X148336265Y-96520404D01*
X148326502Y-96513461D01*
X148291669Y-96488688D01*
X148256127Y-96457130D01*
X148240416Y-96438343D01*
X148226540Y-96405923D01*
X148225229Y-96389172D01*
X148438458Y-96389172D01*
X148442613Y-96397349D01*
X148452650Y-96403949D01*
X148467452Y-96410732D01*
X148470362Y-96412032D01*
X148510501Y-96422409D01*
X148563466Y-96424811D01*
X148624295Y-96419355D01*
X148684783Y-96407016D01*
X148766241Y-96385712D01*
X148783800Y-96332647D01*
X148795860Y-96290423D01*
X148806541Y-96243486D01*
X148810280Y-96222691D01*
X148812414Y-96163666D01*
X148802464Y-96103574D01*
X148783812Y-96055302D01*
X148772905Y-96035123D01*
X148599742Y-96208285D01*
X148545098Y-96262938D01*
X148503052Y-96305440D01*
X148472483Y-96337551D01*
X148452275Y-96361035D01*
X148441306Y-96377655D01*
X148438458Y-96389172D01*
X148225229Y-96389172D01*
X148224285Y-96377105D01*
X148225775Y-96368203D01*
X148228926Y-96359062D01*
X148235097Y-96348177D01*
X148245639Y-96334041D01*
X148261907Y-96315149D01*
X148285255Y-96289994D01*
X148317038Y-96257069D01*
X148358609Y-96214870D01*
X148411324Y-96161891D01*
X148476210Y-96096951D01*
X148547833Y-96025311D01*
X148607077Y-95966489D01*
X148655520Y-95919629D01*
X148694736Y-95883871D01*
X148726300Y-95858358D01*
X148751789Y-95842231D01*
X148772776Y-95834631D01*
X148790838Y-95834701D01*
X148807550Y-95841581D01*
X148824486Y-95854414D01*
X148843222Y-95872342D01*
X148859106Y-95888317D01*
X148904455Y-95944307D01*
X148941976Y-96011244D01*
X148967123Y-96080814D01*
X148969236Y-96089573D01*
X148974831Y-96126131D01*
X148977528Y-96169163D01*
X148977375Y-96212406D01*
X148974418Y-96249595D01*
X148968707Y-96274468D01*
X148967816Y-96276371D01*
X148965204Y-96285684D01*
X148971775Y-96291213D01*
X148991071Y-96294194D01*
X149023205Y-96295760D01*
X149075983Y-96300622D01*
X149122153Y-96312923D01*
X149167919Y-96335059D01*
X149219490Y-96369424D01*
X149225509Y-96373851D01*
X149287243Y-96419566D01*
X149389178Y-96376689D01*
X149439032Y-96356765D01*
X149490775Y-96337813D01*
X149536894Y-96322511D01*
X149559513Y-96315993D01*
X149627910Y-96298174D01*
X149636027Y-96266139D01*
X149803496Y-96266139D01*
X149884583Y-96260937D01*
X150102153Y-96256628D01*
X150322714Y-96271253D01*
X150545213Y-96304634D01*
X150768598Y-96356586D01*
X150991815Y-96426933D01*
X151107399Y-96470693D01*
X151225774Y-96518107D01*
X151277769Y-96470196D01*
X151309113Y-96438627D01*
X151335372Y-96404939D01*
X151361455Y-96362477D01*
X151373860Y-96339826D01*
X151395571Y-96300944D01*
X151416217Y-96269054D01*
X151439850Y-96238897D01*
X151470530Y-96205214D01*
X151504174Y-96170886D01*
X151544726Y-96131103D01*
X151576914Y-96102170D01*
X151605432Y-96080401D01*
X151634970Y-96062111D01*
X151658925Y-96049321D01*
X151740502Y-96001961D01*
X151805186Y-95951293D01*
X151855606Y-95894818D01*
X151894389Y-95830035D01*
X151898454Y-95821436D01*
X151914979Y-95774735D01*
X151924220Y-95725599D01*
X151925114Y-95681469D01*
X151921377Y-95661062D01*
X151915551Y-95651892D01*
X151902022Y-95642483D01*
X151878145Y-95631677D01*
X151841271Y-95618311D01*
X151788756Y-95601224D01*
X151775297Y-95596994D01*
X151575602Y-95541354D01*
X151381887Y-95501136D01*
X151194942Y-95476316D01*
X151015562Y-95466869D01*
X150844535Y-95472771D01*
X150682653Y-95493999D01*
X150530708Y-95530529D01*
X150389491Y-95582336D01*
X150271254Y-95642572D01*
X150207657Y-95685127D01*
X150139887Y-95739366D01*
X150073675Y-95800127D01*
X150014744Y-95862249D01*
X149979803Y-95905240D01*
X149917306Y-96000679D01*
X149863188Y-96106134D01*
X149829148Y-96191616D01*
X149803496Y-96266139D01*
X149636027Y-96266139D01*
X149645189Y-96229981D01*
X149656644Y-96191394D01*
X149673558Y-96142475D01*
X149693274Y-96090664D01*
X149706067Y-96059583D01*
X149749668Y-95957378D01*
X149710792Y-95905459D01*
X149703610Y-95895868D01*
X149659140Y-95824010D01*
X149632678Y-95751854D01*
X149624839Y-95682240D01*
X149625376Y-95655987D01*
X149787457Y-95655987D01*
X149787471Y-95692671D01*
X149796411Y-95734034D01*
X149811775Y-95771242D01*
X149825580Y-95790671D01*
X149831107Y-95795106D01*
X149837753Y-95795686D01*
X149847641Y-95790730D01*
X149862893Y-95778549D01*
X149885633Y-95757461D01*
X149917982Y-95725780D01*
X149959614Y-95684269D01*
X150079984Y-95563900D01*
X150055337Y-95547098D01*
X150009273Y-95524764D01*
X149958785Y-95515036D01*
X149910185Y-95518451D01*
X149875485Y-95531840D01*
X149843695Y-95558268D01*
X149814671Y-95594897D01*
X149793834Y-95634077D01*
X149787457Y-95655987D01*
X149625376Y-95655987D01*
X149625813Y-95634595D01*
X149567651Y-95642718D01*
X149477483Y-95646101D01*
X149391354Y-95631167D01*
X149311431Y-95598624D01*
X149251100Y-95556928D01*
X149239881Y-95549174D01*
X149218317Y-95529106D01*
X149197183Y-95508035D01*
X149180512Y-95489924D01*
X149169161Y-95473200D01*
X149163987Y-95456286D01*
X149165322Y-95442906D01*
X149365122Y-95442906D01*
X149385301Y-95453812D01*
X149432962Y-95473857D01*
X149483678Y-95482797D01*
X149541267Y-95480696D01*
X149609544Y-95467616D01*
X149644882Y-95458133D01*
X149713694Y-95438398D01*
X149732423Y-95375434D01*
X149743406Y-95330075D01*
X149751770Y-95280265D01*
X149754751Y-95250387D01*
X149753708Y-95198756D01*
X149745284Y-95152861D01*
X149730707Y-95118136D01*
X149722492Y-95107625D01*
X149717832Y-95105434D01*
X149710450Y-95107527D01*
X149698700Y-95115356D01*
X149680934Y-95130370D01*
X149655504Y-95154021D01*
X149620762Y-95187758D01*
X149575060Y-95233032D01*
X149538285Y-95269743D01*
X149365122Y-95442906D01*
X149165322Y-95442906D01*
X149165850Y-95437609D01*
X149175608Y-95415591D01*
X149194119Y-95388658D01*
X149222242Y-95355235D01*
X149260834Y-95313746D01*
X149310755Y-95262616D01*
X149372863Y-95200272D01*
X149426950Y-95146211D01*
X149492156Y-95081058D01*
X149545085Y-95028397D01*
X149587238Y-94986873D01*
X149620124Y-94955132D01*
X149645247Y-94931818D01*
X149664115Y-94915580D01*
X149678233Y-94905061D01*
X149689107Y-94898907D01*
X149698242Y-94895766D01*
X149707104Y-94894286D01*
X149740649Y-94897507D01*
G37*
G36*
X151132658Y-68853717D02*
G01*
X151138590Y-68856229D01*
X151167870Y-68878853D01*
X151182599Y-68909165D01*
X151183000Y-68942070D01*
X151169299Y-68972473D01*
X151141719Y-68995282D01*
X151132275Y-68999349D01*
X151093900Y-69004988D01*
X151061512Y-68994898D01*
X151038196Y-68972611D01*
X151027040Y-68941663D01*
X151031131Y-68905585D01*
X151037525Y-68890888D01*
X151062592Y-68861781D01*
X151095777Y-68848885D01*
X151132658Y-68853717D01*
G37*
G36*
X151398416Y-69823106D02*
G01*
X151422205Y-69840530D01*
X151425705Y-69844114D01*
X151443127Y-69866296D01*
X151448922Y-69886015D01*
X151448407Y-69900614D01*
X151436363Y-69938208D01*
X151411535Y-69963855D01*
X151378112Y-69975288D01*
X151340283Y-69970239D01*
X151328951Y-69965299D01*
X151301822Y-69941953D01*
X151290912Y-69909635D01*
X151297065Y-69871433D01*
X151300830Y-69862462D01*
X151319606Y-69832565D01*
X151343722Y-69818289D01*
X151376004Y-69815603D01*
X151398416Y-69823106D01*
G37*
G36*
X151067851Y-69409031D02*
G01*
X151069250Y-69409547D01*
X151098105Y-69429432D01*
X151115072Y-69459191D01*
X151119383Y-69493144D01*
X151110274Y-69525613D01*
X151088183Y-69550124D01*
X151053798Y-69563292D01*
X151019297Y-69560011D01*
X150989036Y-69542852D01*
X150967371Y-69514385D01*
X150958655Y-69477182D01*
X150958651Y-69473658D01*
X150966426Y-69452592D01*
X150985020Y-69428972D01*
X151008247Y-69409861D01*
X151019417Y-69404293D01*
X151040884Y-69403015D01*
X151067851Y-69409031D01*
G37*
G36*
X152884874Y-71064883D02*
G01*
X152910564Y-71079434D01*
X152923167Y-71095575D01*
X152927564Y-71112894D01*
X152926981Y-71141977D01*
X152919975Y-71181109D01*
X152908533Y-71222702D01*
X152894644Y-71259169D01*
X152884350Y-71277843D01*
X152856317Y-71302436D01*
X152821029Y-71310884D01*
X152787198Y-71303216D01*
X152761351Y-71285476D01*
X152747588Y-71260231D01*
X152745226Y-71224519D01*
X152753576Y-71175374D01*
X152755651Y-71166894D01*
X152773549Y-71111737D01*
X152795288Y-71075141D01*
X152821841Y-71056336D01*
X152854179Y-71054558D01*
X152884874Y-71064883D01*
G37*
G36*
X150103702Y-70290472D02*
G01*
X150123017Y-70301448D01*
X150138269Y-70322196D01*
X150150873Y-70355277D01*
X150162243Y-70403250D01*
X150171380Y-70453928D01*
X150178453Y-70500915D01*
X150181094Y-70533362D01*
X150179285Y-70555762D01*
X150173007Y-70572610D01*
X150170869Y-70576269D01*
X150143648Y-70604222D01*
X150109323Y-70615532D01*
X150072241Y-70608832D01*
X150070234Y-70607927D01*
X150052982Y-70597928D01*
X150039907Y-70584124D01*
X150029566Y-70563070D01*
X150020517Y-70531321D01*
X150011316Y-70485434D01*
X150005922Y-70454422D01*
X149999090Y-70407860D01*
X149997278Y-70374870D01*
X150000548Y-70350125D01*
X150007285Y-70331770D01*
X150026534Y-70302221D01*
X150051985Y-70288609D01*
X150078908Y-70286708D01*
X150103702Y-70290472D01*
G37*
G36*
X148874715Y-70794481D02*
G01*
X148888463Y-70803500D01*
X148898474Y-70812995D01*
X148906070Y-70826512D01*
X148912577Y-70847595D01*
X148919321Y-70879792D01*
X148927627Y-70926646D01*
X148930601Y-70943976D01*
X148938721Y-71000009D01*
X148940315Y-71040572D01*
X148934570Y-71068874D01*
X148920683Y-71088128D01*
X148897843Y-71101547D01*
X148890212Y-71104522D01*
X148855924Y-71107406D01*
X148821149Y-71094454D01*
X148796855Y-71073365D01*
X148789767Y-71057163D01*
X148781368Y-71026903D01*
X148772696Y-70987925D01*
X148764791Y-70945567D01*
X148758693Y-70905169D01*
X148755441Y-70872069D01*
X148755219Y-70859565D01*
X148764848Y-70825886D01*
X148787836Y-70800444D01*
X148818962Y-70786083D01*
X148853004Y-70785647D01*
X148874715Y-70794481D01*
G37*
G36*
X152726902Y-71464438D02*
G01*
X152733525Y-71467353D01*
X152762442Y-71489343D01*
X152776627Y-71515664D01*
X152782026Y-71536506D01*
X152780628Y-71556993D01*
X152771206Y-71583208D01*
X152757176Y-71612180D01*
X152682249Y-71742959D01*
X152597799Y-71860190D01*
X152505037Y-71962572D01*
X152405172Y-72048802D01*
X152299414Y-72117576D01*
X152276776Y-72129574D01*
X152223710Y-72154348D01*
X152183109Y-72167466D01*
X152152032Y-72169284D01*
X152127539Y-72160164D01*
X152114548Y-72149356D01*
X152092673Y-72119025D01*
X152088839Y-72088034D01*
X152098420Y-72058591D01*
X152109038Y-72039748D01*
X152123440Y-72024961D01*
X152146322Y-72010624D01*
X152182382Y-71993136D01*
X152185788Y-71991579D01*
X152275254Y-71942069D01*
X152359234Y-71877257D01*
X152438697Y-71796131D01*
X152514614Y-71697686D01*
X152587956Y-71580909D01*
X152598227Y-71562767D01*
X152627868Y-71513286D01*
X152653137Y-71480420D01*
X152676452Y-71462460D01*
X152700233Y-71457702D01*
X152726902Y-71464438D01*
G37*
G36*
X149262145Y-69611781D02*
G01*
X149294026Y-69619109D01*
X149315263Y-69639106D01*
X149326631Y-69663282D01*
X149332391Y-69690218D01*
X149327540Y-69716101D01*
X149310382Y-69745094D01*
X149279221Y-69781362D01*
X149278056Y-69782604D01*
X149187085Y-69891303D01*
X149105970Y-70012435D01*
X149036687Y-70142065D01*
X148981212Y-70276258D01*
X148941520Y-70411079D01*
X148927741Y-70480323D01*
X148914403Y-70532763D01*
X148894200Y-70567300D01*
X148866489Y-70584549D01*
X148830628Y-70585125D01*
X148820908Y-70582897D01*
X148793448Y-70571373D01*
X148775128Y-70552571D01*
X148765575Y-70524295D01*
X148764423Y-70484342D01*
X148771302Y-70430514D01*
X148784538Y-70366263D01*
X148825077Y-70225950D01*
X148881452Y-70086099D01*
X148951395Y-69950986D01*
X149032635Y-69824885D01*
X149122903Y-69712076D01*
X149143808Y-69689402D01*
X149177719Y-69654296D01*
X149202321Y-69631370D01*
X149221295Y-69618209D01*
X149238322Y-69612401D01*
X149257081Y-69611530D01*
X149262145Y-69611781D01*
G37*
G36*
X150517601Y-69122882D02*
G01*
X150524974Y-69126023D01*
X150555809Y-69145036D01*
X150571892Y-69167598D01*
X150572972Y-69195328D01*
X150558791Y-69229847D01*
X150529095Y-69272772D01*
X150495711Y-69312334D01*
X150393306Y-69441150D01*
X150308927Y-69577369D01*
X150242340Y-69721448D01*
X150193312Y-69873842D01*
X150181760Y-69922297D01*
X150169232Y-69977624D01*
X150159022Y-70017120D01*
X150149757Y-70044142D01*
X150140072Y-70062046D01*
X150128593Y-70074191D01*
X150116396Y-70082496D01*
X150095015Y-70091782D01*
X150073873Y-70090275D01*
X150050911Y-70081099D01*
X150025162Y-70065061D01*
X150007558Y-70046801D01*
X150004989Y-70041765D01*
X150003010Y-70022573D01*
X150004543Y-69990126D01*
X150009222Y-69950313D01*
X150011609Y-69935297D01*
X150043211Y-69799815D01*
X150091312Y-69662029D01*
X150153910Y-69525902D01*
X150228996Y-69395394D01*
X150314567Y-69274470D01*
X150391474Y-69184897D01*
X150420284Y-69155826D01*
X150446262Y-69132244D01*
X150465060Y-69118014D01*
X150469103Y-69115969D01*
X150489901Y-69115450D01*
X150517601Y-69122882D01*
G37*
G36*
X151809169Y-68988391D02*
G01*
X151868578Y-69014164D01*
X151918778Y-69053596D01*
X151957485Y-69104077D01*
X151970717Y-69135345D01*
X151982421Y-69163001D01*
X151991304Y-69227761D01*
X151989152Y-69260484D01*
X151971159Y-69326916D01*
X151937435Y-69383658D01*
X151890191Y-69428493D01*
X151831634Y-69459208D01*
X151777904Y-69472156D01*
X151711408Y-69472251D01*
X151651865Y-69456179D01*
X151600512Y-69426458D01*
X151558586Y-69385605D01*
X151527323Y-69336136D01*
X151507958Y-69280570D01*
X151502803Y-69231618D01*
X151663884Y-69231618D01*
X151673337Y-69266821D01*
X151697563Y-69293964D01*
X151715137Y-69303164D01*
X151752738Y-69309356D01*
X151784618Y-69300366D01*
X151809055Y-69280066D01*
X151824328Y-69252326D01*
X151828718Y-69221020D01*
X151820505Y-69190017D01*
X151797967Y-69163191D01*
X151781830Y-69153072D01*
X151748470Y-69144098D01*
X151718070Y-69150004D01*
X151687524Y-69168222D01*
X151671198Y-69193339D01*
X151663884Y-69231618D01*
X151502803Y-69231618D01*
X151501729Y-69221420D01*
X151509871Y-69161207D01*
X151533621Y-69102445D01*
X151571060Y-69051021D01*
X151602232Y-69026391D01*
X151645094Y-69004012D01*
X151691828Y-68987166D01*
X151734611Y-68979138D01*
X151742829Y-68978883D01*
X151809169Y-68988391D01*
G37*
G36*
X152494655Y-69474286D02*
G01*
X152560020Y-69504642D01*
X152617428Y-69548225D01*
X152664650Y-69602946D01*
X152699454Y-69666718D01*
X152699694Y-69667558D01*
X152719609Y-69737447D01*
X152722967Y-69811938D01*
X152709465Y-69881212D01*
X152681000Y-69949698D01*
X152640927Y-70010087D01*
X152622791Y-70029954D01*
X152583767Y-70059403D01*
X152532178Y-70085718D01*
X152474895Y-70106395D01*
X152418794Y-70118929D01*
X152372980Y-70121019D01*
X152304847Y-70107307D01*
X152237908Y-70079582D01*
X152179739Y-70041216D01*
X152165885Y-70028862D01*
X152143286Y-70005736D01*
X152126580Y-69983763D01*
X152112395Y-69957209D01*
X152097359Y-69920332D01*
X152089314Y-69898559D01*
X152071489Y-69843089D01*
X152063361Y-69796875D01*
X152063854Y-69779757D01*
X152227834Y-69779757D01*
X152232173Y-69830862D01*
X152252858Y-69877962D01*
X152289330Y-69917577D01*
X152310947Y-69932150D01*
X152361220Y-69952453D01*
X152411535Y-69954089D01*
X152449485Y-69944204D01*
X152500107Y-69917000D01*
X152536139Y-69878289D01*
X152555043Y-69833814D01*
X152560782Y-69774832D01*
X152548924Y-69722434D01*
X152520240Y-69678497D01*
X152477944Y-69646214D01*
X152423323Y-69625842D01*
X152369655Y-69623764D01*
X152319761Y-69639530D01*
X152276462Y-69672685D01*
X152270425Y-69679467D01*
X152240398Y-69728132D01*
X152227834Y-69779757D01*
X152063854Y-69779757D01*
X152064643Y-69752378D01*
X152075050Y-69702059D01*
X152081054Y-69680801D01*
X152100253Y-69638369D01*
X152131723Y-69592608D01*
X152170642Y-69549642D01*
X152209943Y-69517119D01*
X152248539Y-69492480D01*
X152281634Y-69476994D01*
X152318457Y-69466976D01*
X152348985Y-69461618D01*
X152423567Y-69459248D01*
X152494655Y-69474286D01*
G37*
G36*
X151583853Y-68382732D02*
G01*
X151767251Y-68401984D01*
X151947211Y-68439235D01*
X152122364Y-68494189D01*
X152291339Y-68566552D01*
X152452768Y-68656030D01*
X152605283Y-68762330D01*
X152627728Y-68780045D01*
X152763486Y-68900733D01*
X152886608Y-69034243D01*
X152995811Y-69178652D01*
X153089815Y-69332033D01*
X153167339Y-69492463D01*
X153198255Y-69578107D01*
X153227101Y-69658017D01*
X153238459Y-69697567D01*
X153288399Y-69908271D01*
X153321951Y-70116344D01*
X153339323Y-70325019D01*
X153340720Y-70537532D01*
X153332826Y-70658136D01*
X153326347Y-70757118D01*
X153313095Y-70872221D01*
X153279384Y-71079136D01*
X153233860Y-71276471D01*
X153177023Y-71463150D01*
X153109372Y-71638095D01*
X153031406Y-71800230D01*
X152943626Y-71948478D01*
X152846532Y-72081761D01*
X152740622Y-72199004D01*
X152665618Y-72267511D01*
X152605929Y-72317741D01*
X152618095Y-72362327D01*
X152625210Y-72388402D01*
X152636305Y-72453354D01*
X152636060Y-72519861D01*
X152624987Y-72581606D01*
X152605731Y-72628679D01*
X152586170Y-72662668D01*
X152614217Y-72668654D01*
X152658364Y-72682918D01*
X152709153Y-72706630D01*
X152759118Y-72735718D01*
X152800794Y-72766108D01*
X152812631Y-72776879D01*
X152845514Y-72814724D01*
X152877196Y-72860390D01*
X152883111Y-72870810D01*
X152904210Y-72907982D01*
X152923085Y-72951604D01*
X152929385Y-72975271D01*
X152928259Y-73010517D01*
X152918124Y-73037588D01*
X152913012Y-73045027D01*
X152906292Y-73051979D01*
X152896100Y-73059237D01*
X152880571Y-73067593D01*
X152857843Y-73077840D01*
X152826052Y-73090771D01*
X152783332Y-73107179D01*
X152727821Y-73127856D01*
X152657656Y-73153593D01*
X152571404Y-73185026D01*
X152476215Y-73219685D01*
X152397663Y-73247957D01*
X152333954Y-73269955D01*
X152283301Y-73285789D01*
X152243912Y-73295572D01*
X152213995Y-73299416D01*
X152191763Y-73297434D01*
X152175423Y-73289738D01*
X152163184Y-73276439D01*
X152153259Y-73257651D01*
X152143854Y-73233485D01*
X152136210Y-73212294D01*
X152118773Y-73142385D01*
X152115066Y-73092775D01*
X152275021Y-73092775D01*
X152276377Y-73115673D01*
X152506498Y-73031916D01*
X152579120Y-73005477D01*
X152635188Y-72984727D01*
X152676464Y-72968543D01*
X152704704Y-72955800D01*
X152721669Y-72945373D01*
X152729117Y-72936138D01*
X152728808Y-72926971D01*
X152722500Y-72916748D01*
X152711951Y-72904345D01*
X152709863Y-72901937D01*
X152677870Y-72875569D01*
X152630883Y-72851008D01*
X152573447Y-72830246D01*
X152513412Y-72815866D01*
X152430582Y-72800747D01*
X152392243Y-72841420D01*
X152363468Y-72874591D01*
X152333951Y-72912617D01*
X152321774Y-72929883D01*
X152294895Y-72982476D01*
X152278516Y-73041142D01*
X152275021Y-73092775D01*
X152115066Y-73092775D01*
X152113055Y-73065861D01*
X152119666Y-72992182D01*
X152121453Y-72983351D01*
X152131832Y-72947854D01*
X152147574Y-72907714D01*
X152165988Y-72868587D01*
X152184385Y-72836132D01*
X152200073Y-72816003D01*
X152201685Y-72814655D01*
X152207987Y-72807318D01*
X152204369Y-72799531D01*
X152188141Y-72788673D01*
X152159679Y-72773674D01*
X152113900Y-72746962D01*
X152077255Y-72716302D01*
X152045132Y-72676898D01*
X152012916Y-72623958D01*
X152009332Y-72617402D01*
X151972702Y-72549880D01*
X151862196Y-72545660D01*
X151847082Y-72544811D01*
X152154119Y-72544811D01*
X152155793Y-72551384D01*
X152173924Y-72580217D01*
X152203599Y-72609356D01*
X152237868Y-72632799D01*
X152261747Y-72642855D01*
X152300825Y-72646547D01*
X152346684Y-72640713D01*
X152390099Y-72627033D01*
X152411464Y-72615542D01*
X152442736Y-72583619D01*
X152464726Y-72539442D01*
X152475251Y-72488958D01*
X152473645Y-72446092D01*
X152468833Y-72416654D01*
X152308871Y-72474875D01*
X152251242Y-72495955D01*
X152209578Y-72511650D01*
X152181457Y-72523171D01*
X152164457Y-72531732D01*
X152156152Y-72538541D01*
X152154119Y-72544811D01*
X151847082Y-72544811D01*
X151808594Y-72542649D01*
X151753689Y-72537957D01*
X151705423Y-72532335D01*
X151682170Y-72528683D01*
X151612650Y-72515927D01*
X151568171Y-72570428D01*
X151541481Y-72600559D01*
X151505478Y-72637746D01*
X151465713Y-72676370D01*
X151440983Y-72699133D01*
X151358274Y-72773335D01*
X151371565Y-72836820D01*
X151374020Y-72848547D01*
X151383955Y-72932466D01*
X151377444Y-73009046D01*
X151355128Y-73075450D01*
X151334110Y-73118220D01*
X151390256Y-73135438D01*
X151473405Y-73170479D01*
X151545153Y-73220413D01*
X151603835Y-73283684D01*
X151640892Y-73346970D01*
X151647783Y-73358739D01*
X151658846Y-73386040D01*
X151669094Y-73414068D01*
X151676549Y-73437528D01*
X151679769Y-73457482D01*
X151677310Y-73474998D01*
X151667728Y-73491138D01*
X151649579Y-73506969D01*
X151621420Y-73523556D01*
X151581807Y-73541962D01*
X151529297Y-73563254D01*
X151462444Y-73588496D01*
X151379807Y-73618751D01*
X151307941Y-73644889D01*
X151221309Y-73676380D01*
X151151084Y-73701739D01*
X151095331Y-73721558D01*
X151052113Y-73736427D01*
X151019490Y-73746938D01*
X150995528Y-73753682D01*
X150978287Y-73757249D01*
X150965831Y-73758230D01*
X150956224Y-73757217D01*
X150947567Y-73754813D01*
X150918527Y-73737717D01*
X150895704Y-73706522D01*
X150878009Y-73659317D01*
X150868051Y-73615517D01*
X150861153Y-73541960D01*
X151020778Y-73541960D01*
X151023782Y-73554958D01*
X151027080Y-73558913D01*
X151034655Y-73560136D01*
X151048612Y-73558006D01*
X151071059Y-73551907D01*
X151104101Y-73541220D01*
X151149846Y-73525326D01*
X151210400Y-73503609D01*
X151259245Y-73485879D01*
X151489365Y-73402122D01*
X151475686Y-73383709D01*
X151440962Y-73345400D01*
X151398776Y-73315864D01*
X151345694Y-73293430D01*
X151278286Y-73276430D01*
X151242251Y-73270089D01*
X151171547Y-73258894D01*
X151127962Y-73308044D01*
X151098838Y-73344511D01*
X151070208Y-73386120D01*
X151054879Y-73411939D01*
X151034004Y-73459173D01*
X151022243Y-73504329D01*
X151020778Y-73541960D01*
X150861153Y-73541960D01*
X150860403Y-73533968D01*
X150867021Y-73453231D01*
X150886983Y-73377841D01*
X150919368Y-73312330D01*
X150933743Y-73292224D01*
X150958500Y-73260856D01*
X150907710Y-73233113D01*
X150843532Y-73189745D01*
X150793711Y-73136248D01*
X150754428Y-73068520D01*
X150754270Y-73068178D01*
X150724013Y-73002703D01*
X150646005Y-73002600D01*
X150495510Y-72993295D01*
X150478648Y-72990351D01*
X150892615Y-72990351D01*
X150907851Y-73015994D01*
X150940161Y-73055703D01*
X150981807Y-73085857D01*
X151027297Y-73103301D01*
X151064404Y-73105831D01*
X151104384Y-73095314D01*
X151146170Y-73074384D01*
X151181612Y-73047680D01*
X151196651Y-73030518D01*
X151212142Y-72997265D01*
X151221520Y-72956000D01*
X151223320Y-72915785D01*
X151219020Y-72892342D01*
X151215886Y-72885987D01*
X151210107Y-72882652D01*
X151199051Y-72882965D01*
X151180080Y-72887559D01*
X151150558Y-72897061D01*
X151107851Y-72912102D01*
X151052577Y-72932129D01*
X150892615Y-72990351D01*
X150478648Y-72990351D01*
X150339928Y-72966132D01*
X150180706Y-72921672D01*
X150019290Y-72860470D01*
X149857129Y-72783082D01*
X149695671Y-72690067D01*
X149536363Y-72581982D01*
X149518230Y-72568599D01*
X149324273Y-72413794D01*
X149147815Y-72250947D01*
X149029874Y-72124085D01*
X149264808Y-72124085D01*
X149266213Y-72134858D01*
X149274497Y-72149103D01*
X149291571Y-72168988D01*
X149319341Y-72196685D01*
X149359715Y-72234365D01*
X149370124Y-72243887D01*
X149527596Y-72378708D01*
X149686165Y-72497026D01*
X149845104Y-72598526D01*
X150003685Y-72682898D01*
X150161183Y-72749828D01*
X150316869Y-72799003D01*
X150470016Y-72830110D01*
X150619897Y-72842838D01*
X150752513Y-72838214D01*
X150828136Y-72826524D01*
X150912478Y-72806008D01*
X150998166Y-72778922D01*
X151077829Y-72747525D01*
X151127665Y-72723329D01*
X151224641Y-72663245D01*
X151318256Y-72590541D01*
X151385233Y-72527454D01*
X151439976Y-72470755D01*
X151364288Y-72441200D01*
X151165282Y-72353156D01*
X150971566Y-72246688D01*
X150784021Y-72122403D01*
X150603522Y-71980912D01*
X150430948Y-71822820D01*
X150344687Y-71734313D01*
X150268569Y-71653175D01*
X150520160Y-71653175D01*
X150521524Y-71674215D01*
X150533028Y-71696832D01*
X150555984Y-71724086D01*
X150591705Y-71759040D01*
X150620751Y-71785839D01*
X150785339Y-71926340D01*
X150952206Y-72049266D01*
X151120661Y-72154215D01*
X151290010Y-72240791D01*
X151459559Y-72308592D01*
X151602068Y-72350854D01*
X151712948Y-72371401D01*
X151749199Y-72378118D01*
X151894296Y-72386595D01*
X152036164Y-72376579D01*
X152173609Y-72348372D01*
X152305437Y-72302271D01*
X152430452Y-72238574D01*
X152547460Y-72157579D01*
X152616982Y-72097376D01*
X152716610Y-71991244D01*
X152808287Y-71868440D01*
X152891394Y-71730405D01*
X152965315Y-71578576D01*
X153029432Y-71414394D01*
X153083127Y-71239297D01*
X153125784Y-71054723D01*
X153156782Y-70862113D01*
X153160636Y-70830509D01*
X153165974Y-70777901D01*
X153167573Y-70741685D01*
X153165403Y-70719072D01*
X153159430Y-70707273D01*
X153159191Y-70707056D01*
X153124796Y-70685783D01*
X153078216Y-70669477D01*
X153026644Y-70660592D01*
X153022050Y-70660243D01*
X152943329Y-70662836D01*
X152866186Y-70681953D01*
X152788414Y-70718385D01*
X152708750Y-70772190D01*
X152651246Y-70811318D01*
X152585131Y-70845804D01*
X152548961Y-70861592D01*
X152504836Y-70879153D01*
X152466514Y-70891999D01*
X152428771Y-70901200D01*
X152386387Y-70907819D01*
X152334137Y-70912922D01*
X152277986Y-70916868D01*
X152200998Y-70929399D01*
X152122403Y-70957774D01*
X152040043Y-71002895D01*
X151989250Y-71037418D01*
X151947240Y-71067288D01*
X151914471Y-71088473D01*
X151884662Y-71104147D01*
X151851525Y-71117485D01*
X151808778Y-71131664D01*
X151792796Y-71136662D01*
X151727952Y-71154940D01*
X151672628Y-71165850D01*
X151618921Y-71170865D01*
X151606595Y-71171321D01*
X151532136Y-71178107D01*
X151462972Y-71195152D01*
X151394544Y-71224191D01*
X151322290Y-71266958D01*
X151282599Y-71294541D01*
X151240555Y-71324439D01*
X151207777Y-71345647D01*
X151178001Y-71361330D01*
X151144965Y-71374655D01*
X151102402Y-71388788D01*
X151085930Y-71393940D01*
X151023552Y-71411649D01*
X150970893Y-71422310D01*
X150920073Y-71427368D01*
X150899441Y-71428125D01*
X150814541Y-71437210D01*
X150734027Y-71459491D01*
X150661217Y-71493335D01*
X150599434Y-71537111D01*
X150551996Y-71589186D01*
X150542603Y-71603582D01*
X150527624Y-71630651D01*
X150520160Y-71653175D01*
X150268569Y-71653175D01*
X150257441Y-71641313D01*
X150190069Y-71662761D01*
X150148321Y-71678126D01*
X150110285Y-71697559D01*
X150068700Y-71725020D01*
X150047885Y-71740307D01*
X150011776Y-71766370D01*
X149979587Y-71786547D01*
X149945423Y-71803891D01*
X149903383Y-71821453D01*
X149858384Y-71838345D01*
X149804817Y-71857263D01*
X149763418Y-71869881D01*
X149728372Y-71877559D01*
X149693871Y-71881652D01*
X149666756Y-71883120D01*
X149572806Y-71891567D01*
X149492769Y-71910151D01*
X149423206Y-71940026D01*
X149360679Y-71982349D01*
X149353360Y-71988424D01*
X149318647Y-72023766D01*
X149289506Y-72064393D01*
X149270046Y-72104011D01*
X149264808Y-72124085D01*
X149029874Y-72124085D01*
X148988227Y-72079288D01*
X148844876Y-71898055D01*
X148717129Y-71706482D01*
X148604357Y-71503804D01*
X148555252Y-71402115D01*
X148488696Y-71234342D01*
X148440439Y-71060194D01*
X148410594Y-70880451D01*
X148399281Y-70695897D01*
X148400011Y-70677110D01*
X148560183Y-70677110D01*
X148571079Y-70849160D01*
X148601216Y-71021544D01*
X148650636Y-71194544D01*
X148719388Y-71368446D01*
X148807519Y-71543536D01*
X148894225Y-71688108D01*
X148918784Y-71724786D01*
X148949305Y-71768045D01*
X148983337Y-71814662D01*
X149018426Y-71861414D01*
X149052120Y-71905076D01*
X149081966Y-71942425D01*
X149105512Y-71970238D01*
X149120305Y-71985292D01*
X149120348Y-71985325D01*
X149130033Y-71986447D01*
X149144652Y-71975756D01*
X149166735Y-71951225D01*
X149173920Y-71942444D01*
X149214095Y-71895021D01*
X149250319Y-71858865D01*
X149287622Y-71830465D01*
X149331036Y-71806310D01*
X149385589Y-71782887D01*
X149422469Y-71768932D01*
X149474811Y-71750158D01*
X149515046Y-71737367D01*
X149549187Y-71729217D01*
X149583242Y-71724373D01*
X149623221Y-71721494D01*
X149638844Y-71720743D01*
X149730883Y-71710773D01*
X149812002Y-71688420D01*
X149887854Y-71651652D01*
X149951167Y-71608496D01*
X149991799Y-71579651D01*
X150035996Y-71551655D01*
X150075161Y-71529907D01*
X150080399Y-71527361D01*
X150111964Y-71511844D01*
X150128614Y-71501299D01*
X150133365Y-71492934D01*
X150129234Y-71483966D01*
X150128471Y-71482957D01*
X150034121Y-71354015D01*
X149953642Y-71229064D01*
X149883920Y-71102439D01*
X149821841Y-70968473D01*
X149764291Y-70821500D01*
X149763035Y-70818029D01*
X149738511Y-70749548D01*
X149719788Y-70695239D01*
X149705736Y-70651003D01*
X149695227Y-70612742D01*
X149687132Y-70576359D01*
X149680325Y-70537756D01*
X149673885Y-70494345D01*
X149655770Y-70299969D01*
X149655823Y-70285177D01*
X149816446Y-70285177D01*
X149832193Y-70452477D01*
X149861899Y-70600560D01*
X149908629Y-70753815D01*
X149971388Y-70909855D01*
X150049186Y-71066289D01*
X150141029Y-71220729D01*
X150168865Y-71262902D01*
X150200534Y-71308547D01*
X150235256Y-71356446D01*
X150270788Y-71403741D01*
X150304891Y-71447569D01*
X150335322Y-71485073D01*
X150359841Y-71513389D01*
X150376205Y-71529660D01*
X150379791Y-71532076D01*
X150393240Y-71528056D01*
X150411147Y-71507253D01*
X150414200Y-71502629D01*
X150447894Y-71459470D01*
X150493348Y-71414260D01*
X150544434Y-71372811D01*
X150568215Y-71356557D01*
X150624328Y-71327346D01*
X150693434Y-71301616D01*
X150769061Y-71281197D01*
X150844736Y-71267917D01*
X150896797Y-71263763D01*
X150985665Y-71254809D01*
X151065474Y-71232343D01*
X151141333Y-71194490D01*
X151203959Y-71150814D01*
X151239209Y-71124352D01*
X151270099Y-71104240D01*
X151302613Y-71087303D01*
X151342734Y-71070368D01*
X151386943Y-71053728D01*
X151438636Y-71035448D01*
X151479133Y-71023255D01*
X151515252Y-71015670D01*
X151553810Y-71011214D01*
X151594092Y-71008754D01*
X151684719Y-70999184D01*
X151763232Y-70978654D01*
X151834813Y-70945291D01*
X151904647Y-70897219D01*
X151906447Y-70895788D01*
X151938769Y-70870951D01*
X151967599Y-70851783D01*
X151998420Y-70835372D01*
X152036717Y-70818805D01*
X152087976Y-70799171D01*
X152089407Y-70798639D01*
X152140931Y-70780034D01*
X152180706Y-70767475D01*
X152215045Y-70759562D01*
X152250262Y-70754891D01*
X152292671Y-70752063D01*
X152301027Y-70751665D01*
X152385138Y-70743515D01*
X152457480Y-70725968D01*
X152524509Y-70696674D01*
X152592679Y-70653285D01*
X152613149Y-70638062D01*
X152647999Y-70612187D01*
X152677793Y-70592547D01*
X152708006Y-70576303D01*
X152744115Y-70560614D01*
X152791596Y-70542640D01*
X152809916Y-70536002D01*
X152873864Y-70514364D01*
X152926361Y-70500750D01*
X152973520Y-70494616D01*
X153021450Y-70495417D01*
X153076261Y-70502614D01*
X153111847Y-70509156D01*
X153148743Y-70515236D01*
X153170279Y-70515568D01*
X153179798Y-70510069D01*
X153180771Y-70507452D01*
X153182420Y-70487591D01*
X153182566Y-70452227D01*
X153181404Y-70405316D01*
X153179130Y-70350821D01*
X153175939Y-70292700D01*
X153172026Y-70234915D01*
X153167588Y-70181423D01*
X153162820Y-70136184D01*
X153162211Y-70131313D01*
X153148025Y-70030040D01*
X153132515Y-69941822D01*
X153114120Y-69860172D01*
X153091277Y-69778608D01*
X153062424Y-69690645D01*
X153042551Y-69634778D01*
X153004746Y-69535879D01*
X152967674Y-69451029D01*
X152928523Y-69375066D01*
X152884476Y-69302825D01*
X152832720Y-69229144D01*
X152793461Y-69177842D01*
X152677703Y-69045881D01*
X152549322Y-68927878D01*
X152409857Y-68824433D01*
X152260846Y-68736144D01*
X152103829Y-68663613D01*
X151940347Y-68607438D01*
X151771938Y-68568218D01*
X151600141Y-68546555D01*
X151426496Y-68543047D01*
X151252543Y-68558294D01*
X151217076Y-68563775D01*
X151169279Y-68572063D01*
X151124640Y-68580418D01*
X151089139Y-68587687D01*
X151072955Y-68591507D01*
X151022063Y-68606616D01*
X150961219Y-68627084D01*
X150896282Y-68650711D01*
X150833110Y-68675302D01*
X150777565Y-68698657D01*
X150738842Y-68716852D01*
X150581865Y-68807625D01*
X150522366Y-68850814D01*
X150437664Y-68912296D01*
X150306856Y-69029686D01*
X150190056Y-69158614D01*
X150087882Y-69297904D01*
X150000948Y-69446374D01*
X149929870Y-69602846D01*
X149875266Y-69766142D01*
X149837750Y-69935081D01*
X149817938Y-70108486D01*
X149816446Y-70285177D01*
X149655823Y-70285177D01*
X149656448Y-70108988D01*
X149675718Y-69922204D01*
X149713379Y-69740414D01*
X149769228Y-69564416D01*
X149843065Y-69395011D01*
X149934688Y-69232997D01*
X150024897Y-69103659D01*
X150058226Y-69058372D01*
X150078374Y-69027168D01*
X150085470Y-69009831D01*
X150082944Y-69005854D01*
X150067751Y-69006497D01*
X150037945Y-69010006D01*
X149998118Y-69015652D01*
X149952862Y-69022710D01*
X149906768Y-69030451D01*
X149864431Y-69038147D01*
X149830441Y-69045071D01*
X149819860Y-69047548D01*
X149766992Y-69062873D01*
X149702674Y-69084815D01*
X149632844Y-69111071D01*
X149563436Y-69139342D01*
X149500385Y-69167328D01*
X149461440Y-69186435D01*
X149306168Y-69277941D01*
X149163308Y-69384247D01*
X149033576Y-69504503D01*
X148917685Y-69637860D01*
X148816351Y-69783469D01*
X148730288Y-69940480D01*
X148660210Y-70108043D01*
X148642452Y-70160113D01*
X148595915Y-70332872D01*
X148568477Y-70505108D01*
X148560183Y-70677110D01*
X148400011Y-70677110D01*
X148406613Y-70507311D01*
X148412802Y-70447212D01*
X148427916Y-70338963D01*
X148447072Y-70241437D01*
X148471947Y-70148854D01*
X148504223Y-70055435D01*
X148545574Y-69955399D01*
X148573463Y-69894034D01*
X148624554Y-69789550D01*
X148674530Y-69699088D01*
X148726734Y-69617644D01*
X148784518Y-69540220D01*
X148851232Y-69461812D01*
X148893951Y-69415384D01*
X149008085Y-69302823D01*
X149125931Y-69204765D01*
X149251852Y-69118077D01*
X149390210Y-69039623D01*
X149474959Y-68998020D01*
X149612743Y-68942025D01*
X149762247Y-68896534D01*
X149917978Y-68862816D01*
X150074440Y-68842138D01*
X150176764Y-68836214D01*
X150271547Y-68833770D01*
X150354704Y-68768494D01*
X150495216Y-68668900D01*
X150646013Y-68581874D01*
X150803119Y-68509382D01*
X150962555Y-68453394D01*
X151026717Y-68435904D01*
X151212216Y-68399397D01*
X151398384Y-68381771D01*
X151583853Y-68382732D01*
G37*
G36*
X107758883Y-117215388D02*
G01*
X107758883Y-117892860D01*
X107625995Y-117892860D01*
X107493106Y-117892860D01*
X107493106Y-117215388D01*
X107493106Y-116537916D01*
X107625995Y-116537916D01*
X107758883Y-116537916D01*
X107758883Y-117215388D01*
G37*
G36*
X109775666Y-117098133D02*
G01*
X109775666Y-117658351D01*
X110140459Y-117658351D01*
X110505252Y-117658351D01*
X110505252Y-117775605D01*
X110505252Y-117892860D01*
X110007570Y-117892860D01*
X109509889Y-117892860D01*
X109509889Y-117215388D01*
X109509889Y-116537916D01*
X109642778Y-116537916D01*
X109775666Y-116537916D01*
X109775666Y-117098133D01*
G37*
G36*
X111787238Y-116655170D02*
G01*
X111787238Y-116772425D01*
X111398994Y-116772425D01*
X111010750Y-116772425D01*
X111010750Y-116926122D01*
X111010750Y-117079819D01*
X111353395Y-117081159D01*
X111696040Y-117082499D01*
X111696040Y-117199754D01*
X111696040Y-117317009D01*
X111353395Y-117318349D01*
X111010750Y-117319689D01*
X111010750Y-117489020D01*
X111010750Y-117658351D01*
X111404206Y-117658351D01*
X111797661Y-117658351D01*
X111797661Y-117775605D01*
X111797661Y-117892860D01*
X111271317Y-117892860D01*
X110744973Y-117892860D01*
X110744973Y-117215388D01*
X110744973Y-116537916D01*
X111266105Y-116537916D01*
X111787238Y-116537916D01*
X111787238Y-116655170D01*
G37*
G36*
X107253385Y-116655170D02*
G01*
X107253385Y-116772425D01*
X107005847Y-116772425D01*
X106758309Y-116772425D01*
X106758309Y-117332643D01*
X106758309Y-117892860D01*
X106626276Y-117892860D01*
X106494242Y-117892860D01*
X106490785Y-117552821D01*
X106490144Y-117485926D01*
X106489541Y-117415649D01*
X106488988Y-117343787D01*
X106488496Y-117272137D01*
X106488075Y-117202495D01*
X106487737Y-117136657D01*
X106487492Y-117076418D01*
X106487353Y-117023577D01*
X106487324Y-116992604D01*
X106487320Y-116772425D01*
X106239782Y-116772425D01*
X105992244Y-116772425D01*
X105992244Y-116655170D01*
X105992244Y-116537916D01*
X106622814Y-116537916D01*
X107253385Y-116537916D01*
X107253385Y-116655170D01*
G37*
G36*
X106534222Y-113580489D02*
G01*
X106534222Y-114125072D01*
X106800000Y-114125072D01*
X107065777Y-114125072D01*
X107065777Y-113580489D01*
X107065777Y-113035905D01*
X108140609Y-113035905D01*
X109215440Y-113035905D01*
X108009027Y-114242327D01*
X107915187Y-114336159D01*
X107823243Y-114428081D01*
X107733468Y-114517819D01*
X107646135Y-114605100D01*
X107561517Y-114689652D01*
X107479889Y-114771203D01*
X107401522Y-114849478D01*
X107326692Y-114924206D01*
X107255670Y-114995114D01*
X107188730Y-115061929D01*
X107126146Y-115124378D01*
X107068192Y-115182189D01*
X107015139Y-115235088D01*
X106967262Y-115282804D01*
X106924835Y-115325062D01*
X106888129Y-115361591D01*
X106857420Y-115392118D01*
X106832979Y-115416370D01*
X106815081Y-115434074D01*
X106803999Y-115444957D01*
X106800005Y-115448747D01*
X106800000Y-115448749D01*
X106796156Y-115445108D01*
X106785217Y-115434369D01*
X106767457Y-115416803D01*
X106743149Y-115392684D01*
X106712567Y-115362285D01*
X106675983Y-115325877D01*
X106633670Y-115283734D01*
X106585904Y-115236129D01*
X106532955Y-115183334D01*
X106475099Y-115125622D01*
X106412608Y-115063266D01*
X106345756Y-114996539D01*
X106274816Y-114925713D01*
X106200061Y-114851061D01*
X106121765Y-114772856D01*
X106040201Y-114691371D01*
X105955643Y-114606878D01*
X105868363Y-114519650D01*
X105778636Y-114429960D01*
X105686734Y-114338081D01*
X105592930Y-114244285D01*
X105590972Y-114242327D01*
X104384559Y-113035905D01*
X105459390Y-113035905D01*
X106534222Y-113035905D01*
X106534222Y-113580489D01*
G37*
G36*
X108006421Y-111290111D02*
G01*
X108100259Y-111383960D01*
X108192186Y-111475921D01*
X108281929Y-111565721D01*
X108369215Y-111653085D01*
X108453772Y-111737740D01*
X108535326Y-111819412D01*
X108613605Y-111897828D01*
X108688336Y-111972713D01*
X108759246Y-112043794D01*
X108826063Y-112110798D01*
X108888513Y-112173451D01*
X108946324Y-112231478D01*
X108999222Y-112284607D01*
X109046936Y-112332564D01*
X109089193Y-112375074D01*
X109125718Y-112411865D01*
X109156241Y-112442662D01*
X109180487Y-112467192D01*
X109198185Y-112485181D01*
X109209061Y-112496356D01*
X109212842Y-112500442D01*
X109212843Y-112500450D01*
X109207713Y-112500827D01*
X109192646Y-112501183D01*
X109168130Y-112501514D01*
X109134650Y-112501821D01*
X109092694Y-112502102D01*
X109042746Y-112502356D01*
X108985295Y-112502581D01*
X108920825Y-112502777D01*
X108849825Y-112502942D01*
X108772779Y-112503075D01*
X108690174Y-112503175D01*
X108602498Y-112503241D01*
X108510235Y-112503271D01*
X108413874Y-112503265D01*
X108313899Y-112503220D01*
X108210797Y-112503137D01*
X108140613Y-112503059D01*
X107068383Y-112501744D01*
X107067056Y-111955858D01*
X107065729Y-111409971D01*
X106800000Y-111409971D01*
X106534270Y-111409971D01*
X106532943Y-111955858D01*
X106531616Y-112501744D01*
X105459386Y-112503059D01*
X105354472Y-112503169D01*
X105252360Y-112503239D01*
X105153537Y-112503271D01*
X105058489Y-112503265D01*
X104967703Y-112503223D01*
X104881666Y-112503145D01*
X104800862Y-112503034D01*
X104725780Y-112502890D01*
X104656905Y-112502715D01*
X104594724Y-112502509D01*
X104539723Y-112502274D01*
X104492389Y-112502011D01*
X104453207Y-112501722D01*
X104422665Y-112501406D01*
X104401249Y-112501067D01*
X104389445Y-112500704D01*
X104387156Y-112500450D01*
X104390797Y-112496503D01*
X104401537Y-112485464D01*
X104419105Y-112467604D01*
X104443227Y-112443199D01*
X104473630Y-112412520D01*
X104510042Y-112375844D01*
X104552190Y-112333442D01*
X104599800Y-112285588D01*
X104652601Y-112232557D01*
X104710319Y-112174622D01*
X104772681Y-112112057D01*
X104839416Y-112045135D01*
X104910249Y-111974130D01*
X104984908Y-111899316D01*
X105063121Y-111820966D01*
X105144614Y-111739355D01*
X105229115Y-111654755D01*
X105316351Y-111567441D01*
X105406049Y-111477686D01*
X105497936Y-111385765D01*
X105591739Y-111291949D01*
X105593578Y-111290111D01*
X106800000Y-110083698D01*
X108006421Y-111290111D01*
G37*
G36*
X102137166Y-116539409D02*
G01*
X102207386Y-116539880D01*
X102268111Y-116540353D01*
X102320267Y-116540890D01*
X102364782Y-116541550D01*
X102402583Y-116542394D01*
X102434597Y-116543484D01*
X102461751Y-116544880D01*
X102484972Y-116546641D01*
X102505187Y-116548830D01*
X102523324Y-116551507D01*
X102540309Y-116554732D01*
X102557069Y-116558566D01*
X102574532Y-116563070D01*
X102593625Y-116568304D01*
X102598192Y-116569575D01*
X102665693Y-116592685D01*
X102726167Y-116622324D01*
X102778968Y-116658130D01*
X102815941Y-116691687D01*
X102852031Y-116734913D01*
X102880302Y-116781848D01*
X102901053Y-116833421D01*
X102914587Y-116890560D01*
X102921202Y-116954195D01*
X102921468Y-117018354D01*
X102919881Y-117052653D01*
X102917592Y-117079664D01*
X102914172Y-117102520D01*
X102909192Y-117124351D01*
X102904870Y-117139630D01*
X102880949Y-117202715D01*
X102848819Y-117259378D01*
X102808486Y-117309617D01*
X102759950Y-117353428D01*
X102703216Y-117390810D01*
X102638287Y-117421760D01*
X102565165Y-117446274D01*
X102508473Y-117459733D01*
X102459708Y-117467749D01*
X102402142Y-117473870D01*
X102335390Y-117478121D01*
X102259070Y-117480528D01*
X102189279Y-117481144D01*
X102068116Y-117481166D01*
X102068116Y-117687013D01*
X102068116Y-117892860D01*
X101935227Y-117892860D01*
X101802339Y-117892860D01*
X101802339Y-117215045D01*
X101802339Y-116772425D01*
X102068116Y-116772425D01*
X102068116Y-117007347D01*
X102068116Y-117242270D01*
X102249210Y-117240125D01*
X102299579Y-117239458D01*
X102340729Y-117238729D01*
X102373865Y-117237873D01*
X102400190Y-117236826D01*
X102420908Y-117235525D01*
X102437222Y-117233906D01*
X102450338Y-117231905D01*
X102461458Y-117229458D01*
X102464177Y-117228739D01*
X102518242Y-117209933D01*
X102563648Y-117185378D01*
X102600375Y-117155088D01*
X102628405Y-117119078D01*
X102638305Y-117100739D01*
X102644931Y-117086254D01*
X102649434Y-117074029D01*
X102652222Y-117061482D01*
X102653705Y-117046029D01*
X102654291Y-117025086D01*
X102654390Y-116999118D01*
X102654182Y-116970014D01*
X102653351Y-116948887D01*
X102651588Y-116933295D01*
X102648581Y-116920796D01*
X102644020Y-116908948D01*
X102642508Y-116905601D01*
X102621332Y-116869122D01*
X102594234Y-116839747D01*
X102560039Y-116816499D01*
X102517571Y-116798400D01*
X102511079Y-116796278D01*
X102488349Y-116789788D01*
X102464358Y-116784519D01*
X102437790Y-116780362D01*
X102407329Y-116777208D01*
X102371660Y-116774947D01*
X102329466Y-116773472D01*
X102279432Y-116772672D01*
X102223153Y-116772440D01*
X102068116Y-116772425D01*
X101802339Y-116772425D01*
X101802339Y-116537230D01*
X102137166Y-116539409D01*
G37*
G36*
X103808409Y-116536528D02*
G01*
X103814150Y-116549054D01*
X103823618Y-116569869D01*
X103836522Y-116598322D01*
X103852568Y-116633763D01*
X103871462Y-116675542D01*
X103892912Y-116723008D01*
X103916625Y-116775511D01*
X103942307Y-116832400D01*
X103969666Y-116893025D01*
X103998408Y-116956735D01*
X104028240Y-117022880D01*
X104058869Y-117090809D01*
X104090002Y-117159873D01*
X104121346Y-117229420D01*
X104152608Y-117298800D01*
X104183495Y-117367363D01*
X104213713Y-117434458D01*
X104242969Y-117499434D01*
X104270971Y-117561643D01*
X104297425Y-117620432D01*
X104322038Y-117675151D01*
X104344518Y-117725150D01*
X104364570Y-117769779D01*
X104381902Y-117808387D01*
X104396220Y-117840324D01*
X104407233Y-117864939D01*
X104414645Y-117881581D01*
X104418166Y-117889601D01*
X104418424Y-117890250D01*
X104413438Y-117890937D01*
X104399380Y-117891460D01*
X104377600Y-117891805D01*
X104349448Y-117891960D01*
X104316273Y-117891911D01*
X104279425Y-117891645D01*
X104279213Y-117891643D01*
X104140002Y-117890255D01*
X104079880Y-117751000D01*
X104019757Y-117611745D01*
X103667249Y-117611597D01*
X103314740Y-117611449D01*
X103291443Y-117664865D01*
X103281257Y-117688243D01*
X103268230Y-117718176D01*
X103253670Y-117751657D01*
X103238884Y-117785681D01*
X103230245Y-117805571D01*
X103192344Y-117892860D01*
X103052613Y-117892860D01*
X102912883Y-117892860D01*
X102920113Y-117875923D01*
X102923091Y-117869234D01*
X102930120Y-117853606D01*
X102940949Y-117829594D01*
X102955328Y-117797750D01*
X102973005Y-117758631D01*
X102993731Y-117712791D01*
X103017254Y-117660783D01*
X103043323Y-117603162D01*
X103071688Y-117540483D01*
X103102097Y-117473300D01*
X103134301Y-117402167D01*
X103148084Y-117371728D01*
X103419102Y-117371728D01*
X103666571Y-117371728D01*
X103725828Y-117371676D01*
X103775386Y-117371507D01*
X103815967Y-117371202D01*
X103848295Y-117370742D01*
X103873093Y-117370107D01*
X103891083Y-117369279D01*
X103902988Y-117368237D01*
X103909532Y-117366964D01*
X103911438Y-117365438D01*
X103911379Y-117365214D01*
X103907652Y-117356412D01*
X103900350Y-117339454D01*
X103889932Y-117315392D01*
X103876858Y-117285278D01*
X103861586Y-117250165D01*
X103844578Y-117211104D01*
X103826291Y-117169148D01*
X103807186Y-117125350D01*
X103787722Y-117080760D01*
X103768358Y-117036433D01*
X103749554Y-116993419D01*
X103731770Y-116952771D01*
X103715464Y-116915542D01*
X103701097Y-116882783D01*
X103689127Y-116855547D01*
X103680015Y-116834887D01*
X103674219Y-116821854D01*
X103672255Y-116817578D01*
X103667225Y-116810911D01*
X103664739Y-116810421D01*
X103662278Y-116815508D01*
X103656039Y-116829309D01*
X103646395Y-116850978D01*
X103633719Y-116879667D01*
X103618382Y-116914529D01*
X103600758Y-116954719D01*
X103581218Y-116999389D01*
X103560137Y-117047693D01*
X103540716Y-117092279D01*
X103419102Y-117371728D01*
X103148084Y-117371728D01*
X103168048Y-117327639D01*
X103203088Y-117250270D01*
X103229511Y-117191937D01*
X103531678Y-116524887D01*
X103666707Y-116523500D01*
X103801737Y-116522112D01*
X103808409Y-116536528D01*
G37*
G36*
X108782909Y-116519992D02*
G01*
X108846005Y-116521062D01*
X108901582Y-116524244D01*
X108952399Y-116529916D01*
X109001212Y-116538451D01*
X109050781Y-116550227D01*
X109092681Y-116562186D01*
X109124441Y-116572151D01*
X109154865Y-116582325D01*
X109182399Y-116592123D01*
X109205491Y-116600962D01*
X109222585Y-116608256D01*
X109232127Y-116613423D01*
X109233594Y-116615162D01*
X109232045Y-116620938D01*
X109227756Y-116635179D01*
X109221179Y-116656428D01*
X109212768Y-116683229D01*
X109202975Y-116714123D01*
X109197675Y-116730735D01*
X109184251Y-116771842D01*
X109173372Y-116803190D01*
X109164918Y-116825092D01*
X109158765Y-116837864D01*
X109154793Y-116841822D01*
X109154776Y-116841820D01*
X109147515Y-116839542D01*
X109132698Y-116833996D01*
X109112368Y-116825975D01*
X109088567Y-116816269D01*
X109084416Y-116814547D01*
X109004038Y-116785547D01*
X108924394Y-116765495D01*
X108846194Y-116754391D01*
X108770148Y-116752231D01*
X108696964Y-116759016D01*
X108627354Y-116774743D01*
X108562027Y-116799411D01*
X108530160Y-116815674D01*
X108501314Y-116834669D01*
X108469903Y-116860090D01*
X108438361Y-116889544D01*
X108409121Y-116920637D01*
X108384618Y-116950977D01*
X108370082Y-116973061D01*
X108341995Y-117028845D01*
X108322515Y-117084010D01*
X108311051Y-117141048D01*
X108307013Y-117202446D01*
X108307622Y-117236233D01*
X108310797Y-117281883D01*
X108316623Y-117320844D01*
X108325920Y-117356689D01*
X108339505Y-117392989D01*
X108347832Y-117411716D01*
X108381420Y-117472564D01*
X108422264Y-117526026D01*
X108470046Y-117571878D01*
X108524453Y-117609898D01*
X108585169Y-117639864D01*
X108651880Y-117661553D01*
X108719821Y-117674203D01*
X108795450Y-117678621D01*
X108874494Y-117673404D01*
X108956565Y-117658622D01*
X109041271Y-117634342D01*
X109121795Y-117603418D01*
X109141332Y-117595279D01*
X109156879Y-117589278D01*
X109166257Y-117586232D01*
X109167994Y-117586107D01*
X109170409Y-117591824D01*
X109175451Y-117605534D01*
X109182538Y-117625525D01*
X109191088Y-117650084D01*
X109200519Y-117677498D01*
X109210247Y-117706055D01*
X109219691Y-117734042D01*
X109228269Y-117759746D01*
X109235398Y-117781454D01*
X109240495Y-117797455D01*
X109242979Y-117806035D01*
X109243105Y-117807011D01*
X109236098Y-117810949D01*
X109221175Y-117817484D01*
X109200298Y-117825884D01*
X109175427Y-117835415D01*
X109148524Y-117845346D01*
X109121551Y-117854944D01*
X109096467Y-117863476D01*
X109075234Y-117870210D01*
X109069108Y-117871998D01*
X109010306Y-117887192D01*
X108955065Y-117898190D01*
X108899648Y-117905524D01*
X108840322Y-117909730D01*
X108795937Y-117911073D01*
X108763942Y-117911487D01*
X108734363Y-117911613D01*
X108709256Y-117911464D01*
X108690678Y-117911050D01*
X108681288Y-117910466D01*
X108589148Y-117894629D01*
X108503097Y-117870898D01*
X108423398Y-117839445D01*
X108350316Y-117800445D01*
X108284116Y-117754070D01*
X108225062Y-117700493D01*
X108173418Y-117639888D01*
X108129449Y-117572428D01*
X108110606Y-117536554D01*
X108081632Y-117468955D01*
X108060704Y-117400892D01*
X108047325Y-117330102D01*
X108040997Y-117254325D01*
X108040316Y-117217373D01*
X108044791Y-117130275D01*
X108058349Y-117048199D01*
X108081113Y-116970849D01*
X108113204Y-116897923D01*
X108154745Y-116829124D01*
X108205857Y-116764150D01*
X108240198Y-116727842D01*
X108300763Y-116673375D01*
X108363782Y-116628206D01*
X108431071Y-116591229D01*
X108504446Y-116561338D01*
X108525137Y-116554466D01*
X108561558Y-116543383D01*
X108593881Y-116534881D01*
X108624478Y-116528643D01*
X108655722Y-116524351D01*
X108689987Y-116521689D01*
X108729646Y-116520339D01*
X108777071Y-116519984D01*
X108782909Y-116519992D01*
G37*
G36*
X105061944Y-116537963D02*
G01*
X105128154Y-116538135D01*
X105185701Y-116538477D01*
X105235463Y-116539034D01*
X105278320Y-116539850D01*
X105315152Y-116540972D01*
X105346838Y-116542443D01*
X105374257Y-116544310D01*
X105398288Y-116546617D01*
X105419812Y-116549408D01*
X105439706Y-116552730D01*
X105458852Y-116556627D01*
X105478127Y-116561144D01*
X105487965Y-116563618D01*
X105555809Y-116585204D01*
X105615659Y-116613166D01*
X105667394Y-116647396D01*
X105710895Y-116687788D01*
X105746041Y-116734236D01*
X105772712Y-116786633D01*
X105786369Y-116827144D01*
X105792148Y-116855935D01*
X105796066Y-116891276D01*
X105798013Y-116929628D01*
X105797876Y-116967450D01*
X105795545Y-117001201D01*
X105792467Y-117020891D01*
X105774650Y-117082180D01*
X105748358Y-117137814D01*
X105713319Y-117188173D01*
X105669264Y-117233638D01*
X105615924Y-117274588D01*
X105609212Y-117279007D01*
X105582210Y-117294914D01*
X105549845Y-117311532D01*
X105515333Y-117327414D01*
X105481890Y-117341109D01*
X105452732Y-117351170D01*
X105443195Y-117353800D01*
X105436213Y-117355901D01*
X105434443Y-117358405D01*
X105438984Y-117362501D01*
X105450932Y-117369374D01*
X105464041Y-117376342D01*
X105485895Y-117388553D01*
X105508132Y-117402078D01*
X105525038Y-117413366D01*
X105531780Y-117419428D01*
X105544598Y-117432107D01*
X105562749Y-117450610D01*
X105585487Y-117474140D01*
X105612069Y-117501905D01*
X105641752Y-117533109D01*
X105673792Y-117566958D01*
X105707443Y-117602658D01*
X105741964Y-117639413D01*
X105776609Y-117676429D01*
X105810636Y-117712912D01*
X105843299Y-117748066D01*
X105873855Y-117781099D01*
X105901561Y-117811214D01*
X105925672Y-117837618D01*
X105945445Y-117859516D01*
X105960135Y-117876113D01*
X105968999Y-117886614D01*
X105971399Y-117890132D01*
X105966392Y-117890781D01*
X105952192Y-117891353D01*
X105930026Y-117891831D01*
X105901123Y-117892197D01*
X105866713Y-117892433D01*
X105828022Y-117892523D01*
X105803334Y-117892500D01*
X105635268Y-117892140D01*
X105468506Y-117707343D01*
X105425360Y-117659666D01*
X105388368Y-117619143D01*
X105356816Y-117585083D01*
X105329993Y-117556795D01*
X105307188Y-117533591D01*
X105287690Y-117514780D01*
X105270786Y-117499672D01*
X105255766Y-117487576D01*
X105241917Y-117477804D01*
X105228527Y-117469664D01*
X105217159Y-117463606D01*
X105197058Y-117454326D01*
X105176833Y-117447167D01*
X105154754Y-117441875D01*
X105129090Y-117438199D01*
X105098108Y-117435886D01*
X105060079Y-117434683D01*
X105016423Y-117434341D01*
X104908288Y-117434264D01*
X104908288Y-117663562D01*
X104908288Y-117892860D01*
X104775400Y-117892860D01*
X104642511Y-117892860D01*
X104642511Y-117215388D01*
X104642511Y-116771632D01*
X104908288Y-116771632D01*
X104908288Y-116983482D01*
X104908288Y-117195333D01*
X105099805Y-117193294D01*
X105150271Y-117192720D01*
X105191540Y-117192130D01*
X105224836Y-117191455D01*
X105251382Y-117190624D01*
X105272404Y-117189569D01*
X105289127Y-117188218D01*
X105302774Y-117186501D01*
X105314571Y-117184350D01*
X105325741Y-117181693D01*
X105331948Y-117180023D01*
X105386261Y-117161228D01*
X105432742Y-117137185D01*
X105470904Y-117108247D01*
X105500260Y-117074764D01*
X105515924Y-117047490D01*
X105523302Y-117030255D01*
X105527815Y-117015228D01*
X105530136Y-116998733D01*
X105530938Y-116977093D01*
X105530983Y-116965244D01*
X105530441Y-116938949D01*
X105528515Y-116919568D01*
X105524649Y-116903629D01*
X105518697Y-116888566D01*
X105503228Y-116863161D01*
X105481084Y-116838125D01*
X105455593Y-116816756D01*
X105432833Y-116803513D01*
X105417895Y-116797057D01*
X105404139Y-116791683D01*
X105390440Y-116787283D01*
X105375673Y-116783745D01*
X105358716Y-116780960D01*
X105338445Y-116778818D01*
X105313735Y-116777208D01*
X105283463Y-116776020D01*
X105246505Y-116775145D01*
X105201738Y-116774472D01*
X105148037Y-116773892D01*
X105128467Y-116773705D01*
X104908288Y-116771632D01*
X104642511Y-116771632D01*
X104642511Y-116537916D01*
X104986191Y-116537916D01*
X105061944Y-116537963D01*
G37*
G36*
X102415720Y-99108484D02*
G01*
X102425570Y-99111438D01*
X102458591Y-99131786D01*
X102476916Y-99160334D01*
X102480451Y-99192393D01*
X102469104Y-99223273D01*
X102442780Y-99248280D01*
X102428435Y-99255429D01*
X102390522Y-99261613D01*
X102356812Y-99250161D01*
X102331666Y-99222753D01*
X102328736Y-99217016D01*
X102320848Y-99180864D01*
X102329050Y-99148176D01*
X102349893Y-99122711D01*
X102379932Y-99108228D01*
X102415720Y-99108484D01*
G37*
G36*
X102864569Y-98205805D02*
G01*
X102890302Y-98233989D01*
X102895807Y-98245057D01*
X102901583Y-98280380D01*
X102889167Y-98312149D01*
X102859897Y-98337459D01*
X102851247Y-98341911D01*
X102817647Y-98352744D01*
X102789996Y-98348179D01*
X102763540Y-98329486D01*
X102751195Y-98309332D01*
X102744171Y-98280694D01*
X102743793Y-98275698D01*
X102744706Y-98247507D01*
X102752942Y-98228676D01*
X102762720Y-98217824D01*
X102796111Y-98196767D01*
X102831617Y-98193079D01*
X102864569Y-98205805D01*
G37*
G36*
X102848182Y-98729877D02*
G01*
X102872502Y-98754567D01*
X102884653Y-98787163D01*
X102882952Y-98822896D01*
X102865715Y-98856999D01*
X102863453Y-98859700D01*
X102843956Y-98870840D01*
X102814529Y-98876982D01*
X102784453Y-98876692D01*
X102772317Y-98873777D01*
X102755050Y-98860958D01*
X102738260Y-98839015D01*
X102737520Y-98837720D01*
X102728197Y-98803940D01*
X102734329Y-98770237D01*
X102752850Y-98741456D01*
X102780699Y-98722439D01*
X102813377Y-98717862D01*
X102848182Y-98729877D01*
G37*
G36*
X102617735Y-96255190D02*
G01*
X102638722Y-96282810D01*
X102647119Y-96313014D01*
X102641435Y-96341199D01*
X102620289Y-96370075D01*
X102582303Y-96402355D01*
X102575262Y-96407517D01*
X102526097Y-96438265D01*
X102485920Y-96452326D01*
X102453492Y-96449663D01*
X102427577Y-96430238D01*
X102410701Y-96402599D01*
X102400374Y-96374939D01*
X102401094Y-96354473D01*
X102408859Y-96338380D01*
X102428000Y-96316476D01*
X102458520Y-96291002D01*
X102494021Y-96266495D01*
X102528101Y-96247487D01*
X102547990Y-96239799D01*
X102585272Y-96238978D01*
X102617735Y-96255190D01*
G37*
G36*
X104248059Y-98530912D02*
G01*
X104272159Y-98559880D01*
X104273114Y-98561863D01*
X104279903Y-98580612D01*
X104281045Y-98599591D01*
X104275433Y-98622367D01*
X104261958Y-98652504D01*
X104239511Y-98693570D01*
X104223709Y-98720794D01*
X104199013Y-98760854D01*
X104179195Y-98787290D01*
X104160785Y-98804144D01*
X104143826Y-98813874D01*
X104110086Y-98824138D01*
X104081840Y-98818205D01*
X104059994Y-98802356D01*
X104043420Y-98783535D01*
X104035679Y-98762711D01*
X104037331Y-98737014D01*
X104048941Y-98703571D01*
X104071067Y-98659512D01*
X104096643Y-98614817D01*
X104121427Y-98574277D01*
X104140261Y-98547723D01*
X104156045Y-98531727D01*
X104171684Y-98522856D01*
X104175674Y-98521428D01*
X104214494Y-98517511D01*
X104248059Y-98530912D01*
G37*
G36*
X105488510Y-98937327D02*
G01*
X105496269Y-98939953D01*
X105524388Y-98959783D01*
X105542702Y-98992058D01*
X105547757Y-99023829D01*
X105542772Y-99040796D01*
X105529755Y-99069376D01*
X105511344Y-99104810D01*
X105490172Y-99142339D01*
X105468876Y-99177205D01*
X105450091Y-99204651D01*
X105442224Y-99214373D01*
X105413199Y-99233982D01*
X105379236Y-99238696D01*
X105346160Y-99229690D01*
X105319802Y-99208142D01*
X105308850Y-99187420D01*
X105304114Y-99171673D01*
X105302550Y-99157965D01*
X105305419Y-99142728D01*
X105313986Y-99122394D01*
X105329516Y-99093396D01*
X105353271Y-99052164D01*
X105362132Y-99036976D01*
X105391928Y-98988833D01*
X105416781Y-98956736D01*
X105439374Y-98938748D01*
X105462388Y-98932925D01*
X105488510Y-98937327D01*
G37*
G36*
X103535846Y-95972515D02*
G01*
X103560901Y-95977877D01*
X103617476Y-95993008D01*
X103657010Y-96009058D01*
X103681985Y-96027640D01*
X103694886Y-96050370D01*
X103697890Y-96067001D01*
X103695151Y-96104296D01*
X103678167Y-96130501D01*
X103651902Y-96146897D01*
X103631657Y-96154507D01*
X103611119Y-96156577D01*
X103584374Y-96152851D01*
X103545509Y-96143069D01*
X103541900Y-96142072D01*
X103441540Y-96122491D01*
X103335548Y-96118160D01*
X103222529Y-96129227D01*
X103101094Y-96155842D01*
X102969848Y-96198155D01*
X102950318Y-96205451D01*
X102895806Y-96224302D01*
X102855323Y-96233237D01*
X102825919Y-96232008D01*
X102804642Y-96220367D01*
X102788543Y-96198065D01*
X102785343Y-96191574D01*
X102777326Y-96156141D01*
X102783379Y-96126860D01*
X102792640Y-96107424D01*
X102806879Y-96092629D01*
X102830948Y-96078603D01*
X102860318Y-96065427D01*
X103001779Y-96013408D01*
X103141826Y-95977886D01*
X103278695Y-95959083D01*
X103410624Y-95957219D01*
X103535846Y-95972515D01*
G37*
G36*
X105180209Y-99353524D02*
G01*
X105208050Y-99376134D01*
X105214064Y-99384089D01*
X105227692Y-99410568D01*
X105229641Y-99436747D01*
X105218782Y-99464548D01*
X105193984Y-99495893D01*
X105154115Y-99532707D01*
X105102676Y-99573417D01*
X104981430Y-99654846D01*
X104848349Y-99725741D01*
X104707921Y-99784285D01*
X104564631Y-99828664D01*
X104422970Y-99857058D01*
X104392381Y-99860989D01*
X104343838Y-99866085D01*
X104310255Y-99867833D01*
X104287261Y-99865718D01*
X104270484Y-99859223D01*
X104255554Y-99847832D01*
X104251836Y-99844384D01*
X104232124Y-99818278D01*
X104228709Y-99789309D01*
X104235541Y-99763482D01*
X104248443Y-99739145D01*
X104268796Y-99722436D01*
X104300576Y-99711255D01*
X104347759Y-99703502D01*
X104349450Y-99703300D01*
X104489008Y-99678507D01*
X104629008Y-99637853D01*
X104765406Y-99583086D01*
X104894160Y-99515946D01*
X105011227Y-99438181D01*
X105066292Y-99393994D01*
X105110217Y-99362396D01*
X105147894Y-99348925D01*
X105180209Y-99353524D01*
G37*
G36*
X103900011Y-98934694D02*
G01*
X103922358Y-98941324D01*
X103937586Y-98956069D01*
X103949278Y-98977857D01*
X103958694Y-99006694D01*
X103960442Y-99031998D01*
X103959172Y-99037507D01*
X103948352Y-99053481D01*
X103926322Y-99077351D01*
X103897145Y-99104842D01*
X103885666Y-99114811D01*
X103774371Y-99198283D01*
X103648956Y-99272914D01*
X103513502Y-99336957D01*
X103372094Y-99388667D01*
X103228814Y-99426297D01*
X103112324Y-99445478D01*
X103071568Y-99449229D01*
X103036509Y-99450596D01*
X103012962Y-99449414D01*
X103008551Y-99448381D01*
X102992285Y-99435410D01*
X102975842Y-99411912D01*
X102972213Y-99404766D01*
X102960814Y-99370381D01*
X102962996Y-99342759D01*
X102979994Y-99320823D01*
X103013045Y-99303495D01*
X103063385Y-99289701D01*
X103114389Y-99280854D01*
X103275637Y-99247999D01*
X103427834Y-99197888D01*
X103571455Y-99130318D01*
X103706970Y-99045092D01*
X103746966Y-99015399D01*
X103792126Y-98981068D01*
X103825335Y-98957375D01*
X103849802Y-98942631D01*
X103868730Y-98935141D01*
X103885329Y-98933217D01*
X103900011Y-98934694D01*
G37*
G36*
X102185421Y-98309627D02*
G01*
X102234903Y-98334245D01*
X102285903Y-98376916D01*
X102321185Y-98427500D01*
X102341420Y-98483277D01*
X102347277Y-98541522D01*
X102339428Y-98599512D01*
X102318544Y-98654527D01*
X102285295Y-98703842D01*
X102240354Y-98744734D01*
X102184389Y-98774482D01*
X102122655Y-98789810D01*
X102082944Y-98788641D01*
X102035724Y-98778233D01*
X101989096Y-98761097D01*
X101951162Y-98739747D01*
X101944703Y-98734660D01*
X101899995Y-98684734D01*
X101871051Y-98626803D01*
X101857942Y-98564329D01*
X101859761Y-98522993D01*
X102020914Y-98522993D01*
X102020935Y-98558030D01*
X102026792Y-98576154D01*
X102046580Y-98604471D01*
X102073664Y-98619488D01*
X102108773Y-98625167D01*
X102137424Y-98616421D01*
X102167632Y-98591799D01*
X102183020Y-98558756D01*
X102181908Y-98522390D01*
X102174360Y-98504047D01*
X102149536Y-98475134D01*
X102119336Y-98461528D01*
X102087568Y-98461371D01*
X102058037Y-98472803D01*
X102034550Y-98493964D01*
X102020914Y-98522993D01*
X101859761Y-98522993D01*
X101860739Y-98500778D01*
X101870702Y-98468320D01*
X101879513Y-98439610D01*
X101914335Y-98384292D01*
X101937018Y-98360607D01*
X101993503Y-98321283D01*
X102055810Y-98299494D01*
X102120821Y-98295516D01*
X102185421Y-98309627D01*
G37*
G36*
X101995051Y-97366389D02*
G01*
X102051487Y-97379391D01*
X102108658Y-97400373D01*
X102159690Y-97426832D01*
X102196130Y-97454680D01*
X102239509Y-97508979D01*
X102272966Y-97573244D01*
X102292864Y-97640026D01*
X102295536Y-97658394D01*
X102297983Y-97690636D01*
X102296657Y-97718206D01*
X102290454Y-97747667D01*
X102278268Y-97785580D01*
X102270436Y-97807430D01*
X102248435Y-97861381D01*
X102224956Y-97902008D01*
X102195371Y-97935270D01*
X102155055Y-97967128D01*
X102136792Y-97979553D01*
X102094809Y-97999717D01*
X102041287Y-98014543D01*
X101983855Y-98022440D01*
X101932844Y-98022092D01*
X101887440Y-98016158D01*
X101852134Y-98006748D01*
X101817486Y-97990752D01*
X101790656Y-97975234D01*
X101732000Y-97929109D01*
X101687209Y-97871895D01*
X101656649Y-97806625D01*
X101640687Y-97736337D01*
X101640171Y-97699015D01*
X101798875Y-97699015D01*
X101810524Y-97750932D01*
X101839271Y-97801648D01*
X101879048Y-97837736D01*
X101927403Y-97857731D01*
X101981883Y-97860164D01*
X101990868Y-97858849D01*
X102045150Y-97840871D01*
X102087960Y-97809400D01*
X102117485Y-97767462D01*
X102131915Y-97718085D01*
X102129439Y-97664294D01*
X102122247Y-97639235D01*
X102096786Y-97591368D01*
X102059295Y-97557773D01*
X102023869Y-97540952D01*
X101967604Y-97529251D01*
X101915119Y-97535745D01*
X101872050Y-97557663D01*
X101829740Y-97599157D01*
X101805143Y-97646919D01*
X101798875Y-97699015D01*
X101640171Y-97699015D01*
X101639687Y-97664065D01*
X101654017Y-97592841D01*
X101654374Y-97592043D01*
X101684041Y-97525704D01*
X101729350Y-97466483D01*
X101784222Y-97422094D01*
X101850050Y-97387928D01*
X101919564Y-97367426D01*
X101946228Y-97363865D01*
X101995051Y-97366389D01*
G37*
G36*
X103684047Y-94867619D02*
G01*
X103701313Y-94871200D01*
X103725311Y-94877959D01*
X103757977Y-94888488D01*
X103801248Y-94903379D01*
X103857063Y-94923222D01*
X103927356Y-94948607D01*
X104013634Y-94979970D01*
X104108831Y-95014606D01*
X104187179Y-95043440D01*
X104250122Y-95067540D01*
X104299103Y-95087970D01*
X104335565Y-95105795D01*
X104360953Y-95122080D01*
X104376711Y-95137889D01*
X104384281Y-95154288D01*
X104385108Y-95172341D01*
X104380634Y-95193114D01*
X104372305Y-95217671D01*
X104364540Y-95238819D01*
X104332960Y-95303581D01*
X104288152Y-95365876D01*
X104235727Y-95418068D01*
X104228683Y-95423685D01*
X104197914Y-95444206D01*
X104160053Y-95464836D01*
X104120798Y-95482972D01*
X104085843Y-95496009D01*
X104060887Y-95501345D01*
X104058785Y-95501342D01*
X104049241Y-95502911D01*
X104047008Y-95511202D01*
X104052460Y-95529951D01*
X104064621Y-95559735D01*
X104082520Y-95609624D01*
X104090884Y-95656666D01*
X104090164Y-95707500D01*
X104080813Y-95768762D01*
X104079345Y-95776088D01*
X104064002Y-95851358D01*
X104145942Y-95925622D01*
X104185068Y-95962384D01*
X104224112Y-96001270D01*
X104257472Y-96036602D01*
X104272938Y-96054346D01*
X104317993Y-96108804D01*
X104387100Y-96095645D01*
X104426912Y-96089719D01*
X104478396Y-96084374D01*
X104533534Y-96080358D01*
X104859802Y-96080358D01*
X104862085Y-96086626D01*
X104870756Y-96093493D01*
X104888242Y-96102169D01*
X104916964Y-96113866D01*
X104959348Y-96129795D01*
X105014564Y-96149983D01*
X105174526Y-96208205D01*
X105179338Y-96178767D01*
X105180112Y-96127580D01*
X105167591Y-96077711D01*
X105143957Y-96035107D01*
X105117157Y-96009317D01*
X105079770Y-95991675D01*
X105034307Y-95980850D01*
X104989992Y-95978524D01*
X104967440Y-95982003D01*
X104934198Y-95997520D01*
X104900490Y-96023103D01*
X104873261Y-96052752D01*
X104861486Y-96073474D01*
X104859802Y-96080358D01*
X104533534Y-96080358D01*
X104533685Y-96080347D01*
X104567261Y-96078806D01*
X104678316Y-96075128D01*
X104708941Y-96017953D01*
X104714599Y-96007391D01*
X104760930Y-95936719D01*
X104815142Y-95882241D01*
X104874921Y-95845717D01*
X104918514Y-95826464D01*
X104886571Y-95777184D01*
X104845399Y-95696894D01*
X104822534Y-95612523D01*
X104818537Y-95532084D01*
X104980714Y-95532084D01*
X104982689Y-95583750D01*
X104996020Y-95633493D01*
X105022263Y-95684798D01*
X105062973Y-95741150D01*
X105086501Y-95769170D01*
X105133469Y-95823194D01*
X105198449Y-95813559D01*
X105244200Y-95804344D01*
X105292878Y-95790873D01*
X105321216Y-95780948D01*
X105367569Y-95758182D01*
X105405604Y-95731151D01*
X105430915Y-95703265D01*
X105436969Y-95691378D01*
X105436985Y-95686228D01*
X105431968Y-95680422D01*
X105419907Y-95673082D01*
X105398792Y-95663326D01*
X105366610Y-95650274D01*
X105321351Y-95633044D01*
X105261005Y-95610758D01*
X105212191Y-95592943D01*
X104982070Y-95509186D01*
X104980714Y-95532084D01*
X104818537Y-95532084D01*
X104818251Y-95526334D01*
X104830543Y-95454034D01*
X104832829Y-95440590D01*
X104841904Y-95412565D01*
X104852069Y-95384507D01*
X104861438Y-95361743D01*
X104871797Y-95344388D01*
X104884940Y-95332551D01*
X104902655Y-95326346D01*
X104926734Y-95325884D01*
X104958967Y-95331279D01*
X105001143Y-95342641D01*
X105055055Y-95360084D01*
X105122492Y-95383719D01*
X105205243Y-95413660D01*
X105277097Y-95439832D01*
X105363703Y-95471395D01*
X105433799Y-95497109D01*
X105489247Y-95517764D01*
X105531912Y-95534154D01*
X105563659Y-95547071D01*
X105586350Y-95557308D01*
X105601850Y-95565658D01*
X105612022Y-95572912D01*
X105618730Y-95579864D01*
X105623817Y-95587270D01*
X105635074Y-95619033D01*
X105632506Y-95657600D01*
X105615718Y-95705135D01*
X105595193Y-95745089D01*
X105548632Y-95812475D01*
X105491667Y-95870069D01*
X105427914Y-95914989D01*
X105360996Y-95944357D01*
X105337061Y-95950519D01*
X105297932Y-95958635D01*
X105319008Y-96012535D01*
X105340294Y-96087009D01*
X105344072Y-96160015D01*
X105330630Y-96237148D01*
X105330531Y-96237512D01*
X105311622Y-96307117D01*
X105371314Y-96357339D01*
X105480618Y-96461203D01*
X105582341Y-96582017D01*
X105675734Y-96718422D01*
X105760046Y-96869062D01*
X105834524Y-97032579D01*
X105898420Y-97207616D01*
X105950981Y-97392814D01*
X105956269Y-97414722D01*
X106005342Y-97657983D01*
X106035840Y-97896156D01*
X106047752Y-98130236D01*
X106041071Y-98361213D01*
X106015790Y-98590081D01*
X105971900Y-98817829D01*
X105944152Y-98927292D01*
X105887294Y-99098594D01*
X105812321Y-99263019D01*
X105719647Y-99419893D01*
X105609684Y-99568543D01*
X105482847Y-99708295D01*
X105439475Y-99750355D01*
X105358316Y-99823563D01*
X105280953Y-99885959D01*
X105202386Y-99940892D01*
X105117613Y-99991709D01*
X105021634Y-100041761D01*
X104960825Y-100070843D01*
X104854526Y-100118041D01*
X104758095Y-100155216D01*
X104665753Y-100184049D01*
X104571720Y-100206216D01*
X104470215Y-100223398D01*
X104407647Y-100231504D01*
X104247863Y-100244367D01*
X104094557Y-100243734D01*
X103942374Y-100229200D01*
X103785956Y-100200364D01*
X103694293Y-100177758D01*
X103552751Y-100132088D01*
X103408983Y-100070837D01*
X103268013Y-99996564D01*
X103134864Y-99911832D01*
X103052672Y-99850598D01*
X102978493Y-99791545D01*
X102872832Y-99788097D01*
X102785401Y-99780953D01*
X103233585Y-99780953D01*
X103245637Y-99790226D01*
X103270725Y-99806697D01*
X103304864Y-99827972D01*
X103344069Y-99851655D01*
X103384354Y-99875354D01*
X103421733Y-99896672D01*
X103452221Y-99913216D01*
X103461920Y-99918120D01*
X103512270Y-99940363D01*
X103575643Y-99964898D01*
X103646014Y-99989670D01*
X103717356Y-100012628D01*
X103783644Y-100031718D01*
X103825759Y-100042114D01*
X104003524Y-100071824D01*
X104181293Y-100082217D01*
X104357973Y-100073486D01*
X104532471Y-100045821D01*
X104703692Y-99999415D01*
X104870546Y-99934458D01*
X105031936Y-99851143D01*
X105079009Y-99822669D01*
X105225705Y-99720242D01*
X105357436Y-99605938D01*
X105474350Y-99479508D01*
X105576595Y-99340706D01*
X105664315Y-99189281D01*
X105737660Y-99024988D01*
X105796774Y-98847579D01*
X105841807Y-98656803D01*
X105868317Y-98490320D01*
X105873079Y-98446438D01*
X105877504Y-98393681D01*
X105881400Y-98336094D01*
X105884571Y-98277726D01*
X105886826Y-98222620D01*
X105887970Y-98174824D01*
X105887811Y-98138383D01*
X105886155Y-98117343D01*
X105886144Y-98117290D01*
X105879446Y-98110205D01*
X105861375Y-98108999D01*
X105828689Y-98113595D01*
X105817541Y-98115703D01*
X105756282Y-98126208D01*
X105705293Y-98130620D01*
X105658461Y-98128398D01*
X105609678Y-98118996D01*
X105552832Y-98101873D01*
X105515610Y-98088857D01*
X105463447Y-98069594D01*
X105424402Y-98053530D01*
X105393011Y-98037827D01*
X105363809Y-98019649D01*
X105331333Y-97996155D01*
X105318882Y-97986689D01*
X105241968Y-97935164D01*
X105165459Y-97900146D01*
X105083718Y-97879555D01*
X105007478Y-97871918D01*
X104957811Y-97867896D01*
X104905958Y-97860933D01*
X104861977Y-97852419D01*
X104856328Y-97851002D01*
X104822174Y-97842599D01*
X104802641Y-97839975D01*
X104793625Y-97843329D01*
X104791024Y-97852854D01*
X104790960Y-97854117D01*
X104780354Y-98013540D01*
X104761688Y-98160989D01*
X104733705Y-98302806D01*
X104695148Y-98445333D01*
X104644762Y-98594913D01*
X104643493Y-98598380D01*
X104618261Y-98666602D01*
X104597694Y-98720241D01*
X104580024Y-98763160D01*
X104563481Y-98799224D01*
X104546296Y-98832298D01*
X104526697Y-98866246D01*
X104503726Y-98903640D01*
X104392660Y-99064185D01*
X104269381Y-99210049D01*
X104134557Y-99340748D01*
X103988854Y-99455799D01*
X103832942Y-99554721D01*
X103667488Y-99637032D01*
X103493160Y-99702248D01*
X103340920Y-99743341D01*
X103286278Y-99756610D01*
X103250787Y-99767562D01*
X103234206Y-99776283D01*
X103233585Y-99780953D01*
X102785401Y-99780953D01*
X102701176Y-99774071D01*
X102529720Y-99743807D01*
X102362773Y-99698353D01*
X102204649Y-99638759D01*
X102144257Y-99610914D01*
X101978689Y-99519643D01*
X101824746Y-99413479D01*
X101683287Y-99293526D01*
X101555171Y-99160892D01*
X101441257Y-99016680D01*
X101342407Y-98861997D01*
X101259479Y-98697948D01*
X101193332Y-98525639D01*
X101144827Y-98346175D01*
X101139020Y-98318176D01*
X101112600Y-98138461D01*
X101104102Y-97957045D01*
X101106644Y-97906916D01*
X101267760Y-97906916D01*
X101271613Y-98082411D01*
X101294108Y-98255328D01*
X101334451Y-98424219D01*
X101391849Y-98587634D01*
X101465509Y-98744125D01*
X101554635Y-98892241D01*
X101658434Y-99030537D01*
X101776113Y-99157561D01*
X101906878Y-99271864D01*
X102049934Y-99371999D01*
X102080627Y-99390598D01*
X102122569Y-99414972D01*
X102162135Y-99437266D01*
X102194003Y-99454517D01*
X102208855Y-99461994D01*
X102257553Y-99483132D01*
X102317319Y-99506563D01*
X102382251Y-99530204D01*
X102446449Y-99551972D01*
X102504012Y-99569785D01*
X102545371Y-99580737D01*
X102723970Y-99612104D01*
X102797310Y-99617265D01*
X102901716Y-99624612D01*
X103077377Y-99618769D01*
X103249725Y-99595081D01*
X103417528Y-99554055D01*
X103579558Y-99496201D01*
X103734585Y-99422024D01*
X103881379Y-99332031D01*
X104018710Y-99226731D01*
X104145350Y-99106630D01*
X104260067Y-98972236D01*
X104355542Y-98833955D01*
X104427972Y-98701422D01*
X104490686Y-98553984D01*
X104542910Y-98394109D01*
X104583867Y-98224267D01*
X104612783Y-98046924D01*
X104618568Y-97996725D01*
X104623648Y-97941402D01*
X104627839Y-97882390D01*
X104631020Y-97823321D01*
X104633068Y-97767826D01*
X104633863Y-97719535D01*
X104633282Y-97682083D01*
X104631205Y-97659101D01*
X104630011Y-97654945D01*
X104617124Y-97649379D01*
X104590035Y-97653805D01*
X104584724Y-97655385D01*
X104531170Y-97666788D01*
X104467291Y-97672204D01*
X104401513Y-97671118D01*
X104372848Y-97668283D01*
X104311087Y-97654592D01*
X104241610Y-97629881D01*
X104170551Y-97596911D01*
X104104044Y-97558441D01*
X104061493Y-97528159D01*
X103987661Y-97477895D01*
X103912083Y-97443804D01*
X103829641Y-97424040D01*
X103753591Y-97417243D01*
X103709579Y-97414856D01*
X103672988Y-97410407D01*
X103637194Y-97402482D01*
X103595573Y-97389666D01*
X103551011Y-97373996D01*
X103499663Y-97354771D01*
X103460803Y-97338081D01*
X103428259Y-97320674D01*
X103395857Y-97299303D01*
X103363418Y-97275295D01*
X103287842Y-97224372D01*
X103214501Y-97189632D01*
X103138221Y-97169178D01*
X103053825Y-97161115D01*
X103051527Y-97161054D01*
X103010802Y-97159304D01*
X102976396Y-97155456D01*
X102942237Y-97148216D01*
X102902251Y-97136290D01*
X102850363Y-97118382D01*
X102848925Y-97117870D01*
X102797496Y-97099003D01*
X102758954Y-97083057D01*
X102727562Y-97067046D01*
X102697582Y-97047987D01*
X102663277Y-97022894D01*
X102656621Y-97017827D01*
X102586949Y-96970005D01*
X102520253Y-96936946D01*
X102450076Y-96916301D01*
X102369964Y-96905720D01*
X102344498Y-96904224D01*
X102301169Y-96901644D01*
X102265722Y-96897538D01*
X102232136Y-96890561D01*
X102194390Y-96879369D01*
X102146464Y-96862618D01*
X102128163Y-96855927D01*
X102065268Y-96831398D01*
X102016302Y-96808082D01*
X101976233Y-96782468D01*
X101940032Y-96751046D01*
X101902669Y-96710301D01*
X101879614Y-96682415D01*
X101855259Y-96654042D01*
X101838975Y-96639944D01*
X101828148Y-96638037D01*
X101825720Y-96639417D01*
X101811691Y-96653571D01*
X101788847Y-96680568D01*
X101759584Y-96717251D01*
X101726297Y-96760458D01*
X101691382Y-96807032D01*
X101657236Y-96853813D01*
X101626251Y-96897643D01*
X101600825Y-96935363D01*
X101598160Y-96939486D01*
X101543931Y-97026184D01*
X101499107Y-97103733D01*
X101460715Y-97178104D01*
X101425784Y-97255269D01*
X101391346Y-97341199D01*
X101370659Y-97396770D01*
X101336048Y-97496832D01*
X101309907Y-97585660D01*
X101291070Y-97669017D01*
X101278376Y-97752669D01*
X101270663Y-97842380D01*
X101267760Y-97906916D01*
X101106644Y-97906916D01*
X101113272Y-97776227D01*
X101139852Y-97598305D01*
X101183587Y-97425578D01*
X101214956Y-97340098D01*
X101244223Y-97260341D01*
X101260945Y-97222744D01*
X101358127Y-97029234D01*
X101466170Y-96848274D01*
X101586997Y-96677253D01*
X101722527Y-96513561D01*
X101735446Y-96500063D01*
X101970511Y-96500063D01*
X101970555Y-96500382D01*
X101983229Y-96538787D01*
X102008430Y-96581219D01*
X102042225Y-96621176D01*
X102045519Y-96624396D01*
X102107490Y-96673011D01*
X102178874Y-96707953D01*
X102261868Y-96730035D01*
X102357480Y-96740025D01*
X102426681Y-96747014D01*
X102499496Y-96763094D01*
X102537352Y-96774249D01*
X102582441Y-96789160D01*
X102620055Y-96803952D01*
X102654882Y-96821164D01*
X102691605Y-96843338D01*
X102734910Y-96873015D01*
X102780461Y-96906086D01*
X102847492Y-96945973D01*
X102925939Y-96974756D01*
X103018033Y-96993131D01*
X103079134Y-96999334D01*
X103130515Y-97003456D01*
X103169235Y-97008291D01*
X103202146Y-97015445D01*
X103236104Y-97026527D01*
X103277964Y-97043143D01*
X103293419Y-97049587D01*
X103354841Y-97077267D01*
X103404235Y-97104470D01*
X103448600Y-97135151D01*
X103458336Y-97142724D01*
X103519737Y-97185388D01*
X103583676Y-97216788D01*
X103654761Y-97238527D01*
X103737600Y-97252210D01*
X103785735Y-97256593D01*
X103837162Y-97260715D01*
X103875902Y-97265538D01*
X103908793Y-97272664D01*
X103942666Y-97283691D01*
X103984356Y-97300224D01*
X104000285Y-97306865D01*
X104059452Y-97333395D01*
X104106644Y-97359078D01*
X104148826Y-97387869D01*
X104165118Y-97400551D01*
X104235995Y-97448165D01*
X104311994Y-97482850D01*
X104389524Y-97503724D01*
X104464991Y-97509903D01*
X104534804Y-97500504D01*
X104551254Y-97495514D01*
X104580127Y-97484406D01*
X104600323Y-97471950D01*
X104612803Y-97454955D01*
X104618527Y-97430235D01*
X104618461Y-97394602D01*
X104613565Y-97344864D01*
X104608541Y-97305665D01*
X104572772Y-97092239D01*
X104523959Y-96890813D01*
X104462375Y-96702136D01*
X104388296Y-96526960D01*
X104301996Y-96366037D01*
X104228156Y-96254401D01*
X104421233Y-96254401D01*
X104460216Y-96325693D01*
X104556070Y-96521057D01*
X104636029Y-96727134D01*
X104699808Y-96942894D01*
X104747130Y-97167305D01*
X104777710Y-97399339D01*
X104786897Y-97522587D01*
X104793953Y-97649909D01*
X104859349Y-97676785D01*
X104901207Y-97691850D01*
X104942836Y-97701412D01*
X104992343Y-97707106D01*
X105018114Y-97708775D01*
X105062529Y-97712020D01*
X105100156Y-97717254D01*
X105137476Y-97725929D01*
X105180969Y-97739498D01*
X105226298Y-97755483D01*
X105279492Y-97775423D01*
X105319318Y-97792368D01*
X105351099Y-97809014D01*
X105380159Y-97828054D01*
X105401874Y-97844359D01*
X105479274Y-97898278D01*
X105552531Y-97935489D01*
X105625023Y-97957318D01*
X105700126Y-97965088D01*
X105709638Y-97965139D01*
X105758947Y-97960378D01*
X105807385Y-97947988D01*
X105847758Y-97930147D01*
X105864674Y-97918137D01*
X105870522Y-97908981D01*
X105873332Y-97892744D01*
X105873035Y-97866536D01*
X105869565Y-97827469D01*
X105862857Y-97772652D01*
X105861004Y-97758667D01*
X105827035Y-97554167D01*
X105781617Y-97361605D01*
X105725106Y-97181686D01*
X105657859Y-97015120D01*
X105580230Y-96862611D01*
X105492577Y-96724868D01*
X105395255Y-96602597D01*
X105288621Y-96496505D01*
X105184059Y-96414804D01*
X105118614Y-96375150D01*
X105040816Y-96336651D01*
X104957765Y-96302321D01*
X104876559Y-96275166D01*
X104822829Y-96261667D01*
X104709919Y-96245359D01*
X104591474Y-96240879D01*
X104499614Y-96246155D01*
X104421233Y-96254401D01*
X104228156Y-96254401D01*
X104219993Y-96242060D01*
X104148261Y-96155047D01*
X104124809Y-96126600D01*
X104019107Y-96026840D01*
X103903992Y-95943322D01*
X103780571Y-95876582D01*
X103649952Y-95827160D01*
X103513242Y-95795597D01*
X103371546Y-95782431D01*
X103279591Y-95783861D01*
X103135051Y-95801123D01*
X102985886Y-95836268D01*
X102833495Y-95888589D01*
X102679274Y-95957381D01*
X102524624Y-96041938D01*
X102370941Y-96141556D01*
X102219622Y-96255528D01*
X102072068Y-96383150D01*
X102048802Y-96404883D01*
X102010897Y-96441752D01*
X101986392Y-96468467D01*
X101973519Y-96487184D01*
X101970511Y-96500063D01*
X101735446Y-96500063D01*
X101806097Y-96426248D01*
X101874685Y-96354587D01*
X101958823Y-96274931D01*
X102117649Y-96138094D01*
X102279368Y-96016189D01*
X102442902Y-95909719D01*
X102607179Y-95819189D01*
X102771122Y-95745101D01*
X102933657Y-95687961D01*
X103093708Y-95648271D01*
X103192798Y-95634508D01*
X103598308Y-95634508D01*
X103758270Y-95692729D01*
X103815966Y-95713625D01*
X103857971Y-95728383D01*
X103886918Y-95737633D01*
X103905444Y-95742002D01*
X103916183Y-95742125D01*
X103921771Y-95738628D01*
X103924713Y-95732517D01*
X103929358Y-95698776D01*
X103925356Y-95657379D01*
X103914172Y-95617393D01*
X103902344Y-95594340D01*
X103874782Y-95566393D01*
X103835902Y-95541385D01*
X103793851Y-95523958D01*
X103770098Y-95519027D01*
X103725622Y-95523380D01*
X103680381Y-95543087D01*
X103639868Y-95574995D01*
X103613544Y-95608865D01*
X103598308Y-95634508D01*
X103192798Y-95634508D01*
X103250202Y-95626535D01*
X103351695Y-95622267D01*
X103429706Y-95622156D01*
X103449046Y-95580181D01*
X103460356Y-95555633D01*
X103493607Y-95498745D01*
X103536545Y-95447955D01*
X103584717Y-95407774D01*
X103629725Y-95384091D01*
X103666557Y-95370628D01*
X103648920Y-95348014D01*
X103624270Y-95308710D01*
X103600605Y-95257898D01*
X103581027Y-95203500D01*
X103568636Y-95153430D01*
X103566492Y-95137570D01*
X103565644Y-95088360D01*
X103725442Y-95088360D01*
X103725550Y-95104642D01*
X103725602Y-95107829D01*
X103733161Y-95148592D01*
X103753368Y-95197610D01*
X103784020Y-95250434D01*
X103820766Y-95300039D01*
X103874500Y-95364863D01*
X103930014Y-95358350D01*
X103973379Y-95351435D01*
X104020432Y-95341279D01*
X104040859Y-95335880D01*
X104095255Y-95312869D01*
X104145512Y-95278455D01*
X104181379Y-95241150D01*
X104195058Y-95222737D01*
X103964938Y-95138980D01*
X103892312Y-95112552D01*
X103836023Y-95092408D01*
X103794001Y-95078274D01*
X103764177Y-95069883D01*
X103744478Y-95066966D01*
X103732836Y-95069252D01*
X103727182Y-95076474D01*
X103725442Y-95088360D01*
X103565644Y-95088360D01*
X103565628Y-95087443D01*
X103570712Y-95032096D01*
X103572878Y-95020312D01*
X103580609Y-94978274D01*
X103594190Y-94932725D01*
X103604576Y-94910546D01*
X103628095Y-94884269D01*
X103653260Y-94870046D01*
X103661957Y-94867634D01*
X103671574Y-94866628D01*
X103684047Y-94867619D01*
G37*
D11*
X134650000Y-66850000D03*
X134650000Y-64950000D03*
X131950000Y-65900000D03*
D12*
X140500000Y-113100000D03*
X140500000Y-115100000D03*
D13*
X144300000Y-131050000D03*
D14*
X145640000Y-131600000D03*
X142960000Y-131600000D03*
D12*
X113500000Y-121000000D03*
X113500000Y-123000000D03*
D15*
X106250000Y-86025000D03*
X106250000Y-93975000D03*
X101750000Y-86025000D03*
X101750000Y-93975000D03*
D16*
X132550000Y-112350000D03*
X132550000Y-115650000D03*
X137450000Y-115650000D03*
X137450000Y-112350000D03*
D17*
X147000000Y-116500000D03*
X145000000Y-116500000D03*
X123700000Y-71000000D03*
X121700000Y-71000000D03*
D18*
X150500000Y-115275000D03*
X150000000Y-115275000D03*
X149500000Y-115275000D03*
D19*
X149000000Y-115275000D03*
D18*
X149000000Y-117625000D03*
X149500000Y-117625000D03*
X150000000Y-117625000D03*
X150500000Y-117625000D03*
D20*
X149750000Y-116450000D03*
D21*
X123100000Y-74050000D03*
X123100000Y-75950000D03*
X125800000Y-75000000D03*
X145500000Y-121050000D03*
X145500000Y-122950000D03*
X148200000Y-122000000D03*
D22*
X104210000Y-61578885D03*
X102000000Y-61578885D03*
D23*
X103100000Y-63728885D03*
X103100000Y-66728885D03*
D22*
X104210000Y-68878885D03*
X102000000Y-68878885D03*
D24*
X104860000Y-62978885D03*
X104860000Y-65978885D03*
X104860000Y-67478885D03*
D25*
X114300000Y-64340000D03*
X114300000Y-66880000D03*
X114300000Y-69420000D03*
X114300000Y-71960000D03*
X114300000Y-74500000D03*
X114300000Y-77040000D03*
X114300000Y-79580000D03*
X114300000Y-82120000D03*
D26*
X115570000Y-65610000D03*
X115570000Y-80850000D03*
D25*
X116840000Y-64340000D03*
X116840000Y-66880000D03*
X116840000Y-69420000D03*
X116840000Y-71960000D03*
X116840000Y-74500000D03*
X116840000Y-77040000D03*
X116840000Y-79580000D03*
X116840000Y-82120000D03*
D27*
X112660000Y-64340000D03*
X118480000Y-64340000D03*
X112660000Y-66880000D03*
X118480000Y-66880000D03*
X112660000Y-69420000D03*
X118480000Y-69420000D03*
X112660000Y-71960000D03*
X118480000Y-71960000D03*
X112660000Y-74500000D03*
X118480000Y-74500000D03*
X112660000Y-77040000D03*
X118480000Y-77040000D03*
X112660000Y-79580000D03*
X118480000Y-79580000D03*
X112660000Y-82120000D03*
X118480000Y-82120000D03*
D28*
X131150000Y-82000000D03*
X122800000Y-82000000D03*
D29*
X150600000Y-121000000D03*
X152600000Y-121000000D03*
X130200000Y-71000000D03*
X132200000Y-71000000D03*
D30*
X108160000Y-131675000D03*
D26*
X110700000Y-131675000D03*
X113240000Y-131675000D03*
D31*
X152200000Y-124600000D03*
D32*
X152200000Y-127140000D03*
D12*
X140400000Y-129200000D03*
X140400000Y-131200000D03*
D33*
X103500000Y-53500000D03*
D29*
X126600000Y-126200000D03*
X128600000Y-126200000D03*
D17*
X147000000Y-112500000D03*
X145000000Y-112500000D03*
X123400000Y-89400000D03*
X121400000Y-89400000D03*
D12*
X113500000Y-113000000D03*
X113500000Y-115000000D03*
D25*
X114300000Y-84660000D03*
X114300000Y-87200000D03*
X114300000Y-89740000D03*
X114300000Y-92280000D03*
X114300000Y-94820000D03*
X114300000Y-97360000D03*
X114300000Y-99900000D03*
X114300000Y-102440000D03*
D26*
X115570000Y-85930000D03*
X115570000Y-101170000D03*
D25*
X116840000Y-84660000D03*
X116840000Y-87200000D03*
X116840000Y-89740000D03*
X116840000Y-92280000D03*
X116840000Y-94820000D03*
X116840000Y-97360000D03*
X116840000Y-99900000D03*
X116840000Y-102440000D03*
D27*
X112660000Y-84660000D03*
X118480000Y-84660000D03*
X112660000Y-87200000D03*
X118480000Y-87200000D03*
X112660000Y-89740000D03*
X118480000Y-89740000D03*
X112660000Y-92280000D03*
X118480000Y-92280000D03*
X112660000Y-94820000D03*
X118480000Y-94820000D03*
X112660000Y-97360000D03*
X118480000Y-97360000D03*
X112660000Y-99900000D03*
X118480000Y-99900000D03*
X112660000Y-102440000D03*
X118480000Y-102440000D03*
D33*
X150500000Y-132500000D03*
D25*
X137160000Y-74500000D03*
X137160000Y-77040000D03*
X137160000Y-79580000D03*
X137160000Y-82120000D03*
X137160000Y-84660000D03*
X137160000Y-87200000D03*
X137160000Y-89740000D03*
X137160000Y-92280000D03*
X137160000Y-94820000D03*
X137160000Y-97360000D03*
X137160000Y-99900000D03*
X137160000Y-102440000D03*
D26*
X138430000Y-75770000D03*
X138430000Y-101170000D03*
D25*
X139700000Y-74500000D03*
X139700000Y-77040000D03*
X139700000Y-79580000D03*
X139700000Y-82120000D03*
X139700000Y-84660000D03*
X139700000Y-87200000D03*
X139700000Y-89740000D03*
X139700000Y-92280000D03*
X139700000Y-94820000D03*
X139700000Y-97360000D03*
X139700000Y-99900000D03*
X139700000Y-102440000D03*
D27*
X135520000Y-74500000D03*
X141340000Y-74500000D03*
X135520000Y-77040000D03*
X141340000Y-77040000D03*
X135520000Y-79580000D03*
X141340000Y-79580000D03*
X135520000Y-82120000D03*
X141340000Y-82120000D03*
X135520000Y-84660000D03*
X141340000Y-84660000D03*
X135520000Y-87200000D03*
X141340000Y-87200000D03*
X135520000Y-89740000D03*
X141340000Y-89740000D03*
X135520000Y-92280000D03*
X141340000Y-92280000D03*
X135520000Y-94820000D03*
X141340000Y-94820000D03*
X135520000Y-97360000D03*
X141340000Y-97360000D03*
X135520000Y-99900000D03*
X141340000Y-99900000D03*
X135520000Y-102440000D03*
X141340000Y-102440000D03*
D15*
X106250000Y-75025000D03*
X106250000Y-82975000D03*
X101750000Y-75025000D03*
X101750000Y-82975000D03*
D31*
X139960000Y-52060000D03*
D32*
X139960000Y-54600000D03*
X142500000Y-52060000D03*
X142500000Y-54600000D03*
D34*
X143000000Y-123000000D03*
X143000000Y-121000000D03*
D16*
X116550000Y-128350000D03*
X116550000Y-131650000D03*
X121450000Y-131650000D03*
X121450000Y-128350000D03*
D35*
X147750000Y-82975000D03*
X147750000Y-75025000D03*
X152250000Y-82975000D03*
X152250000Y-75025000D03*
D11*
X124050000Y-101575000D03*
X124050000Y-99675000D03*
X121350000Y-100625000D03*
D21*
X124200000Y-91250000D03*
X124200000Y-92200000D03*
X124200000Y-93150000D03*
X126900000Y-93150000D03*
X126900000Y-91250000D03*
D34*
X113500000Y-128800000D03*
X113500000Y-126800000D03*
D29*
X122300000Y-95700000D03*
X124300000Y-95700000D03*
D16*
X132550000Y-128350000D03*
X132550000Y-131650000D03*
X137450000Y-131650000D03*
X137450000Y-128350000D03*
X124550000Y-120350000D03*
X124550000Y-123650000D03*
X129450000Y-123650000D03*
X129450000Y-120350000D03*
D36*
X135050000Y-62400000D03*
D37*
X132675000Y-62400000D03*
D16*
X116550000Y-112350000D03*
X116550000Y-115650000D03*
X121450000Y-115650000D03*
X121450000Y-112350000D03*
D33*
X150500000Y-53500000D03*
D38*
X145600000Y-126100000D03*
D26*
X143060000Y-126100000D03*
D33*
X103500000Y-132500000D03*
D12*
X140500000Y-121000000D03*
X140500000Y-123000000D03*
D35*
X147750000Y-93975000D03*
X147750000Y-86025000D03*
X152250000Y-93975000D03*
X152250000Y-86025000D03*
D17*
X132200000Y-68800000D03*
X130200000Y-68800000D03*
X147000000Y-114500000D03*
X145000000Y-114500000D03*
D39*
X131650000Y-75000000D03*
X128350000Y-75000000D03*
D16*
X116550000Y-120350000D03*
X116550000Y-123650000D03*
X121450000Y-123650000D03*
X121450000Y-120350000D03*
X132550000Y-120350000D03*
X132550000Y-123650000D03*
X137450000Y-123650000D03*
X137450000Y-120350000D03*
D40*
X127000000Y-63000000D03*
D41*
X127000000Y-70620000D03*
X127000000Y-98050000D03*
X127000000Y-105670000D03*
D40*
X145000000Y-62950000D03*
D41*
X145000000Y-70570000D03*
X145000000Y-98000000D03*
X145000000Y-105620000D03*
D40*
X109000000Y-62950000D03*
D41*
X109000000Y-70570000D03*
X109000000Y-98000000D03*
X109000000Y-105620000D03*
M02*
